<svg xmlns="http://www.w3.org/2000/svg" width="1100" height="620" viewBox="0 0 1100 620">
<title>R_20_statistics Truck replacement greedy Deltas</title>
<rect x="0" y="0" width="1100" height="620" fill="white" />
<text x="550.0" y="34" text-anchor="middle" font-size="24" font-family="Arial, sans-serif">R_20_statistics Truck replacement greedy Deltas</text>
<line x1="90" y1="540.00" x2="840" y2="540.00" stroke="#dddddd" stroke-width="1" />
<text x="80" y="544.00" text-anchor="end" font-size="12" font-family="Arial, sans-serif">-541.9</text>
<line x1="90" y1="446.00" x2="840" y2="446.00" stroke="#dddddd" stroke-width="1" />
<text x="80" y="450.00" text-anchor="end" font-size="12" font-family="Arial, sans-serif">-382.7</text>
<line x1="90" y1="352.00" x2="840" y2="352.00" stroke="#dddddd" stroke-width="1" />
<text x="80" y="356.00" text-anchor="end" font-size="12" font-family="Arial, sans-serif">-223.6</text>
<line x1="90" y1="258.00" x2="840" y2="258.00" stroke="#dddddd" stroke-width="1" />
<text x="80" y="262.00" text-anchor="end" font-size="12" font-family="Arial, sans-serif">-64.4</text>
<line x1="90" y1="164.00" x2="840" y2="164.00" stroke="#dddddd" stroke-width="1" />
<text x="80" y="168.00" text-anchor="end" font-size="12" font-family="Arial, sans-serif">94.7</text>
<line x1="90" y1="70.00" x2="840" y2="70.00" stroke="#dddddd" stroke-width="1" />
<text x="80" y="74.00" text-anchor="end" font-size="12" font-family="Arial, sans-serif">253.9</text>
<line x1="90.00" y1="70" x2="90.00" y2="540" stroke="#f0f0f0" stroke-width="1" />
<text x="90.00" y="564" text-anchor="middle" font-size="12" font-family="Arial, sans-serif">3</text>
<line x1="240.00" y1="70" x2="240.00" y2="540" stroke="#f0f0f0" stroke-width="1" />
<text x="240.00" y="564" text-anchor="middle" font-size="12" font-family="Arial, sans-serif">1997</text>
<line x1="390.00" y1="70" x2="390.00" y2="540" stroke="#f0f0f0" stroke-width="1" />
<text x="390.00" y="564" text-anchor="middle" font-size="12" font-family="Arial, sans-serif">3991</text>
<line x1="540.00" y1="70" x2="540.00" y2="540" stroke="#f0f0f0" stroke-width="1" />
<text x="540.00" y="564" text-anchor="middle" font-size="12" font-family="Arial, sans-serif">5986</text>
<line x1="690.00" y1="70" x2="690.00" y2="540" stroke="#f0f0f0" stroke-width="1" />
<text x="690.00" y="564" text-anchor="middle" font-size="12" font-family="Arial, sans-serif">7980</text>
<line x1="840.00" y1="70" x2="840.00" y2="540" stroke="#f0f0f0" stroke-width="1" />
<text x="840.00" y="564" text-anchor="middle" font-size="12" font-family="Arial, sans-serif">9974</text>
<rect x="90" y="70" width="750" height="470" fill="none" stroke="#333333" stroke-width="1.5" />
<text x="465.0" y="600" text-anchor="middle" font-size="15" font-family="Arial, sans-serif">Iteration</text>
<text x="24" y="305.0" text-anchor="middle" font-size="15" font-family="Arial, sans-serif" transform="rotate(-90 24 305.0)">Delta</text>
<circle cx="90.00" cy="507.59" r="3.2" fill="#d62728" fill-opacity="0.75" />
<circle cx="90.53" cy="430.80" r="3.2" fill="#d62728" fill-opacity="0.75" />
<circle cx="90.75" cy="425.49" r="3.2" fill="#d62728" fill-opacity="0.75" />
<circle cx="90.98" cy="274.29" r="3.2" fill="#d62728" fill-opacity="0.75" />
<circle cx="91.28" cy="252.43" r="3.2" fill="#d62728" fill-opacity="0.75" />
<circle cx="91.88" cy="283.15" r="3.2" fill="#d62728" fill-opacity="0.75" />
<circle cx="92.18" cy="292.01" r="3.2" fill="#d62728" fill-opacity="0.75" />
<circle cx="92.33" cy="229.40" r="3.2" fill="#d62728" fill-opacity="0.75" />
<circle cx="93.91" cy="241.21" r="3.2" fill="#d62728" fill-opacity="0.75" />
<circle cx="94.59" cy="236.49" r="3.2" fill="#d62728" fill-opacity="0.75" />
<circle cx="94.89" cy="232.35" r="3.2" fill="#d62728" fill-opacity="0.75" />
<circle cx="95.94" cy="226.45" r="3.2" fill="#d62728" fill-opacity="0.75" />
<circle cx="97.07" cy="231.76" r="3.2" fill="#d62728" fill-opacity="0.75" />
<circle cx="98.80" cy="231.76" r="3.2" fill="#d62728" fill-opacity="0.75" />
<circle cx="99.25" cy="231.76" r="3.2" fill="#d62728" fill-opacity="0.75" />
<circle cx="99.63" cy="208.73" r="3.2" fill="#d62728" fill-opacity="0.75" />
<circle cx="99.85" cy="231.76" r="3.2" fill="#d62728" fill-opacity="0.75" />
<circle cx="100.76" cy="208.73" r="3.2" fill="#d62728" fill-opacity="0.75" />
<circle cx="104.44" cy="231.76" r="3.2" fill="#d62728" fill-opacity="0.75" />
<circle cx="106.10" cy="291.42" r="3.2" fill="#d62728" fill-opacity="0.75" />
<circle cx="108.28" cy="231.76" r="3.2" fill="#d62728" fill-opacity="0.75" />
<circle cx="109.56" cy="208.73" r="3.2" fill="#d62728" fill-opacity="0.75" />
<circle cx="109.71" cy="231.76" r="3.2" fill="#d62728" fill-opacity="0.75" />
<circle cx="112.19" cy="231.76" r="3.2" fill="#d62728" fill-opacity="0.75" />
<circle cx="115.05" cy="256.57" r="3.2" fill="#d62728" fill-opacity="0.75" />
<circle cx="115.27" cy="249.48" r="3.2" fill="#d62728" fill-opacity="0.75" />
<circle cx="115.57" cy="220.54" r="3.2" fill="#d62728" fill-opacity="0.75" />
<circle cx="118.66" cy="232.35" r="3.2" fill="#d62728" fill-opacity="0.75" />
<circle cx="119.26" cy="232.35" r="3.2" fill="#d62728" fill-opacity="0.75" />
<circle cx="119.41" cy="232.35" r="3.2" fill="#d62728" fill-opacity="0.75" />
<circle cx="121.22" cy="256.57" r="3.2" fill="#d62728" fill-opacity="0.75" />
<circle cx="123.92" cy="240.62" r="3.2" fill="#d62728" fill-opacity="0.75" />
<circle cx="124.53" cy="249.48" r="3.2" fill="#d62728" fill-opacity="0.75" />
<circle cx="124.83" cy="249.48" r="3.2" fill="#d62728" fill-opacity="0.75" />
<circle cx="126.63" cy="249.48" r="3.2" fill="#d62728" fill-opacity="0.75" />
<circle cx="127.38" cy="249.48" r="3.2" fill="#d62728" fill-opacity="0.75" />
<circle cx="128.51" cy="251.84" r="3.2" fill="#d62728" fill-opacity="0.75" />
<circle cx="128.81" cy="248.89" r="3.2" fill="#d62728" fill-opacity="0.75" />
<circle cx="129.72" cy="248.89" r="3.2" fill="#d62728" fill-opacity="0.75" />
<circle cx="131.45" cy="241.80" r="3.2" fill="#d62728" fill-opacity="0.75" />
<circle cx="132.35" cy="229.40" r="3.2" fill="#d62728" fill-opacity="0.75" />
<circle cx="133.93" cy="248.89" r="3.2" fill="#d62728" fill-opacity="0.75" />
<circle cx="138.21" cy="248.89" r="3.2" fill="#d62728" fill-opacity="0.75" />
<circle cx="141.15" cy="248.89" r="3.2" fill="#d62728" fill-opacity="0.75" />
<circle cx="143.48" cy="248.89" r="3.2" fill="#d62728" fill-opacity="0.75" />
<circle cx="149.95" cy="248.89" r="3.2" fill="#d62728" fill-opacity="0.75" />
<circle cx="150.10" cy="229.40" r="3.2" fill="#d62728" fill-opacity="0.75" />
<circle cx="151.45" cy="248.89" r="3.2" fill="#d62728" fill-opacity="0.75" />
<circle cx="152.96" cy="248.89" r="3.2" fill="#d62728" fill-opacity="0.75" />
<circle cx="154.39" cy="248.89" r="3.2" fill="#d62728" fill-opacity="0.75" />
<circle cx="157.25" cy="248.89" r="3.2" fill="#d62728" fill-opacity="0.75" />
<circle cx="157.32" cy="229.40" r="3.2" fill="#d62728" fill-opacity="0.75" />
<circle cx="159.13" cy="248.89" r="3.2" fill="#d62728" fill-opacity="0.75" />
<circle cx="165.14" cy="248.89" r="3.2" fill="#d62728" fill-opacity="0.75" />
<circle cx="165.59" cy="248.89" r="3.2" fill="#d62728" fill-opacity="0.75" />
<circle cx="167.47" cy="248.89" r="3.2" fill="#d62728" fill-opacity="0.75" />
<circle cx="168.68" cy="248.89" r="3.2" fill="#d62728" fill-opacity="0.75" />
<circle cx="172.89" cy="229.40" r="3.2" fill="#d62728" fill-opacity="0.75" />
<circle cx="175.37" cy="224.67" r="3.2" fill="#d62728" fill-opacity="0.75" />
<circle cx="181.39" cy="223.49" r="3.2" fill="#d62728" fill-opacity="0.75" />
<circle cx="187.86" cy="254.80" r="3.2" fill="#d62728" fill-opacity="0.75" />
<circle cx="191.17" cy="254.80" r="3.2" fill="#d62728" fill-opacity="0.75" />
<circle cx="191.69" cy="249.48" r="3.2" fill="#d62728" fill-opacity="0.75" />
<circle cx="191.77" cy="232.35" r="3.2" fill="#d62728" fill-opacity="0.75" />
<circle cx="192.60" cy="255.39" r="3.2" fill="#d62728" fill-opacity="0.75" />
<circle cx="195.53" cy="241.21" r="3.2" fill="#d62728" fill-opacity="0.75" />
<circle cx="196.88" cy="273.70" r="3.2" fill="#d62728" fill-opacity="0.75" />
<circle cx="214.34" cy="237.67" r="3.2" fill="#d62728" fill-opacity="0.75" />
<circle cx="216.59" cy="237.67" r="3.2" fill="#d62728" fill-opacity="0.75" />
<circle cx="220.95" cy="233.53" r="3.2" fill="#d62728" fill-opacity="0.75" />
<circle cx="222.91" cy="242.98" r="3.2" fill="#d62728" fill-opacity="0.75" />
<circle cx="229.15" cy="238.85" r="3.2" fill="#d62728" fill-opacity="0.75" />
<circle cx="229.38" cy="232.94" r="3.2" fill="#d62728" fill-opacity="0.75" />
<circle cx="232.24" cy="234.12" r="3.2" fill="#d62728" fill-opacity="0.75" />
<circle cx="232.46" cy="232.94" r="3.2" fill="#d62728" fill-opacity="0.75" />
<circle cx="233.97" cy="232.94" r="3.2" fill="#d62728" fill-opacity="0.75" />
<circle cx="234.27" cy="232.94" r="3.2" fill="#d62728" fill-opacity="0.75" />
<circle cx="237.13" cy="234.12" r="3.2" fill="#d62728" fill-opacity="0.75" />
<circle cx="237.65" cy="232.94" r="3.2" fill="#d62728" fill-opacity="0.75" />
<circle cx="241.11" cy="232.94" r="3.2" fill="#d62728" fill-opacity="0.75" />
<circle cx="246.00" cy="234.12" r="3.2" fill="#d62728" fill-opacity="0.75" />
<circle cx="246.15" cy="234.12" r="3.2" fill="#d62728" fill-opacity="0.75" />
<circle cx="246.30" cy="232.94" r="3.2" fill="#d62728" fill-opacity="0.75" />
<circle cx="256.61" cy="416.04" r="3.2" fill="#d62728" fill-opacity="0.75" />
<circle cx="256.91" cy="333.35" r="3.2" fill="#d62728" fill-opacity="0.75" />
<circle cx="257.66" cy="254.80" r="3.2" fill="#d62728" fill-opacity="0.75" />
<circle cx="257.74" cy="235.31" r="3.2" fill="#d62728" fill-opacity="0.75" />
<circle cx="257.89" cy="233.53" r="3.2" fill="#d62728" fill-opacity="0.75" />
<circle cx="258.64" cy="234.12" r="3.2" fill="#d62728" fill-opacity="0.75" />
<circle cx="261.50" cy="223.49" r="3.2" fill="#d62728" fill-opacity="0.75" />
<circle cx="261.87" cy="258.93" r="3.2" fill="#d62728" fill-opacity="0.75" />
<circle cx="263.00" cy="279.60" r="3.2" fill="#d62728" fill-opacity="0.75" />
<circle cx="265.48" cy="229.99" r="3.2" fill="#d62728" fill-opacity="0.75" />
<circle cx="265.63" cy="224.67" r="3.2" fill="#d62728" fill-opacity="0.75" />
<circle cx="271.65" cy="235.31" r="3.2" fill="#d62728" fill-opacity="0.75" />
<circle cx="275.49" cy="232.94" r="3.2" fill="#d62728" fill-opacity="0.75" />
<circle cx="306.78" cy="244.17" r="3.2" fill="#d62728" fill-opacity="0.75" />
<circle cx="314.00" cy="244.17" r="3.2" fill="#d62728" fill-opacity="0.75" />
<circle cx="314.07" cy="224.67" r="3.2" fill="#d62728" fill-opacity="0.75" />
<circle cx="314.98" cy="317.99" r="3.2" fill="#d62728" fill-opacity="0.75" />
<circle cx="321.75" cy="212.27" r="3.2" fill="#d62728" fill-opacity="0.75" />
<circle cx="321.90" cy="212.27" r="3.2" fill="#d62728" fill-opacity="0.75" />
<circle cx="325.66" cy="183.92" r="3.2" fill="#d62728" fill-opacity="0.75" />
<circle cx="326.34" cy="228.81" r="3.2" fill="#d62728" fill-opacity="0.75" />
<circle cx="326.49" cy="183.92" r="3.2" fill="#d62728" fill-opacity="0.75" />
<circle cx="326.56" cy="183.92" r="3.2" fill="#d62728" fill-opacity="0.75" />
<circle cx="326.71" cy="183.92" r="3.2" fill="#d62728" fill-opacity="0.75" />
<circle cx="326.79" cy="183.92" r="3.2" fill="#d62728" fill-opacity="0.75" />
<circle cx="327.01" cy="183.92" r="3.2" fill="#d62728" fill-opacity="0.75" />
<circle cx="327.31" cy="183.92" r="3.2" fill="#d62728" fill-opacity="0.75" />
<circle cx="327.46" cy="183.92" r="3.2" fill="#d62728" fill-opacity="0.75" />
<circle cx="327.54" cy="183.92" r="3.2" fill="#d62728" fill-opacity="0.75" />
<circle cx="328.29" cy="183.92" r="3.2" fill="#d62728" fill-opacity="0.75" />
<circle cx="328.37" cy="183.92" r="3.2" fill="#d62728" fill-opacity="0.75" />
<circle cx="331.98" cy="231.76" r="3.2" fill="#d62728" fill-opacity="0.75" />
<circle cx="333.03" cy="223.49" r="3.2" fill="#d62728" fill-opacity="0.75" />
<circle cx="334.08" cy="231.76" r="3.2" fill="#d62728" fill-opacity="0.75" />
<circle cx="334.38" cy="223.49" r="3.2" fill="#d62728" fill-opacity="0.75" />
<circle cx="334.84" cy="231.76" r="3.2" fill="#d62728" fill-opacity="0.75" />
<circle cx="337.92" cy="231.76" r="3.2" fill="#d62728" fill-opacity="0.75" />
<circle cx="338.82" cy="231.76" r="3.2" fill="#d62728" fill-opacity="0.75" />
<circle cx="339.12" cy="231.76" r="3.2" fill="#d62728" fill-opacity="0.75" />
<circle cx="340.48" cy="231.76" r="3.2" fill="#d62728" fill-opacity="0.75" />
<circle cx="340.85" cy="231.76" r="3.2" fill="#d62728" fill-opacity="0.75" />
<circle cx="342.13" cy="223.49" r="3.2" fill="#d62728" fill-opacity="0.75" />
<circle cx="343.11" cy="223.49" r="3.2" fill="#d62728" fill-opacity="0.75" />
<circle cx="345.29" cy="240.03" r="3.2" fill="#d62728" fill-opacity="0.75" />
<circle cx="345.89" cy="228.81" r="3.2" fill="#d62728" fill-opacity="0.75" />
<circle cx="349.65" cy="223.49" r="3.2" fill="#d62728" fill-opacity="0.75" />
<circle cx="349.88" cy="223.49" r="3.2" fill="#d62728" fill-opacity="0.75" />
<circle cx="351.91" cy="220.54" r="3.2" fill="#d62728" fill-opacity="0.75" />
<circle cx="353.26" cy="223.49" r="3.2" fill="#d62728" fill-opacity="0.75" />
<circle cx="354.02" cy="223.49" r="3.2" fill="#d62728" fill-opacity="0.75" />
<circle cx="355.67" cy="223.49" r="3.2" fill="#d62728" fill-opacity="0.75" />
<circle cx="356.50" cy="223.49" r="3.2" fill="#d62728" fill-opacity="0.75" />
<circle cx="357.85" cy="258.34" r="3.2" fill="#d62728" fill-opacity="0.75" />
<circle cx="358.00" cy="241.80" r="3.2" fill="#d62728" fill-opacity="0.75" />
<circle cx="358.08" cy="223.49" r="3.2" fill="#d62728" fill-opacity="0.75" />
<circle cx="359.43" cy="223.49" r="3.2" fill="#d62728" fill-opacity="0.75" />
<circle cx="360.86" cy="237.67" r="3.2" fill="#d62728" fill-opacity="0.75" />
<circle cx="360.94" cy="223.49" r="3.2" fill="#d62728" fill-opacity="0.75" />
<circle cx="361.54" cy="223.49" r="3.2" fill="#d62728" fill-opacity="0.75" />
<circle cx="363.57" cy="223.49" r="3.2" fill="#d62728" fill-opacity="0.75" />
<circle cx="364.32" cy="223.49" r="3.2" fill="#d62728" fill-opacity="0.75" />
<circle cx="366.35" cy="223.49" r="3.2" fill="#d62728" fill-opacity="0.75" />
<circle cx="366.88" cy="223.49" r="3.2" fill="#d62728" fill-opacity="0.75" />
<circle cx="367.63" cy="223.49" r="3.2" fill="#d62728" fill-opacity="0.75" />
<circle cx="369.06" cy="218.18" r="3.2" fill="#d62728" fill-opacity="0.75" />
<circle cx="376.81" cy="237.67" r="3.2" fill="#d62728" fill-opacity="0.75" />
<circle cx="379.89" cy="223.49" r="3.2" fill="#d62728" fill-opacity="0.75" />
<circle cx="383.73" cy="237.67" r="3.2" fill="#d62728" fill-opacity="0.75" />
<circle cx="384.93" cy="237.67" r="3.2" fill="#d62728" fill-opacity="0.75" />
<circle cx="391.17" cy="239.44" r="3.2" fill="#d62728" fill-opacity="0.75" />
<circle cx="391.25" cy="223.49" r="3.2" fill="#d62728" fill-opacity="0.75" />
<circle cx="392.45" cy="223.49" r="3.2" fill="#d62728" fill-opacity="0.75" />
<circle cx="393.28" cy="223.49" r="3.2" fill="#d62728" fill-opacity="0.75" />
<circle cx="393.81" cy="223.49" r="3.2" fill="#d62728" fill-opacity="0.75" />
<circle cx="401.48" cy="237.67" r="3.2" fill="#d62728" fill-opacity="0.75" />
<circle cx="404.56" cy="141.99" r="3.2" fill="#d62728" fill-opacity="0.75" />
<circle cx="404.64" cy="141.99" r="3.2" fill="#d62728" fill-opacity="0.75" />
<circle cx="405.16" cy="141.99" r="3.2" fill="#d62728" fill-opacity="0.75" />
<circle cx="405.39" cy="141.99" r="3.2" fill="#d62728" fill-opacity="0.75" />
<circle cx="405.46" cy="141.99" r="3.2" fill="#d62728" fill-opacity="0.75" />
<circle cx="405.92" cy="223.49" r="3.2" fill="#d62728" fill-opacity="0.75" />
<circle cx="405.99" cy="141.99" r="3.2" fill="#d62728" fill-opacity="0.75" />
<circle cx="406.37" cy="141.99" r="3.2" fill="#d62728" fill-opacity="0.75" />
<circle cx="406.82" cy="141.99" r="3.2" fill="#d62728" fill-opacity="0.75" />
<circle cx="407.35" cy="223.49" r="3.2" fill="#d62728" fill-opacity="0.75" />
<circle cx="407.42" cy="141.99" r="3.2" fill="#d62728" fill-opacity="0.75" />
<circle cx="407.80" cy="141.99" r="3.2" fill="#d62728" fill-opacity="0.75" />
<circle cx="408.02" cy="141.99" r="3.2" fill="#d62728" fill-opacity="0.75" />
<circle cx="408.17" cy="141.99" r="3.2" fill="#d62728" fill-opacity="0.75" />
<circle cx="408.70" cy="233.53" r="3.2" fill="#d62728" fill-opacity="0.75" />
<circle cx="409.15" cy="178.61" r="3.2" fill="#d62728" fill-opacity="0.75" />
<circle cx="409.23" cy="178.61" r="3.2" fill="#d62728" fill-opacity="0.75" />
<circle cx="409.60" cy="233.53" r="3.2" fill="#d62728" fill-opacity="0.75" />
<circle cx="409.68" cy="223.49" r="3.2" fill="#d62728" fill-opacity="0.75" />
<circle cx="410.20" cy="233.53" r="3.2" fill="#d62728" fill-opacity="0.75" />
<circle cx="410.43" cy="223.49" r="3.2" fill="#d62728" fill-opacity="0.75" />
<circle cx="411.86" cy="223.49" r="3.2" fill="#d62728" fill-opacity="0.75" />
<circle cx="413.51" cy="237.67" r="3.2" fill="#d62728" fill-opacity="0.75" />
<circle cx="414.72" cy="102.41" r="3.2" fill="#d62728" fill-opacity="0.75" />
<circle cx="414.94" cy="102.41" r="3.2" fill="#d62728" fill-opacity="0.75" />
<circle cx="415.32" cy="226.45" r="3.2" fill="#d62728" fill-opacity="0.75" />
<circle cx="417.42" cy="223.49" r="3.2" fill="#d62728" fill-opacity="0.75" />
<circle cx="417.73" cy="223.49" r="3.2" fill="#d62728" fill-opacity="0.75" />
<circle cx="417.88" cy="223.49" r="3.2" fill="#d62728" fill-opacity="0.75" />
<circle cx="418.55" cy="223.49" r="3.2" fill="#d62728" fill-opacity="0.75" />
<circle cx="420.36" cy="223.49" r="3.2" fill="#d62728" fill-opacity="0.75" />
<circle cx="420.81" cy="218.18" r="3.2" fill="#d62728" fill-opacity="0.75" />
<circle cx="420.96" cy="218.18" r="3.2" fill="#d62728" fill-opacity="0.75" />
<circle cx="421.11" cy="218.18" r="3.2" fill="#d62728" fill-opacity="0.75" />
<circle cx="424.50" cy="231.76" r="3.2" fill="#d62728" fill-opacity="0.75" />
<circle cx="425.02" cy="223.49" r="3.2" fill="#d62728" fill-opacity="0.75" />
<circle cx="425.62" cy="223.49" r="3.2" fill="#d62728" fill-opacity="0.75" />
<circle cx="426.07" cy="229.40" r="3.2" fill="#d62728" fill-opacity="0.75" />
<circle cx="426.75" cy="223.49" r="3.2" fill="#d62728" fill-opacity="0.75" />
<circle cx="427.80" cy="223.49" r="3.2" fill="#d62728" fill-opacity="0.75" />
<circle cx="428.03" cy="223.49" r="3.2" fill="#d62728" fill-opacity="0.75" />
<circle cx="429.08" cy="223.49" r="3.2" fill="#d62728" fill-opacity="0.75" />
<circle cx="431.26" cy="223.49" r="3.2" fill="#d62728" fill-opacity="0.75" />
<circle cx="434.27" cy="229.40" r="3.2" fill="#d62728" fill-opacity="0.75" />
<circle cx="434.35" cy="223.49" r="3.2" fill="#d62728" fill-opacity="0.75" />
<circle cx="436.68" cy="223.49" r="3.2" fill="#d62728" fill-opacity="0.75" />
<circle cx="437.28" cy="223.49" r="3.2" fill="#d62728" fill-opacity="0.75" />
<circle cx="437.66" cy="223.49" r="3.2" fill="#d62728" fill-opacity="0.75" />
<circle cx="439.09" cy="223.49" r="3.2" fill="#d62728" fill-opacity="0.75" />
<circle cx="439.91" cy="223.49" r="3.2" fill="#d62728" fill-opacity="0.75" />
<circle cx="441.64" cy="229.40" r="3.2" fill="#d62728" fill-opacity="0.75" />
<circle cx="441.72" cy="223.49" r="3.2" fill="#d62728" fill-opacity="0.75" />
<circle cx="446.01" cy="229.40" r="3.2" fill="#d62728" fill-opacity="0.75" />
<circle cx="446.61" cy="229.40" r="3.2" fill="#d62728" fill-opacity="0.75" />
<circle cx="447.44" cy="229.40" r="3.2" fill="#d62728" fill-opacity="0.75" />
<circle cx="448.79" cy="229.40" r="3.2" fill="#d62728" fill-opacity="0.75" />
<circle cx="452.78" cy="229.40" r="3.2" fill="#d62728" fill-opacity="0.75" />
<circle cx="452.93" cy="223.49" r="3.2" fill="#d62728" fill-opacity="0.75" />
<circle cx="455.26" cy="223.49" r="3.2" fill="#d62728" fill-opacity="0.75" />
<circle cx="455.86" cy="229.40" r="3.2" fill="#d62728" fill-opacity="0.75" />
<circle cx="456.46" cy="223.49" r="3.2" fill="#d62728" fill-opacity="0.75" />
<circle cx="457.06" cy="223.49" r="3.2" fill="#d62728" fill-opacity="0.75" />
<circle cx="460.30" cy="232.35" r="3.2" fill="#d62728" fill-opacity="0.75" />
<circle cx="460.60" cy="178.61" r="3.2" fill="#d62728" fill-opacity="0.75" />
<circle cx="460.75" cy="178.61" r="3.2" fill="#d62728" fill-opacity="0.75" />
<circle cx="461.20" cy="232.35" r="3.2" fill="#d62728" fill-opacity="0.75" />
<circle cx="461.50" cy="178.61" r="3.2" fill="#d62728" fill-opacity="0.75" />
<circle cx="461.65" cy="178.61" r="3.2" fill="#d62728" fill-opacity="0.75" />
<circle cx="462.03" cy="178.61" r="3.2" fill="#d62728" fill-opacity="0.75" />
<circle cx="462.86" cy="178.61" r="3.2" fill="#d62728" fill-opacity="0.75" />
<circle cx="464.81" cy="232.35" r="3.2" fill="#d62728" fill-opacity="0.75" />
<circle cx="465.56" cy="232.35" r="3.2" fill="#d62728" fill-opacity="0.75" />
<circle cx="465.87" cy="178.61" r="3.2" fill="#d62728" fill-opacity="0.75" />
<circle cx="466.02" cy="178.61" r="3.2" fill="#d62728" fill-opacity="0.75" />
<circle cx="466.24" cy="178.61" r="3.2" fill="#d62728" fill-opacity="0.75" />
<circle cx="466.39" cy="178.61" r="3.2" fill="#d62728" fill-opacity="0.75" />
<circle cx="466.47" cy="178.61" r="3.2" fill="#d62728" fill-opacity="0.75" />
<circle cx="466.54" cy="178.61" r="3.2" fill="#d62728" fill-opacity="0.75" />
<circle cx="466.69" cy="215.81" r="3.2" fill="#d62728" fill-opacity="0.75" />
<circle cx="469.70" cy="226.45" r="3.2" fill="#d62728" fill-opacity="0.75" />
<circle cx="471.81" cy="226.45" r="3.2" fill="#d62728" fill-opacity="0.75" />
<circle cx="472.03" cy="225.26" r="3.2" fill="#d62728" fill-opacity="0.75" />
<circle cx="474.21" cy="226.45" r="3.2" fill="#d62728" fill-opacity="0.75" />
<circle cx="474.52" cy="226.45" r="3.2" fill="#d62728" fill-opacity="0.75" />
<circle cx="476.32" cy="225.26" r="3.2" fill="#d62728" fill-opacity="0.75" />
<circle cx="477.52" cy="226.45" r="3.2" fill="#d62728" fill-opacity="0.75" />
<circle cx="477.67" cy="226.45" r="3.2" fill="#d62728" fill-opacity="0.75" />
<circle cx="478.58" cy="226.45" r="3.2" fill="#d62728" fill-opacity="0.75" />
<circle cx="478.65" cy="225.26" r="3.2" fill="#d62728" fill-opacity="0.75" />
<circle cx="479.10" cy="225.26" r="3.2" fill="#d62728" fill-opacity="0.75" />
<circle cx="480.53" cy="226.45" r="3.2" fill="#d62728" fill-opacity="0.75" />
<circle cx="483.32" cy="226.45" r="3.2" fill="#d62728" fill-opacity="0.75" />
<circle cx="483.39" cy="225.26" r="3.2" fill="#d62728" fill-opacity="0.75" />
<circle cx="484.90" cy="225.26" r="3.2" fill="#d62728" fill-opacity="0.75" />
<circle cx="485.87" cy="225.26" r="3.2" fill="#d62728" fill-opacity="0.75" />
<circle cx="486.25" cy="225.26" r="3.2" fill="#d62728" fill-opacity="0.75" />
<circle cx="490.16" cy="239.44" r="3.2" fill="#d62728" fill-opacity="0.75" />
<circle cx="490.39" cy="234.12" r="3.2" fill="#d62728" fill-opacity="0.75" />
<circle cx="490.46" cy="231.76" r="3.2" fill="#d62728" fill-opacity="0.75" />
<circle cx="491.66" cy="231.76" r="3.2" fill="#d62728" fill-opacity="0.75" />
<circle cx="495.20" cy="231.76" r="3.2" fill="#d62728" fill-opacity="0.75" />
<circle cx="497.38" cy="234.12" r="3.2" fill="#d62728" fill-opacity="0.75" />
<circle cx="497.53" cy="231.76" r="3.2" fill="#d62728" fill-opacity="0.75" />
<circle cx="497.91" cy="234.12" r="3.2" fill="#d62728" fill-opacity="0.75" />
<circle cx="498.96" cy="234.12" r="3.2" fill="#d62728" fill-opacity="0.75" />
<circle cx="500.69" cy="234.12" r="3.2" fill="#d62728" fill-opacity="0.75" />
<circle cx="502.12" cy="234.12" r="3.2" fill="#d62728" fill-opacity="0.75" />
<circle cx="503.40" cy="219.36" r="3.2" fill="#d62728" fill-opacity="0.75" />
<circle cx="507.31" cy="219.36" r="3.2" fill="#d62728" fill-opacity="0.75" />
<circle cx="508.74" cy="234.12" r="3.2" fill="#d62728" fill-opacity="0.75" />
<circle cx="510.02" cy="234.12" r="3.2" fill="#d62728" fill-opacity="0.75" />
<circle cx="511.37" cy="219.36" r="3.2" fill="#d62728" fill-opacity="0.75" />
<circle cx="512.95" cy="231.76" r="3.2" fill="#d62728" fill-opacity="0.75" />
<circle cx="513.03" cy="219.36" r="3.2" fill="#d62728" fill-opacity="0.75" />
<circle cx="515.13" cy="234.12" r="3.2" fill="#d62728" fill-opacity="0.75" />
<circle cx="516.41" cy="234.12" r="3.2" fill="#d62728" fill-opacity="0.75" />
<circle cx="517.54" cy="165.02" r="3.2" fill="#d62728" fill-opacity="0.75" />
<circle cx="517.62" cy="165.02" r="3.2" fill="#d62728" fill-opacity="0.75" />
<circle cx="517.92" cy="234.71" r="3.2" fill="#d62728" fill-opacity="0.75" />
<circle cx="518.52" cy="234.12" r="3.2" fill="#d62728" fill-opacity="0.75" />
<circle cx="519.04" cy="234.71" r="3.2" fill="#d62728" fill-opacity="0.75" />
<circle cx="521.00" cy="231.76" r="3.2" fill="#d62728" fill-opacity="0.75" />
<circle cx="521.23" cy="228.81" r="3.2" fill="#d62728" fill-opacity="0.75" />
<circle cx="523.71" cy="225.26" r="3.2" fill="#d62728" fill-opacity="0.75" />
<circle cx="524.16" cy="225.26" r="3.2" fill="#d62728" fill-opacity="0.75" />
<circle cx="524.84" cy="225.26" r="3.2" fill="#d62728" fill-opacity="0.75" />
<circle cx="525.96" cy="225.26" r="3.2" fill="#d62728" fill-opacity="0.75" />
<circle cx="526.57" cy="225.26" r="3.2" fill="#d62728" fill-opacity="0.75" />
<circle cx="527.32" cy="225.26" r="3.2" fill="#d62728" fill-opacity="0.75" />
<circle cx="528.75" cy="225.26" r="3.2" fill="#d62728" fill-opacity="0.75" />
<circle cx="529.73" cy="225.26" r="3.2" fill="#d62728" fill-opacity="0.75" />
<circle cx="530.03" cy="225.26" r="3.2" fill="#d62728" fill-opacity="0.75" />
<circle cx="530.70" cy="225.26" r="3.2" fill="#d62728" fill-opacity="0.75" />
<circle cx="531.46" cy="225.26" r="3.2" fill="#d62728" fill-opacity="0.75" />
<circle cx="535.37" cy="241.21" r="3.2" fill="#d62728" fill-opacity="0.75" />
<circle cx="535.44" cy="232.94" r="3.2" fill="#d62728" fill-opacity="0.75" />
<circle cx="535.67" cy="229.99" r="3.2" fill="#d62728" fill-opacity="0.75" />
<circle cx="535.97" cy="226.45" r="3.2" fill="#d62728" fill-opacity="0.75" />
<circle cx="536.80" cy="226.45" r="3.2" fill="#d62728" fill-opacity="0.75" />
<circle cx="538.15" cy="226.45" r="3.2" fill="#d62728" fill-opacity="0.75" />
<circle cx="541.76" cy="226.45" r="3.2" fill="#d62728" fill-opacity="0.75" />
<circle cx="542.29" cy="226.45" r="3.2" fill="#d62728" fill-opacity="0.75" />
<circle cx="544.02" cy="226.45" r="3.2" fill="#d62728" fill-opacity="0.75" />
<circle cx="549.36" cy="226.45" r="3.2" fill="#d62728" fill-opacity="0.75" />
<circle cx="549.81" cy="226.45" r="3.2" fill="#d62728" fill-opacity="0.75" />
<circle cx="550.11" cy="226.45" r="3.2" fill="#d62728" fill-opacity="0.75" />
<circle cx="551.39" cy="226.45" r="3.2" fill="#d62728" fill-opacity="0.75" />
<circle cx="551.61" cy="226.45" r="3.2" fill="#d62728" fill-opacity="0.75" />
<circle cx="552.06" cy="226.45" r="3.2" fill="#d62728" fill-opacity="0.75" />
<circle cx="552.29" cy="226.45" r="3.2" fill="#d62728" fill-opacity="0.75" />
<circle cx="553.42" cy="221.72" r="3.2" fill="#d62728" fill-opacity="0.75" />
<circle cx="558.01" cy="226.45" r="3.2" fill="#d62728" fill-opacity="0.75" />
<circle cx="561.84" cy="226.45" r="3.2" fill="#d62728" fill-opacity="0.75" />
<circle cx="562.67" cy="226.45" r="3.2" fill="#d62728" fill-opacity="0.75" />
<circle cx="564.48" cy="226.45" r="3.2" fill="#d62728" fill-opacity="0.75" />
<circle cx="565.45" cy="226.45" r="3.2" fill="#d62728" fill-opacity="0.75" />
<circle cx="565.68" cy="226.45" r="3.2" fill="#d62728" fill-opacity="0.75" />
<circle cx="566.51" cy="232.35" r="3.2" fill="#d62728" fill-opacity="0.75" />
<circle cx="568.54" cy="235.90" r="3.2" fill="#d62728" fill-opacity="0.75" />
<circle cx="571.47" cy="220.54" r="3.2" fill="#d62728" fill-opacity="0.75" />
<circle cx="572.15" cy="227.63" r="3.2" fill="#d62728" fill-opacity="0.75" />
<circle cx="572.22" cy="220.54" r="3.2" fill="#d62728" fill-opacity="0.75" />
<circle cx="572.67" cy="176.83" r="3.2" fill="#d62728" fill-opacity="0.75" />
<circle cx="573.13" cy="232.35" r="3.2" fill="#d62728" fill-opacity="0.75" />
<circle cx="573.65" cy="232.35" r="3.2" fill="#d62728" fill-opacity="0.75" />
<circle cx="576.29" cy="232.35" r="3.2" fill="#d62728" fill-opacity="0.75" />
<circle cx="576.74" cy="232.35" r="3.2" fill="#d62728" fill-opacity="0.75" />
<circle cx="578.39" cy="220.54" r="3.2" fill="#d62728" fill-opacity="0.75" />
<circle cx="578.62" cy="220.54" r="3.2" fill="#d62728" fill-opacity="0.75" />
<circle cx="581.63" cy="229.40" r="3.2" fill="#d62728" fill-opacity="0.75" />
<circle cx="582.15" cy="229.40" r="3.2" fill="#d62728" fill-opacity="0.75" />
<circle cx="584.03" cy="167.38" r="3.2" fill="#d62728" fill-opacity="0.75" />
<circle cx="584.11" cy="167.38" r="3.2" fill="#d62728" fill-opacity="0.75" />
<circle cx="584.26" cy="167.38" r="3.2" fill="#d62728" fill-opacity="0.75" />
<circle cx="584.78" cy="188.65" r="3.2" fill="#d62728" fill-opacity="0.75" />
<circle cx="584.94" cy="188.65" r="3.2" fill="#d62728" fill-opacity="0.75" />
<circle cx="585.24" cy="188.65" r="3.2" fill="#d62728" fill-opacity="0.75" />
<circle cx="585.31" cy="188.65" r="3.2" fill="#d62728" fill-opacity="0.75" />
<circle cx="585.39" cy="188.65" r="3.2" fill="#d62728" fill-opacity="0.75" />
<circle cx="585.69" cy="188.65" r="3.2" fill="#d62728" fill-opacity="0.75" />
<circle cx="585.84" cy="188.65" r="3.2" fill="#d62728" fill-opacity="0.75" />
<circle cx="585.91" cy="188.65" r="3.2" fill="#d62728" fill-opacity="0.75" />
<circle cx="587.04" cy="225.26" r="3.2" fill="#d62728" fill-opacity="0.75" />
<circle cx="588.62" cy="225.26" r="3.2" fill="#d62728" fill-opacity="0.75" />
<circle cx="589.07" cy="225.26" r="3.2" fill="#d62728" fill-opacity="0.75" />
<circle cx="591.25" cy="225.26" r="3.2" fill="#d62728" fill-opacity="0.75" />
<circle cx="591.70" cy="225.26" r="3.2" fill="#d62728" fill-opacity="0.75" />
<circle cx="592.08" cy="225.26" r="3.2" fill="#d62728" fill-opacity="0.75" />
<circle cx="593.06" cy="225.26" r="3.2" fill="#d62728" fill-opacity="0.75" />
<circle cx="593.74" cy="225.26" r="3.2" fill="#d62728" fill-opacity="0.75" />
<circle cx="594.26" cy="225.26" r="3.2" fill="#d62728" fill-opacity="0.75" />
<circle cx="595.47" cy="240.03" r="3.2" fill="#d62728" fill-opacity="0.75" />
<circle cx="595.62" cy="225.26" r="3.2" fill="#d62728" fill-opacity="0.75" />
<circle cx="595.92" cy="225.26" r="3.2" fill="#d62728" fill-opacity="0.75" />
<circle cx="595.99" cy="222.31" r="3.2" fill="#d62728" fill-opacity="0.75" />
<circle cx="597.65" cy="239.44" r="3.2" fill="#d62728" fill-opacity="0.75" />
<circle cx="602.61" cy="232.35" r="3.2" fill="#d62728" fill-opacity="0.75" />
<circle cx="604.19" cy="221.13" r="3.2" fill="#d62728" fill-opacity="0.75" />
<circle cx="607.58" cy="232.35" r="3.2" fill="#d62728" fill-opacity="0.75" />
<circle cx="608.03" cy="232.35" r="3.2" fill="#d62728" fill-opacity="0.75" />
<circle cx="609.08" cy="229.40" r="3.2" fill="#d62728" fill-opacity="0.75" />
<circle cx="610.13" cy="229.40" r="3.2" fill="#d62728" fill-opacity="0.75" />
<circle cx="611.26" cy="229.40" r="3.2" fill="#d62728" fill-opacity="0.75" />
<circle cx="613.67" cy="229.40" r="3.2" fill="#d62728" fill-opacity="0.75" />
<circle cx="616.53" cy="229.40" r="3.2" fill="#d62728" fill-opacity="0.75" />
<circle cx="619.31" cy="229.40" r="3.2" fill="#d62728" fill-opacity="0.75" />
<circle cx="621.72" cy="229.40" r="3.2" fill="#d62728" fill-opacity="0.75" />
<circle cx="626.61" cy="229.40" r="3.2" fill="#d62728" fill-opacity="0.75" />
<circle cx="627.73" cy="229.40" r="3.2" fill="#d62728" fill-opacity="0.75" />
<circle cx="628.71" cy="229.40" r="3.2" fill="#d62728" fill-opacity="0.75" />
<circle cx="629.61" cy="229.40" r="3.2" fill="#d62728" fill-opacity="0.75" />
<circle cx="630.97" cy="232.35" r="3.2" fill="#d62728" fill-opacity="0.75" />
<circle cx="634.13" cy="229.40" r="3.2" fill="#d62728" fill-opacity="0.75" />
<circle cx="637.29" cy="229.40" r="3.2" fill="#d62728" fill-opacity="0.75" />
<circle cx="637.36" cy="219.36" r="3.2" fill="#d62728" fill-opacity="0.75" />
<circle cx="637.59" cy="229.40" r="3.2" fill="#d62728" fill-opacity="0.75" />
<circle cx="638.11" cy="232.35" r="3.2" fill="#d62728" fill-opacity="0.75" />
<circle cx="640.07" cy="232.35" r="3.2" fill="#d62728" fill-opacity="0.75" />
<circle cx="641.35" cy="229.40" r="3.2" fill="#d62728" fill-opacity="0.75" />
<circle cx="641.42" cy="221.13" r="3.2" fill="#d62728" fill-opacity="0.75" />
<circle cx="644.51" cy="229.40" r="3.2" fill="#d62728" fill-opacity="0.75" />
<circle cx="648.80" cy="232.35" r="3.2" fill="#d62728" fill-opacity="0.75" />
<circle cx="649.02" cy="221.72" r="3.2" fill="#d62728" fill-opacity="0.75" />
<circle cx="651.05" cy="232.35" r="3.2" fill="#d62728" fill-opacity="0.75" />
<circle cx="651.95" cy="232.35" r="3.2" fill="#d62728" fill-opacity="0.75" />
<circle cx="655.64" cy="237.67" r="3.2" fill="#d62728" fill-opacity="0.75" />
<circle cx="660.15" cy="232.35" r="3.2" fill="#d62728" fill-opacity="0.75" />
<circle cx="662.56" cy="232.35" r="3.2" fill="#d62728" fill-opacity="0.75" />
<circle cx="666.92" cy="226.45" r="3.2" fill="#d62728" fill-opacity="0.75" />
<circle cx="667.00" cy="220.54" r="3.2" fill="#d62728" fill-opacity="0.75" />
<circle cx="669.25" cy="221.72" r="3.2" fill="#d62728" fill-opacity="0.75" />
<circle cx="670.23" cy="226.45" r="3.2" fill="#d62728" fill-opacity="0.75" />
<circle cx="671.44" cy="255.39" r="3.2" fill="#d62728" fill-opacity="0.75" />
<circle cx="674.22" cy="221.72" r="3.2" fill="#d62728" fill-opacity="0.75" />
<circle cx="677.98" cy="231.76" r="3.2" fill="#d62728" fill-opacity="0.75" />
<circle cx="680.69" cy="241.80" r="3.2" fill="#d62728" fill-opacity="0.75" />
<circle cx="682.12" cy="229.40" r="3.2" fill="#d62728" fill-opacity="0.75" />
<circle cx="682.34" cy="229.40" r="3.2" fill="#d62728" fill-opacity="0.75" />
<circle cx="683.32" cy="229.40" r="3.2" fill="#d62728" fill-opacity="0.75" />
<circle cx="684.15" cy="229.40" r="3.2" fill="#d62728" fill-opacity="0.75" />
<circle cx="685.88" cy="214.63" r="3.2" fill="#d62728" fill-opacity="0.75" />
<circle cx="685.95" cy="214.63" r="3.2" fill="#d62728" fill-opacity="0.75" />
<circle cx="688.13" cy="229.40" r="3.2" fill="#d62728" fill-opacity="0.75" />
<circle cx="691.52" cy="229.40" r="3.2" fill="#d62728" fill-opacity="0.75" />
<circle cx="693.55" cy="237.67" r="3.2" fill="#d62728" fill-opacity="0.75" />
<circle cx="694.08" cy="214.63" r="3.2" fill="#d62728" fill-opacity="0.75" />
<circle cx="696.48" cy="229.40" r="3.2" fill="#d62728" fill-opacity="0.75" />
<circle cx="696.78" cy="229.40" r="3.2" fill="#d62728" fill-opacity="0.75" />
<circle cx="697.16" cy="229.40" r="3.2" fill="#d62728" fill-opacity="0.75" />
<circle cx="711.15" cy="227.63" r="3.2" fill="#d62728" fill-opacity="0.75" />
<circle cx="711.30" cy="229.40" r="3.2" fill="#d62728" fill-opacity="0.75" />
<circle cx="711.98" cy="229.40" r="3.2" fill="#d62728" fill-opacity="0.75" />
<circle cx="712.13" cy="229.40" r="3.2" fill="#d62728" fill-opacity="0.75" />
<circle cx="712.20" cy="227.63" r="3.2" fill="#d62728" fill-opacity="0.75" />
<circle cx="715.14" cy="232.35" r="3.2" fill="#d62728" fill-opacity="0.75" />
<circle cx="718.07" cy="232.35" r="3.2" fill="#d62728" fill-opacity="0.75" />
<circle cx="718.30" cy="232.35" r="3.2" fill="#d62728" fill-opacity="0.75" />
<circle cx="718.37" cy="227.63" r="3.2" fill="#d62728" fill-opacity="0.75" />
<circle cx="720.18" cy="227.63" r="3.2" fill="#d62728" fill-opacity="0.75" />
<circle cx="722.96" cy="221.72" r="3.2" fill="#d62728" fill-opacity="0.75" />
<circle cx="724.39" cy="229.40" r="3.2" fill="#d62728" fill-opacity="0.75" />
<circle cx="726.35" cy="243.57" r="3.2" fill="#d62728" fill-opacity="0.75" />
<circle cx="731.76" cy="230.58" r="3.2" fill="#d62728" fill-opacity="0.75" />
<circle cx="732.06" cy="231.17" r="3.2" fill="#d62728" fill-opacity="0.75" />
<circle cx="732.36" cy="230.58" r="3.2" fill="#d62728" fill-opacity="0.75" />
<circle cx="732.81" cy="230.58" r="3.2" fill="#d62728" fill-opacity="0.75" />
<circle cx="733.79" cy="233.53" r="3.2" fill="#d62728" fill-opacity="0.75" />
<circle cx="734.24" cy="230.58" r="3.2" fill="#d62728" fill-opacity="0.75" />
<circle cx="734.69" cy="230.58" r="3.2" fill="#d62728" fill-opacity="0.75" />
<circle cx="735.15" cy="207.55" r="3.2" fill="#d62728" fill-opacity="0.75" />
<circle cx="735.22" cy="207.55" r="3.2" fill="#d62728" fill-opacity="0.75" />
<circle cx="735.30" cy="207.55" r="3.2" fill="#d62728" fill-opacity="0.75" />
<circle cx="735.60" cy="207.55" r="3.2" fill="#d62728" fill-opacity="0.75" />
<circle cx="735.67" cy="207.55" r="3.2" fill="#d62728" fill-opacity="0.75" />
<circle cx="735.82" cy="207.55" r="3.2" fill="#d62728" fill-opacity="0.75" />
<circle cx="735.97" cy="207.55" r="3.2" fill="#d62728" fill-opacity="0.75" />
<circle cx="736.12" cy="207.55" r="3.2" fill="#d62728" fill-opacity="0.75" />
<circle cx="736.20" cy="207.55" r="3.2" fill="#d62728" fill-opacity="0.75" />
<circle cx="736.35" cy="207.55" r="3.2" fill="#d62728" fill-opacity="0.75" />
<circle cx="736.50" cy="207.55" r="3.2" fill="#d62728" fill-opacity="0.75" />
<circle cx="738.76" cy="230.58" r="3.2" fill="#d62728" fill-opacity="0.75" />
<circle cx="743.19" cy="230.58" r="3.2" fill="#d62728" fill-opacity="0.75" />
<circle cx="744.10" cy="230.58" r="3.2" fill="#d62728" fill-opacity="0.75" />
<circle cx="744.70" cy="225.86" r="3.2" fill="#d62728" fill-opacity="0.75" />
<circle cx="746.05" cy="230.58" r="3.2" fill="#d62728" fill-opacity="0.75" />
<circle cx="746.58" cy="230.58" r="3.2" fill="#d62728" fill-opacity="0.75" />
<circle cx="746.88" cy="225.86" r="3.2" fill="#d62728" fill-opacity="0.75" />
<circle cx="752.60" cy="225.86" r="3.2" fill="#d62728" fill-opacity="0.75" />
<circle cx="753.05" cy="230.58" r="3.2" fill="#d62728" fill-opacity="0.75" />
<circle cx="753.20" cy="225.86" r="3.2" fill="#d62728" fill-opacity="0.75" />
<circle cx="755.00" cy="230.58" r="3.2" fill="#d62728" fill-opacity="0.75" />
<circle cx="758.16" cy="225.86" r="3.2" fill="#d62728" fill-opacity="0.75" />
<circle cx="760.64" cy="225.86" r="3.2" fill="#d62728" fill-opacity="0.75" />
<circle cx="761.17" cy="225.86" r="3.2" fill="#d62728" fill-opacity="0.75" />
<circle cx="764.56" cy="225.86" r="3.2" fill="#d62728" fill-opacity="0.75" />
<circle cx="768.77" cy="225.86" r="3.2" fill="#d62728" fill-opacity="0.75" />
<circle cx="771.55" cy="225.86" r="3.2" fill="#d62728" fill-opacity="0.75" />
<circle cx="772.15" cy="225.86" r="3.2" fill="#d62728" fill-opacity="0.75" />
<circle cx="775.61" cy="224.67" r="3.2" fill="#d62728" fill-opacity="0.75" />
<circle cx="776.44" cy="224.67" r="3.2" fill="#d62728" fill-opacity="0.75" />
<circle cx="777.72" cy="225.86" r="3.2" fill="#d62728" fill-opacity="0.75" />
<circle cx="781.86" cy="226.45" r="3.2" fill="#d62728" fill-opacity="0.75" />
<circle cx="782.01" cy="226.45" r="3.2" fill="#d62728" fill-opacity="0.75" />
<circle cx="782.31" cy="226.45" r="3.2" fill="#d62728" fill-opacity="0.75" />
<circle cx="784.11" cy="226.45" r="3.2" fill="#d62728" fill-opacity="0.75" />
<circle cx="784.49" cy="226.45" r="3.2" fill="#d62728" fill-opacity="0.75" />
<circle cx="786.75" cy="228.22" r="3.2" fill="#d62728" fill-opacity="0.75" />
<circle cx="789.75" cy="228.22" r="3.2" fill="#d62728" fill-opacity="0.75" />
<circle cx="794.19" cy="228.22" r="3.2" fill="#d62728" fill-opacity="0.75" />
<circle cx="795.17" cy="228.22" r="3.2" fill="#d62728" fill-opacity="0.75" />
<circle cx="795.85" cy="228.22" r="3.2" fill="#d62728" fill-opacity="0.75" />
<circle cx="796.45" cy="231.17" r="3.2" fill="#d62728" fill-opacity="0.75" />
<circle cx="797.95" cy="228.22" r="3.2" fill="#d62728" fill-opacity="0.75" />
<circle cx="798.93" cy="228.22" r="3.2" fill="#d62728" fill-opacity="0.75" />
<circle cx="799.38" cy="228.22" r="3.2" fill="#d62728" fill-opacity="0.75" />
<circle cx="799.46" cy="207.55" r="3.2" fill="#d62728" fill-opacity="0.75" />
<circle cx="799.61" cy="207.55" r="3.2" fill="#d62728" fill-opacity="0.75" />
<circle cx="803.37" cy="241.80" r="3.2" fill="#d62728" fill-opacity="0.75" />
<circle cx="808.18" cy="226.45" r="3.2" fill="#d62728" fill-opacity="0.75" />
<circle cx="808.48" cy="228.22" r="3.2" fill="#d62728" fill-opacity="0.75" />
<circle cx="811.57" cy="226.45" r="3.2" fill="#d62728" fill-opacity="0.75" />
<circle cx="817.13" cy="233.53" r="3.2" fill="#d62728" fill-opacity="0.75" />
<circle cx="818.86" cy="226.45" r="3.2" fill="#d62728" fill-opacity="0.75" />
<circle cx="820.59" cy="226.45" r="3.2" fill="#d62728" fill-opacity="0.75" />
<circle cx="821.27" cy="231.76" r="3.2" fill="#d62728" fill-opacity="0.75" />
<circle cx="821.80" cy="320.36" r="3.2" fill="#d62728" fill-opacity="0.75" />
<circle cx="825.93" cy="239.44" r="3.2" fill="#d62728" fill-opacity="0.75" />
<circle cx="831.65" cy="239.44" r="3.2" fill="#d62728" fill-opacity="0.75" />
<circle cx="832.10" cy="218.77" r="3.2" fill="#d62728" fill-opacity="0.75" />
<circle cx="839.02" cy="239.44" r="3.2" fill="#d62728" fill-opacity="0.75" />
<circle cx="840.00" cy="239.44" r="3.2" fill="#d62728" fill-opacity="0.75" />
<line x1="864" y1="88" x2="882" y2="88" stroke="#d62728" stroke-width="2.4" />
<circle cx="873" cy="88" r="3.2" fill="#d62728" />
<text x="892" y="92" font-size="13" font-family="Arial, sans-serif">Truck replacement greedy</text>
</svg>
