<svg xmlns="http://www.w3.org/2000/svg" width="1100" height="620" viewBox="0 0 1100 620">
<title>R_20_statistics Two-Opt Arrival Screened Deltas</title>
<rect x="0" y="0" width="1100" height="620" fill="white" />
<text x="550.0" y="34" text-anchor="middle" font-size="24" font-family="Arial, sans-serif">R_20_statistics Two-Opt Arrival Screened Deltas</text>
<line x1="90" y1="540.00" x2="840" y2="540.00" stroke="#dddddd" stroke-width="1" />
<text x="80" y="544.00" text-anchor="end" font-size="12" font-family="Arial, sans-serif">-1707</text>
<line x1="90" y1="446.00" x2="840" y2="446.00" stroke="#dddddd" stroke-width="1" />
<text x="80" y="450.00" text-anchor="end" font-size="12" font-family="Arial, sans-serif">-1008</text>
<line x1="90" y1="352.00" x2="840" y2="352.00" stroke="#dddddd" stroke-width="1" />
<text x="80" y="356.00" text-anchor="end" font-size="12" font-family="Arial, sans-serif">-310.2</text>
<line x1="90" y1="258.00" x2="840" y2="258.00" stroke="#dddddd" stroke-width="1" />
<text x="80" y="262.00" text-anchor="end" font-size="12" font-family="Arial, sans-serif">388.2</text>
<line x1="90" y1="164.00" x2="840" y2="164.00" stroke="#dddddd" stroke-width="1" />
<text x="80" y="168.00" text-anchor="end" font-size="12" font-family="Arial, sans-serif">1086</text>
<line x1="90" y1="70.00" x2="840" y2="70.00" stroke="#dddddd" stroke-width="1" />
<text x="80" y="74.00" text-anchor="end" font-size="12" font-family="Arial, sans-serif">1785</text>
<line x1="90.00" y1="70" x2="90.00" y2="540" stroke="#f0f0f0" stroke-width="1" />
<text x="90.00" y="564" text-anchor="middle" font-size="12" font-family="Arial, sans-serif">2</text>
<line x1="240.00" y1="70" x2="240.00" y2="540" stroke="#f0f0f0" stroke-width="1" />
<text x="240.00" y="564" text-anchor="middle" font-size="12" font-family="Arial, sans-serif">1937</text>
<line x1="390.00" y1="70" x2="390.00" y2="540" stroke="#f0f0f0" stroke-width="1" />
<text x="390.00" y="564" text-anchor="middle" font-size="12" font-family="Arial, sans-serif">3872</text>
<line x1="540.00" y1="70" x2="540.00" y2="540" stroke="#f0f0f0" stroke-width="1" />
<text x="540.00" y="564" text-anchor="middle" font-size="12" font-family="Arial, sans-serif">5808</text>
<line x1="690.00" y1="70" x2="690.00" y2="540" stroke="#f0f0f0" stroke-width="1" />
<text x="690.00" y="564" text-anchor="middle" font-size="12" font-family="Arial, sans-serif">7743</text>
<line x1="840.00" y1="70" x2="840.00" y2="540" stroke="#f0f0f0" stroke-width="1" />
<text x="840.00" y="564" text-anchor="middle" font-size="12" font-family="Arial, sans-serif">9678</text>
<rect x="90" y="70" width="750" height="470" fill="none" stroke="#333333" stroke-width="1.5" />
<text x="465.0" y="600" text-anchor="middle" font-size="15" font-family="Arial, sans-serif">Iteration</text>
<text x="24" y="305.0" text-anchor="middle" font-size="15" font-family="Arial, sans-serif" transform="rotate(-90 24 305.0)">Delta</text>
<circle cx="90.00" cy="460.47" r="3.2" fill="#1f77b4" fill-opacity="0.75" />
<circle cx="90.23" cy="507.59" r="3.2" fill="#1f77b4" fill-opacity="0.75" />
<circle cx="90.39" cy="380.52" r="3.2" fill="#1f77b4" fill-opacity="0.75" />
<circle cx="90.70" cy="359.38" r="3.2" fill="#1f77b4" fill-opacity="0.75" />
<circle cx="91.24" cy="351.44" r="3.2" fill="#1f77b4" fill-opacity="0.75" />
<circle cx="91.47" cy="347.67" r="3.2" fill="#1f77b4" fill-opacity="0.75" />
<circle cx="91.94" cy="349.02" r="3.2" fill="#1f77b4" fill-opacity="0.75" />
<circle cx="92.09" cy="303.79" r="3.2" fill="#1f77b4" fill-opacity="0.75" />
<circle cx="92.17" cy="303.79" r="3.2" fill="#1f77b4" fill-opacity="0.75" />
<circle cx="92.25" cy="303.79" r="3.2" fill="#1f77b4" fill-opacity="0.75" />
<circle cx="92.95" cy="298.40" r="3.2" fill="#1f77b4" fill-opacity="0.75" />
<circle cx="93.02" cy="319.13" r="3.2" fill="#1f77b4" fill-opacity="0.75" />
<circle cx="93.95" cy="321.42" r="3.2" fill="#1f77b4" fill-opacity="0.75" />
<circle cx="94.03" cy="313.75" r="3.2" fill="#1f77b4" fill-opacity="0.75" />
<circle cx="96.28" cy="321.96" r="3.2" fill="#1f77b4" fill-opacity="0.75" />
<circle cx="97.83" cy="324.65" r="3.2" fill="#1f77b4" fill-opacity="0.75" />
<circle cx="99.07" cy="309.85" r="3.2" fill="#1f77b4" fill-opacity="0.75" />
<circle cx="99.53" cy="309.85" r="3.2" fill="#1f77b4" fill-opacity="0.75" />
<circle cx="100.15" cy="309.85" r="3.2" fill="#1f77b4" fill-opacity="0.75" />
<circle cx="102.94" cy="313.75" r="3.2" fill="#1f77b4" fill-opacity="0.75" />
<circle cx="104.03" cy="313.75" r="3.2" fill="#1f77b4" fill-opacity="0.75" />
<circle cx="105.19" cy="313.75" r="3.2" fill="#1f77b4" fill-opacity="0.75" />
<circle cx="108.60" cy="309.85" r="3.2" fill="#1f77b4" fill-opacity="0.75" />
<circle cx="110.31" cy="309.85" r="3.2" fill="#1f77b4" fill-opacity="0.75" />
<circle cx="112.25" cy="309.85" r="3.2" fill="#1f77b4" fill-opacity="0.75" />
<circle cx="114.65" cy="331.65" r="3.2" fill="#1f77b4" fill-opacity="0.75" />
<circle cx="115.11" cy="321.96" r="3.2" fill="#1f77b4" fill-opacity="0.75" />
<circle cx="115.42" cy="314.56" r="3.2" fill="#1f77b4" fill-opacity="0.75" />
<circle cx="119.53" cy="312.94" r="3.2" fill="#1f77b4" fill-opacity="0.75" />
<circle cx="126.97" cy="320.75" r="3.2" fill="#1f77b4" fill-opacity="0.75" />
<circle cx="150.38" cy="319.54" r="3.2" fill="#1f77b4" fill-opacity="0.75" />
<circle cx="164.49" cy="313.75" r="3.2" fill="#1f77b4" fill-opacity="0.75" />
<circle cx="165.11" cy="313.75" r="3.2" fill="#1f77b4" fill-opacity="0.75" />
<circle cx="171.46" cy="317.65" r="3.2" fill="#1f77b4" fill-opacity="0.75" />
<circle cx="195.96" cy="313.75" r="3.2" fill="#1f77b4" fill-opacity="0.75" />
<circle cx="210.07" cy="311.87" r="3.2" fill="#1f77b4" fill-opacity="0.75" />
<circle cx="226.96" cy="311.60" r="3.2" fill="#1f77b4" fill-opacity="0.75" />
<circle cx="228.44" cy="313.75" r="3.2" fill="#1f77b4" fill-opacity="0.75" />
<circle cx="233.09" cy="314.42" r="3.2" fill="#1f77b4" fill-opacity="0.75" />
<circle cx="233.16" cy="311.46" r="3.2" fill="#1f77b4" fill-opacity="0.75" />
<circle cx="233.55" cy="312.94" r="3.2" fill="#1f77b4" fill-opacity="0.75" />
<circle cx="233.78" cy="294.50" r="3.2" fill="#1f77b4" fill-opacity="0.75" />
<circle cx="235.18" cy="311.87" r="3.2" fill="#1f77b4" fill-opacity="0.75" />
<circle cx="235.80" cy="312.94" r="3.2" fill="#1f77b4" fill-opacity="0.75" />
<circle cx="235.95" cy="284.94" r="3.2" fill="#1f77b4" fill-opacity="0.75" />
<circle cx="236.03" cy="284.94" r="3.2" fill="#1f77b4" fill-opacity="0.75" />
<circle cx="236.11" cy="284.94" r="3.2" fill="#1f77b4" fill-opacity="0.75" />
<circle cx="236.34" cy="284.94" r="3.2" fill="#1f77b4" fill-opacity="0.75" />
<circle cx="236.42" cy="284.94" r="3.2" fill="#1f77b4" fill-opacity="0.75" />
<circle cx="236.81" cy="283.33" r="3.2" fill="#1f77b4" fill-opacity="0.75" />
<circle cx="237.19" cy="290.06" r="3.2" fill="#1f77b4" fill-opacity="0.75" />
<circle cx="237.27" cy="290.06" r="3.2" fill="#1f77b4" fill-opacity="0.75" />
<circle cx="238.05" cy="290.06" r="3.2" fill="#1f77b4" fill-opacity="0.75" />
<circle cx="238.28" cy="283.33" r="3.2" fill="#1f77b4" fill-opacity="0.75" />
<circle cx="239.36" cy="291.67" r="3.2" fill="#1f77b4" fill-opacity="0.75" />
<circle cx="239.75" cy="291.67" r="3.2" fill="#1f77b4" fill-opacity="0.75" />
<circle cx="240.06" cy="291.67" r="3.2" fill="#1f77b4" fill-opacity="0.75" />
<circle cx="240.22" cy="291.67" r="3.2" fill="#1f77b4" fill-opacity="0.75" />
<circle cx="240.29" cy="291.67" r="3.2" fill="#1f77b4" fill-opacity="0.75" />
<circle cx="240.45" cy="291.67" r="3.2" fill="#1f77b4" fill-opacity="0.75" />
<circle cx="240.60" cy="291.67" r="3.2" fill="#1f77b4" fill-opacity="0.75" />
<circle cx="241.53" cy="276.60" r="3.2" fill="#1f77b4" fill-opacity="0.75" />
<circle cx="241.61" cy="276.60" r="3.2" fill="#1f77b4" fill-opacity="0.75" />
<circle cx="241.92" cy="283.33" r="3.2" fill="#1f77b4" fill-opacity="0.75" />
<circle cx="242.77" cy="291.67" r="3.2" fill="#1f77b4" fill-opacity="0.75" />
<circle cx="243.08" cy="291.67" r="3.2" fill="#1f77b4" fill-opacity="0.75" />
<circle cx="243.39" cy="291.67" r="3.2" fill="#1f77b4" fill-opacity="0.75" />
<circle cx="245.33" cy="312.94" r="3.2" fill="#1f77b4" fill-opacity="0.75" />
<circle cx="245.41" cy="284.94" r="3.2" fill="#1f77b4" fill-opacity="0.75" />
<circle cx="245.49" cy="284.94" r="3.2" fill="#1f77b4" fill-opacity="0.75" />
<circle cx="245.72" cy="284.94" r="3.2" fill="#1f77b4" fill-opacity="0.75" />
<circle cx="246.65" cy="291.67" r="3.2" fill="#1f77b4" fill-opacity="0.75" />
<circle cx="247.12" cy="291.67" r="3.2" fill="#1f77b4" fill-opacity="0.75" />
<circle cx="247.19" cy="291.67" r="3.2" fill="#1f77b4" fill-opacity="0.75" />
<circle cx="247.27" cy="291.67" r="3.2" fill="#1f77b4" fill-opacity="0.75" />
<circle cx="249.52" cy="291.67" r="3.2" fill="#1f77b4" fill-opacity="0.75" />
<circle cx="249.83" cy="291.67" r="3.2" fill="#1f77b4" fill-opacity="0.75" />
<circle cx="250.06" cy="291.67" r="3.2" fill="#1f77b4" fill-opacity="0.75" />
<circle cx="250.29" cy="291.67" r="3.2" fill="#1f77b4" fill-opacity="0.75" />
<circle cx="250.68" cy="278.21" r="3.2" fill="#1f77b4" fill-opacity="0.75" />
<circle cx="251.07" cy="284.94" r="3.2" fill="#1f77b4" fill-opacity="0.75" />
<circle cx="251.22" cy="291.67" r="3.2" fill="#1f77b4" fill-opacity="0.75" />
<circle cx="251.38" cy="291.67" r="3.2" fill="#1f77b4" fill-opacity="0.75" />
<circle cx="251.53" cy="291.67" r="3.2" fill="#1f77b4" fill-opacity="0.75" />
<circle cx="254.32" cy="291.67" r="3.2" fill="#1f77b4" fill-opacity="0.75" />
<circle cx="254.56" cy="291.67" r="3.2" fill="#1f77b4" fill-opacity="0.75" />
<circle cx="254.79" cy="291.67" r="3.2" fill="#1f77b4" fill-opacity="0.75" />
<circle cx="254.94" cy="291.67" r="3.2" fill="#1f77b4" fill-opacity="0.75" />
<circle cx="255.02" cy="291.67" r="3.2" fill="#1f77b4" fill-opacity="0.75" />
<circle cx="255.18" cy="291.67" r="3.2" fill="#1f77b4" fill-opacity="0.75" />
<circle cx="255.33" cy="291.67" r="3.2" fill="#1f77b4" fill-opacity="0.75" />
<circle cx="255.41" cy="291.67" r="3.2" fill="#1f77b4" fill-opacity="0.75" />
<circle cx="255.49" cy="291.67" r="3.2" fill="#1f77b4" fill-opacity="0.75" />
<circle cx="255.80" cy="291.67" r="3.2" fill="#1f77b4" fill-opacity="0.75" />
<circle cx="255.95" cy="291.67" r="3.2" fill="#1f77b4" fill-opacity="0.75" />
<circle cx="256.11" cy="291.67" r="3.2" fill="#1f77b4" fill-opacity="0.75" />
<circle cx="256.26" cy="291.67" r="3.2" fill="#1f77b4" fill-opacity="0.75" />
<circle cx="256.73" cy="291.67" r="3.2" fill="#1f77b4" fill-opacity="0.75" />
<circle cx="256.96" cy="291.67" r="3.2" fill="#1f77b4" fill-opacity="0.75" />
<circle cx="261.84" cy="375.13" r="3.2" fill="#1f77b4" fill-opacity="0.75" />
<circle cx="262.23" cy="337.71" r="3.2" fill="#1f77b4" fill-opacity="0.75" />
<circle cx="262.46" cy="316.71" r="3.2" fill="#1f77b4" fill-opacity="0.75" />
<circle cx="262.62" cy="218.85" r="3.2" fill="#1f77b4" fill-opacity="0.75" />
<circle cx="263.01" cy="309.71" r="3.2" fill="#1f77b4" fill-opacity="0.75" />
<circle cx="263.47" cy="310.12" r="3.2" fill="#1f77b4" fill-opacity="0.75" />
<circle cx="268.28" cy="290.46" r="3.2" fill="#1f77b4" fill-opacity="0.75" />
<circle cx="268.51" cy="303.52" r="3.2" fill="#1f77b4" fill-opacity="0.75" />
<circle cx="268.66" cy="303.52" r="3.2" fill="#1f77b4" fill-opacity="0.75" />
<circle cx="268.74" cy="303.52" r="3.2" fill="#1f77b4" fill-opacity="0.75" />
<circle cx="269.28" cy="303.52" r="3.2" fill="#1f77b4" fill-opacity="0.75" />
<circle cx="269.36" cy="303.52" r="3.2" fill="#1f77b4" fill-opacity="0.75" />
<circle cx="270.37" cy="303.52" r="3.2" fill="#1f77b4" fill-opacity="0.75" />
<circle cx="270.76" cy="300.83" r="3.2" fill="#1f77b4" fill-opacity="0.75" />
<circle cx="274.09" cy="314.29" r="3.2" fill="#1f77b4" fill-opacity="0.75" />
<circle cx="280.14" cy="302.58" r="3.2" fill="#1f77b4" fill-opacity="0.75" />
<circle cx="280.99" cy="306.88" r="3.2" fill="#1f77b4" fill-opacity="0.75" />
<circle cx="311.14" cy="302.58" r="3.2" fill="#1f77b4" fill-opacity="0.75" />
<circle cx="311.37" cy="302.58" r="3.2" fill="#1f77b4" fill-opacity="0.75" />
<circle cx="311.68" cy="302.58" r="3.2" fill="#1f77b4" fill-opacity="0.75" />
<circle cx="311.76" cy="302.58" r="3.2" fill="#1f77b4" fill-opacity="0.75" />
<circle cx="311.99" cy="302.58" r="3.2" fill="#1f77b4" fill-opacity="0.75" />
<circle cx="312.15" cy="302.58" r="3.2" fill="#1f77b4" fill-opacity="0.75" />
<circle cx="312.30" cy="102.41" r="3.2" fill="#1f77b4" fill-opacity="0.75" />
<circle cx="312.92" cy="184.53" r="3.2" fill="#1f77b4" fill-opacity="0.75" />
<circle cx="313.70" cy="187.62" r="3.2" fill="#1f77b4" fill-opacity="0.75" />
<circle cx="313.93" cy="187.62" r="3.2" fill="#1f77b4" fill-opacity="0.75" />
<circle cx="314.16" cy="187.62" r="3.2" fill="#1f77b4" fill-opacity="0.75" />
<circle cx="314.32" cy="187.62" r="3.2" fill="#1f77b4" fill-opacity="0.75" />
<circle cx="314.40" cy="187.62" r="3.2" fill="#1f77b4" fill-opacity="0.75" />
<circle cx="314.71" cy="187.62" r="3.2" fill="#1f77b4" fill-opacity="0.75" />
<circle cx="314.86" cy="187.62" r="3.2" fill="#1f77b4" fill-opacity="0.75" />
<circle cx="315.02" cy="187.62" r="3.2" fill="#1f77b4" fill-opacity="0.75" />
<circle cx="315.25" cy="187.62" r="3.2" fill="#1f77b4" fill-opacity="0.75" />
<circle cx="315.79" cy="179.14" r="3.2" fill="#1f77b4" fill-opacity="0.75" />
<circle cx="315.95" cy="179.41" r="3.2" fill="#1f77b4" fill-opacity="0.75" />
<circle cx="317.34" cy="187.62" r="3.2" fill="#1f77b4" fill-opacity="0.75" />
<circle cx="317.81" cy="187.62" r="3.2" fill="#1f77b4" fill-opacity="0.75" />
<circle cx="318.43" cy="187.62" r="3.2" fill="#1f77b4" fill-opacity="0.75" />
<circle cx="318.50" cy="187.62" r="3.2" fill="#1f77b4" fill-opacity="0.75" />
<circle cx="319.20" cy="187.62" r="3.2" fill="#1f77b4" fill-opacity="0.75" />
<circle cx="319.28" cy="187.62" r="3.2" fill="#1f77b4" fill-opacity="0.75" />
<circle cx="319.59" cy="187.62" r="3.2" fill="#1f77b4" fill-opacity="0.75" />
<circle cx="320.21" cy="187.62" r="3.2" fill="#1f77b4" fill-opacity="0.75" />
<circle cx="320.36" cy="187.62" r="3.2" fill="#1f77b4" fill-opacity="0.75" />
<circle cx="321.45" cy="334.21" r="3.2" fill="#1f77b4" fill-opacity="0.75" />
<circle cx="353.00" cy="310.52" r="3.2" fill="#1f77b4" fill-opacity="0.75" />
<circle cx="353.38" cy="310.38" r="3.2" fill="#1f77b4" fill-opacity="0.75" />
<circle cx="354.93" cy="308.90" r="3.2" fill="#1f77b4" fill-opacity="0.75" />
<circle cx="355.24" cy="308.90" r="3.2" fill="#1f77b4" fill-opacity="0.75" />
<circle cx="360.36" cy="309.04" r="3.2" fill="#1f77b4" fill-opacity="0.75" />
<circle cx="362.37" cy="309.04" r="3.2" fill="#1f77b4" fill-opacity="0.75" />
<circle cx="363.31" cy="309.04" r="3.2" fill="#1f77b4" fill-opacity="0.75" />
<circle cx="363.77" cy="309.04" r="3.2" fill="#1f77b4" fill-opacity="0.75" />
<circle cx="384.00" cy="342.96" r="3.2" fill="#1f77b4" fill-opacity="0.75" />
<circle cx="423.22" cy="310.65" r="3.2" fill="#1f77b4" fill-opacity="0.75" />
<circle cx="566.00" cy="308.63" r="3.2" fill="#1f77b4" fill-opacity="0.75" />
<circle cx="566.07" cy="308.63" r="3.2" fill="#1f77b4" fill-opacity="0.75" />
<circle cx="566.15" cy="308.63" r="3.2" fill="#1f77b4" fill-opacity="0.75" />
<circle cx="567.32" cy="309.71" r="3.2" fill="#1f77b4" fill-opacity="0.75" />
<circle cx="567.70" cy="311.87" r="3.2" fill="#1f77b4" fill-opacity="0.75" />
<circle cx="580.65" cy="309.71" r="3.2" fill="#1f77b4" fill-opacity="0.75" />
<circle cx="581.27" cy="309.71" r="3.2" fill="#1f77b4" fill-opacity="0.75" />
<circle cx="582.74" cy="309.71" r="3.2" fill="#1f77b4" fill-opacity="0.75" />
<circle cx="583.90" cy="309.71" r="3.2" fill="#1f77b4" fill-opacity="0.75" />
<circle cx="584.37" cy="309.71" r="3.2" fill="#1f77b4" fill-opacity="0.75" />
<circle cx="585.69" cy="309.71" r="3.2" fill="#1f77b4" fill-opacity="0.75" />
<circle cx="586.15" cy="310.52" r="3.2" fill="#1f77b4" fill-opacity="0.75" />
<circle cx="586.31" cy="308.10" r="3.2" fill="#1f77b4" fill-opacity="0.75" />
<circle cx="586.77" cy="308.10" r="3.2" fill="#1f77b4" fill-opacity="0.75" />
<circle cx="587.24" cy="308.10" r="3.2" fill="#1f77b4" fill-opacity="0.75" />
<circle cx="587.55" cy="310.38" r="3.2" fill="#1f77b4" fill-opacity="0.75" />
<circle cx="591.42" cy="309.85" r="3.2" fill="#1f77b4" fill-opacity="0.75" />
<circle cx="595.76" cy="311.87" r="3.2" fill="#1f77b4" fill-opacity="0.75" />
<circle cx="610.88" cy="311.60" r="3.2" fill="#1f77b4" fill-opacity="0.75" />
<circle cx="674.98" cy="310.79" r="3.2" fill="#1f77b4" fill-opacity="0.75" />
<circle cx="682.73" cy="310.79" r="3.2" fill="#1f77b4" fill-opacity="0.75" />
<circle cx="683.89" cy="310.79" r="3.2" fill="#1f77b4" fill-opacity="0.75" />
<circle cx="686.06" cy="312.54" r="3.2" fill="#1f77b4" fill-opacity="0.75" />
<circle cx="686.76" cy="309.04" r="3.2" fill="#1f77b4" fill-opacity="0.75" />
<circle cx="689.09" cy="309.04" r="3.2" fill="#1f77b4" fill-opacity="0.75" />
<circle cx="726.52" cy="317.92" r="3.2" fill="#1f77b4" fill-opacity="0.75" />
<circle cx="743.27" cy="310.65" r="3.2" fill="#1f77b4" fill-opacity="0.75" />
<circle cx="840.00" cy="335.15" r="3.2" fill="#1f77b4" fill-opacity="0.75" />
<line x1="864" y1="88" x2="882" y2="88" stroke="#1f77b4" stroke-width="2.4" />
<circle cx="873" cy="88" r="3.2" fill="#1f77b4" />
<text x="892" y="92" font-size="13" font-family="Arial, sans-serif">Two-Opt Arrival Screened</text>
</svg>
