<svg xmlns="http://www.w3.org/2000/svg" width="1100" height="620" viewBox="0 0 1100 620">
<title>F_50_statistics Truck replacement greedy Deltas</title>
<rect x="0" y="0" width="1100" height="620" fill="white" />
<text x="550.0" y="34" text-anchor="middle" font-size="24" font-family="Arial, sans-serif">F_50_statistics Truck replacement greedy Deltas</text>
<line x1="90" y1="540.00" x2="840" y2="540.00" stroke="#dddddd" stroke-width="1" />
<text x="80" y="544.00" text-anchor="end" font-size="12" font-family="Arial, sans-serif">-2246</text>
<line x1="90" y1="446.00" x2="840" y2="446.00" stroke="#dddddd" stroke-width="1" />
<text x="80" y="450.00" text-anchor="end" font-size="12" font-family="Arial, sans-serif">-1625</text>
<line x1="90" y1="352.00" x2="840" y2="352.00" stroke="#dddddd" stroke-width="1" />
<text x="80" y="356.00" text-anchor="end" font-size="12" font-family="Arial, sans-serif">-1003</text>
<line x1="90" y1="258.00" x2="840" y2="258.00" stroke="#dddddd" stroke-width="1" />
<text x="80" y="262.00" text-anchor="end" font-size="12" font-family="Arial, sans-serif">-381.7</text>
<line x1="90" y1="164.00" x2="840" y2="164.00" stroke="#dddddd" stroke-width="1" />
<text x="80" y="168.00" text-anchor="end" font-size="12" font-family="Arial, sans-serif">239.8</text>
<line x1="90" y1="70.00" x2="840" y2="70.00" stroke="#dddddd" stroke-width="1" />
<text x="80" y="74.00" text-anchor="end" font-size="12" font-family="Arial, sans-serif">861.3</text>
<line x1="90.00" y1="70" x2="90.00" y2="540" stroke="#f0f0f0" stroke-width="1" />
<text x="90.00" y="564" text-anchor="middle" font-size="12" font-family="Arial, sans-serif">1</text>
<line x1="240.00" y1="70" x2="240.00" y2="540" stroke="#f0f0f0" stroke-width="1" />
<text x="240.00" y="564" text-anchor="middle" font-size="12" font-family="Arial, sans-serif">2001</text>
<line x1="390.00" y1="70" x2="390.00" y2="540" stroke="#f0f0f0" stroke-width="1" />
<text x="390.00" y="564" text-anchor="middle" font-size="12" font-family="Arial, sans-serif">4000</text>
<line x1="540.00" y1="70" x2="540.00" y2="540" stroke="#f0f0f0" stroke-width="1" />
<text x="540.00" y="564" text-anchor="middle" font-size="12" font-family="Arial, sans-serif">6000</text>
<line x1="690.00" y1="70" x2="690.00" y2="540" stroke="#f0f0f0" stroke-width="1" />
<text x="690.00" y="564" text-anchor="middle" font-size="12" font-family="Arial, sans-serif">7999</text>
<line x1="840.00" y1="70" x2="840.00" y2="540" stroke="#f0f0f0" stroke-width="1" />
<text x="840.00" y="564" text-anchor="middle" font-size="12" font-family="Arial, sans-serif">9999</text>
<rect x="90" y="70" width="750" height="470" fill="none" stroke="#333333" stroke-width="1.5" />
<text x="465.0" y="600" text-anchor="middle" font-size="15" font-family="Arial, sans-serif">Iteration</text>
<text x="24" y="305.0" text-anchor="middle" font-size="15" font-family="Arial, sans-serif" transform="rotate(-90 24 305.0)">Delta</text>
<circle cx="90.00" cy="369.20" r="3.2" fill="#111111" fill-opacity="0.75" />
<circle cx="90.38" cy="338.50" r="3.2" fill="#111111" fill-opacity="0.75" />
<circle cx="90.83" cy="328.97" r="3.2" fill="#111111" fill-opacity="0.75" />
<circle cx="91.35" cy="477.19" r="3.2" fill="#111111" fill-opacity="0.75" />
<circle cx="91.43" cy="394.16" r="3.2" fill="#111111" fill-opacity="0.75" />
<circle cx="91.65" cy="358.16" r="3.2" fill="#111111" fill-opacity="0.75" />
<circle cx="92.10" cy="350.75" r="3.2" fill="#111111" fill-opacity="0.75" />
<circle cx="92.70" cy="507.59" r="3.2" fill="#111111" fill-opacity="0.75" />
<circle cx="92.93" cy="309.76" r="3.2" fill="#111111" fill-opacity="0.75" />
<circle cx="93.08" cy="309.76" r="3.2" fill="#111111" fill-opacity="0.75" />
<circle cx="93.15" cy="272.41" r="3.2" fill="#111111" fill-opacity="0.75" />
<circle cx="93.30" cy="283.15" r="3.2" fill="#111111" fill-opacity="0.75" />
<circle cx="93.38" cy="264.09" r="3.2" fill="#111111" fill-opacity="0.75" />
<circle cx="93.45" cy="266.51" r="3.2" fill="#111111" fill-opacity="0.75" />
<circle cx="93.75" cy="251.23" r="3.2" fill="#111111" fill-opacity="0.75" />
<circle cx="94.13" cy="320.35" r="3.2" fill="#111111" fill-opacity="0.75" />
<circle cx="94.20" cy="280.73" r="3.2" fill="#111111" fill-opacity="0.75" />
<circle cx="94.58" cy="273.32" r="3.2" fill="#111111" fill-opacity="0.75" />
<circle cx="94.65" cy="267.27" r="3.2" fill="#111111" fill-opacity="0.75" />
<circle cx="94.95" cy="245.79" r="3.2" fill="#111111" fill-opacity="0.75" />
<circle cx="95.40" cy="224.16" r="3.2" fill="#111111" fill-opacity="0.75" />
<circle cx="95.48" cy="221.44" r="3.2" fill="#111111" fill-opacity="0.75" />
<circle cx="95.78" cy="235.20" r="3.2" fill="#111111" fill-opacity="0.75" />
<circle cx="95.93" cy="221.29" r="3.2" fill="#111111" fill-opacity="0.75" />
<circle cx="96.00" cy="220.68" r="3.2" fill="#111111" fill-opacity="0.75" />
<circle cx="96.08" cy="216.00" r="3.2" fill="#111111" fill-opacity="0.75" />
<circle cx="96.15" cy="212.97" r="3.2" fill="#111111" fill-opacity="0.75" />
<circle cx="96.23" cy="211.46" r="3.2" fill="#111111" fill-opacity="0.75" />
<circle cx="96.83" cy="220.23" r="3.2" fill="#111111" fill-opacity="0.75" />
<circle cx="97.58" cy="216.15" r="3.2" fill="#111111" fill-opacity="0.75" />
<circle cx="97.73" cy="212.21" r="3.2" fill="#111111" fill-opacity="0.75" />
<circle cx="97.95" cy="204.05" r="3.2" fill="#111111" fill-opacity="0.75" />
<circle cx="98.25" cy="183.93" r="3.2" fill="#111111" fill-opacity="0.75" />
<circle cx="98.63" cy="229.30" r="3.2" fill="#111111" fill-opacity="0.75" />
<circle cx="99.90" cy="207.83" r="3.2" fill="#111111" fill-opacity="0.75" />
<circle cx="103.05" cy="207.22" r="3.2" fill="#111111" fill-opacity="0.75" />
<circle cx="107.78" cy="201.48" r="3.2" fill="#111111" fill-opacity="0.75" />
<circle cx="109.95" cy="215.39" r="3.2" fill="#111111" fill-opacity="0.75" />
<circle cx="113.78" cy="227.94" r="3.2" fill="#111111" fill-opacity="0.75" />
<circle cx="114.15" cy="224.46" r="3.2" fill="#111111" fill-opacity="0.75" />
<circle cx="117.76" cy="239.59" r="3.2" fill="#111111" fill-opacity="0.75" />
<circle cx="117.83" cy="209.64" r="3.2" fill="#111111" fill-opacity="0.75" />
<circle cx="124.13" cy="200.72" r="3.2" fill="#111111" fill-opacity="0.75" />
<circle cx="128.86" cy="210.70" r="3.2" fill="#111111" fill-opacity="0.75" />
<circle cx="131.03" cy="223.41" r="3.2" fill="#111111" fill-opacity="0.75" />
<circle cx="132.83" cy="202.99" r="3.2" fill="#111111" fill-opacity="0.75" />
<circle cx="138.83" cy="223.41" r="3.2" fill="#111111" fill-opacity="0.75" />
<circle cx="142.14" cy="215.54" r="3.2" fill="#111111" fill-opacity="0.75" />
<circle cx="142.59" cy="215.54" r="3.2" fill="#111111" fill-opacity="0.75" />
<circle cx="142.96" cy="203.74" r="3.2" fill="#111111" fill-opacity="0.75" />
<circle cx="153.01" cy="215.54" r="3.2" fill="#111111" fill-opacity="0.75" />
<circle cx="156.69" cy="215.09" r="3.2" fill="#111111" fill-opacity="0.75" />
<circle cx="157.96" cy="215.09" r="3.2" fill="#111111" fill-opacity="0.75" />
<circle cx="161.79" cy="202.84" r="3.2" fill="#111111" fill-opacity="0.75" />
<circle cx="163.21" cy="215.54" r="3.2" fill="#111111" fill-opacity="0.75" />
<circle cx="171.47" cy="222.95" r="3.2" fill="#111111" fill-opacity="0.75" />
<circle cx="171.54" cy="201.63" r="3.2" fill="#111111" fill-opacity="0.75" />
<circle cx="171.84" cy="188.77" r="3.2" fill="#111111" fill-opacity="0.75" />
<circle cx="171.92" cy="188.77" r="3.2" fill="#111111" fill-opacity="0.75" />
<circle cx="172.14" cy="234.30" r="3.2" fill="#111111" fill-opacity="0.75" />
<circle cx="173.12" cy="200.72" r="3.2" fill="#111111" fill-opacity="0.75" />
<circle cx="174.54" cy="196.94" r="3.2" fill="#111111" fill-opacity="0.75" />
<circle cx="177.32" cy="204.95" r="3.2" fill="#111111" fill-opacity="0.75" />
<circle cx="177.92" cy="202.53" r="3.2" fill="#111111" fill-opacity="0.75" />
<circle cx="181.37" cy="207.68" r="3.2" fill="#111111" fill-opacity="0.75" />
<circle cx="181.44" cy="208.43" r="3.2" fill="#111111" fill-opacity="0.75" />
<circle cx="186.54" cy="207.37" r="3.2" fill="#111111" fill-opacity="0.75" />
<circle cx="187.14" cy="212.52" r="3.2" fill="#111111" fill-opacity="0.75" />
<circle cx="187.37" cy="199.21" r="3.2" fill="#111111" fill-opacity="0.75" />
<circle cx="188.42" cy="200.87" r="3.2" fill="#111111" fill-opacity="0.75" />
<circle cx="198.55" cy="207.53" r="3.2" fill="#111111" fill-opacity="0.75" />
<circle cx="199.30" cy="209.95" r="3.2" fill="#111111" fill-opacity="0.75" />
<circle cx="199.52" cy="200.87" r="3.2" fill="#111111" fill-opacity="0.75" />
<circle cx="211.15" cy="203.90" r="3.2" fill="#111111" fill-opacity="0.75" />
<circle cx="214.90" cy="188.77" r="3.2" fill="#111111" fill-opacity="0.75" />
<circle cx="215.13" cy="188.77" r="3.2" fill="#111111" fill-opacity="0.75" />
<circle cx="215.28" cy="188.77" r="3.2" fill="#111111" fill-opacity="0.75" />
<circle cx="216.63" cy="188.77" r="3.2" fill="#111111" fill-opacity="0.75" />
<circle cx="217.45" cy="188.77" r="3.2" fill="#111111" fill-opacity="0.75" />
<circle cx="217.68" cy="188.77" r="3.2" fill="#111111" fill-opacity="0.75" />
<circle cx="217.75" cy="188.77" r="3.2" fill="#111111" fill-opacity="0.75" />
<circle cx="217.83" cy="188.77" r="3.2" fill="#111111" fill-opacity="0.75" />
<circle cx="218.05" cy="188.77" r="3.2" fill="#111111" fill-opacity="0.75" />
<circle cx="218.13" cy="188.77" r="3.2" fill="#111111" fill-opacity="0.75" />
<circle cx="218.20" cy="188.77" r="3.2" fill="#111111" fill-opacity="0.75" />
<circle cx="224.95" cy="207.53" r="3.2" fill="#111111" fill-opacity="0.75" />
<circle cx="225.70" cy="207.68" r="3.2" fill="#111111" fill-opacity="0.75" />
<circle cx="228.85" cy="222.95" r="3.2" fill="#111111" fill-opacity="0.75" />
<circle cx="231.10" cy="202.69" r="3.2" fill="#111111" fill-opacity="0.75" />
<circle cx="233.73" cy="203.90" r="3.2" fill="#111111" fill-opacity="0.75" />
<circle cx="246.48" cy="210.85" r="3.2" fill="#111111" fill-opacity="0.75" />
<circle cx="252.86" cy="102.41" r="3.2" fill="#111111" fill-opacity="0.75" />
<circle cx="252.93" cy="102.41" r="3.2" fill="#111111" fill-opacity="0.75" />
<circle cx="253.23" cy="102.41" r="3.2" fill="#111111" fill-opacity="0.75" />
<circle cx="253.61" cy="102.41" r="3.2" fill="#111111" fill-opacity="0.75" />
<circle cx="253.68" cy="102.41" r="3.2" fill="#111111" fill-opacity="0.75" />
<circle cx="254.66" cy="102.41" r="3.2" fill="#111111" fill-opacity="0.75" />
<circle cx="254.73" cy="102.41" r="3.2" fill="#111111" fill-opacity="0.75" />
<circle cx="255.18" cy="102.41" r="3.2" fill="#111111" fill-opacity="0.75" />
<circle cx="255.56" cy="102.41" r="3.2" fill="#111111" fill-opacity="0.75" />
<circle cx="255.86" cy="102.41" r="3.2" fill="#111111" fill-opacity="0.75" />
<circle cx="256.38" cy="102.41" r="3.2" fill="#111111" fill-opacity="0.75" />
<circle cx="260.73" cy="161.25" r="3.2" fill="#111111" fill-opacity="0.75" />
<circle cx="260.88" cy="161.25" r="3.2" fill="#111111" fill-opacity="0.75" />
<circle cx="261.11" cy="161.25" r="3.2" fill="#111111" fill-opacity="0.75" />
<circle cx="261.26" cy="161.25" r="3.2" fill="#111111" fill-opacity="0.75" />
<circle cx="261.41" cy="203.90" r="3.2" fill="#111111" fill-opacity="0.75" />
<circle cx="261.56" cy="161.25" r="3.2" fill="#111111" fill-opacity="0.75" />
<circle cx="264.41" cy="210.85" r="3.2" fill="#111111" fill-opacity="0.75" />
<circle cx="264.86" cy="203.90" r="3.2" fill="#111111" fill-opacity="0.75" />
<circle cx="266.29" cy="222.50" r="3.2" fill="#111111" fill-opacity="0.75" />
<circle cx="266.81" cy="216.60" r="3.2" fill="#111111" fill-opacity="0.75" />
<circle cx="267.26" cy="206.92" r="3.2" fill="#111111" fill-opacity="0.75" />
<circle cx="267.41" cy="202.99" r="3.2" fill="#111111" fill-opacity="0.75" />
<circle cx="267.86" cy="211.46" r="3.2" fill="#111111" fill-opacity="0.75" />
<circle cx="268.01" cy="202.23" r="3.2" fill="#111111" fill-opacity="0.75" />
<circle cx="268.16" cy="201.02" r="3.2" fill="#111111" fill-opacity="0.75" />
<circle cx="268.24" cy="198.45" r="3.2" fill="#111111" fill-opacity="0.75" />
<circle cx="269.59" cy="200.11" r="3.2" fill="#111111" fill-opacity="0.75" />
<circle cx="269.81" cy="206.77" r="3.2" fill="#111111" fill-opacity="0.75" />
<circle cx="269.89" cy="200.11" r="3.2" fill="#111111" fill-opacity="0.75" />
<circle cx="270.56" cy="201.78" r="3.2" fill="#111111" fill-opacity="0.75" />
<circle cx="270.71" cy="204.05" r="3.2" fill="#111111" fill-opacity="0.75" />
<circle cx="270.94" cy="195.58" r="3.2" fill="#111111" fill-opacity="0.75" />
<circle cx="271.31" cy="195.58" r="3.2" fill="#111111" fill-opacity="0.75" />
<circle cx="272.36" cy="205.86" r="3.2" fill="#111111" fill-opacity="0.75" />
<circle cx="273.56" cy="200.42" r="3.2" fill="#111111" fill-opacity="0.75" />
<circle cx="275.81" cy="202.84" r="3.2" fill="#111111" fill-opacity="0.75" />
<circle cx="276.49" cy="202.84" r="3.2" fill="#111111" fill-opacity="0.75" />
<circle cx="279.04" cy="209.95" r="3.2" fill="#111111" fill-opacity="0.75" />
<circle cx="279.79" cy="205.56" r="3.2" fill="#111111" fill-opacity="0.75" />
<circle cx="279.94" cy="202.38" r="3.2" fill="#111111" fill-opacity="0.75" />
<circle cx="280.24" cy="202.84" r="3.2" fill="#111111" fill-opacity="0.75" />
<circle cx="281.29" cy="202.84" r="3.2" fill="#111111" fill-opacity="0.75" />
<circle cx="281.74" cy="202.84" r="3.2" fill="#111111" fill-opacity="0.75" />
<circle cx="282.04" cy="202.84" r="3.2" fill="#111111" fill-opacity="0.75" />
<circle cx="282.34" cy="202.84" r="3.2" fill="#111111" fill-opacity="0.75" />
<circle cx="283.24" cy="202.84" r="3.2" fill="#111111" fill-opacity="0.75" />
<circle cx="284.44" cy="205.56" r="3.2" fill="#111111" fill-opacity="0.75" />
<circle cx="284.74" cy="202.84" r="3.2" fill="#111111" fill-opacity="0.75" />
<circle cx="285.64" cy="202.84" r="3.2" fill="#111111" fill-opacity="0.75" />
<circle cx="285.94" cy="202.84" r="3.2" fill="#111111" fill-opacity="0.75" />
<circle cx="286.16" cy="202.84" r="3.2" fill="#111111" fill-opacity="0.75" />
<circle cx="290.67" cy="210.70" r="3.2" fill="#111111" fill-opacity="0.75" />
<circle cx="292.47" cy="196.64" r="3.2" fill="#111111" fill-opacity="0.75" />
<circle cx="293.44" cy="205.56" r="3.2" fill="#111111" fill-opacity="0.75" />
<circle cx="293.74" cy="205.56" r="3.2" fill="#111111" fill-opacity="0.75" />
<circle cx="293.89" cy="203.44" r="3.2" fill="#111111" fill-opacity="0.75" />
<circle cx="294.79" cy="205.56" r="3.2" fill="#111111" fill-opacity="0.75" />
<circle cx="294.87" cy="202.84" r="3.2" fill="#111111" fill-opacity="0.75" />
<circle cx="294.94" cy="202.53" r="3.2" fill="#111111" fill-opacity="0.75" />
<circle cx="297.27" cy="202.84" r="3.2" fill="#111111" fill-opacity="0.75" />
<circle cx="297.72" cy="202.84" r="3.2" fill="#111111" fill-opacity="0.75" />
<circle cx="299.14" cy="202.84" r="3.2" fill="#111111" fill-opacity="0.75" />
<circle cx="299.82" cy="202.84" r="3.2" fill="#111111" fill-opacity="0.75" />
<circle cx="300.12" cy="184.39" r="3.2" fill="#111111" fill-opacity="0.75" />
<circle cx="300.34" cy="184.39" r="3.2" fill="#111111" fill-opacity="0.75" />
<circle cx="300.49" cy="184.39" r="3.2" fill="#111111" fill-opacity="0.75" />
<circle cx="300.94" cy="202.84" r="3.2" fill="#111111" fill-opacity="0.75" />
<circle cx="301.09" cy="184.39" r="3.2" fill="#111111" fill-opacity="0.75" />
<circle cx="301.39" cy="184.39" r="3.2" fill="#111111" fill-opacity="0.75" />
<circle cx="301.84" cy="184.39" r="3.2" fill="#111111" fill-opacity="0.75" />
<circle cx="302.07" cy="184.39" r="3.2" fill="#111111" fill-opacity="0.75" />
<circle cx="302.22" cy="184.39" r="3.2" fill="#111111" fill-opacity="0.75" />
<circle cx="302.44" cy="184.39" r="3.2" fill="#111111" fill-opacity="0.75" />
<circle cx="302.52" cy="184.39" r="3.2" fill="#111111" fill-opacity="0.75" />
<circle cx="305.52" cy="202.84" r="3.2" fill="#111111" fill-opacity="0.75" />
<circle cx="308.59" cy="202.84" r="3.2" fill="#111111" fill-opacity="0.75" />
<circle cx="308.74" cy="202.84" r="3.2" fill="#111111" fill-opacity="0.75" />
<circle cx="311.44" cy="202.84" r="3.2" fill="#111111" fill-opacity="0.75" />
<circle cx="311.67" cy="202.84" r="3.2" fill="#111111" fill-opacity="0.75" />
<circle cx="313.09" cy="202.84" r="3.2" fill="#111111" fill-opacity="0.75" />
<circle cx="314.37" cy="202.84" r="3.2" fill="#111111" fill-opacity="0.75" />
<circle cx="316.55" cy="203.74" r="3.2" fill="#111111" fill-opacity="0.75" />
<circle cx="317.15" cy="202.84" r="3.2" fill="#111111" fill-opacity="0.75" />
<circle cx="317.97" cy="202.84" r="3.2" fill="#111111" fill-opacity="0.75" />
<circle cx="318.27" cy="202.84" r="3.2" fill="#111111" fill-opacity="0.75" />
<circle cx="319.32" cy="202.84" r="3.2" fill="#111111" fill-opacity="0.75" />
<circle cx="320.00" cy="202.84" r="3.2" fill="#111111" fill-opacity="0.75" />
<circle cx="320.60" cy="202.84" r="3.2" fill="#111111" fill-opacity="0.75" />
<circle cx="322.10" cy="210.70" r="3.2" fill="#111111" fill-opacity="0.75" />
<circle cx="323.52" cy="196.64" r="3.2" fill="#111111" fill-opacity="0.75" />
<circle cx="324.12" cy="146.58" r="3.2" fill="#111111" fill-opacity="0.75" />
<circle cx="324.35" cy="146.58" r="3.2" fill="#111111" fill-opacity="0.75" />
<circle cx="324.50" cy="146.58" r="3.2" fill="#111111" fill-opacity="0.75" />
<circle cx="324.65" cy="146.58" r="3.2" fill="#111111" fill-opacity="0.75" />
<circle cx="324.87" cy="144.91" r="3.2" fill="#111111" fill-opacity="0.75" />
<circle cx="325.40" cy="144.91" r="3.2" fill="#111111" fill-opacity="0.75" />
<circle cx="325.55" cy="202.84" r="3.2" fill="#111111" fill-opacity="0.75" />
<circle cx="325.92" cy="144.91" r="3.2" fill="#111111" fill-opacity="0.75" />
<circle cx="326.00" cy="144.91" r="3.2" fill="#111111" fill-opacity="0.75" />
<circle cx="326.22" cy="202.84" r="3.2" fill="#111111" fill-opacity="0.75" />
<circle cx="327.05" cy="144.91" r="3.2" fill="#111111" fill-opacity="0.75" />
<circle cx="327.42" cy="144.91" r="3.2" fill="#111111" fill-opacity="0.75" />
<circle cx="327.50" cy="144.91" r="3.2" fill="#111111" fill-opacity="0.75" />
<circle cx="327.57" cy="144.91" r="3.2" fill="#111111" fill-opacity="0.75" />
<circle cx="327.80" cy="203.29" r="3.2" fill="#111111" fill-opacity="0.75" />
<circle cx="328.02" cy="203.29" r="3.2" fill="#111111" fill-opacity="0.75" />
<circle cx="328.40" cy="202.84" r="3.2" fill="#111111" fill-opacity="0.75" />
<circle cx="328.47" cy="144.91" r="3.2" fill="#111111" fill-opacity="0.75" />
<circle cx="328.62" cy="144.91" r="3.2" fill="#111111" fill-opacity="0.75" />
<circle cx="328.77" cy="202.84" r="3.2" fill="#111111" fill-opacity="0.75" />
<circle cx="328.85" cy="144.91" r="3.2" fill="#111111" fill-opacity="0.75" />
<circle cx="328.92" cy="144.91" r="3.2" fill="#111111" fill-opacity="0.75" />
<circle cx="329.00" cy="144.91" r="3.2" fill="#111111" fill-opacity="0.75" />
<circle cx="329.67" cy="202.38" r="3.2" fill="#111111" fill-opacity="0.75" />
<circle cx="329.75" cy="144.91" r="3.2" fill="#111111" fill-opacity="0.75" />
<circle cx="329.82" cy="144.91" r="3.2" fill="#111111" fill-opacity="0.75" />
<circle cx="330.20" cy="203.29" r="3.2" fill="#111111" fill-opacity="0.75" />
<circle cx="330.35" cy="202.38" r="3.2" fill="#111111" fill-opacity="0.75" />
<circle cx="330.87" cy="202.84" r="3.2" fill="#111111" fill-opacity="0.75" />
<circle cx="330.95" cy="144.91" r="3.2" fill="#111111" fill-opacity="0.75" />
<circle cx="331.02" cy="144.91" r="3.2" fill="#111111" fill-opacity="0.75" />
<circle cx="331.17" cy="144.91" r="3.2" fill="#111111" fill-opacity="0.75" />
<circle cx="331.40" cy="144.91" r="3.2" fill="#111111" fill-opacity="0.75" />
<circle cx="331.55" cy="202.84" r="3.2" fill="#111111" fill-opacity="0.75" />
<circle cx="332.07" cy="144.91" r="3.2" fill="#111111" fill-opacity="0.75" />
<circle cx="332.22" cy="144.91" r="3.2" fill="#111111" fill-opacity="0.75" />
<circle cx="332.52" cy="144.91" r="3.2" fill="#111111" fill-opacity="0.75" />
<circle cx="332.60" cy="144.91" r="3.2" fill="#111111" fill-opacity="0.75" />
<circle cx="332.67" cy="144.91" r="3.2" fill="#111111" fill-opacity="0.75" />
<circle cx="332.82" cy="144.91" r="3.2" fill="#111111" fill-opacity="0.75" />
<circle cx="332.97" cy="144.91" r="3.2" fill="#111111" fill-opacity="0.75" />
<circle cx="333.05" cy="144.91" r="3.2" fill="#111111" fill-opacity="0.75" />
<circle cx="333.12" cy="144.91" r="3.2" fill="#111111" fill-opacity="0.75" />
<circle cx="333.20" cy="144.91" r="3.2" fill="#111111" fill-opacity="0.75" />
<circle cx="333.35" cy="144.91" r="3.2" fill="#111111" fill-opacity="0.75" />
<circle cx="333.42" cy="144.91" r="3.2" fill="#111111" fill-opacity="0.75" />
<circle cx="334.17" cy="144.91" r="3.2" fill="#111111" fill-opacity="0.75" />
<circle cx="334.32" cy="202.84" r="3.2" fill="#111111" fill-opacity="0.75" />
<circle cx="334.47" cy="144.91" r="3.2" fill="#111111" fill-opacity="0.75" />
<circle cx="334.55" cy="144.91" r="3.2" fill="#111111" fill-opacity="0.75" />
<circle cx="334.62" cy="144.91" r="3.2" fill="#111111" fill-opacity="0.75" />
<circle cx="334.77" cy="144.91" r="3.2" fill="#111111" fill-opacity="0.75" />
<circle cx="335.07" cy="144.91" r="3.2" fill="#111111" fill-opacity="0.75" />
<circle cx="335.15" cy="144.91" r="3.2" fill="#111111" fill-opacity="0.75" />
<circle cx="335.45" cy="202.84" r="3.2" fill="#111111" fill-opacity="0.75" />
<circle cx="335.52" cy="144.91" r="3.2" fill="#111111" fill-opacity="0.75" />
<circle cx="335.90" cy="202.84" r="3.2" fill="#111111" fill-opacity="0.75" />
<circle cx="336.27" cy="202.84" r="3.2" fill="#111111" fill-opacity="0.75" />
<circle cx="336.42" cy="144.91" r="3.2" fill="#111111" fill-opacity="0.75" />
<circle cx="336.57" cy="144.91" r="3.2" fill="#111111" fill-opacity="0.75" />
<circle cx="336.80" cy="202.84" r="3.2" fill="#111111" fill-opacity="0.75" />
<circle cx="337.02" cy="144.91" r="3.2" fill="#111111" fill-opacity="0.75" />
<circle cx="337.17" cy="144.91" r="3.2" fill="#111111" fill-opacity="0.75" />
<circle cx="337.55" cy="202.84" r="3.2" fill="#111111" fill-opacity="0.75" />
<circle cx="337.70" cy="144.91" r="3.2" fill="#111111" fill-opacity="0.75" />
<circle cx="337.85" cy="144.91" r="3.2" fill="#111111" fill-opacity="0.75" />
<circle cx="338.45" cy="205.56" r="3.2" fill="#111111" fill-opacity="0.75" />
<circle cx="338.90" cy="203.44" r="3.2" fill="#111111" fill-opacity="0.75" />
<circle cx="339.35" cy="202.84" r="3.2" fill="#111111" fill-opacity="0.75" />
<circle cx="339.57" cy="183.33" r="3.2" fill="#111111" fill-opacity="0.75" />
<circle cx="339.95" cy="183.33" r="3.2" fill="#111111" fill-opacity="0.75" />
<circle cx="340.25" cy="183.33" r="3.2" fill="#111111" fill-opacity="0.75" />
<circle cx="340.40" cy="202.84" r="3.2" fill="#111111" fill-opacity="0.75" />
<circle cx="340.70" cy="202.84" r="3.2" fill="#111111" fill-opacity="0.75" />
<circle cx="341.08" cy="183.33" r="3.2" fill="#111111" fill-opacity="0.75" />
<circle cx="341.23" cy="183.33" r="3.2" fill="#111111" fill-opacity="0.75" />
<circle cx="341.60" cy="202.84" r="3.2" fill="#111111" fill-opacity="0.75" />
<circle cx="341.98" cy="183.33" r="3.2" fill="#111111" fill-opacity="0.75" />
<circle cx="342.20" cy="202.84" r="3.2" fill="#111111" fill-opacity="0.75" />
<circle cx="342.28" cy="183.33" r="3.2" fill="#111111" fill-opacity="0.75" />
<circle cx="343.10" cy="202.84" r="3.2" fill="#111111" fill-opacity="0.75" />
<circle cx="343.25" cy="183.33" r="3.2" fill="#111111" fill-opacity="0.75" />
<circle cx="343.70" cy="183.33" r="3.2" fill="#111111" fill-opacity="0.75" />
<circle cx="344.30" cy="183.33" r="3.2" fill="#111111" fill-opacity="0.75" />
<circle cx="344.45" cy="202.84" r="3.2" fill="#111111" fill-opacity="0.75" />
<circle cx="344.83" cy="202.84" r="3.2" fill="#111111" fill-opacity="0.75" />
<circle cx="345.58" cy="205.56" r="3.2" fill="#111111" fill-opacity="0.75" />
<circle cx="345.65" cy="202.84" r="3.2" fill="#111111" fill-opacity="0.75" />
<circle cx="345.88" cy="183.33" r="3.2" fill="#111111" fill-opacity="0.75" />
<circle cx="345.95" cy="183.33" r="3.2" fill="#111111" fill-opacity="0.75" />
<circle cx="347.83" cy="221.44" r="3.2" fill="#111111" fill-opacity="0.75" />
<circle cx="352.78" cy="202.84" r="3.2" fill="#111111" fill-opacity="0.75" />
<circle cx="353.38" cy="208.43" r="3.2" fill="#111111" fill-opacity="0.75" />
<circle cx="353.75" cy="208.43" r="3.2" fill="#111111" fill-opacity="0.75" />
<circle cx="353.98" cy="200.87" r="3.2" fill="#111111" fill-opacity="0.75" />
<circle cx="354.05" cy="200.57" r="3.2" fill="#111111" fill-opacity="0.75" />
<circle cx="362.30" cy="217.05" r="3.2" fill="#111111" fill-opacity="0.75" />
<circle cx="362.98" cy="203.29" r="3.2" fill="#111111" fill-opacity="0.75" />
<circle cx="374.68" cy="203.29" r="3.2" fill="#111111" fill-opacity="0.75" />
<circle cx="375.28" cy="213.27" r="3.2" fill="#111111" fill-opacity="0.75" />
<circle cx="375.66" cy="203.29" r="3.2" fill="#111111" fill-opacity="0.75" />
<circle cx="381.36" cy="213.27" r="3.2" fill="#111111" fill-opacity="0.75" />
<circle cx="381.58" cy="213.27" r="3.2" fill="#111111" fill-opacity="0.75" />
<circle cx="381.73" cy="203.29" r="3.2" fill="#111111" fill-opacity="0.75" />
<circle cx="393.81" cy="213.27" r="3.2" fill="#111111" fill-opacity="0.75" />
<circle cx="394.19" cy="204.05" r="3.2" fill="#111111" fill-opacity="0.75" />
<circle cx="394.26" cy="201.48" r="3.2" fill="#111111" fill-opacity="0.75" />
<circle cx="406.56" cy="200.27" r="3.2" fill="#111111" fill-opacity="0.75" />
<circle cx="416.54" cy="203.29" r="3.2" fill="#111111" fill-opacity="0.75" />
<circle cx="416.84" cy="203.29" r="3.2" fill="#111111" fill-opacity="0.75" />
<circle cx="417.52" cy="202.99" r="3.2" fill="#111111" fill-opacity="0.75" />
<circle cx="419.02" cy="203.29" r="3.2" fill="#111111" fill-opacity="0.75" />
<circle cx="425.77" cy="213.27" r="3.2" fill="#111111" fill-opacity="0.75" />
<circle cx="428.09" cy="200.87" r="3.2" fill="#111111" fill-opacity="0.75" />
<circle cx="428.54" cy="203.29" r="3.2" fill="#111111" fill-opacity="0.75" />
<circle cx="431.54" cy="203.29" r="3.2" fill="#111111" fill-opacity="0.75" />
<circle cx="433.27" cy="203.29" r="3.2" fill="#111111" fill-opacity="0.75" />
<circle cx="433.79" cy="203.29" r="3.2" fill="#111111" fill-opacity="0.75" />
<circle cx="434.09" cy="203.29" r="3.2" fill="#111111" fill-opacity="0.75" />
<circle cx="434.69" cy="203.29" r="3.2" fill="#111111" fill-opacity="0.75" />
<circle cx="436.49" cy="213.27" r="3.2" fill="#111111" fill-opacity="0.75" />
<circle cx="437.92" cy="203.29" r="3.2" fill="#111111" fill-opacity="0.75" />
<circle cx="453.00" cy="213.27" r="3.2" fill="#111111" fill-opacity="0.75" />
<circle cx="461.02" cy="213.27" r="3.2" fill="#111111" fill-opacity="0.75" />
<circle cx="498.61" cy="203.29" r="3.2" fill="#111111" fill-opacity="0.75" />
<circle cx="502.66" cy="204.05" r="3.2" fill="#111111" fill-opacity="0.75" />
<circle cx="503.56" cy="203.29" r="3.2" fill="#111111" fill-opacity="0.75" />
<circle cx="513.83" cy="203.29" r="3.2" fill="#111111" fill-opacity="0.75" />
<circle cx="516.84" cy="203.29" r="3.2" fill="#111111" fill-opacity="0.75" />
<circle cx="517.36" cy="203.29" r="3.2" fill="#111111" fill-opacity="0.75" />
<circle cx="518.34" cy="203.29" r="3.2" fill="#111111" fill-opacity="0.75" />
<circle cx="529.74" cy="213.27" r="3.2" fill="#111111" fill-opacity="0.75" />
<circle cx="529.81" cy="203.29" r="3.2" fill="#111111" fill-opacity="0.75" />
<circle cx="533.56" cy="213.27" r="3.2" fill="#111111" fill-opacity="0.75" />
<circle cx="534.84" cy="203.29" r="3.2" fill="#111111" fill-opacity="0.75" />
<circle cx="552.84" cy="213.27" r="3.2" fill="#111111" fill-opacity="0.75" />
<circle cx="552.99" cy="203.29" r="3.2" fill="#111111" fill-opacity="0.75" />
<circle cx="562.74" cy="213.27" r="3.2" fill="#111111" fill-opacity="0.75" />
<circle cx="563.27" cy="203.29" r="3.2" fill="#111111" fill-opacity="0.75" />
<circle cx="584.42" cy="213.27" r="3.2" fill="#111111" fill-opacity="0.75" />
<circle cx="597.10" cy="213.27" r="3.2" fill="#111111" fill-opacity="0.75" />
<circle cx="599.20" cy="203.29" r="3.2" fill="#111111" fill-opacity="0.75" />
<circle cx="611.65" cy="205.41" r="3.2" fill="#111111" fill-opacity="0.75" />
<circle cx="612.78" cy="236.41" r="3.2" fill="#111111" fill-opacity="0.75" />
<circle cx="615.63" cy="207.37" r="3.2" fill="#111111" fill-opacity="0.75" />
<circle cx="616.16" cy="201.32" r="3.2" fill="#111111" fill-opacity="0.75" />
<circle cx="616.53" cy="201.32" r="3.2" fill="#111111" fill-opacity="0.75" />
<circle cx="619.68" cy="201.32" r="3.2" fill="#111111" fill-opacity="0.75" />
<circle cx="621.86" cy="201.32" r="3.2" fill="#111111" fill-opacity="0.75" />
<circle cx="622.53" cy="201.32" r="3.2" fill="#111111" fill-opacity="0.75" />
<circle cx="623.13" cy="201.32" r="3.2" fill="#111111" fill-opacity="0.75" />
<circle cx="624.03" cy="201.32" r="3.2" fill="#111111" fill-opacity="0.75" />
<circle cx="625.38" cy="201.32" r="3.2" fill="#111111" fill-opacity="0.75" />
<circle cx="626.81" cy="209.49" r="3.2" fill="#111111" fill-opacity="0.75" />
<circle cx="627.33" cy="200.87" r="3.2" fill="#111111" fill-opacity="0.75" />
<circle cx="630.78" cy="201.93" r="3.2" fill="#111111" fill-opacity="0.75" />
<circle cx="632.06" cy="202.69" r="3.2" fill="#111111" fill-opacity="0.75" />
<circle cx="632.13" cy="201.32" r="3.2" fill="#111111" fill-opacity="0.75" />
<circle cx="633.33" cy="201.32" r="3.2" fill="#111111" fill-opacity="0.75" />
<circle cx="633.86" cy="201.32" r="3.2" fill="#111111" fill-opacity="0.75" />
<circle cx="638.06" cy="201.32" r="3.2" fill="#111111" fill-opacity="0.75" />
<circle cx="638.43" cy="201.32" r="3.2" fill="#111111" fill-opacity="0.75" />
<circle cx="639.93" cy="201.32" r="3.2" fill="#111111" fill-opacity="0.75" />
<circle cx="640.54" cy="201.32" r="3.2" fill="#111111" fill-opacity="0.75" />
<circle cx="641.14" cy="201.32" r="3.2" fill="#111111" fill-opacity="0.75" />
<circle cx="642.49" cy="201.32" r="3.2" fill="#111111" fill-opacity="0.75" />
<circle cx="643.76" cy="201.32" r="3.2" fill="#111111" fill-opacity="0.75" />
<circle cx="644.74" cy="201.32" r="3.2" fill="#111111" fill-opacity="0.75" />
<circle cx="646.61" cy="202.69" r="3.2" fill="#111111" fill-opacity="0.75" />
<circle cx="646.69" cy="201.32" r="3.2" fill="#111111" fill-opacity="0.75" />
<circle cx="646.84" cy="201.32" r="3.2" fill="#111111" fill-opacity="0.75" />
<circle cx="647.89" cy="201.32" r="3.2" fill="#111111" fill-opacity="0.75" />
<circle cx="649.01" cy="202.69" r="3.2" fill="#111111" fill-opacity="0.75" />
<circle cx="649.16" cy="201.32" r="3.2" fill="#111111" fill-opacity="0.75" />
<circle cx="651.49" cy="201.32" r="3.2" fill="#111111" fill-opacity="0.75" />
<circle cx="652.39" cy="201.32" r="3.2" fill="#111111" fill-opacity="0.75" />
<circle cx="652.99" cy="202.69" r="3.2" fill="#111111" fill-opacity="0.75" />
<circle cx="653.96" cy="201.32" r="3.2" fill="#111111" fill-opacity="0.75" />
<circle cx="655.91" cy="201.32" r="3.2" fill="#111111" fill-opacity="0.75" />
<circle cx="656.59" cy="201.32" r="3.2" fill="#111111" fill-opacity="0.75" />
<circle cx="660.94" cy="201.32" r="3.2" fill="#111111" fill-opacity="0.75" />
<circle cx="661.39" cy="201.32" r="3.2" fill="#111111" fill-opacity="0.75" />
<circle cx="661.99" cy="201.32" r="3.2" fill="#111111" fill-opacity="0.75" />
<circle cx="663.19" cy="201.32" r="3.2" fill="#111111" fill-opacity="0.75" />
<circle cx="665.74" cy="201.32" r="3.2" fill="#111111" fill-opacity="0.75" />
<circle cx="665.89" cy="201.32" r="3.2" fill="#111111" fill-opacity="0.75" />
<circle cx="666.34" cy="201.32" r="3.2" fill="#111111" fill-opacity="0.75" />
<circle cx="668.29" cy="201.32" r="3.2" fill="#111111" fill-opacity="0.75" />
<circle cx="669.19" cy="201.32" r="3.2" fill="#111111" fill-opacity="0.75" />
<circle cx="669.79" cy="201.32" r="3.2" fill="#111111" fill-opacity="0.75" />
<circle cx="670.92" cy="201.32" r="3.2" fill="#111111" fill-opacity="0.75" />
<circle cx="671.59" cy="201.32" r="3.2" fill="#111111" fill-opacity="0.75" />
<circle cx="671.97" cy="201.32" r="3.2" fill="#111111" fill-opacity="0.75" />
<circle cx="672.42" cy="201.32" r="3.2" fill="#111111" fill-opacity="0.75" />
<circle cx="672.79" cy="201.32" r="3.2" fill="#111111" fill-opacity="0.75" />
<circle cx="673.92" cy="201.32" r="3.2" fill="#111111" fill-opacity="0.75" />
<circle cx="674.89" cy="201.32" r="3.2" fill="#111111" fill-opacity="0.75" />
<circle cx="675.34" cy="201.32" r="3.2" fill="#111111" fill-opacity="0.75" />
<circle cx="676.54" cy="201.32" r="3.2" fill="#111111" fill-opacity="0.75" />
<circle cx="676.84" cy="201.32" r="3.2" fill="#111111" fill-opacity="0.75" />
<circle cx="678.64" cy="201.32" r="3.2" fill="#111111" fill-opacity="0.75" />
<circle cx="678.87" cy="202.69" r="3.2" fill="#111111" fill-opacity="0.75" />
<circle cx="679.02" cy="201.32" r="3.2" fill="#111111" fill-opacity="0.75" />
<circle cx="679.24" cy="201.32" r="3.2" fill="#111111" fill-opacity="0.75" />
<circle cx="679.69" cy="201.32" r="3.2" fill="#111111" fill-opacity="0.75" />
<circle cx="681.34" cy="201.32" r="3.2" fill="#111111" fill-opacity="0.75" />
<circle cx="683.82" cy="201.32" r="3.2" fill="#111111" fill-opacity="0.75" />
<circle cx="684.94" cy="201.32" r="3.2" fill="#111111" fill-opacity="0.75" />
<circle cx="685.69" cy="202.69" r="3.2" fill="#111111" fill-opacity="0.75" />
<circle cx="685.84" cy="201.32" r="3.2" fill="#111111" fill-opacity="0.75" />
<circle cx="686.44" cy="201.32" r="3.2" fill="#111111" fill-opacity="0.75" />
<circle cx="687.42" cy="202.69" r="3.2" fill="#111111" fill-opacity="0.75" />
<circle cx="687.64" cy="201.32" r="3.2" fill="#111111" fill-opacity="0.75" />
<circle cx="688.92" cy="201.32" r="3.2" fill="#111111" fill-opacity="0.75" />
<circle cx="690.20" cy="201.32" r="3.2" fill="#111111" fill-opacity="0.75" />
<circle cx="690.72" cy="201.32" r="3.2" fill="#111111" fill-opacity="0.75" />
<circle cx="691.70" cy="201.32" r="3.2" fill="#111111" fill-opacity="0.75" />
<circle cx="691.85" cy="201.32" r="3.2" fill="#111111" fill-opacity="0.75" />
<circle cx="695.22" cy="201.32" r="3.2" fill="#111111" fill-opacity="0.75" />
<circle cx="699.35" cy="201.32" r="3.2" fill="#111111" fill-opacity="0.75" />
<circle cx="700.02" cy="201.32" r="3.2" fill="#111111" fill-opacity="0.75" />
<circle cx="701.75" cy="201.32" r="3.2" fill="#111111" fill-opacity="0.75" />
<circle cx="703.32" cy="202.69" r="3.2" fill="#111111" fill-opacity="0.75" />
<circle cx="703.47" cy="202.69" r="3.2" fill="#111111" fill-opacity="0.75" />
<circle cx="703.85" cy="202.69" r="3.2" fill="#111111" fill-opacity="0.75" />
<circle cx="703.92" cy="201.32" r="3.2" fill="#111111" fill-opacity="0.75" />
<circle cx="704.30" cy="201.32" r="3.2" fill="#111111" fill-opacity="0.75" />
<circle cx="705.27" cy="202.69" r="3.2" fill="#111111" fill-opacity="0.75" />
<circle cx="705.50" cy="202.69" r="3.2" fill="#111111" fill-opacity="0.75" />
<circle cx="706.02" cy="201.32" r="3.2" fill="#111111" fill-opacity="0.75" />
<circle cx="707.90" cy="206.77" r="3.2" fill="#111111" fill-opacity="0.75" />
<circle cx="708.20" cy="202.69" r="3.2" fill="#111111" fill-opacity="0.75" />
<circle cx="708.42" cy="201.32" r="3.2" fill="#111111" fill-opacity="0.75" />
<circle cx="709.17" cy="201.32" r="3.2" fill="#111111" fill-opacity="0.75" />
<circle cx="710.82" cy="201.32" r="3.2" fill="#111111" fill-opacity="0.75" />
<circle cx="712.40" cy="201.32" r="3.2" fill="#111111" fill-opacity="0.75" />
<circle cx="713.45" cy="201.32" r="3.2" fill="#111111" fill-opacity="0.75" />
<circle cx="714.05" cy="202.69" r="3.2" fill="#111111" fill-opacity="0.75" />
<circle cx="714.12" cy="201.32" r="3.2" fill="#111111" fill-opacity="0.75" />
<circle cx="716.90" cy="201.32" r="3.2" fill="#111111" fill-opacity="0.75" />
<circle cx="719.08" cy="201.93" r="3.2" fill="#111111" fill-opacity="0.75" />
<circle cx="721.10" cy="201.32" r="3.2" fill="#111111" fill-opacity="0.75" />
<circle cx="721.25" cy="201.32" r="3.2" fill="#111111" fill-opacity="0.75" />
<circle cx="721.70" cy="201.32" r="3.2" fill="#111111" fill-opacity="0.75" />
<circle cx="722.15" cy="201.32" r="3.2" fill="#111111" fill-opacity="0.75" />
<circle cx="722.75" cy="201.32" r="3.2" fill="#111111" fill-opacity="0.75" />
<circle cx="725.15" cy="201.32" r="3.2" fill="#111111" fill-opacity="0.75" />
<circle cx="725.30" cy="201.32" r="3.2" fill="#111111" fill-opacity="0.75" />
<circle cx="726.65" cy="202.69" r="3.2" fill="#111111" fill-opacity="0.75" />
<circle cx="727.10" cy="201.32" r="3.2" fill="#111111" fill-opacity="0.75" />
<circle cx="727.55" cy="201.32" r="3.2" fill="#111111" fill-opacity="0.75" />
<circle cx="728.00" cy="201.32" r="3.2" fill="#111111" fill-opacity="0.75" />
<circle cx="729.95" cy="201.32" r="3.2" fill="#111111" fill-opacity="0.75" />
<circle cx="731.15" cy="201.32" r="3.2" fill="#111111" fill-opacity="0.75" />
<circle cx="733.03" cy="201.32" r="3.2" fill="#111111" fill-opacity="0.75" />
<circle cx="733.63" cy="202.69" r="3.2" fill="#111111" fill-opacity="0.75" />
<circle cx="733.78" cy="201.32" r="3.2" fill="#111111" fill-opacity="0.75" />
<circle cx="734.90" cy="201.32" r="3.2" fill="#111111" fill-opacity="0.75" />
<circle cx="735.95" cy="201.32" r="3.2" fill="#111111" fill-opacity="0.75" />
<circle cx="737.00" cy="201.32" r="3.2" fill="#111111" fill-opacity="0.75" />
<circle cx="737.15" cy="201.32" r="3.2" fill="#111111" fill-opacity="0.75" />
<circle cx="737.98" cy="201.32" r="3.2" fill="#111111" fill-opacity="0.75" />
<circle cx="739.10" cy="202.69" r="3.2" fill="#111111" fill-opacity="0.75" />
<circle cx="739.55" cy="201.32" r="3.2" fill="#111111" fill-opacity="0.75" />
<circle cx="740.46" cy="201.32" r="3.2" fill="#111111" fill-opacity="0.75" />
<circle cx="740.98" cy="202.69" r="3.2" fill="#111111" fill-opacity="0.75" />
<circle cx="741.06" cy="201.32" r="3.2" fill="#111111" fill-opacity="0.75" />
<circle cx="741.66" cy="201.32" r="3.2" fill="#111111" fill-opacity="0.75" />
<circle cx="742.11" cy="202.69" r="3.2" fill="#111111" fill-opacity="0.75" />
<circle cx="742.18" cy="201.32" r="3.2" fill="#111111" fill-opacity="0.75" />
<circle cx="742.71" cy="201.32" r="3.2" fill="#111111" fill-opacity="0.75" />
<circle cx="743.61" cy="201.32" r="3.2" fill="#111111" fill-opacity="0.75" />
<circle cx="744.51" cy="202.69" r="3.2" fill="#111111" fill-opacity="0.75" />
<circle cx="744.58" cy="201.32" r="3.2" fill="#111111" fill-opacity="0.75" />
<circle cx="745.71" cy="201.32" r="3.2" fill="#111111" fill-opacity="0.75" />
<circle cx="746.16" cy="201.32" r="3.2" fill="#111111" fill-opacity="0.75" />
<circle cx="747.13" cy="201.32" r="3.2" fill="#111111" fill-opacity="0.75" />
<circle cx="747.43" cy="201.32" r="3.2" fill="#111111" fill-opacity="0.75" />
<circle cx="747.73" cy="201.32" r="3.2" fill="#111111" fill-opacity="0.75" />
<circle cx="748.71" cy="202.69" r="3.2" fill="#111111" fill-opacity="0.75" />
<circle cx="749.01" cy="201.32" r="3.2" fill="#111111" fill-opacity="0.75" />
<circle cx="750.13" cy="201.32" r="3.2" fill="#111111" fill-opacity="0.75" />
<circle cx="750.88" cy="201.32" r="3.2" fill="#111111" fill-opacity="0.75" />
<circle cx="751.56" cy="201.32" r="3.2" fill="#111111" fill-opacity="0.75" />
<circle cx="752.23" cy="201.32" r="3.2" fill="#111111" fill-opacity="0.75" />
<circle cx="753.28" cy="201.32" r="3.2" fill="#111111" fill-opacity="0.75" />
<circle cx="754.11" cy="201.32" r="3.2" fill="#111111" fill-opacity="0.75" />
<circle cx="754.78" cy="201.32" r="3.2" fill="#111111" fill-opacity="0.75" />
<circle cx="756.13" cy="202.69" r="3.2" fill="#111111" fill-opacity="0.75" />
<circle cx="756.73" cy="202.69" r="3.2" fill="#111111" fill-opacity="0.75" />
<circle cx="756.88" cy="201.32" r="3.2" fill="#111111" fill-opacity="0.75" />
<circle cx="757.26" cy="201.32" r="3.2" fill="#111111" fill-opacity="0.75" />
<circle cx="758.91" cy="201.32" r="3.2" fill="#111111" fill-opacity="0.75" />
<circle cx="759.21" cy="201.32" r="3.2" fill="#111111" fill-opacity="0.75" />
<circle cx="759.88" cy="201.32" r="3.2" fill="#111111" fill-opacity="0.75" />
<circle cx="762.06" cy="201.32" r="3.2" fill="#111111" fill-opacity="0.75" />
<circle cx="762.81" cy="201.32" r="3.2" fill="#111111" fill-opacity="0.75" />
<circle cx="763.03" cy="201.32" r="3.2" fill="#111111" fill-opacity="0.75" />
<circle cx="764.23" cy="201.32" r="3.2" fill="#111111" fill-opacity="0.75" />
<circle cx="766.19" cy="201.32" r="3.2" fill="#111111" fill-opacity="0.75" />
<circle cx="766.94" cy="201.32" r="3.2" fill="#111111" fill-opacity="0.75" />
<circle cx="768.59" cy="201.32" r="3.2" fill="#111111" fill-opacity="0.75" />
<circle cx="769.94" cy="201.32" r="3.2" fill="#111111" fill-opacity="0.75" />
<circle cx="770.54" cy="201.32" r="3.2" fill="#111111" fill-opacity="0.75" />
<circle cx="770.99" cy="201.32" r="3.2" fill="#111111" fill-opacity="0.75" />
<circle cx="771.89" cy="201.32" r="3.2" fill="#111111" fill-opacity="0.75" />
<circle cx="773.09" cy="201.32" r="3.2" fill="#111111" fill-opacity="0.75" />
<circle cx="773.31" cy="201.32" r="3.2" fill="#111111" fill-opacity="0.75" />
<circle cx="774.44" cy="201.32" r="3.2" fill="#111111" fill-opacity="0.75" />
<circle cx="775.26" cy="201.32" r="3.2" fill="#111111" fill-opacity="0.75" />
<circle cx="776.46" cy="201.32" r="3.2" fill="#111111" fill-opacity="0.75" />
<circle cx="777.89" cy="201.32" r="3.2" fill="#111111" fill-opacity="0.75" />
<circle cx="778.56" cy="201.93" r="3.2" fill="#111111" fill-opacity="0.75" />
<circle cx="780.89" cy="201.32" r="3.2" fill="#111111" fill-opacity="0.75" />
<circle cx="782.46" cy="201.32" r="3.2" fill="#111111" fill-opacity="0.75" />
<circle cx="784.49" cy="201.32" r="3.2" fill="#111111" fill-opacity="0.75" />
<circle cx="785.54" cy="201.32" r="3.2" fill="#111111" fill-opacity="0.75" />
<circle cx="786.14" cy="201.32" r="3.2" fill="#111111" fill-opacity="0.75" />
<circle cx="787.19" cy="201.32" r="3.2" fill="#111111" fill-opacity="0.75" />
<circle cx="788.01" cy="201.32" r="3.2" fill="#111111" fill-opacity="0.75" />
<circle cx="788.61" cy="201.32" r="3.2" fill="#111111" fill-opacity="0.75" />
<circle cx="788.99" cy="201.32" r="3.2" fill="#111111" fill-opacity="0.75" />
<circle cx="789.89" cy="201.32" r="3.2" fill="#111111" fill-opacity="0.75" />
<circle cx="790.27" cy="202.69" r="3.2" fill="#111111" fill-opacity="0.75" />
<circle cx="790.34" cy="201.32" r="3.2" fill="#111111" fill-opacity="0.75" />
<circle cx="791.62" cy="201.32" r="3.2" fill="#111111" fill-opacity="0.75" />
<circle cx="792.22" cy="201.32" r="3.2" fill="#111111" fill-opacity="0.75" />
<circle cx="792.67" cy="201.32" r="3.2" fill="#111111" fill-opacity="0.75" />
<circle cx="793.94" cy="201.32" r="3.2" fill="#111111" fill-opacity="0.75" />
<circle cx="796.42" cy="201.32" r="3.2" fill="#111111" fill-opacity="0.75" />
<circle cx="796.94" cy="201.32" r="3.2" fill="#111111" fill-opacity="0.75" />
<circle cx="797.69" cy="201.32" r="3.2" fill="#111111" fill-opacity="0.75" />
<circle cx="797.84" cy="201.32" r="3.2" fill="#111111" fill-opacity="0.75" />
<circle cx="798.22" cy="201.32" r="3.2" fill="#111111" fill-opacity="0.75" />
<circle cx="801.74" cy="201.32" r="3.2" fill="#111111" fill-opacity="0.75" />
<circle cx="803.02" cy="202.69" r="3.2" fill="#111111" fill-opacity="0.75" />
<circle cx="803.24" cy="201.32" r="3.2" fill="#111111" fill-opacity="0.75" />
<circle cx="803.99" cy="201.32" r="3.2" fill="#111111" fill-opacity="0.75" />
<circle cx="805.12" cy="202.69" r="3.2" fill="#111111" fill-opacity="0.75" />
<circle cx="805.42" cy="201.32" r="3.2" fill="#111111" fill-opacity="0.75" />
<circle cx="806.17" cy="202.69" r="3.2" fill="#111111" fill-opacity="0.75" />
<circle cx="806.69" cy="201.32" r="3.2" fill="#111111" fill-opacity="0.75" />
<circle cx="808.19" cy="201.32" r="3.2" fill="#111111" fill-opacity="0.75" />
<circle cx="808.42" cy="201.32" r="3.2" fill="#111111" fill-opacity="0.75" />
<circle cx="809.69" cy="201.32" r="3.2" fill="#111111" fill-opacity="0.75" />
<circle cx="810.82" cy="201.32" r="3.2" fill="#111111" fill-opacity="0.75" />
<circle cx="811.72" cy="201.32" r="3.2" fill="#111111" fill-opacity="0.75" />
<circle cx="812.09" cy="201.32" r="3.2" fill="#111111" fill-opacity="0.75" />
<circle cx="812.62" cy="201.32" r="3.2" fill="#111111" fill-opacity="0.75" />
<circle cx="814.34" cy="201.32" r="3.2" fill="#111111" fill-opacity="0.75" />
<circle cx="814.49" cy="201.32" r="3.2" fill="#111111" fill-opacity="0.75" />
<circle cx="815.40" cy="201.32" r="3.2" fill="#111111" fill-opacity="0.75" />
<circle cx="816.15" cy="201.32" r="3.2" fill="#111111" fill-opacity="0.75" />
<circle cx="816.52" cy="201.32" r="3.2" fill="#111111" fill-opacity="0.75" />
<circle cx="819.90" cy="201.32" r="3.2" fill="#111111" fill-opacity="0.75" />
<circle cx="820.27" cy="201.32" r="3.2" fill="#111111" fill-opacity="0.75" />
<circle cx="821.62" cy="201.32" r="3.2" fill="#111111" fill-opacity="0.75" />
<circle cx="822.60" cy="202.69" r="3.2" fill="#111111" fill-opacity="0.75" />
<circle cx="823.27" cy="201.32" r="3.2" fill="#111111" fill-opacity="0.75" />
<circle cx="825.45" cy="201.93" r="3.2" fill="#111111" fill-opacity="0.75" />
<circle cx="826.65" cy="201.32" r="3.2" fill="#111111" fill-opacity="0.75" />
<circle cx="827.70" cy="201.32" r="3.2" fill="#111111" fill-opacity="0.75" />
<circle cx="829.87" cy="201.32" r="3.2" fill="#111111" fill-opacity="0.75" />
<circle cx="830.85" cy="201.32" r="3.2" fill="#111111" fill-opacity="0.75" />
<circle cx="831.30" cy="201.32" r="3.2" fill="#111111" fill-opacity="0.75" />
<circle cx="834.15" cy="202.69" r="3.2" fill="#111111" fill-opacity="0.75" />
<circle cx="834.37" cy="201.32" r="3.2" fill="#111111" fill-opacity="0.75" />
<circle cx="835.20" cy="201.32" r="3.2" fill="#111111" fill-opacity="0.75" />
<circle cx="835.95" cy="202.69" r="3.2" fill="#111111" fill-opacity="0.75" />
<circle cx="836.02" cy="201.32" r="3.2" fill="#111111" fill-opacity="0.75" />
<circle cx="836.70" cy="201.32" r="3.2" fill="#111111" fill-opacity="0.75" />
<circle cx="837.67" cy="201.32" r="3.2" fill="#111111" fill-opacity="0.75" />
<circle cx="840.00" cy="201.32" r="3.2" fill="#111111" fill-opacity="0.75" />
<line x1="864" y1="88" x2="882" y2="88" stroke="#111111" stroke-width="2.4" />
<circle cx="873" cy="88" r="3.2" fill="#111111" />
<text x="892" y="92" font-size="13" font-family="Arial, sans-serif">Truck replacement greedy</text>
</svg>
