<svg xmlns="http://www.w3.org/2000/svg" width="1100" height="620" viewBox="0 0 1100 620">
<title>R_10_statistics NN-Reassign Deltas</title>
<rect x="0" y="0" width="1100" height="620" fill="white" />
<text x="550.0" y="34" text-anchor="middle" font-size="24" font-family="Arial, sans-serif">R_10_statistics NN-Reassign Deltas</text>
<line x1="90" y1="540.00" x2="840" y2="540.00" stroke="#dddddd" stroke-width="1" />
<text x="80" y="544.00" text-anchor="end" font-size="12" font-family="Arial, sans-serif">-60.0</text>
<line x1="90" y1="446.00" x2="840" y2="446.00" stroke="#dddddd" stroke-width="1" />
<text x="80" y="450.00" text-anchor="end" font-size="12" font-family="Arial, sans-serif">-4.98</text>
<line x1="90" y1="352.00" x2="840" y2="352.00" stroke="#dddddd" stroke-width="1" />
<text x="80" y="356.00" text-anchor="end" font-size="12" font-family="Arial, sans-serif">50.0</text>
<line x1="90" y1="258.00" x2="840" y2="258.00" stroke="#dddddd" stroke-width="1" />
<text x="80" y="262.00" text-anchor="end" font-size="12" font-family="Arial, sans-serif">105.0</text>
<line x1="90" y1="164.00" x2="840" y2="164.00" stroke="#dddddd" stroke-width="1" />
<text x="80" y="168.00" text-anchor="end" font-size="12" font-family="Arial, sans-serif">160.0</text>
<line x1="90" y1="70.00" x2="840" y2="70.00" stroke="#dddddd" stroke-width="1" />
<text x="80" y="74.00" text-anchor="end" font-size="12" font-family="Arial, sans-serif">215.0</text>
<line x1="90.00" y1="70" x2="90.00" y2="540" stroke="#f0f0f0" stroke-width="1" />
<text x="90.00" y="564" text-anchor="middle" font-size="12" font-family="Arial, sans-serif">5</text>
<line x1="240.00" y1="70" x2="240.00" y2="540" stroke="#f0f0f0" stroke-width="1" />
<text x="240.00" y="564" text-anchor="middle" font-size="12" font-family="Arial, sans-serif">2003</text>
<line x1="390.00" y1="70" x2="390.00" y2="540" stroke="#f0f0f0" stroke-width="1" />
<text x="390.00" y="564" text-anchor="middle" font-size="12" font-family="Arial, sans-serif">4002</text>
<line x1="540.00" y1="70" x2="540.00" y2="540" stroke="#f0f0f0" stroke-width="1" />
<text x="540.00" y="564" text-anchor="middle" font-size="12" font-family="Arial, sans-serif">6000</text>
<line x1="690.00" y1="70" x2="690.00" y2="540" stroke="#f0f0f0" stroke-width="1" />
<text x="690.00" y="564" text-anchor="middle" font-size="12" font-family="Arial, sans-serif">7999</text>
<line x1="840.00" y1="70" x2="840.00" y2="540" stroke="#f0f0f0" stroke-width="1" />
<text x="840.00" y="564" text-anchor="middle" font-size="12" font-family="Arial, sans-serif">9997</text>
<rect x="90" y="70" width="750" height="470" fill="none" stroke="#333333" stroke-width="1.5" />
<text x="465.0" y="600" text-anchor="middle" font-size="15" font-family="Arial, sans-serif">Iteration</text>
<text x="24" y="305.0" text-anchor="middle" font-size="15" font-family="Arial, sans-serif" transform="rotate(-90 24 305.0)">Delta</text>
<circle cx="90.00" cy="497.33" r="3.2" fill="#d62728" fill-opacity="0.75" />
<circle cx="92.18" cy="102.41" r="3.2" fill="#d62728" fill-opacity="0.75" />
<circle cx="92.33" cy="341.76" r="3.2" fill="#d62728" fill-opacity="0.75" />
<circle cx="93.53" cy="382.79" r="3.2" fill="#d62728" fill-opacity="0.75" />
<circle cx="94.58" cy="382.79" r="3.2" fill="#d62728" fill-opacity="0.75" />
<circle cx="95.25" cy="382.79" r="3.2" fill="#d62728" fill-opacity="0.75" />
<circle cx="95.33" cy="492.20" r="3.2" fill="#d62728" fill-opacity="0.75" />
<circle cx="96.61" cy="367.40" r="3.2" fill="#d62728" fill-opacity="0.75" />
<circle cx="96.83" cy="367.40" r="3.2" fill="#d62728" fill-opacity="0.75" />
<circle cx="96.98" cy="507.59" r="3.2" fill="#d62728" fill-opacity="0.75" />
<circle cx="97.81" cy="292.18" r="3.2" fill="#d62728" fill-opacity="0.75" />
<circle cx="97.88" cy="292.18" r="3.2" fill="#d62728" fill-opacity="0.75" />
<circle cx="98.93" cy="314.40" r="3.2" fill="#d62728" fill-opacity="0.75" />
<circle cx="105.46" cy="367.40" r="3.2" fill="#d62728" fill-opacity="0.75" />
<circle cx="107.11" cy="292.18" r="3.2" fill="#d62728" fill-opacity="0.75" />
<circle cx="109.44" cy="191.31" r="3.2" fill="#d62728" fill-opacity="0.75" />
<circle cx="111.32" cy="191.31" r="3.2" fill="#d62728" fill-opacity="0.75" />
<circle cx="111.39" cy="191.31" r="3.2" fill="#d62728" fill-opacity="0.75" />
<circle cx="111.69" cy="191.31" r="3.2" fill="#d62728" fill-opacity="0.75" />
<circle cx="113.34" cy="299.02" r="3.2" fill="#d62728" fill-opacity="0.75" />
<circle cx="114.09" cy="299.02" r="3.2" fill="#d62728" fill-opacity="0.75" />
<circle cx="126.85" cy="218.67" r="3.2" fill="#d62728" fill-opacity="0.75" />
<circle cx="127.38" cy="326.37" r="3.2" fill="#d62728" fill-opacity="0.75" />
<circle cx="128.36" cy="382.79" r="3.2" fill="#d62728" fill-opacity="0.75" />
<circle cx="128.96" cy="367.40" r="3.2" fill="#d62728" fill-opacity="0.75" />
<circle cx="131.88" cy="299.02" r="3.2" fill="#d62728" fill-opacity="0.75" />
<circle cx="133.01" cy="299.02" r="3.2" fill="#d62728" fill-opacity="0.75" />
<circle cx="133.53" cy="299.02" r="3.2" fill="#d62728" fill-opacity="0.75" />
<circle cx="133.99" cy="299.02" r="3.2" fill="#d62728" fill-opacity="0.75" />
<circle cx="134.44" cy="299.02" r="3.2" fill="#d62728" fill-opacity="0.75" />
<circle cx="134.51" cy="299.02" r="3.2" fill="#d62728" fill-opacity="0.75" />
<circle cx="134.74" cy="299.02" r="3.2" fill="#d62728" fill-opacity="0.75" />
<circle cx="136.54" cy="299.02" r="3.2" fill="#d62728" fill-opacity="0.75" />
<circle cx="137.51" cy="191.31" r="3.2" fill="#d62728" fill-opacity="0.75" />
<circle cx="140.67" cy="326.37" r="3.2" fill="#d62728" fill-opacity="0.75" />
<circle cx="140.97" cy="442.62" r="3.2" fill="#d62728" fill-opacity="0.75" />
<circle cx="145.92" cy="341.76" r="3.2" fill="#d62728" fill-opacity="0.75" />
<circle cx="146.22" cy="307.56" r="3.2" fill="#d62728" fill-opacity="0.75" />
<circle cx="146.30" cy="326.37" r="3.2" fill="#d62728" fill-opacity="0.75" />
<circle cx="149.00" cy="326.37" r="3.2" fill="#d62728" fill-opacity="0.75" />
<circle cx="149.45" cy="341.76" r="3.2" fill="#d62728" fill-opacity="0.75" />
<circle cx="151.10" cy="382.79" r="3.2" fill="#d62728" fill-opacity="0.75" />
<circle cx="152.98" cy="382.79" r="3.2" fill="#d62728" fill-opacity="0.75" />
<circle cx="153.35" cy="382.79" r="3.2" fill="#d62728" fill-opacity="0.75" />
<circle cx="156.65" cy="326.37" r="3.2" fill="#d62728" fill-opacity="0.75" />
<circle cx="160.26" cy="326.37" r="3.2" fill="#d62728" fill-opacity="0.75" />
<circle cx="165.29" cy="326.37" r="3.2" fill="#d62728" fill-opacity="0.75" />
<circle cx="165.36" cy="174.22" r="3.2" fill="#d62728" fill-opacity="0.75" />
<circle cx="167.09" cy="326.37" r="3.2" fill="#d62728" fill-opacity="0.75" />
<circle cx="167.99" cy="382.79" r="3.2" fill="#d62728" fill-opacity="0.75" />
<circle cx="170.39" cy="341.76" r="3.2" fill="#d62728" fill-opacity="0.75" />
<circle cx="170.84" cy="382.79" r="3.2" fill="#d62728" fill-opacity="0.75" />
<circle cx="171.89" cy="382.79" r="3.2" fill="#d62728" fill-opacity="0.75" />
<circle cx="172.64" cy="363.98" r="3.2" fill="#d62728" fill-opacity="0.75" />
<circle cx="174.14" cy="382.79" r="3.2" fill="#d62728" fill-opacity="0.75" />
<circle cx="174.22" cy="492.20" r="3.2" fill="#d62728" fill-opacity="0.75" />
<circle cx="174.37" cy="382.79" r="3.2" fill="#d62728" fill-opacity="0.75" />
<circle cx="175.79" cy="307.56" r="3.2" fill="#d62728" fill-opacity="0.75" />
<circle cx="178.35" cy="307.56" r="3.2" fill="#d62728" fill-opacity="0.75" />
<circle cx="179.02" cy="363.98" r="3.2" fill="#d62728" fill-opacity="0.75" />
<circle cx="179.40" cy="382.79" r="3.2" fill="#d62728" fill-opacity="0.75" />
<circle cx="182.10" cy="382.79" r="3.2" fill="#d62728" fill-opacity="0.75" />
<circle cx="183.52" cy="341.76" r="3.2" fill="#d62728" fill-opacity="0.75" />
<circle cx="186.00" cy="382.79" r="3.2" fill="#d62728" fill-opacity="0.75" />
<circle cx="187.43" cy="382.79" r="3.2" fill="#d62728" fill-opacity="0.75" />
<circle cx="187.73" cy="363.98" r="3.2" fill="#d62728" fill-opacity="0.75" />
<circle cx="188.03" cy="363.98" r="3.2" fill="#d62728" fill-opacity="0.75" />
<circle cx="188.18" cy="363.98" r="3.2" fill="#d62728" fill-opacity="0.75" />
<circle cx="190.58" cy="326.37" r="3.2" fill="#d62728" fill-opacity="0.75" />
<circle cx="193.21" cy="326.37" r="3.2" fill="#d62728" fill-opacity="0.75" />
<circle cx="196.74" cy="382.79" r="3.2" fill="#d62728" fill-opacity="0.75" />
<circle cx="197.41" cy="382.79" r="3.2" fill="#d62728" fill-opacity="0.75" />
<circle cx="197.94" cy="382.79" r="3.2" fill="#d62728" fill-opacity="0.75" />
<circle cx="198.69" cy="382.79" r="3.2" fill="#d62728" fill-opacity="0.75" />
<circle cx="199.51" cy="367.40" r="3.2" fill="#d62728" fill-opacity="0.75" />
<circle cx="199.74" cy="367.40" r="3.2" fill="#d62728" fill-opacity="0.75" />
<circle cx="200.71" cy="377.66" r="3.2" fill="#d62728" fill-opacity="0.75" />
<circle cx="201.61" cy="377.66" r="3.2" fill="#d62728" fill-opacity="0.75" />
<circle cx="203.64" cy="393.04" r="3.2" fill="#d62728" fill-opacity="0.75" />
<circle cx="205.22" cy="393.04" r="3.2" fill="#d62728" fill-opacity="0.75" />
<circle cx="205.67" cy="326.37" r="3.2" fill="#d62728" fill-opacity="0.75" />
<circle cx="208.37" cy="326.37" r="3.2" fill="#d62728" fill-opacity="0.75" />
<circle cx="208.74" cy="367.40" r="3.2" fill="#d62728" fill-opacity="0.75" />
<circle cx="211.37" cy="382.79" r="3.2" fill="#d62728" fill-opacity="0.75" />
<circle cx="212.65" cy="382.79" r="3.2" fill="#d62728" fill-opacity="0.75" />
<circle cx="214.00" cy="341.76" r="3.2" fill="#d62728" fill-opacity="0.75" />
<circle cx="214.15" cy="218.67" r="3.2" fill="#d62728" fill-opacity="0.75" />
<circle cx="214.45" cy="382.79" r="3.2" fill="#d62728" fill-opacity="0.75" />
<circle cx="214.82" cy="382.79" r="3.2" fill="#d62728" fill-opacity="0.75" />
<circle cx="219.33" cy="382.79" r="3.2" fill="#d62728" fill-opacity="0.75" />
<circle cx="221.13" cy="382.79" r="3.2" fill="#d62728" fill-opacity="0.75" />
<circle cx="222.93" cy="382.79" r="3.2" fill="#d62728" fill-opacity="0.75" />
<circle cx="257.46" cy="218.67" r="3.2" fill="#d62728" fill-opacity="0.75" />
<circle cx="257.98" cy="307.56" r="3.2" fill="#d62728" fill-opacity="0.75" />
<circle cx="258.51" cy="382.79" r="3.2" fill="#d62728" fill-opacity="0.75" />
<circle cx="261.59" cy="382.79" r="3.2" fill="#d62728" fill-opacity="0.75" />
<circle cx="269.84" cy="382.79" r="3.2" fill="#d62728" fill-opacity="0.75" />
<circle cx="272.40" cy="382.79" r="3.2" fill="#d62728" fill-opacity="0.75" />
<circle cx="273.52" cy="382.79" r="3.2" fill="#d62728" fill-opacity="0.75" />
<circle cx="280.80" cy="382.79" r="3.2" fill="#d62728" fill-opacity="0.75" />
<circle cx="282.68" cy="292.18" r="3.2" fill="#d62728" fill-opacity="0.75" />
<circle cx="289.73" cy="292.18" r="3.2" fill="#d62728" fill-opacity="0.75" />
<circle cx="289.88" cy="292.18" r="3.2" fill="#d62728" fill-opacity="0.75" />
<circle cx="299.64" cy="218.67" r="3.2" fill="#d62728" fill-opacity="0.75" />
<circle cx="301.89" cy="382.79" r="3.2" fill="#d62728" fill-opacity="0.75" />
<circle cx="303.25" cy="382.79" r="3.2" fill="#d62728" fill-opacity="0.75" />
<circle cx="303.47" cy="492.20" r="3.2" fill="#d62728" fill-opacity="0.75" />
<circle cx="308.95" cy="382.79" r="3.2" fill="#d62728" fill-opacity="0.75" />
<circle cx="311.05" cy="363.98" r="3.2" fill="#d62728" fill-opacity="0.75" />
<circle cx="313.75" cy="382.79" r="3.2" fill="#d62728" fill-opacity="0.75" />
<circle cx="319.01" cy="191.31" r="3.2" fill="#d62728" fill-opacity="0.75" />
<circle cx="319.53" cy="285.34" r="3.2" fill="#d62728" fill-opacity="0.75" />
<circle cx="319.68" cy="218.67" r="3.2" fill="#d62728" fill-opacity="0.75" />
<circle cx="322.91" cy="389.62" r="3.2" fill="#d62728" fill-opacity="0.75" />
<circle cx="324.04" cy="326.37" r="3.2" fill="#d62728" fill-opacity="0.75" />
<circle cx="324.56" cy="326.37" r="3.2" fill="#d62728" fill-opacity="0.75" />
<circle cx="326.96" cy="314.40" r="3.2" fill="#d62728" fill-opacity="0.75" />
<circle cx="327.04" cy="326.37" r="3.2" fill="#d62728" fill-opacity="0.75" />
<circle cx="328.02" cy="341.76" r="3.2" fill="#d62728" fill-opacity="0.75" />
<circle cx="329.07" cy="288.76" r="3.2" fill="#d62728" fill-opacity="0.75" />
<circle cx="330.34" cy="191.31" r="3.2" fill="#d62728" fill-opacity="0.75" />
<circle cx="336.87" cy="191.31" r="3.2" fill="#d62728" fill-opacity="0.75" />
<circle cx="338.15" cy="191.31" r="3.2" fill="#d62728" fill-opacity="0.75" />
<circle cx="342.88" cy="393.04" r="3.2" fill="#d62728" fill-opacity="0.75" />
<circle cx="343.63" cy="393.04" r="3.2" fill="#d62728" fill-opacity="0.75" />
<circle cx="344.30" cy="393.04" r="3.2" fill="#d62728" fill-opacity="0.75" />
<circle cx="344.60" cy="393.04" r="3.2" fill="#d62728" fill-opacity="0.75" />
<circle cx="344.68" cy="481.94" r="3.2" fill="#d62728" fill-opacity="0.75" />
<circle cx="350.01" cy="191.31" r="3.2" fill="#d62728" fill-opacity="0.75" />
<circle cx="350.91" cy="191.31" r="3.2" fill="#d62728" fill-opacity="0.75" />
<circle cx="352.26" cy="191.31" r="3.2" fill="#d62728" fill-opacity="0.75" />
<circle cx="352.41" cy="191.31" r="3.2" fill="#d62728" fill-opacity="0.75" />
<circle cx="352.56" cy="191.31" r="3.2" fill="#d62728" fill-opacity="0.75" />
<circle cx="360.67" cy="292.18" r="3.2" fill="#d62728" fill-opacity="0.75" />
<circle cx="360.82" cy="292.18" r="3.2" fill="#d62728" fill-opacity="0.75" />
<circle cx="370.95" cy="191.31" r="3.2" fill="#d62728" fill-opacity="0.75" />
<circle cx="377.03" cy="191.31" r="3.2" fill="#d62728" fill-opacity="0.75" />
<circle cx="377.10" cy="191.31" r="3.2" fill="#d62728" fill-opacity="0.75" />
<circle cx="381.61" cy="191.31" r="3.2" fill="#d62728" fill-opacity="0.75" />
<circle cx="382.28" cy="191.31" r="3.2" fill="#d62728" fill-opacity="0.75" />
<circle cx="390.62" cy="191.31" r="3.2" fill="#d62728" fill-opacity="0.75" />
<circle cx="398.50" cy="191.31" r="3.2" fill="#d62728" fill-opacity="0.75" />
<circle cx="398.80" cy="191.31" r="3.2" fill="#d62728" fill-opacity="0.75" />
<circle cx="398.95" cy="191.31" r="3.2" fill="#d62728" fill-opacity="0.75" />
<circle cx="451.86" cy="191.31" r="3.2" fill="#d62728" fill-opacity="0.75" />
<circle cx="452.09" cy="191.31" r="3.2" fill="#d62728" fill-opacity="0.75" />
<circle cx="458.69" cy="191.31" r="3.2" fill="#d62728" fill-opacity="0.75" />
<circle cx="477.23" cy="191.31" r="3.2" fill="#d62728" fill-opacity="0.75" />
<circle cx="481.44" cy="191.31" r="3.2" fill="#d62728" fill-opacity="0.75" />
<circle cx="481.89" cy="191.31" r="3.2" fill="#d62728" fill-opacity="0.75" />
<circle cx="482.79" cy="191.31" r="3.2" fill="#d62728" fill-opacity="0.75" />
<circle cx="509.66" cy="191.31" r="3.2" fill="#d62728" fill-opacity="0.75" />
<circle cx="519.87" cy="191.31" r="3.2" fill="#d62728" fill-opacity="0.75" />
<circle cx="520.09" cy="191.31" r="3.2" fill="#d62728" fill-opacity="0.75" />
<circle cx="533.45" cy="307.56" r="3.2" fill="#d62728" fill-opacity="0.75" />
<circle cx="533.60" cy="218.67" r="3.2" fill="#d62728" fill-opacity="0.75" />
<circle cx="533.83" cy="367.40" r="3.2" fill="#d62728" fill-opacity="0.75" />
<circle cx="535.18" cy="382.79" r="3.2" fill="#d62728" fill-opacity="0.75" />
<circle cx="535.93" cy="382.79" r="3.2" fill="#d62728" fill-opacity="0.75" />
<circle cx="537.21" cy="382.79" r="3.2" fill="#d62728" fill-opacity="0.75" />
<circle cx="537.43" cy="492.20" r="3.2" fill="#d62728" fill-opacity="0.75" />
<circle cx="538.78" cy="382.79" r="3.2" fill="#d62728" fill-opacity="0.75" />
<circle cx="539.53" cy="382.79" r="3.2" fill="#d62728" fill-opacity="0.75" />
<circle cx="541.11" cy="382.79" r="3.2" fill="#d62728" fill-opacity="0.75" />
<circle cx="541.34" cy="449.46" r="3.2" fill="#d62728" fill-opacity="0.75" />
<circle cx="543.81" cy="367.40" r="3.2" fill="#d62728" fill-opacity="0.75" />
<circle cx="544.19" cy="382.79" r="3.2" fill="#d62728" fill-opacity="0.75" />
<circle cx="545.01" cy="382.79" r="3.2" fill="#d62728" fill-opacity="0.75" />
<circle cx="545.31" cy="382.79" r="3.2" fill="#d62728" fill-opacity="0.75" />
<circle cx="547.19" cy="382.79" r="3.2" fill="#d62728" fill-opacity="0.75" />
<circle cx="548.09" cy="382.79" r="3.2" fill="#d62728" fill-opacity="0.75" />
<circle cx="548.69" cy="382.79" r="3.2" fill="#d62728" fill-opacity="0.75" />
<circle cx="549.07" cy="382.79" r="3.2" fill="#d62728" fill-opacity="0.75" />
<circle cx="549.22" cy="382.79" r="3.2" fill="#d62728" fill-opacity="0.75" />
<circle cx="549.97" cy="382.79" r="3.2" fill="#d62728" fill-opacity="0.75" />
<circle cx="550.19" cy="326.37" r="3.2" fill="#d62728" fill-opacity="0.75" />
<circle cx="559.58" cy="326.37" r="3.2" fill="#d62728" fill-opacity="0.75" />
<circle cx="559.88" cy="314.40" r="3.2" fill="#d62728" fill-opacity="0.75" />
<circle cx="570.31" cy="382.79" r="3.2" fill="#d62728" fill-opacity="0.75" />
<circle cx="570.83" cy="382.79" r="3.2" fill="#d62728" fill-opacity="0.75" />
<circle cx="570.98" cy="382.79" r="3.2" fill="#d62728" fill-opacity="0.75" />
<circle cx="571.66" cy="382.79" r="3.2" fill="#d62728" fill-opacity="0.75" />
<circle cx="572.11" cy="314.40" r="3.2" fill="#d62728" fill-opacity="0.75" />
<circle cx="579.09" cy="382.79" r="3.2" fill="#d62728" fill-opacity="0.75" />
<circle cx="579.24" cy="382.79" r="3.2" fill="#d62728" fill-opacity="0.75" />
<circle cx="581.19" cy="314.40" r="3.2" fill="#d62728" fill-opacity="0.75" />
<circle cx="587.20" cy="307.56" r="3.2" fill="#d62728" fill-opacity="0.75" />
<circle cx="589.22" cy="382.79" r="3.2" fill="#d62728" fill-opacity="0.75" />
<circle cx="600.18" cy="341.76" r="3.2" fill="#d62728" fill-opacity="0.75" />
<circle cx="602.06" cy="382.79" r="3.2" fill="#d62728" fill-opacity="0.75" />
<circle cx="602.43" cy="382.79" r="3.2" fill="#d62728" fill-opacity="0.75" />
<circle cx="602.96" cy="382.79" r="3.2" fill="#d62728" fill-opacity="0.75" />
<circle cx="612.27" cy="382.79" r="3.2" fill="#d62728" fill-opacity="0.75" />
<circle cx="612.49" cy="382.79" r="3.2" fill="#d62728" fill-opacity="0.75" />
<circle cx="612.72" cy="382.79" r="3.2" fill="#d62728" fill-opacity="0.75" />
<circle cx="612.94" cy="382.79" r="3.2" fill="#d62728" fill-opacity="0.75" />
<circle cx="613.32" cy="382.79" r="3.2" fill="#d62728" fill-opacity="0.75" />
<circle cx="613.39" cy="492.20" r="3.2" fill="#d62728" fill-opacity="0.75" />
<circle cx="614.37" cy="382.79" r="3.2" fill="#d62728" fill-opacity="0.75" />
<circle cx="614.59" cy="382.79" r="3.2" fill="#d62728" fill-opacity="0.75" />
<circle cx="616.25" cy="382.79" r="3.2" fill="#d62728" fill-opacity="0.75" />
<circle cx="616.32" cy="382.79" r="3.2" fill="#d62728" fill-opacity="0.75" />
<circle cx="618.20" cy="382.79" r="3.2" fill="#d62728" fill-opacity="0.75" />
<circle cx="619.17" cy="382.79" r="3.2" fill="#d62728" fill-opacity="0.75" />
<circle cx="620.82" cy="382.79" r="3.2" fill="#d62728" fill-opacity="0.75" />
<circle cx="621.35" cy="382.79" r="3.2" fill="#d62728" fill-opacity="0.75" />
<circle cx="621.80" cy="382.79" r="3.2" fill="#d62728" fill-opacity="0.75" />
<circle cx="622.18" cy="382.79" r="3.2" fill="#d62728" fill-opacity="0.75" />
<circle cx="622.48" cy="382.79" r="3.2" fill="#d62728" fill-opacity="0.75" />
<circle cx="623.08" cy="382.79" r="3.2" fill="#d62728" fill-opacity="0.75" />
<circle cx="624.05" cy="382.79" r="3.2" fill="#d62728" fill-opacity="0.75" />
<circle cx="624.50" cy="382.79" r="3.2" fill="#d62728" fill-opacity="0.75" />
<circle cx="630.36" cy="191.31" r="3.2" fill="#d62728" fill-opacity="0.75" />
<circle cx="630.51" cy="191.31" r="3.2" fill="#d62728" fill-opacity="0.75" />
<circle cx="632.01" cy="191.31" r="3.2" fill="#d62728" fill-opacity="0.75" />
<circle cx="632.16" cy="191.31" r="3.2" fill="#d62728" fill-opacity="0.75" />
<circle cx="632.76" cy="191.31" r="3.2" fill="#d62728" fill-opacity="0.75" />
<circle cx="655.05" cy="191.31" r="3.2" fill="#d62728" fill-opacity="0.75" />
<circle cx="656.03" cy="191.31" r="3.2" fill="#d62728" fill-opacity="0.75" />
<circle cx="662.63" cy="191.31" r="3.2" fill="#d62728" fill-opacity="0.75" />
<circle cx="665.11" cy="191.31" r="3.2" fill="#d62728" fill-opacity="0.75" />
<circle cx="671.64" cy="191.31" r="3.2" fill="#d62728" fill-opacity="0.75" />
<circle cx="680.50" cy="292.18" r="3.2" fill="#d62728" fill-opacity="0.75" />
<circle cx="682.30" cy="292.18" r="3.2" fill="#d62728" fill-opacity="0.75" />
<circle cx="683.05" cy="292.18" r="3.2" fill="#d62728" fill-opacity="0.75" />
<circle cx="683.42" cy="292.18" r="3.2" fill="#d62728" fill-opacity="0.75" />
<circle cx="684.70" cy="191.31" r="3.2" fill="#d62728" fill-opacity="0.75" />
<circle cx="711.50" cy="191.31" r="3.2" fill="#d62728" fill-opacity="0.75" />
<circle cx="722.38" cy="382.79" r="3.2" fill="#d62728" fill-opacity="0.75" />
<circle cx="723.28" cy="382.79" r="3.2" fill="#d62728" fill-opacity="0.75" />
<circle cx="723.51" cy="382.79" r="3.2" fill="#d62728" fill-opacity="0.75" />
<circle cx="723.81" cy="382.79" r="3.2" fill="#d62728" fill-opacity="0.75" />
<circle cx="723.88" cy="382.79" r="3.2" fill="#d62728" fill-opacity="0.75" />
<circle cx="725.08" cy="382.79" r="3.2" fill="#d62728" fill-opacity="0.75" />
<circle cx="727.79" cy="382.79" r="3.2" fill="#d62728" fill-opacity="0.75" />
<circle cx="729.36" cy="382.79" r="3.2" fill="#d62728" fill-opacity="0.75" />
<circle cx="729.81" cy="382.79" r="3.2" fill="#d62728" fill-opacity="0.75" />
<circle cx="730.19" cy="382.79" r="3.2" fill="#d62728" fill-opacity="0.75" />
<circle cx="730.41" cy="382.79" r="3.2" fill="#d62728" fill-opacity="0.75" />
<circle cx="731.76" cy="382.79" r="3.2" fill="#d62728" fill-opacity="0.75" />
<circle cx="732.89" cy="218.67" r="3.2" fill="#d62728" fill-opacity="0.75" />
<circle cx="733.11" cy="326.37" r="3.2" fill="#d62728" fill-opacity="0.75" />
<circle cx="733.34" cy="326.37" r="3.2" fill="#d62728" fill-opacity="0.75" />
<circle cx="734.17" cy="382.79" r="3.2" fill="#d62728" fill-opacity="0.75" />
<circle cx="734.77" cy="382.79" r="3.2" fill="#d62728" fill-opacity="0.75" />
<circle cx="736.27" cy="382.79" r="3.2" fill="#d62728" fill-opacity="0.75" />
<circle cx="736.72" cy="382.79" r="3.2" fill="#d62728" fill-opacity="0.75" />
<circle cx="737.32" cy="382.79" r="3.2" fill="#d62728" fill-opacity="0.75" />
<circle cx="738.07" cy="382.79" r="3.2" fill="#d62728" fill-opacity="0.75" />
<circle cx="739.49" cy="382.79" r="3.2" fill="#d62728" fill-opacity="0.75" />
<circle cx="740.70" cy="382.79" r="3.2" fill="#d62728" fill-opacity="0.75" />
<circle cx="741.30" cy="382.79" r="3.2" fill="#d62728" fill-opacity="0.75" />
<circle cx="741.52" cy="382.79" r="3.2" fill="#d62728" fill-opacity="0.75" />
<circle cx="742.27" cy="382.79" r="3.2" fill="#d62728" fill-opacity="0.75" />
<circle cx="745.65" cy="382.79" r="3.2" fill="#d62728" fill-opacity="0.75" />
<circle cx="745.95" cy="382.79" r="3.2" fill="#d62728" fill-opacity="0.75" />
<circle cx="746.85" cy="382.79" r="3.2" fill="#d62728" fill-opacity="0.75" />
<circle cx="747.23" cy="382.79" r="3.2" fill="#d62728" fill-opacity="0.75" />
<circle cx="747.45" cy="382.79" r="3.2" fill="#d62728" fill-opacity="0.75" />
<circle cx="747.68" cy="382.79" r="3.2" fill="#d62728" fill-opacity="0.75" />
<circle cx="747.98" cy="382.79" r="3.2" fill="#d62728" fill-opacity="0.75" />
<circle cx="749.85" cy="382.79" r="3.2" fill="#d62728" fill-opacity="0.75" />
<circle cx="751.05" cy="218.67" r="3.2" fill="#d62728" fill-opacity="0.75" />
<circle cx="751.28" cy="382.79" r="3.2" fill="#d62728" fill-opacity="0.75" />
<circle cx="751.35" cy="492.20" r="3.2" fill="#d62728" fill-opacity="0.75" />
<circle cx="753.31" cy="382.79" r="3.2" fill="#d62728" fill-opacity="0.75" />
<circle cx="754.06" cy="382.79" r="3.2" fill="#d62728" fill-opacity="0.75" />
<circle cx="754.21" cy="382.79" r="3.2" fill="#d62728" fill-opacity="0.75" />
<circle cx="755.86" cy="314.40" r="3.2" fill="#d62728" fill-opacity="0.75" />
<circle cx="765.77" cy="314.40" r="3.2" fill="#d62728" fill-opacity="0.75" />
<circle cx="772.45" cy="341.76" r="3.2" fill="#d62728" fill-opacity="0.75" />
<circle cx="774.40" cy="191.31" r="3.2" fill="#d62728" fill-opacity="0.75" />
<circle cx="775.90" cy="191.31" r="3.2" fill="#d62728" fill-opacity="0.75" />
<circle cx="779.73" cy="191.31" r="3.2" fill="#d62728" fill-opacity="0.75" />
<circle cx="783.70" cy="191.31" r="3.2" fill="#d62728" fill-opacity="0.75" />
<circle cx="787.23" cy="191.31" r="3.2" fill="#d62728" fill-opacity="0.75" />
<circle cx="787.38" cy="191.31" r="3.2" fill="#d62728" fill-opacity="0.75" />
<circle cx="802.09" cy="191.31" r="3.2" fill="#d62728" fill-opacity="0.75" />
<circle cx="802.17" cy="191.31" r="3.2" fill="#d62728" fill-opacity="0.75" />
<circle cx="813.88" cy="191.31" r="3.2" fill="#d62728" fill-opacity="0.75" />
<circle cx="827.92" cy="382.79" r="3.2" fill="#d62728" fill-opacity="0.75" />
<circle cx="830.84" cy="382.79" r="3.2" fill="#d62728" fill-opacity="0.75" />
<circle cx="831.22" cy="382.79" r="3.2" fill="#d62728" fill-opacity="0.75" />
<circle cx="831.74" cy="382.79" r="3.2" fill="#d62728" fill-opacity="0.75" />
<circle cx="833.54" cy="382.79" r="3.2" fill="#d62728" fill-opacity="0.75" />
<circle cx="835.50" cy="382.79" r="3.2" fill="#d62728" fill-opacity="0.75" />
<circle cx="835.95" cy="382.79" r="3.2" fill="#d62728" fill-opacity="0.75" />
<circle cx="837.82" cy="382.79" r="3.2" fill="#d62728" fill-opacity="0.75" />
<circle cx="838.35" cy="382.79" r="3.2" fill="#d62728" fill-opacity="0.75" />
<circle cx="838.50" cy="382.79" r="3.2" fill="#d62728" fill-opacity="0.75" />
<circle cx="838.65" cy="382.79" r="3.2" fill="#d62728" fill-opacity="0.75" />
<circle cx="838.80" cy="382.79" r="3.2" fill="#d62728" fill-opacity="0.75" />
<circle cx="839.10" cy="382.79" r="3.2" fill="#d62728" fill-opacity="0.75" />
<circle cx="839.92" cy="382.79" r="3.2" fill="#d62728" fill-opacity="0.75" />
<circle cx="840.00" cy="382.79" r="3.2" fill="#d62728" fill-opacity="0.75" />
<line x1="864" y1="88" x2="882" y2="88" stroke="#d62728" stroke-width="2.4" />
<circle cx="873" cy="88" r="3.2" fill="#d62728" />
<text x="892" y="92" font-size="13" font-family="Arial, sans-serif">NN-Reassign</text>
</svg>
