<svg xmlns="http://www.w3.org/2000/svg" width="1100" height="620" viewBox="0 0 1100 620">
<title>R_10_statistics Truck replacement greedy Deltas</title>
<rect x="0" y="0" width="1100" height="620" fill="white" />
<text x="550.0" y="34" text-anchor="middle" font-size="24" font-family="Arial, sans-serif">R_10_statistics Truck replacement greedy Deltas</text>
<line x1="90" y1="540.00" x2="840" y2="540.00" stroke="#dddddd" stroke-width="1" />
<text x="80" y="544.00" text-anchor="end" font-size="12" font-family="Arial, sans-serif">-179.6</text>
<line x1="90" y1="446.00" x2="840" y2="446.00" stroke="#dddddd" stroke-width="1" />
<text x="80" y="450.00" text-anchor="end" font-size="12" font-family="Arial, sans-serif">-140.2</text>
<line x1="90" y1="352.00" x2="840" y2="352.00" stroke="#dddddd" stroke-width="1" />
<text x="80" y="356.00" text-anchor="end" font-size="12" font-family="Arial, sans-serif">-100.7</text>
<line x1="90" y1="258.00" x2="840" y2="258.00" stroke="#dddddd" stroke-width="1" />
<text x="80" y="262.00" text-anchor="end" font-size="12" font-family="Arial, sans-serif">-61.3</text>
<line x1="90" y1="164.00" x2="840" y2="164.00" stroke="#dddddd" stroke-width="1" />
<text x="80" y="168.00" text-anchor="end" font-size="12" font-family="Arial, sans-serif">-21.8</text>
<line x1="90" y1="70.00" x2="840" y2="70.00" stroke="#dddddd" stroke-width="1" />
<text x="80" y="74.00" text-anchor="end" font-size="12" font-family="Arial, sans-serif">17.6</text>
<line x1="90.00" y1="70" x2="90.00" y2="540" stroke="#f0f0f0" stroke-width="1" />
<text x="90.00" y="564" text-anchor="middle" font-size="12" font-family="Arial, sans-serif">1</text>
<line x1="240.00" y1="70" x2="240.00" y2="540" stroke="#f0f0f0" stroke-width="1" />
<text x="240.00" y="564" text-anchor="middle" font-size="12" font-family="Arial, sans-serif">1982</text>
<line x1="390.00" y1="70" x2="390.00" y2="540" stroke="#f0f0f0" stroke-width="1" />
<text x="390.00" y="564" text-anchor="middle" font-size="12" font-family="Arial, sans-serif">3963</text>
<line x1="540.00" y1="70" x2="540.00" y2="540" stroke="#f0f0f0" stroke-width="1" />
<text x="540.00" y="564" text-anchor="middle" font-size="12" font-family="Arial, sans-serif">5944</text>
<line x1="690.00" y1="70" x2="690.00" y2="540" stroke="#f0f0f0" stroke-width="1" />
<text x="690.00" y="564" text-anchor="middle" font-size="12" font-family="Arial, sans-serif">7925</text>
<line x1="840.00" y1="70" x2="840.00" y2="540" stroke="#f0f0f0" stroke-width="1" />
<text x="840.00" y="564" text-anchor="middle" font-size="12" font-family="Arial, sans-serif">9906</text>
<rect x="90" y="70" width="750" height="470" fill="none" stroke="#333333" stroke-width="1.5" />
<text x="465.0" y="600" text-anchor="middle" font-size="15" font-family="Arial, sans-serif">Iteration</text>
<text x="24" y="305.0" text-anchor="middle" font-size="15" font-family="Arial, sans-serif" transform="rotate(-90 24 305.0)">Delta</text>
<circle cx="90.00" cy="476.60" r="3.2" fill="#111111" fill-opacity="0.75" />
<circle cx="90.15" cy="283.55" r="3.2" fill="#111111" fill-opacity="0.75" />
<circle cx="90.53" cy="250.18" r="3.2" fill="#111111" fill-opacity="0.75" />
<circle cx="91.14" cy="235.88" r="3.2" fill="#111111" fill-opacity="0.75" />
<circle cx="92.57" cy="314.53" r="3.2" fill="#111111" fill-opacity="0.75" />
<circle cx="92.88" cy="190.60" r="3.2" fill="#111111" fill-opacity="0.75" />
<circle cx="93.10" cy="476.60" r="3.2" fill="#111111" fill-opacity="0.75" />
<circle cx="93.26" cy="178.68" r="3.2" fill="#111111" fill-opacity="0.75" />
<circle cx="93.33" cy="140.55" r="3.2" fill="#111111" fill-opacity="0.75" />
<circle cx="97.87" cy="150.08" r="3.2" fill="#111111" fill-opacity="0.75" />
<circle cx="99.09" cy="119.10" r="3.2" fill="#111111" fill-opacity="0.75" />
<circle cx="99.39" cy="257.33" r="3.2" fill="#111111" fill-opacity="0.75" />
<circle cx="99.92" cy="200.13" r="3.2" fill="#111111" fill-opacity="0.75" />
<circle cx="100.90" cy="178.68" r="3.2" fill="#111111" fill-opacity="0.75" />
<circle cx="101.21" cy="140.55" r="3.2" fill="#111111" fill-opacity="0.75" />
<circle cx="102.42" cy="178.68" r="3.2" fill="#111111" fill-opacity="0.75" />
<circle cx="102.57" cy="140.55" r="3.2" fill="#111111" fill-opacity="0.75" />
<circle cx="106.89" cy="150.08" r="3.2" fill="#111111" fill-opacity="0.75" />
<circle cx="109.46" cy="219.20" r="3.2" fill="#111111" fill-opacity="0.75" />
<circle cx="112.64" cy="283.55" r="3.2" fill="#111111" fill-opacity="0.75" />
<circle cx="116.96" cy="178.68" r="3.2" fill="#111111" fill-opacity="0.75" />
<circle cx="117.11" cy="178.68" r="3.2" fill="#111111" fill-opacity="0.75" />
<circle cx="117.79" cy="178.68" r="3.2" fill="#111111" fill-opacity="0.75" />
<circle cx="118.02" cy="140.55" r="3.2" fill="#111111" fill-opacity="0.75" />
<circle cx="118.92" cy="157.23" r="3.2" fill="#111111" fill-opacity="0.75" />
<circle cx="119.53" cy="157.23" r="3.2" fill="#111111" fill-opacity="0.75" />
<circle cx="122.79" cy="157.23" r="3.2" fill="#111111" fill-opacity="0.75" />
<circle cx="125.29" cy="157.23" r="3.2" fill="#111111" fill-opacity="0.75" />
<circle cx="125.51" cy="157.23" r="3.2" fill="#111111" fill-opacity="0.75" />
<circle cx="126.57" cy="157.23" r="3.2" fill="#111111" fill-opacity="0.75" />
<circle cx="127.18" cy="178.68" r="3.2" fill="#111111" fill-opacity="0.75" />
<circle cx="128.16" cy="178.68" r="3.2" fill="#111111" fill-opacity="0.75" />
<circle cx="128.24" cy="140.55" r="3.2" fill="#111111" fill-opacity="0.75" />
<circle cx="128.62" cy="190.60" r="3.2" fill="#111111" fill-opacity="0.75" />
<circle cx="129.83" cy="150.08" r="3.2" fill="#111111" fill-opacity="0.75" />
<circle cx="131.49" cy="283.55" r="3.2" fill="#111111" fill-opacity="0.75" />
<circle cx="135.05" cy="283.55" r="3.2" fill="#111111" fill-opacity="0.75" />
<circle cx="137.78" cy="219.20" r="3.2" fill="#111111" fill-opacity="0.75" />
<circle cx="140.43" cy="157.23" r="3.2" fill="#111111" fill-opacity="0.75" />
<circle cx="140.73" cy="157.23" r="3.2" fill="#111111" fill-opacity="0.75" />
<circle cx="140.96" cy="119.10" r="3.2" fill="#111111" fill-opacity="0.75" />
<circle cx="141.56" cy="157.23" r="3.2" fill="#111111" fill-opacity="0.75" />
<circle cx="141.79" cy="173.91" r="3.2" fill="#111111" fill-opacity="0.75" />
<circle cx="143.08" cy="119.10" r="3.2" fill="#111111" fill-opacity="0.75" />
<circle cx="145.88" cy="157.23" r="3.2" fill="#111111" fill-opacity="0.75" />
<circle cx="147.40" cy="178.68" r="3.2" fill="#111111" fill-opacity="0.75" />
<circle cx="147.62" cy="140.55" r="3.2" fill="#111111" fill-opacity="0.75" />
<circle cx="148.00" cy="190.60" r="3.2" fill="#111111" fill-opacity="0.75" />
<circle cx="148.15" cy="190.60" r="3.2" fill="#111111" fill-opacity="0.75" />
<circle cx="149.14" cy="190.60" r="3.2" fill="#111111" fill-opacity="0.75" />
<circle cx="149.36" cy="190.60" r="3.2" fill="#111111" fill-opacity="0.75" />
<circle cx="150.58" cy="178.68" r="3.2" fill="#111111" fill-opacity="0.75" />
<circle cx="150.73" cy="140.55" r="3.2" fill="#111111" fill-opacity="0.75" />
<circle cx="151.71" cy="190.60" r="3.2" fill="#111111" fill-opacity="0.75" />
<circle cx="152.62" cy="190.60" r="3.2" fill="#111111" fill-opacity="0.75" />
<circle cx="154.82" cy="157.23" r="3.2" fill="#111111" fill-opacity="0.75" />
<circle cx="155.88" cy="157.23" r="3.2" fill="#111111" fill-opacity="0.75" />
<circle cx="157.62" cy="157.23" r="3.2" fill="#111111" fill-opacity="0.75" />
<circle cx="159.06" cy="157.23" r="3.2" fill="#111111" fill-opacity="0.75" />
<circle cx="159.74" cy="157.23" r="3.2" fill="#111111" fill-opacity="0.75" />
<circle cx="160.57" cy="157.23" r="3.2" fill="#111111" fill-opacity="0.75" />
<circle cx="161.25" cy="157.23" r="3.2" fill="#111111" fill-opacity="0.75" />
<circle cx="161.78" cy="157.23" r="3.2" fill="#111111" fill-opacity="0.75" />
<circle cx="166.40" cy="293.08" r="3.2" fill="#111111" fill-opacity="0.75" />
<circle cx="166.48" cy="207.28" r="3.2" fill="#111111" fill-opacity="0.75" />
<circle cx="167.01" cy="140.55" r="3.2" fill="#111111" fill-opacity="0.75" />
<circle cx="168.14" cy="178.68" r="3.2" fill="#111111" fill-opacity="0.75" />
<circle cx="168.29" cy="140.55" r="3.2" fill="#111111" fill-opacity="0.75" />
<circle cx="171.55" cy="178.68" r="3.2" fill="#111111" fill-opacity="0.75" />
<circle cx="171.78" cy="140.55" r="3.2" fill="#111111" fill-opacity="0.75" />
<circle cx="173.90" cy="190.60" r="3.2" fill="#111111" fill-opacity="0.75" />
<circle cx="176.24" cy="190.60" r="3.2" fill="#111111" fill-opacity="0.75" />
<circle cx="177.30" cy="178.68" r="3.2" fill="#111111" fill-opacity="0.75" />
<circle cx="177.46" cy="140.55" r="3.2" fill="#111111" fill-opacity="0.75" />
<circle cx="178.52" cy="178.68" r="3.2" fill="#111111" fill-opacity="0.75" />
<circle cx="178.67" cy="140.55" r="3.2" fill="#111111" fill-opacity="0.75" />
<circle cx="179.27" cy="178.68" r="3.2" fill="#111111" fill-opacity="0.75" />
<circle cx="179.58" cy="178.68" r="3.2" fill="#111111" fill-opacity="0.75" />
<circle cx="179.65" cy="140.55" r="3.2" fill="#111111" fill-opacity="0.75" />
<circle cx="180.33" cy="190.60" r="3.2" fill="#111111" fill-opacity="0.75" />
<circle cx="180.94" cy="157.23" r="3.2" fill="#111111" fill-opacity="0.75" />
<circle cx="182.00" cy="178.68" r="3.2" fill="#111111" fill-opacity="0.75" />
<circle cx="182.15" cy="140.55" r="3.2" fill="#111111" fill-opacity="0.75" />
<circle cx="182.68" cy="190.60" r="3.2" fill="#111111" fill-opacity="0.75" />
<circle cx="184.42" cy="190.60" r="3.2" fill="#111111" fill-opacity="0.75" />
<circle cx="184.80" cy="178.68" r="3.2" fill="#111111" fill-opacity="0.75" />
<circle cx="184.88" cy="140.55" r="3.2" fill="#111111" fill-opacity="0.75" />
<circle cx="185.56" cy="140.55" r="3.2" fill="#111111" fill-opacity="0.75" />
<circle cx="188.21" cy="178.68" r="3.2" fill="#111111" fill-opacity="0.75" />
<circle cx="188.36" cy="140.55" r="3.2" fill="#111111" fill-opacity="0.75" />
<circle cx="189.95" cy="157.23" r="3.2" fill="#111111" fill-opacity="0.75" />
<circle cx="191.92" cy="157.23" r="3.2" fill="#111111" fill-opacity="0.75" />
<circle cx="193.43" cy="157.23" r="3.2" fill="#111111" fill-opacity="0.75" />
<circle cx="193.66" cy="157.23" r="3.2" fill="#111111" fill-opacity="0.75" />
<circle cx="194.49" cy="178.68" r="3.2" fill="#111111" fill-opacity="0.75" />
<circle cx="194.57" cy="140.55" r="3.2" fill="#111111" fill-opacity="0.75" />
<circle cx="196.01" cy="178.68" r="3.2" fill="#111111" fill-opacity="0.75" />
<circle cx="196.08" cy="140.55" r="3.2" fill="#111111" fill-opacity="0.75" />
<circle cx="196.39" cy="178.68" r="3.2" fill="#111111" fill-opacity="0.75" />
<circle cx="196.46" cy="140.55" r="3.2" fill="#111111" fill-opacity="0.75" />
<circle cx="201.53" cy="150.08" r="3.2" fill="#111111" fill-opacity="0.75" />
<circle cx="201.84" cy="173.91" r="3.2" fill="#111111" fill-opacity="0.75" />
<circle cx="202.75" cy="173.91" r="3.2" fill="#111111" fill-opacity="0.75" />
<circle cx="203.20" cy="119.10" r="3.2" fill="#111111" fill-opacity="0.75" />
<circle cx="203.81" cy="200.13" r="3.2" fill="#111111" fill-opacity="0.75" />
<circle cx="204.56" cy="200.13" r="3.2" fill="#111111" fill-opacity="0.75" />
<circle cx="205.47" cy="200.13" r="3.2" fill="#111111" fill-opacity="0.75" />
<circle cx="207.06" cy="178.68" r="3.2" fill="#111111" fill-opacity="0.75" />
<circle cx="207.21" cy="140.55" r="3.2" fill="#111111" fill-opacity="0.75" />
<circle cx="207.74" cy="157.23" r="3.2" fill="#111111" fill-opacity="0.75" />
<circle cx="209.94" cy="328.83" r="3.2" fill="#111111" fill-opacity="0.75" />
<circle cx="210.02" cy="178.68" r="3.2" fill="#111111" fill-opacity="0.75" />
<circle cx="210.17" cy="135.78" r="3.2" fill="#111111" fill-opacity="0.75" />
<circle cx="211.38" cy="190.60" r="3.2" fill="#111111" fill-opacity="0.75" />
<circle cx="212.06" cy="190.60" r="3.2" fill="#111111" fill-opacity="0.75" />
<circle cx="214.56" cy="157.23" r="3.2" fill="#111111" fill-opacity="0.75" />
<circle cx="215.47" cy="178.68" r="3.2" fill="#111111" fill-opacity="0.75" />
<circle cx="215.62" cy="135.78" r="3.2" fill="#111111" fill-opacity="0.75" />
<circle cx="216.53" cy="190.60" r="3.2" fill="#111111" fill-opacity="0.75" />
<circle cx="217.13" cy="190.60" r="3.2" fill="#111111" fill-opacity="0.75" />
<circle cx="218.95" cy="190.60" r="3.2" fill="#111111" fill-opacity="0.75" />
<circle cx="220.24" cy="178.68" r="3.2" fill="#111111" fill-opacity="0.75" />
<circle cx="220.39" cy="135.78" r="3.2" fill="#111111" fill-opacity="0.75" />
<circle cx="221.60" cy="190.60" r="3.2" fill="#111111" fill-opacity="0.75" />
<circle cx="222.74" cy="190.60" r="3.2" fill="#111111" fill-opacity="0.75" />
<circle cx="223.19" cy="190.60" r="3.2" fill="#111111" fill-opacity="0.75" />
<circle cx="225.01" cy="190.60" r="3.2" fill="#111111" fill-opacity="0.75" />
<circle cx="227.43" cy="190.60" r="3.2" fill="#111111" fill-opacity="0.75" />
<circle cx="228.11" cy="190.60" r="3.2" fill="#111111" fill-opacity="0.75" />
<circle cx="228.79" cy="190.60" r="3.2" fill="#111111" fill-opacity="0.75" />
<circle cx="230.38" cy="190.60" r="3.2" fill="#111111" fill-opacity="0.75" />
<circle cx="230.84" cy="190.60" r="3.2" fill="#111111" fill-opacity="0.75" />
<circle cx="232.73" cy="157.23" r="3.2" fill="#111111" fill-opacity="0.75" />
<circle cx="233.26" cy="157.23" r="3.2" fill="#111111" fill-opacity="0.75" />
<circle cx="233.94" cy="157.23" r="3.2" fill="#111111" fill-opacity="0.75" />
<circle cx="234.47" cy="157.23" r="3.2" fill="#111111" fill-opacity="0.75" />
<circle cx="239.02" cy="157.23" r="3.2" fill="#111111" fill-opacity="0.75" />
<circle cx="242.42" cy="157.23" r="3.2" fill="#111111" fill-opacity="0.75" />
<circle cx="244.01" cy="157.23" r="3.2" fill="#111111" fill-opacity="0.75" />
<circle cx="244.62" cy="157.23" r="3.2" fill="#111111" fill-opacity="0.75" />
<circle cx="246.28" cy="157.23" r="3.2" fill="#111111" fill-opacity="0.75" />
<circle cx="247.27" cy="157.23" r="3.2" fill="#111111" fill-opacity="0.75" />
<circle cx="248.48" cy="157.23" r="3.2" fill="#111111" fill-opacity="0.75" />
<circle cx="248.86" cy="157.23" r="3.2" fill="#111111" fill-opacity="0.75" />
<circle cx="249.62" cy="157.23" r="3.2" fill="#111111" fill-opacity="0.75" />
<circle cx="251.36" cy="157.23" r="3.2" fill="#111111" fill-opacity="0.75" />
<circle cx="251.51" cy="157.23" r="3.2" fill="#111111" fill-opacity="0.75" />
<circle cx="252.42" cy="157.23" r="3.2" fill="#111111" fill-opacity="0.75" />
<circle cx="252.87" cy="157.23" r="3.2" fill="#111111" fill-opacity="0.75" />
<circle cx="253.25" cy="157.23" r="3.2" fill="#111111" fill-opacity="0.75" />
<circle cx="255.22" cy="157.23" r="3.2" fill="#111111" fill-opacity="0.75" />
<circle cx="256.13" cy="157.23" r="3.2" fill="#111111" fill-opacity="0.75" />
<circle cx="257.79" cy="157.23" r="3.2" fill="#111111" fill-opacity="0.75" />
<circle cx="258.48" cy="157.23" r="3.2" fill="#111111" fill-opacity="0.75" />
<circle cx="259.16" cy="178.68" r="3.2" fill="#111111" fill-opacity="0.75" />
<circle cx="259.99" cy="178.68" r="3.2" fill="#111111" fill-opacity="0.75" />
<circle cx="260.14" cy="135.78" r="3.2" fill="#111111" fill-opacity="0.75" />
<circle cx="260.67" cy="190.60" r="3.2" fill="#111111" fill-opacity="0.75" />
<circle cx="261.73" cy="190.60" r="3.2" fill="#111111" fill-opacity="0.75" />
<circle cx="262.56" cy="190.60" r="3.2" fill="#111111" fill-opacity="0.75" />
<circle cx="263.70" cy="190.60" r="3.2" fill="#111111" fill-opacity="0.75" />
<circle cx="265.74" cy="157.23" r="3.2" fill="#111111" fill-opacity="0.75" />
<circle cx="266.12" cy="157.23" r="3.2" fill="#111111" fill-opacity="0.75" />
<circle cx="266.88" cy="157.23" r="3.2" fill="#111111" fill-opacity="0.75" />
<circle cx="267.41" cy="157.23" r="3.2" fill="#111111" fill-opacity="0.75" />
<circle cx="269.68" cy="178.68" r="3.2" fill="#111111" fill-opacity="0.75" />
<circle cx="269.83" cy="178.68" r="3.2" fill="#111111" fill-opacity="0.75" />
<circle cx="269.98" cy="135.78" r="3.2" fill="#111111" fill-opacity="0.75" />
<circle cx="270.59" cy="190.60" r="3.2" fill="#111111" fill-opacity="0.75" />
<circle cx="277.48" cy="190.60" r="3.2" fill="#111111" fill-opacity="0.75" />
<circle cx="277.94" cy="157.23" r="3.2" fill="#111111" fill-opacity="0.75" />
<circle cx="279.07" cy="157.23" r="3.2" fill="#111111" fill-opacity="0.75" />
<circle cx="279.30" cy="157.23" r="3.2" fill="#111111" fill-opacity="0.75" />
<circle cx="280.74" cy="157.23" r="3.2" fill="#111111" fill-opacity="0.75" />
<circle cx="282.33" cy="178.68" r="3.2" fill="#111111" fill-opacity="0.75" />
<circle cx="282.63" cy="135.78" r="3.2" fill="#111111" fill-opacity="0.75" />
<circle cx="283.46" cy="150.08" r="3.2" fill="#111111" fill-opacity="0.75" />
<circle cx="283.77" cy="269.25" r="3.2" fill="#111111" fill-opacity="0.75" />
<circle cx="286.95" cy="240.65" r="3.2" fill="#111111" fill-opacity="0.75" />
<circle cx="287.78" cy="154.85" r="3.2" fill="#111111" fill-opacity="0.75" />
<circle cx="288.08" cy="142.93" r="3.2" fill="#111111" fill-opacity="0.75" />
<circle cx="288.46" cy="154.85" r="3.2" fill="#111111" fill-opacity="0.75" />
<circle cx="288.76" cy="142.93" r="3.2" fill="#111111" fill-opacity="0.75" />
<circle cx="289.07" cy="142.93" r="3.2" fill="#111111" fill-opacity="0.75" />
<circle cx="289.60" cy="142.93" r="3.2" fill="#111111" fill-opacity="0.75" />
<circle cx="291.41" cy="150.08" r="3.2" fill="#111111" fill-opacity="0.75" />
<circle cx="294.90" cy="326.45" r="3.2" fill="#111111" fill-opacity="0.75" />
<circle cx="297.47" cy="240.65" r="3.2" fill="#111111" fill-opacity="0.75" />
<circle cx="298.00" cy="142.93" r="3.2" fill="#111111" fill-opacity="0.75" />
<circle cx="301.94" cy="135.78" r="3.2" fill="#111111" fill-opacity="0.75" />
<circle cx="302.54" cy="178.68" r="3.2" fill="#111111" fill-opacity="0.75" />
<circle cx="302.62" cy="135.78" r="3.2" fill="#111111" fill-opacity="0.75" />
<circle cx="302.85" cy="190.60" r="3.2" fill="#111111" fill-opacity="0.75" />
<circle cx="303.91" cy="190.60" r="3.2" fill="#111111" fill-opacity="0.75" />
<circle cx="312.69" cy="190.60" r="3.2" fill="#111111" fill-opacity="0.75" />
<circle cx="313.67" cy="190.60" r="3.2" fill="#111111" fill-opacity="0.75" />
<circle cx="314.13" cy="190.60" r="3.2" fill="#111111" fill-opacity="0.75" />
<circle cx="316.70" cy="150.08" r="3.2" fill="#111111" fill-opacity="0.75" />
<circle cx="322.08" cy="135.78" r="3.2" fill="#111111" fill-opacity="0.75" />
<circle cx="325.94" cy="119.10" r="3.2" fill="#111111" fill-opacity="0.75" />
<circle cx="326.47" cy="157.23" r="3.2" fill="#111111" fill-opacity="0.75" />
<circle cx="327.00" cy="157.23" r="3.2" fill="#111111" fill-opacity="0.75" />
<circle cx="328.82" cy="157.23" r="3.2" fill="#111111" fill-opacity="0.75" />
<circle cx="330.48" cy="283.55" r="3.2" fill="#111111" fill-opacity="0.75" />
<circle cx="330.56" cy="212.05" r="3.2" fill="#111111" fill-opacity="0.75" />
<circle cx="344.34" cy="140.55" r="3.2" fill="#111111" fill-opacity="0.75" />
<circle cx="345.02" cy="200.13" r="3.2" fill="#111111" fill-opacity="0.75" />
<circle cx="345.70" cy="200.13" r="3.2" fill="#111111" fill-opacity="0.75" />
<circle cx="346.54" cy="200.13" r="3.2" fill="#111111" fill-opacity="0.75" />
<circle cx="349.04" cy="169.15" r="3.2" fill="#111111" fill-opacity="0.75" />
<circle cx="355.47" cy="157.23" r="3.2" fill="#111111" fill-opacity="0.75" />
<circle cx="355.55" cy="102.41" r="3.2" fill="#111111" fill-opacity="0.75" />
<circle cx="355.93" cy="157.23" r="3.2" fill="#111111" fill-opacity="0.75" />
<circle cx="357.44" cy="157.23" r="3.2" fill="#111111" fill-opacity="0.75" />
<circle cx="360.47" cy="157.23" r="3.2" fill="#111111" fill-opacity="0.75" />
<circle cx="360.77" cy="157.23" r="3.2" fill="#111111" fill-opacity="0.75" />
<circle cx="360.92" cy="157.23" r="3.2" fill="#111111" fill-opacity="0.75" />
<circle cx="361.30" cy="157.23" r="3.2" fill="#111111" fill-opacity="0.75" />
<circle cx="362.97" cy="178.68" r="3.2" fill="#111111" fill-opacity="0.75" />
<circle cx="363.12" cy="150.08" r="3.2" fill="#111111" fill-opacity="0.75" />
<circle cx="408.17" cy="157.23" r="3.2" fill="#111111" fill-opacity="0.75" />
<circle cx="408.48" cy="140.55" r="3.2" fill="#111111" fill-opacity="0.75" />
<circle cx="410.52" cy="157.23" r="3.2" fill="#111111" fill-opacity="0.75" />
<circle cx="411.20" cy="140.55" r="3.2" fill="#111111" fill-opacity="0.75" />
<circle cx="411.88" cy="140.55" r="3.2" fill="#111111" fill-opacity="0.75" />
<circle cx="413.25" cy="169.15" r="3.2" fill="#111111" fill-opacity="0.75" />
<circle cx="537.73" cy="178.68" r="3.2" fill="#111111" fill-opacity="0.75" />
<circle cx="538.11" cy="135.78" r="3.2" fill="#111111" fill-opacity="0.75" />
<circle cx="545.53" cy="507.59" r="3.2" fill="#111111" fill-opacity="0.75" />
<circle cx="546.51" cy="154.85" r="3.2" fill="#111111" fill-opacity="0.75" />
<circle cx="547.04" cy="142.93" r="3.2" fill="#111111" fill-opacity="0.75" />
<circle cx="548.33" cy="135.78" r="3.2" fill="#111111" fill-opacity="0.75" />
<circle cx="554.92" cy="157.23" r="3.2" fill="#111111" fill-opacity="0.75" />
<circle cx="555.60" cy="157.23" r="3.2" fill="#111111" fill-opacity="0.75" />
<circle cx="556.81" cy="157.23" r="3.2" fill="#111111" fill-opacity="0.75" />
<circle cx="564.15" cy="157.23" r="3.2" fill="#111111" fill-opacity="0.75" />
<circle cx="564.38" cy="157.23" r="3.2" fill="#111111" fill-opacity="0.75" />
<circle cx="564.99" cy="157.23" r="3.2" fill="#111111" fill-opacity="0.75" />
<circle cx="567.41" cy="157.23" r="3.2" fill="#111111" fill-opacity="0.75" />
<circle cx="571.35" cy="157.23" r="3.2" fill="#111111" fill-opacity="0.75" />
<circle cx="572.79" cy="157.23" r="3.2" fill="#111111" fill-opacity="0.75" />
<circle cx="573.54" cy="178.68" r="3.2" fill="#111111" fill-opacity="0.75" />
<circle cx="573.62" cy="135.78" r="3.2" fill="#111111" fill-opacity="0.75" />
<circle cx="576.72" cy="157.23" r="3.2" fill="#111111" fill-opacity="0.75" />
<circle cx="581.42" cy="157.23" r="3.2" fill="#111111" fill-opacity="0.75" />
<circle cx="581.65" cy="157.23" r="3.2" fill="#111111" fill-opacity="0.75" />
<circle cx="582.10" cy="178.68" r="3.2" fill="#111111" fill-opacity="0.75" />
<circle cx="582.25" cy="135.78" r="3.2" fill="#111111" fill-opacity="0.75" />
<circle cx="583.31" cy="190.60" r="3.2" fill="#111111" fill-opacity="0.75" />
<circle cx="585.89" cy="157.23" r="3.2" fill="#111111" fill-opacity="0.75" />
<circle cx="587.25" cy="157.23" r="3.2" fill="#111111" fill-opacity="0.75" />
<circle cx="592.09" cy="178.68" r="3.2" fill="#111111" fill-opacity="0.75" />
<circle cx="592.17" cy="135.78" r="3.2" fill="#111111" fill-opacity="0.75" />
<circle cx="595.58" cy="157.23" r="3.2" fill="#111111" fill-opacity="0.75" />
<circle cx="596.11" cy="157.23" r="3.2" fill="#111111" fill-opacity="0.75" />
<circle cx="600.20" cy="157.23" r="3.2" fill="#111111" fill-opacity="0.75" />
<circle cx="600.80" cy="157.23" r="3.2" fill="#111111" fill-opacity="0.75" />
<circle cx="604.44" cy="157.23" r="3.2" fill="#111111" fill-opacity="0.75" />
<circle cx="605.12" cy="178.68" r="3.2" fill="#111111" fill-opacity="0.75" />
<circle cx="605.42" cy="135.78" r="3.2" fill="#111111" fill-opacity="0.75" />
<circle cx="611.02" cy="157.23" r="3.2" fill="#111111" fill-opacity="0.75" />
<circle cx="611.86" cy="178.68" r="3.2" fill="#111111" fill-opacity="0.75" />
<circle cx="612.46" cy="135.78" r="3.2" fill="#111111" fill-opacity="0.75" />
<circle cx="613.98" cy="190.60" r="3.2" fill="#111111" fill-opacity="0.75" />
<circle cx="616.55" cy="190.60" r="3.2" fill="#111111" fill-opacity="0.75" />
<circle cx="624.73" cy="190.60" r="3.2" fill="#111111" fill-opacity="0.75" />
<circle cx="633.59" cy="269.25" r="3.2" fill="#111111" fill-opacity="0.75" />
<circle cx="718.55" cy="152.46" r="3.2" fill="#111111" fill-opacity="0.75" />
<circle cx="721.42" cy="152.46" r="3.2" fill="#111111" fill-opacity="0.75" />
<circle cx="727.71" cy="178.68" r="3.2" fill="#111111" fill-opacity="0.75" />
<circle cx="727.94" cy="135.78" r="3.2" fill="#111111" fill-opacity="0.75" />
<circle cx="734.98" cy="190.60" r="3.2" fill="#111111" fill-opacity="0.75" />
<circle cx="739.52" cy="178.68" r="3.2" fill="#111111" fill-opacity="0.75" />
<circle cx="739.67" cy="135.78" r="3.2" fill="#111111" fill-opacity="0.75" />
<circle cx="749.44" cy="190.60" r="3.2" fill="#111111" fill-opacity="0.75" />
<circle cx="753.07" cy="190.60" r="3.2" fill="#111111" fill-opacity="0.75" />
<circle cx="757.09" cy="178.68" r="3.2" fill="#111111" fill-opacity="0.75" />
<circle cx="757.24" cy="135.78" r="3.2" fill="#111111" fill-opacity="0.75" />
<circle cx="761.33" cy="190.60" r="3.2" fill="#111111" fill-opacity="0.75" />
<circle cx="761.63" cy="190.60" r="3.2" fill="#111111" fill-opacity="0.75" />
<circle cx="762.08" cy="157.23" r="3.2" fill="#111111" fill-opacity="0.75" />
<circle cx="762.31" cy="157.23" r="3.2" fill="#111111" fill-opacity="0.75" />
<circle cx="772.08" cy="157.23" r="3.2" fill="#111111" fill-opacity="0.75" />
<circle cx="778.89" cy="178.68" r="3.2" fill="#111111" fill-opacity="0.75" />
<circle cx="779.05" cy="150.08" r="3.2" fill="#111111" fill-opacity="0.75" />
<circle cx="833.94" cy="178.68" r="3.2" fill="#111111" fill-opacity="0.75" />
<circle cx="834.02" cy="135.78" r="3.2" fill="#111111" fill-opacity="0.75" />
<circle cx="840.00" cy="190.60" r="3.2" fill="#111111" fill-opacity="0.75" />
<line x1="864" y1="88" x2="882" y2="88" stroke="#111111" stroke-width="2.4" />
<circle cx="873" cy="88" r="3.2" fill="#111111" />
<text x="892" y="92" font-size="13" font-family="Arial, sans-serif">Truck replacement greedy</text>
</svg>
