<svg xmlns="http://www.w3.org/2000/svg" width="1100" height="620" viewBox="0 0 1100 620">
<title>R_10_statistics Two-Opt Arrival Screened Deltas</title>
<rect x="0" y="0" width="1100" height="620" fill="white" />
<text x="550.0" y="34" text-anchor="middle" font-size="24" font-family="Arial, sans-serif">R_10_statistics Two-Opt Arrival Screened Deltas</text>
<line x1="90" y1="540.00" x2="840" y2="540.00" stroke="#dddddd" stroke-width="1" />
<text x="80" y="544.00" text-anchor="end" font-size="12" font-family="Arial, sans-serif">-499.7</text>
<line x1="90" y1="446.00" x2="840" y2="446.00" stroke="#dddddd" stroke-width="1" />
<text x="80" y="450.00" text-anchor="end" font-size="12" font-family="Arial, sans-serif">-361.4</text>
<line x1="90" y1="352.00" x2="840" y2="352.00" stroke="#dddddd" stroke-width="1" />
<text x="80" y="356.00" text-anchor="end" font-size="12" font-family="Arial, sans-serif">-223.1</text>
<line x1="90" y1="258.00" x2="840" y2="258.00" stroke="#dddddd" stroke-width="1" />
<text x="80" y="262.00" text-anchor="end" font-size="12" font-family="Arial, sans-serif">-84.9</text>
<line x1="90" y1="164.00" x2="840" y2="164.00" stroke="#dddddd" stroke-width="1" />
<text x="80" y="168.00" text-anchor="end" font-size="12" font-family="Arial, sans-serif">53.4</text>
<line x1="90" y1="70.00" x2="840" y2="70.00" stroke="#dddddd" stroke-width="1" />
<text x="80" y="74.00" text-anchor="end" font-size="12" font-family="Arial, sans-serif">191.7</text>
<line x1="90.00" y1="70" x2="90.00" y2="540" stroke="#f0f0f0" stroke-width="1" />
<text x="90.00" y="564" text-anchor="middle" font-size="12" font-family="Arial, sans-serif">2</text>
<line x1="240.00" y1="70" x2="240.00" y2="540" stroke="#f0f0f0" stroke-width="1" />
<text x="240.00" y="564" text-anchor="middle" font-size="12" font-family="Arial, sans-serif">1993</text>
<line x1="390.00" y1="70" x2="390.00" y2="540" stroke="#f0f0f0" stroke-width="1" />
<text x="390.00" y="564" text-anchor="middle" font-size="12" font-family="Arial, sans-serif">3984</text>
<line x1="540.00" y1="70" x2="540.00" y2="540" stroke="#f0f0f0" stroke-width="1" />
<text x="540.00" y="564" text-anchor="middle" font-size="12" font-family="Arial, sans-serif">5976</text>
<line x1="690.00" y1="70" x2="690.00" y2="540" stroke="#f0f0f0" stroke-width="1" />
<text x="690.00" y="564" text-anchor="middle" font-size="12" font-family="Arial, sans-serif">7967</text>
<line x1="840.00" y1="70" x2="840.00" y2="540" stroke="#f0f0f0" stroke-width="1" />
<text x="840.00" y="564" text-anchor="middle" font-size="12" font-family="Arial, sans-serif">9958</text>
<rect x="90" y="70" width="750" height="470" fill="none" stroke="#333333" stroke-width="1.5" />
<text x="465.0" y="600" text-anchor="middle" font-size="15" font-family="Arial, sans-serif">Iteration</text>
<text x="24" y="305.0" text-anchor="middle" font-size="15" font-family="Arial, sans-serif" transform="rotate(-90 24 305.0)">Delta</text>
<circle cx="90.00" cy="462.72" r="3.2" fill="#1f77b4" fill-opacity="0.75" />
<circle cx="90.15" cy="507.59" r="3.2" fill="#1f77b4" fill-opacity="0.75" />
<circle cx="90.30" cy="102.41" r="3.2" fill="#1f77b4" fill-opacity="0.75" />
<circle cx="91.28" cy="224.78" r="3.2" fill="#1f77b4" fill-opacity="0.75" />
<circle cx="91.36" cy="281.89" r="3.2" fill="#1f77b4" fill-opacity="0.75" />
<circle cx="91.51" cy="313.84" r="3.2" fill="#1f77b4" fill-opacity="0.75" />
<circle cx="91.73" cy="222.74" r="3.2" fill="#1f77b4" fill-opacity="0.75" />
<circle cx="91.96" cy="205.75" r="3.2" fill="#1f77b4" fill-opacity="0.75" />
<circle cx="92.64" cy="238.38" r="3.2" fill="#1f77b4" fill-opacity="0.75" />
<circle cx="93.84" cy="222.06" r="3.2" fill="#1f77b4" fill-opacity="0.75" />
<circle cx="98.74" cy="207.11" r="3.2" fill="#1f77b4" fill-opacity="0.75" />
<circle cx="109.21" cy="226.82" r="3.2" fill="#1f77b4" fill-opacity="0.75" />
<circle cx="116.67" cy="238.38" r="3.2" fill="#1f77b4" fill-opacity="0.75" />
<circle cx="129.17" cy="228.18" r="3.2" fill="#1f77b4" fill-opacity="0.75" />
<circle cx="137.31" cy="226.82" r="3.2" fill="#1f77b4" fill-opacity="0.75" />
<circle cx="139.94" cy="238.38" r="3.2" fill="#1f77b4" fill-opacity="0.75" />
<circle cx="142.51" cy="198.27" r="3.2" fill="#1f77b4" fill-opacity="0.75" />
<circle cx="151.70" cy="222.06" r="3.2" fill="#1f77b4" fill-opacity="0.75" />
<circle cx="168.65" cy="222.06" r="3.2" fill="#1f77b4" fill-opacity="0.75" />
<circle cx="170.98" cy="238.38" r="3.2" fill="#1f77b4" fill-opacity="0.75" />
<circle cx="171.66" cy="222.06" r="3.2" fill="#1f77b4" fill-opacity="0.75" />
<circle cx="174.97" cy="222.06" r="3.2" fill="#1f77b4" fill-opacity="0.75" />
<circle cx="183.03" cy="222.06" r="3.2" fill="#1f77b4" fill-opacity="0.75" />
<circle cx="187.10" cy="222.06" r="3.2" fill="#1f77b4" fill-opacity="0.75" />
<circle cx="188.08" cy="222.06" r="3.2" fill="#1f77b4" fill-opacity="0.75" />
<circle cx="189.06" cy="248.57" r="3.2" fill="#1f77b4" fill-opacity="0.75" />
<circle cx="198.10" cy="222.06" r="3.2" fill="#1f77b4" fill-opacity="0.75" />
<circle cx="198.63" cy="222.06" r="3.2" fill="#1f77b4" fill-opacity="0.75" />
<circle cx="202.32" cy="224.10" r="3.2" fill="#1f77b4" fill-opacity="0.75" />
<circle cx="202.47" cy="207.11" r="3.2" fill="#1f77b4" fill-opacity="0.75" />
<circle cx="204.50" cy="217.98" r="3.2" fill="#1f77b4" fill-opacity="0.75" />
<circle cx="213.62" cy="248.57" r="3.2" fill="#1f77b4" fill-opacity="0.75" />
<circle cx="215.28" cy="222.06" r="3.2" fill="#1f77b4" fill-opacity="0.75" />
<circle cx="270.95" cy="222.06" r="3.2" fill="#1f77b4" fill-opacity="0.75" />
<circle cx="273.66" cy="222.06" r="3.2" fill="#1f77b4" fill-opacity="0.75" />
<circle cx="274.49" cy="222.06" r="3.2" fill="#1f77b4" fill-opacity="0.75" />
<circle cx="281.79" cy="222.06" r="3.2" fill="#1f77b4" fill-opacity="0.75" />
<circle cx="284.05" cy="258.09" r="3.2" fill="#1f77b4" fill-opacity="0.75" />
<circle cx="303.11" cy="222.06" r="3.2" fill="#1f77b4" fill-opacity="0.75" />
<circle cx="310.57" cy="222.06" r="3.2" fill="#1f77b4" fill-opacity="0.75" />
<circle cx="342.81" cy="228.18" r="3.2" fill="#1f77b4" fill-opacity="0.75" />
<circle cx="543.27" cy="195.55" r="3.2" fill="#1f77b4" fill-opacity="0.75" />
<circle cx="543.34" cy="195.55" r="3.2" fill="#1f77b4" fill-opacity="0.75" />
<circle cx="549.22" cy="222.06" r="3.2" fill="#1f77b4" fill-opacity="0.75" />
<circle cx="581.39" cy="222.06" r="3.2" fill="#1f77b4" fill-opacity="0.75" />
<circle cx="597.36" cy="244.50" r="3.2" fill="#1f77b4" fill-opacity="0.75" />
<circle cx="619.43" cy="229.54" r="3.2" fill="#1f77b4" fill-opacity="0.75" />
<circle cx="624.40" cy="222.06" r="3.2" fill="#1f77b4" fill-opacity="0.75" />
<circle cx="624.93" cy="222.06" r="3.2" fill="#1f77b4" fill-opacity="0.75" />
<circle cx="626.89" cy="222.06" r="3.2" fill="#1f77b4" fill-opacity="0.75" />
<circle cx="728.43" cy="222.06" r="3.2" fill="#1f77b4" fill-opacity="0.75" />
<circle cx="736.80" cy="222.06" r="3.2" fill="#1f77b4" fill-opacity="0.75" />
<circle cx="740.41" cy="222.06" r="3.2" fill="#1f77b4" fill-opacity="0.75" />
<circle cx="741.24" cy="222.06" r="3.2" fill="#1f77b4" fill-opacity="0.75" />
<circle cx="743.95" cy="222.06" r="3.2" fill="#1f77b4" fill-opacity="0.75" />
<circle cx="753.44" cy="269.65" r="3.2" fill="#1f77b4" fill-opacity="0.75" />
<circle cx="829.53" cy="228.18" r="3.2" fill="#1f77b4" fill-opacity="0.75" />
<circle cx="833.82" cy="222.06" r="3.2" fill="#1f77b4" fill-opacity="0.75" />
<circle cx="834.20" cy="222.06" r="3.2" fill="#1f77b4" fill-opacity="0.75" />
<circle cx="840.00" cy="222.06" r="3.2" fill="#1f77b4" fill-opacity="0.75" />
<line x1="864" y1="88" x2="882" y2="88" stroke="#1f77b4" stroke-width="2.4" />
<circle cx="873" cy="88" r="3.2" fill="#1f77b4" />
<text x="892" y="92" font-size="13" font-family="Arial, sans-serif">Two-Opt Arrival Screened</text>
</svg>
