<svg xmlns="http://www.w3.org/2000/svg" width="1100" height="620" viewBox="0 0 1100 620">
<title>F_10_statistics NN-Reassign Deltas</title>
<rect x="0" y="0" width="1100" height="620" fill="white" />
<text x="550.0" y="34" text-anchor="middle" font-size="24" font-family="Arial, sans-serif">F_10_statistics NN-Reassign Deltas</text>
<line x1="90" y1="540.00" x2="840" y2="540.00" stroke="#dddddd" stroke-width="1" />
<text x="80" y="544.00" text-anchor="end" font-size="12" font-family="Arial, sans-serif">-275.4</text>
<line x1="90" y1="446.00" x2="840" y2="446.00" stroke="#dddddd" stroke-width="1" />
<text x="80" y="450.00" text-anchor="end" font-size="12" font-family="Arial, sans-serif">-108.9</text>
<line x1="90" y1="352.00" x2="840" y2="352.00" stroke="#dddddd" stroke-width="1" />
<text x="80" y="356.00" text-anchor="end" font-size="12" font-family="Arial, sans-serif">57.7</text>
<line x1="90" y1="258.00" x2="840" y2="258.00" stroke="#dddddd" stroke-width="1" />
<text x="80" y="262.00" text-anchor="end" font-size="12" font-family="Arial, sans-serif">224.3</text>
<line x1="90" y1="164.00" x2="840" y2="164.00" stroke="#dddddd" stroke-width="1" />
<text x="80" y="168.00" text-anchor="end" font-size="12" font-family="Arial, sans-serif">390.9</text>
<line x1="90" y1="70.00" x2="840" y2="70.00" stroke="#dddddd" stroke-width="1" />
<text x="80" y="74.00" text-anchor="end" font-size="12" font-family="Arial, sans-serif">557.4</text>
<line x1="90.00" y1="70" x2="90.00" y2="540" stroke="#f0f0f0" stroke-width="1" />
<text x="90.00" y="564" text-anchor="middle" font-size="12" font-family="Arial, sans-serif">1</text>
<line x1="240.00" y1="70" x2="240.00" y2="540" stroke="#f0f0f0" stroke-width="1" />
<text x="240.00" y="564" text-anchor="middle" font-size="12" font-family="Arial, sans-serif">1992</text>
<line x1="390.00" y1="70" x2="390.00" y2="540" stroke="#f0f0f0" stroke-width="1" />
<text x="390.00" y="564" text-anchor="middle" font-size="12" font-family="Arial, sans-serif">3983</text>
<line x1="540.00" y1="70" x2="540.00" y2="540" stroke="#f0f0f0" stroke-width="1" />
<text x="540.00" y="564" text-anchor="middle" font-size="12" font-family="Arial, sans-serif">5975</text>
<line x1="690.00" y1="70" x2="690.00" y2="540" stroke="#f0f0f0" stroke-width="1" />
<text x="690.00" y="564" text-anchor="middle" font-size="12" font-family="Arial, sans-serif">7966</text>
<line x1="840.00" y1="70" x2="840.00" y2="540" stroke="#f0f0f0" stroke-width="1" />
<text x="840.00" y="564" text-anchor="middle" font-size="12" font-family="Arial, sans-serif">9957</text>
<rect x="90" y="70" width="750" height="470" fill="none" stroke="#333333" stroke-width="1.5" />
<text x="465.0" y="600" text-anchor="middle" font-size="15" font-family="Arial, sans-serif">Iteration</text>
<text x="24" y="305.0" text-anchor="middle" font-size="15" font-family="Arial, sans-serif" transform="rotate(-90 24 305.0)">Delta</text>
<circle cx="90.00" cy="403.75" r="3.2" fill="#111111" fill-opacity="0.75" />
<circle cx="90.08" cy="456.23" r="3.2" fill="#111111" fill-opacity="0.75" />
<circle cx="90.15" cy="338.29" r="3.2" fill="#111111" fill-opacity="0.75" />
<circle cx="90.68" cy="352.97" r="3.2" fill="#111111" fill-opacity="0.75" />
<circle cx="90.83" cy="355.79" r="3.2" fill="#111111" fill-opacity="0.75" />
<circle cx="91.58" cy="358.04" r="3.2" fill="#111111" fill-opacity="0.75" />
<circle cx="91.73" cy="360.30" r="3.2" fill="#111111" fill-opacity="0.75" />
<circle cx="92.03" cy="363.12" r="3.2" fill="#111111" fill-opacity="0.75" />
<circle cx="92.11" cy="406.01" r="3.2" fill="#111111" fill-opacity="0.75" />
<circle cx="93.24" cy="335.47" r="3.2" fill="#111111" fill-opacity="0.75" />
<circle cx="93.39" cy="358.04" r="3.2" fill="#111111" fill-opacity="0.75" />
<circle cx="93.77" cy="363.12" r="3.2" fill="#111111" fill-opacity="0.75" />
<circle cx="93.99" cy="363.12" r="3.2" fill="#111111" fill-opacity="0.75" />
<circle cx="94.29" cy="358.04" r="3.2" fill="#111111" fill-opacity="0.75" />
<circle cx="94.52" cy="358.04" r="3.2" fill="#111111" fill-opacity="0.75" />
<circle cx="94.67" cy="360.30" r="3.2" fill="#111111" fill-opacity="0.75" />
<circle cx="95.42" cy="113.14" r="3.2" fill="#111111" fill-opacity="0.75" />
<circle cx="95.73" cy="328.70" r="3.2" fill="#111111" fill-opacity="0.75" />
<circle cx="95.80" cy="328.70" r="3.2" fill="#111111" fill-opacity="0.75" />
<circle cx="95.88" cy="361.43" r="3.2" fill="#111111" fill-opacity="0.75" />
<circle cx="96.10" cy="319.67" r="3.2" fill="#111111" fill-opacity="0.75" />
<circle cx="96.25" cy="328.70" r="3.2" fill="#111111" fill-opacity="0.75" />
<circle cx="96.93" cy="365.38" r="3.2" fill="#111111" fill-opacity="0.75" />
<circle cx="97.23" cy="344.50" r="3.2" fill="#111111" fill-opacity="0.75" />
<circle cx="97.31" cy="405.45" r="3.2" fill="#111111" fill-opacity="0.75" />
<circle cx="98.06" cy="363.69" r="3.2" fill="#111111" fill-opacity="0.75" />
<circle cx="98.14" cy="363.69" r="3.2" fill="#111111" fill-opacity="0.75" />
<circle cx="98.29" cy="134.01" r="3.2" fill="#111111" fill-opacity="0.75" />
<circle cx="99.04" cy="134.01" r="3.2" fill="#111111" fill-opacity="0.75" />
<circle cx="99.19" cy="342.24" r="3.2" fill="#111111" fill-opacity="0.75" />
<circle cx="99.57" cy="358.04" r="3.2" fill="#111111" fill-opacity="0.75" />
<circle cx="100.70" cy="342.24" r="3.2" fill="#111111" fill-opacity="0.75" />
<circle cx="101.15" cy="363.69" r="3.2" fill="#111111" fill-opacity="0.75" />
<circle cx="101.30" cy="363.69" r="3.2" fill="#111111" fill-opacity="0.75" />
<circle cx="102.28" cy="405.45" r="3.2" fill="#111111" fill-opacity="0.75" />
<circle cx="102.88" cy="342.24" r="3.2" fill="#111111" fill-opacity="0.75" />
<circle cx="103.86" cy="363.69" r="3.2" fill="#111111" fill-opacity="0.75" />
<circle cx="104.09" cy="365.38" r="3.2" fill="#111111" fill-opacity="0.75" />
<circle cx="104.31" cy="365.38" r="3.2" fill="#111111" fill-opacity="0.75" />
<circle cx="104.92" cy="365.38" r="3.2" fill="#111111" fill-opacity="0.75" />
<circle cx="105.29" cy="358.04" r="3.2" fill="#111111" fill-opacity="0.75" />
<circle cx="105.82" cy="365.38" r="3.2" fill="#111111" fill-opacity="0.75" />
<circle cx="105.97" cy="365.38" r="3.2" fill="#111111" fill-opacity="0.75" />
<circle cx="106.87" cy="342.24" r="3.2" fill="#111111" fill-opacity="0.75" />
<circle cx="107.33" cy="336.60" r="3.2" fill="#111111" fill-opacity="0.75" />
<circle cx="107.48" cy="329.27" r="3.2" fill="#111111" fill-opacity="0.75" />
<circle cx="108.15" cy="356.92" r="3.2" fill="#111111" fill-opacity="0.75" />
<circle cx="108.23" cy="442.13" r="3.2" fill="#111111" fill-opacity="0.75" />
<circle cx="108.38" cy="297.10" r="3.2" fill="#111111" fill-opacity="0.75" />
<circle cx="108.61" cy="248.00" r="3.2" fill="#111111" fill-opacity="0.75" />
<circle cx="108.68" cy="264.37" r="3.2" fill="#111111" fill-opacity="0.75" />
<circle cx="110.41" cy="248.00" r="3.2" fill="#111111" fill-opacity="0.75" />
<circle cx="112.60" cy="365.38" r="3.2" fill="#111111" fill-opacity="0.75" />
<circle cx="113.20" cy="275.66" r="3.2" fill="#111111" fill-opacity="0.75" />
<circle cx="114.63" cy="304.44" r="3.2" fill="#111111" fill-opacity="0.75" />
<circle cx="115.01" cy="304.44" r="3.2" fill="#111111" fill-opacity="0.75" />
<circle cx="116.37" cy="304.44" r="3.2" fill="#111111" fill-opacity="0.75" />
<circle cx="116.59" cy="304.44" r="3.2" fill="#111111" fill-opacity="0.75" />
<circle cx="118.02" cy="304.44" r="3.2" fill="#111111" fill-opacity="0.75" />
<circle cx="124.43" cy="149.25" r="3.2" fill="#111111" fill-opacity="0.75" />
<circle cx="124.95" cy="314.59" r="3.2" fill="#111111" fill-opacity="0.75" />
<circle cx="126.54" cy="311.21" r="3.2" fill="#111111" fill-opacity="0.75" />
<circle cx="126.61" cy="311.21" r="3.2" fill="#111111" fill-opacity="0.75" />
<circle cx="127.21" cy="311.21" r="3.2" fill="#111111" fill-opacity="0.75" />
<circle cx="130.00" cy="318.54" r="3.2" fill="#111111" fill-opacity="0.75" />
<circle cx="131.21" cy="358.61" r="3.2" fill="#111111" fill-opacity="0.75" />
<circle cx="132.11" cy="332.09" r="3.2" fill="#111111" fill-opacity="0.75" />
<circle cx="132.41" cy="304.44" r="3.2" fill="#111111" fill-opacity="0.75" />
<circle cx="133.62" cy="464.70" r="3.2" fill="#111111" fill-opacity="0.75" />
<circle cx="142.51" cy="304.44" r="3.2" fill="#111111" fill-opacity="0.75" />
<circle cx="146.27" cy="383.44" r="3.2" fill="#111111" fill-opacity="0.75" />
<circle cx="146.80" cy="161.10" r="3.2" fill="#111111" fill-opacity="0.75" />
<circle cx="149.96" cy="380.62" r="3.2" fill="#111111" fill-opacity="0.75" />
<circle cx="151.47" cy="380.62" r="3.2" fill="#111111" fill-opacity="0.75" />
<circle cx="151.77" cy="388.52" r="3.2" fill="#111111" fill-opacity="0.75" />
<circle cx="152.00" cy="386.26" r="3.2" fill="#111111" fill-opacity="0.75" />
<circle cx="152.37" cy="161.10" r="3.2" fill="#111111" fill-opacity="0.75" />
<circle cx="152.45" cy="381.75" r="3.2" fill="#111111" fill-opacity="0.75" />
<circle cx="152.68" cy="161.10" r="3.2" fill="#111111" fill-opacity="0.75" />
<circle cx="152.90" cy="161.10" r="3.2" fill="#111111" fill-opacity="0.75" />
<circle cx="153.50" cy="161.10" r="3.2" fill="#111111" fill-opacity="0.75" />
<circle cx="153.58" cy="293.71" r="3.2" fill="#111111" fill-opacity="0.75" />
<circle cx="153.73" cy="381.75" r="3.2" fill="#111111" fill-opacity="0.75" />
<circle cx="153.88" cy="387.39" r="3.2" fill="#111111" fill-opacity="0.75" />
<circle cx="154.03" cy="293.71" r="3.2" fill="#111111" fill-opacity="0.75" />
<circle cx="155.61" cy="293.71" r="3.2" fill="#111111" fill-opacity="0.75" />
<circle cx="156.07" cy="293.71" r="3.2" fill="#111111" fill-opacity="0.75" />
<circle cx="156.74" cy="102.41" r="3.2" fill="#111111" fill-opacity="0.75" />
<circle cx="156.97" cy="381.75" r="3.2" fill="#111111" fill-opacity="0.75" />
<circle cx="157.35" cy="293.71" r="3.2" fill="#111111" fill-opacity="0.75" />
<circle cx="157.87" cy="381.75" r="3.2" fill="#111111" fill-opacity="0.75" />
<circle cx="158.02" cy="293.71" r="3.2" fill="#111111" fill-opacity="0.75" />
<circle cx="160.21" cy="380.62" r="3.2" fill="#111111" fill-opacity="0.75" />
<circle cx="164.73" cy="380.62" r="3.2" fill="#111111" fill-opacity="0.75" />
<circle cx="164.80" cy="388.52" r="3.2" fill="#111111" fill-opacity="0.75" />
<circle cx="168.42" cy="304.44" r="3.2" fill="#111111" fill-opacity="0.75" />
<circle cx="169.85" cy="380.62" r="3.2" fill="#111111" fill-opacity="0.75" />
<circle cx="176.86" cy="304.44" r="3.2" fill="#111111" fill-opacity="0.75" />
<circle cx="185.75" cy="332.09" r="3.2" fill="#111111" fill-opacity="0.75" />
<circle cx="185.82" cy="380.62" r="3.2" fill="#111111" fill-opacity="0.75" />
<circle cx="185.90" cy="332.09" r="3.2" fill="#111111" fill-opacity="0.75" />
<circle cx="186.95" cy="304.44" r="3.2" fill="#111111" fill-opacity="0.75" />
<circle cx="187.63" cy="304.44" r="3.2" fill="#111111" fill-opacity="0.75" />
<circle cx="188.23" cy="304.44" r="3.2" fill="#111111" fill-opacity="0.75" />
<circle cx="188.99" cy="304.44" r="3.2" fill="#111111" fill-opacity="0.75" />
<circle cx="193.73" cy="380.62" r="3.2" fill="#111111" fill-opacity="0.75" />
<circle cx="205.33" cy="380.62" r="3.2" fill="#111111" fill-opacity="0.75" />
<circle cx="205.78" cy="380.62" r="3.2" fill="#111111" fill-opacity="0.75" />
<circle cx="205.94" cy="380.62" r="3.2" fill="#111111" fill-opacity="0.75" />
<circle cx="214.52" cy="304.44" r="3.2" fill="#111111" fill-opacity="0.75" />
<circle cx="215.43" cy="304.44" r="3.2" fill="#111111" fill-opacity="0.75" />
<circle cx="224.39" cy="380.62" r="3.2" fill="#111111" fill-opacity="0.75" />
<circle cx="224.54" cy="304.44" r="3.2" fill="#111111" fill-opacity="0.75" />
<circle cx="225.14" cy="304.44" r="3.2" fill="#111111" fill-opacity="0.75" />
<circle cx="229.06" cy="380.62" r="3.2" fill="#111111" fill-opacity="0.75" />
<circle cx="230.87" cy="304.44" r="3.2" fill="#111111" fill-opacity="0.75" />
<circle cx="231.92" cy="304.44" r="3.2" fill="#111111" fill-opacity="0.75" />
<circle cx="260.70" cy="236.72" r="3.2" fill="#111111" fill-opacity="0.75" />
<circle cx="261.83" cy="304.44" r="3.2" fill="#111111" fill-opacity="0.75" />
<circle cx="263.04" cy="380.62" r="3.2" fill="#111111" fill-opacity="0.75" />
<circle cx="270.19" cy="304.44" r="3.2" fill="#111111" fill-opacity="0.75" />
<circle cx="270.27" cy="304.44" r="3.2" fill="#111111" fill-opacity="0.75" />
<circle cx="270.34" cy="304.44" r="3.2" fill="#111111" fill-opacity="0.75" />
<circle cx="279.91" cy="304.44" r="3.2" fill="#111111" fill-opacity="0.75" />
<circle cx="283.30" cy="380.62" r="3.2" fill="#111111" fill-opacity="0.75" />
<circle cx="292.64" cy="304.44" r="3.2" fill="#111111" fill-opacity="0.75" />
<circle cx="295.50" cy="304.44" r="3.2" fill="#111111" fill-opacity="0.75" />
<circle cx="298.97" cy="304.44" r="3.2" fill="#111111" fill-opacity="0.75" />
<circle cx="302.59" cy="380.62" r="3.2" fill="#111111" fill-opacity="0.75" />
<circle cx="304.47" cy="380.62" r="3.2" fill="#111111" fill-opacity="0.75" />
<circle cx="305.45" cy="304.44" r="3.2" fill="#111111" fill-opacity="0.75" />
<circle cx="305.52" cy="304.44" r="3.2" fill="#111111" fill-opacity="0.75" />
<circle cx="313.43" cy="290.89" r="3.2" fill="#111111" fill-opacity="0.75" />
<circle cx="313.96" cy="410.53" r="3.2" fill="#111111" fill-opacity="0.75" />
<circle cx="314.34" cy="358.61" r="3.2" fill="#111111" fill-opacity="0.75" />
<circle cx="314.56" cy="358.61" r="3.2" fill="#111111" fill-opacity="0.75" />
<circle cx="315.69" cy="321.93" r="3.2" fill="#111111" fill-opacity="0.75" />
<circle cx="315.99" cy="321.93" r="3.2" fill="#111111" fill-opacity="0.75" />
<circle cx="316.75" cy="359.74" r="3.2" fill="#111111" fill-opacity="0.75" />
<circle cx="316.97" cy="394.72" r="3.2" fill="#111111" fill-opacity="0.75" />
<circle cx="317.73" cy="379.49" r="3.2" fill="#111111" fill-opacity="0.75" />
<circle cx="317.80" cy="365.95" r="3.2" fill="#111111" fill-opacity="0.75" />
<circle cx="318.86" cy="293.71" r="3.2" fill="#111111" fill-opacity="0.75" />
<circle cx="319.01" cy="359.74" r="3.2" fill="#111111" fill-opacity="0.75" />
<circle cx="319.08" cy="365.95" r="3.2" fill="#111111" fill-opacity="0.75" />
<circle cx="319.53" cy="365.95" r="3.2" fill="#111111" fill-opacity="0.75" />
<circle cx="319.61" cy="379.49" r="3.2" fill="#111111" fill-opacity="0.75" />
<circle cx="319.91" cy="359.74" r="3.2" fill="#111111" fill-opacity="0.75" />
<circle cx="320.21" cy="365.95" r="3.2" fill="#111111" fill-opacity="0.75" />
<circle cx="320.59" cy="394.72" r="3.2" fill="#111111" fill-opacity="0.75" />
<circle cx="321.04" cy="374.41" r="3.2" fill="#111111" fill-opacity="0.75" />
<circle cx="321.19" cy="365.95" r="3.2" fill="#111111" fill-opacity="0.75" />
<circle cx="322.17" cy="403.19" r="3.2" fill="#111111" fill-opacity="0.75" />
<circle cx="322.62" cy="394.72" r="3.2" fill="#111111" fill-opacity="0.75" />
<circle cx="324.96" cy="365.95" r="3.2" fill="#111111" fill-opacity="0.75" />
<circle cx="326.16" cy="359.74" r="3.2" fill="#111111" fill-opacity="0.75" />
<circle cx="326.54" cy="365.95" r="3.2" fill="#111111" fill-opacity="0.75" />
<circle cx="327.07" cy="364.82" r="3.2" fill="#111111" fill-opacity="0.75" />
<circle cx="327.44" cy="364.82" r="3.2" fill="#111111" fill-opacity="0.75" />
<circle cx="328.12" cy="364.82" r="3.2" fill="#111111" fill-opacity="0.75" />
<circle cx="328.20" cy="364.82" r="3.2" fill="#111111" fill-opacity="0.75" />
<circle cx="328.35" cy="364.82" r="3.2" fill="#111111" fill-opacity="0.75" />
<circle cx="328.42" cy="364.82" r="3.2" fill="#111111" fill-opacity="0.75" />
<circle cx="330.68" cy="359.74" r="3.2" fill="#111111" fill-opacity="0.75" />
<circle cx="330.76" cy="365.95" r="3.2" fill="#111111" fill-opacity="0.75" />
<circle cx="331.44" cy="359.74" r="3.2" fill="#111111" fill-opacity="0.75" />
<circle cx="331.59" cy="359.74" r="3.2" fill="#111111" fill-opacity="0.75" />
<circle cx="331.96" cy="394.72" r="3.2" fill="#111111" fill-opacity="0.75" />
<circle cx="332.34" cy="374.41" r="3.2" fill="#111111" fill-opacity="0.75" />
<circle cx="332.64" cy="394.72" r="3.2" fill="#111111" fill-opacity="0.75" />
<circle cx="334.30" cy="374.41" r="3.2" fill="#111111" fill-opacity="0.75" />
<circle cx="335.13" cy="313.46" r="3.2" fill="#111111" fill-opacity="0.75" />
<circle cx="335.20" cy="313.46" r="3.2" fill="#111111" fill-opacity="0.75" />
<circle cx="336.48" cy="313.46" r="3.2" fill="#111111" fill-opacity="0.75" />
<circle cx="337.01" cy="372.72" r="3.2" fill="#111111" fill-opacity="0.75" />
<circle cx="337.92" cy="379.49" r="3.2" fill="#111111" fill-opacity="0.75" />
<circle cx="338.52" cy="394.72" r="3.2" fill="#111111" fill-opacity="0.75" />
<circle cx="338.82" cy="374.41" r="3.2" fill="#111111" fill-opacity="0.75" />
<circle cx="339.27" cy="359.74" r="3.2" fill="#111111" fill-opacity="0.75" />
<circle cx="339.72" cy="359.74" r="3.2" fill="#111111" fill-opacity="0.75" />
<circle cx="340.55" cy="313.46" r="3.2" fill="#111111" fill-opacity="0.75" />
<circle cx="341.08" cy="374.41" r="3.2" fill="#111111" fill-opacity="0.75" />
<circle cx="341.23" cy="359.74" r="3.2" fill="#111111" fill-opacity="0.75" />
<circle cx="342.89" cy="362.00" r="3.2" fill="#111111" fill-opacity="0.75" />
<circle cx="343.19" cy="362.00" r="3.2" fill="#111111" fill-opacity="0.75" />
<circle cx="343.42" cy="365.95" r="3.2" fill="#111111" fill-opacity="0.75" />
<circle cx="345.22" cy="365.95" r="3.2" fill="#111111" fill-opacity="0.75" />
<circle cx="346.28" cy="361.43" r="3.2" fill="#111111" fill-opacity="0.75" />
<circle cx="346.35" cy="365.95" r="3.2" fill="#111111" fill-opacity="0.75" />
<circle cx="346.88" cy="361.43" r="3.2" fill="#111111" fill-opacity="0.75" />
<circle cx="347.33" cy="365.95" r="3.2" fill="#111111" fill-opacity="0.75" />
<circle cx="348.16" cy="359.74" r="3.2" fill="#111111" fill-opacity="0.75" />
<circle cx="348.54" cy="359.74" r="3.2" fill="#111111" fill-opacity="0.75" />
<circle cx="349.14" cy="365.95" r="3.2" fill="#111111" fill-opacity="0.75" />
<circle cx="349.37" cy="365.95" r="3.2" fill="#111111" fill-opacity="0.75" />
<circle cx="349.97" cy="377.23" r="3.2" fill="#111111" fill-opacity="0.75" />
<circle cx="350.04" cy="377.23" r="3.2" fill="#111111" fill-opacity="0.75" />
<circle cx="350.50" cy="377.23" r="3.2" fill="#111111" fill-opacity="0.75" />
<circle cx="352.23" cy="359.74" r="3.2" fill="#111111" fill-opacity="0.75" />
<circle cx="352.76" cy="359.74" r="3.2" fill="#111111" fill-opacity="0.75" />
<circle cx="352.91" cy="359.74" r="3.2" fill="#111111" fill-opacity="0.75" />
<circle cx="354.41" cy="365.95" r="3.2" fill="#111111" fill-opacity="0.75" />
<circle cx="355.09" cy="403.19" r="3.2" fill="#111111" fill-opacity="0.75" />
<circle cx="355.17" cy="303.31" r="3.2" fill="#111111" fill-opacity="0.75" />
<circle cx="355.39" cy="362.56" r="3.2" fill="#111111" fill-opacity="0.75" />
<circle cx="356.30" cy="359.74" r="3.2" fill="#111111" fill-opacity="0.75" />
<circle cx="357.05" cy="385.70" r="3.2" fill="#111111" fill-opacity="0.75" />
<circle cx="357.50" cy="383.44" r="3.2" fill="#111111" fill-opacity="0.75" />
<circle cx="357.65" cy="359.74" r="3.2" fill="#111111" fill-opacity="0.75" />
<circle cx="357.80" cy="385.70" r="3.2" fill="#111111" fill-opacity="0.75" />
<circle cx="358.48" cy="365.95" r="3.2" fill="#111111" fill-opacity="0.75" />
<circle cx="359.16" cy="383.44" r="3.2" fill="#111111" fill-opacity="0.75" />
<circle cx="360.29" cy="385.70" r="3.2" fill="#111111" fill-opacity="0.75" />
<circle cx="360.89" cy="365.95" r="3.2" fill="#111111" fill-opacity="0.75" />
<circle cx="361.12" cy="359.74" r="3.2" fill="#111111" fill-opacity="0.75" />
<circle cx="362.25" cy="359.74" r="3.2" fill="#111111" fill-opacity="0.75" />
<circle cx="363.15" cy="365.95" r="3.2" fill="#111111" fill-opacity="0.75" />
<circle cx="363.83" cy="359.74" r="3.2" fill="#111111" fill-opacity="0.75" />
<circle cx="364.06" cy="365.95" r="3.2" fill="#111111" fill-opacity="0.75" />
<circle cx="364.28" cy="359.74" r="3.2" fill="#111111" fill-opacity="0.75" />
<circle cx="364.43" cy="359.74" r="3.2" fill="#111111" fill-opacity="0.75" />
<circle cx="365.11" cy="359.74" r="3.2" fill="#111111" fill-opacity="0.75" />
<circle cx="365.41" cy="383.44" r="3.2" fill="#111111" fill-opacity="0.75" />
<circle cx="366.24" cy="286.38" r="3.2" fill="#111111" fill-opacity="0.75" />
<circle cx="366.54" cy="365.95" r="3.2" fill="#111111" fill-opacity="0.75" />
<circle cx="366.77" cy="359.74" r="3.2" fill="#111111" fill-opacity="0.75" />
<circle cx="366.84" cy="365.95" r="3.2" fill="#111111" fill-opacity="0.75" />
<circle cx="367.52" cy="365.95" r="3.2" fill="#111111" fill-opacity="0.75" />
<circle cx="367.60" cy="362.00" r="3.2" fill="#111111" fill-opacity="0.75" />
<circle cx="367.75" cy="364.82" r="3.2" fill="#111111" fill-opacity="0.75" />
<circle cx="368.58" cy="385.70" r="3.2" fill="#111111" fill-opacity="0.75" />
<circle cx="369.25" cy="403.19" r="3.2" fill="#111111" fill-opacity="0.75" />
<circle cx="369.48" cy="359.74" r="3.2" fill="#111111" fill-opacity="0.75" />
<circle cx="369.86" cy="253.65" r="3.2" fill="#111111" fill-opacity="0.75" />
<circle cx="370.01" cy="337.17" r="3.2" fill="#111111" fill-opacity="0.75" />
<circle cx="370.38" cy="337.17" r="3.2" fill="#111111" fill-opacity="0.75" />
<circle cx="370.46" cy="253.65" r="3.2" fill="#111111" fill-opacity="0.75" />
<circle cx="370.61" cy="253.65" r="3.2" fill="#111111" fill-opacity="0.75" />
<circle cx="371.59" cy="365.95" r="3.2" fill="#111111" fill-opacity="0.75" />
<circle cx="371.66" cy="365.95" r="3.2" fill="#111111" fill-opacity="0.75" />
<circle cx="371.89" cy="253.65" r="3.2" fill="#111111" fill-opacity="0.75" />
<circle cx="372.72" cy="329.27" r="3.2" fill="#111111" fill-opacity="0.75" />
<circle cx="373.10" cy="329.27" r="3.2" fill="#111111" fill-opacity="0.75" />
<circle cx="373.25" cy="332.09" r="3.2" fill="#111111" fill-opacity="0.75" />
<circle cx="373.32" cy="370.46" r="3.2" fill="#111111" fill-opacity="0.75" />
<circle cx="376.18" cy="365.95" r="3.2" fill="#111111" fill-opacity="0.75" />
<circle cx="377.77" cy="365.95" r="3.2" fill="#111111" fill-opacity="0.75" />
<circle cx="377.84" cy="364.82" r="3.2" fill="#111111" fill-opacity="0.75" />
<circle cx="378.29" cy="364.82" r="3.2" fill="#111111" fill-opacity="0.75" />
<circle cx="378.90" cy="403.19" r="3.2" fill="#111111" fill-opacity="0.75" />
<circle cx="379.12" cy="365.95" r="3.2" fill="#111111" fill-opacity="0.75" />
<circle cx="379.65" cy="365.95" r="3.2" fill="#111111" fill-opacity="0.75" />
<circle cx="379.72" cy="365.95" r="3.2" fill="#111111" fill-opacity="0.75" />
<circle cx="379.80" cy="364.82" r="3.2" fill="#111111" fill-opacity="0.75" />
<circle cx="380.10" cy="407.14" r="3.2" fill="#111111" fill-opacity="0.75" />
<circle cx="392.83" cy="295.97" r="3.2" fill="#111111" fill-opacity="0.75" />
<circle cx="393.51" cy="270.01" r="3.2" fill="#111111" fill-opacity="0.75" />
<circle cx="394.72" cy="295.97" r="3.2" fill="#111111" fill-opacity="0.75" />
<circle cx="396.15" cy="295.97" r="3.2" fill="#111111" fill-opacity="0.75" />
<circle cx="396.90" cy="295.97" r="3.2" fill="#111111" fill-opacity="0.75" />
<circle cx="397.80" cy="338.86" r="3.2" fill="#111111" fill-opacity="0.75" />
<circle cx="397.96" cy="338.86" r="3.2" fill="#111111" fill-opacity="0.75" />
<circle cx="398.18" cy="338.86" r="3.2" fill="#111111" fill-opacity="0.75" />
<circle cx="398.48" cy="337.17" r="3.2" fill="#111111" fill-opacity="0.75" />
<circle cx="399.24" cy="337.17" r="3.2" fill="#111111" fill-opacity="0.75" />
<circle cx="400.14" cy="261.55" r="3.2" fill="#111111" fill-opacity="0.75" />
<circle cx="400.52" cy="337.17" r="3.2" fill="#111111" fill-opacity="0.75" />
<circle cx="400.97" cy="337.17" r="3.2" fill="#111111" fill-opacity="0.75" />
<circle cx="401.72" cy="337.17" r="3.2" fill="#111111" fill-opacity="0.75" />
<circle cx="402.17" cy="261.55" r="3.2" fill="#111111" fill-opacity="0.75" />
<circle cx="403.23" cy="355.22" r="3.2" fill="#111111" fill-opacity="0.75" />
<circle cx="403.38" cy="507.59" r="3.2" fill="#111111" fill-opacity="0.75" />
<circle cx="403.60" cy="261.55" r="3.2" fill="#111111" fill-opacity="0.75" />
<circle cx="404.06" cy="337.17" r="3.2" fill="#111111" fill-opacity="0.75" />
<circle cx="404.51" cy="261.55" r="3.2" fill="#111111" fill-opacity="0.75" />
<circle cx="404.89" cy="261.55" r="3.2" fill="#111111" fill-opacity="0.75" />
<circle cx="405.11" cy="337.17" r="3.2" fill="#111111" fill-opacity="0.75" />
<circle cx="405.34" cy="330.96" r="3.2" fill="#111111" fill-opacity="0.75" />
<circle cx="405.71" cy="330.96" r="3.2" fill="#111111" fill-opacity="0.75" />
<circle cx="406.39" cy="330.96" r="3.2" fill="#111111" fill-opacity="0.75" />
<circle cx="406.62" cy="337.17" r="3.2" fill="#111111" fill-opacity="0.75" />
<circle cx="406.69" cy="337.17" r="3.2" fill="#111111" fill-opacity="0.75" />
<circle cx="406.99" cy="261.55" r="3.2" fill="#111111" fill-opacity="0.75" />
<circle cx="409.25" cy="337.17" r="3.2" fill="#111111" fill-opacity="0.75" />
<circle cx="410.99" cy="507.59" r="3.2" fill="#111111" fill-opacity="0.75" />
<circle cx="411.14" cy="261.55" r="3.2" fill="#111111" fill-opacity="0.75" />
<circle cx="411.74" cy="273.96" r="3.2" fill="#111111" fill-opacity="0.75" />
<circle cx="413.02" cy="335.47" r="3.2" fill="#111111" fill-opacity="0.75" />
<circle cx="413.17" cy="258.16" r="3.2" fill="#111111" fill-opacity="0.75" />
<circle cx="423.64" cy="266.06" r="3.2" fill="#111111" fill-opacity="0.75" />
<circle cx="424.55" cy="261.55" r="3.2" fill="#111111" fill-opacity="0.75" />
<circle cx="425.83" cy="295.97" r="3.2" fill="#111111" fill-opacity="0.75" />
<circle cx="425.90" cy="261.55" r="3.2" fill="#111111" fill-opacity="0.75" />
<circle cx="426.51" cy="295.97" r="3.2" fill="#111111" fill-opacity="0.75" />
<circle cx="427.56" cy="261.55" r="3.2" fill="#111111" fill-opacity="0.75" />
<circle cx="427.64" cy="261.55" r="3.2" fill="#111111" fill-opacity="0.75" />
<circle cx="427.79" cy="261.55" r="3.2" fill="#111111" fill-opacity="0.75" />
<circle cx="429.14" cy="333.22" r="3.2" fill="#111111" fill-opacity="0.75" />
<circle cx="429.22" cy="333.22" r="3.2" fill="#111111" fill-opacity="0.75" />
<circle cx="429.74" cy="331.52" r="3.2" fill="#111111" fill-opacity="0.75" />
<circle cx="429.90" cy="331.52" r="3.2" fill="#111111" fill-opacity="0.75" />
<circle cx="430.87" cy="279.61" r="3.2" fill="#111111" fill-opacity="0.75" />
<circle cx="431.10" cy="334.34" r="3.2" fill="#111111" fill-opacity="0.75" />
<circle cx="431.18" cy="334.34" r="3.2" fill="#111111" fill-opacity="0.75" />
<circle cx="433.13" cy="334.34" r="3.2" fill="#111111" fill-opacity="0.75" />
<circle cx="434.19" cy="334.34" r="3.2" fill="#111111" fill-opacity="0.75" />
<circle cx="435.02" cy="334.34" r="3.2" fill="#111111" fill-opacity="0.75" />
<circle cx="435.55" cy="334.34" r="3.2" fill="#111111" fill-opacity="0.75" />
<circle cx="435.62" cy="334.34" r="3.2" fill="#111111" fill-opacity="0.75" />
<circle cx="435.92" cy="334.34" r="3.2" fill="#111111" fill-opacity="0.75" />
<circle cx="443.23" cy="295.97" r="3.2" fill="#111111" fill-opacity="0.75" />
<circle cx="443.61" cy="295.97" r="3.2" fill="#111111" fill-opacity="0.75" />
<circle cx="445.04" cy="261.55" r="3.2" fill="#111111" fill-opacity="0.75" />
<circle cx="445.19" cy="295.97" r="3.2" fill="#111111" fill-opacity="0.75" />
<circle cx="445.49" cy="261.55" r="3.2" fill="#111111" fill-opacity="0.75" />
<circle cx="445.72" cy="261.55" r="3.2" fill="#111111" fill-opacity="0.75" />
<circle cx="446.02" cy="295.97" r="3.2" fill="#111111" fill-opacity="0.75" />
<circle cx="446.92" cy="279.61" r="3.2" fill="#111111" fill-opacity="0.75" />
<circle cx="447.37" cy="255.91" r="3.2" fill="#111111" fill-opacity="0.75" />
<circle cx="448.20" cy="271.14" r="3.2" fill="#111111" fill-opacity="0.75" />
<circle cx="456.49" cy="262.68" r="3.2" fill="#111111" fill-opacity="0.75" />
<circle cx="458.45" cy="306.13" r="3.2" fill="#111111" fill-opacity="0.75" />
<circle cx="458.82" cy="299.92" r="3.2" fill="#111111" fill-opacity="0.75" />
<circle cx="459.58" cy="317.41" r="3.2" fill="#111111" fill-opacity="0.75" />
<circle cx="459.80" cy="317.41" r="3.2" fill="#111111" fill-opacity="0.75" />
<circle cx="460.48" cy="299.92" r="3.2" fill="#111111" fill-opacity="0.75" />
<circle cx="465.23" cy="261.55" r="3.2" fill="#111111" fill-opacity="0.75" />
<circle cx="465.90" cy="266.06" r="3.2" fill="#111111" fill-opacity="0.75" />
<circle cx="466.05" cy="266.06" r="3.2" fill="#111111" fill-opacity="0.75" />
<circle cx="466.88" cy="337.17" r="3.2" fill="#111111" fill-opacity="0.75" />
<circle cx="468.16" cy="261.55" r="3.2" fill="#111111" fill-opacity="0.75" />
<circle cx="470.95" cy="279.61" r="3.2" fill="#111111" fill-opacity="0.75" />
<circle cx="471.03" cy="266.63" r="3.2" fill="#111111" fill-opacity="0.75" />
<circle cx="479.54" cy="383.44" r="3.2" fill="#111111" fill-opacity="0.75" />
<circle cx="480.82" cy="385.70" r="3.2" fill="#111111" fill-opacity="0.75" />
<circle cx="482.10" cy="383.44" r="3.2" fill="#111111" fill-opacity="0.75" />
<circle cx="482.78" cy="385.70" r="3.2" fill="#111111" fill-opacity="0.75" />
<circle cx="483.15" cy="383.44" r="3.2" fill="#111111" fill-opacity="0.75" />
<circle cx="483.76" cy="385.70" r="3.2" fill="#111111" fill-opacity="0.75" />
<circle cx="485.57" cy="383.44" r="3.2" fill="#111111" fill-opacity="0.75" />
<circle cx="486.09" cy="385.70" r="3.2" fill="#111111" fill-opacity="0.75" />
<circle cx="487.22" cy="383.44" r="3.2" fill="#111111" fill-opacity="0.75" />
<circle cx="487.30" cy="383.44" r="3.2" fill="#111111" fill-opacity="0.75" />
<circle cx="495.06" cy="385.70" r="3.2" fill="#111111" fill-opacity="0.75" />
<circle cx="495.66" cy="383.44" r="3.2" fill="#111111" fill-opacity="0.75" />
<circle cx="496.64" cy="385.70" r="3.2" fill="#111111" fill-opacity="0.75" />
<circle cx="496.87" cy="383.44" r="3.2" fill="#111111" fill-opacity="0.75" />
<circle cx="496.94" cy="383.44" r="3.2" fill="#111111" fill-opacity="0.75" />
<circle cx="498.90" cy="385.70" r="3.2" fill="#111111" fill-opacity="0.75" />
<circle cx="501.08" cy="383.44" r="3.2" fill="#111111" fill-opacity="0.75" />
<circle cx="501.39" cy="385.70" r="3.2" fill="#111111" fill-opacity="0.75" />
<circle cx="504.93" cy="383.44" r="3.2" fill="#111111" fill-opacity="0.75" />
<circle cx="507.19" cy="361.43" r="3.2" fill="#111111" fill-opacity="0.75" />
<circle cx="509.22" cy="361.43" r="3.2" fill="#111111" fill-opacity="0.75" />
<circle cx="513.51" cy="322.49" r="3.2" fill="#111111" fill-opacity="0.75" />
<circle cx="514.27" cy="273.96" r="3.2" fill="#111111" fill-opacity="0.75" />
<circle cx="514.42" cy="264.37" r="3.2" fill="#111111" fill-opacity="0.75" />
<circle cx="514.72" cy="264.37" r="3.2" fill="#111111" fill-opacity="0.75" />
<circle cx="515.25" cy="319.11" r="3.2" fill="#111111" fill-opacity="0.75" />
<circle cx="515.62" cy="264.37" r="3.2" fill="#111111" fill-opacity="0.75" />
<circle cx="516.15" cy="264.37" r="3.2" fill="#111111" fill-opacity="0.75" />
<circle cx="518.56" cy="279.61" r="3.2" fill="#111111" fill-opacity="0.75" />
<circle cx="520.14" cy="362.56" r="3.2" fill="#111111" fill-opacity="0.75" />
<circle cx="520.22" cy="387.39" r="3.2" fill="#111111" fill-opacity="0.75" />
<circle cx="520.75" cy="257.60" r="3.2" fill="#111111" fill-opacity="0.75" />
<circle cx="521.05" cy="266.06" r="3.2" fill="#111111" fill-opacity="0.75" />
<circle cx="521.65" cy="257.60" r="3.2" fill="#111111" fill-opacity="0.75" />
<circle cx="521.95" cy="257.60" r="3.2" fill="#111111" fill-opacity="0.75" />
<circle cx="522.18" cy="257.60" r="3.2" fill="#111111" fill-opacity="0.75" />
<circle cx="523.16" cy="295.97" r="3.2" fill="#111111" fill-opacity="0.75" />
<circle cx="527.07" cy="364.25" r="3.2" fill="#111111" fill-opacity="0.75" />
<circle cx="530.84" cy="363.12" r="3.2" fill="#111111" fill-opacity="0.75" />
<circle cx="531.29" cy="303.31" r="3.2" fill="#111111" fill-opacity="0.75" />
<circle cx="532.27" cy="236.72" r="3.2" fill="#111111" fill-opacity="0.75" />
<circle cx="533.40" cy="363.12" r="3.2" fill="#111111" fill-opacity="0.75" />
<circle cx="537.39" cy="236.72" r="3.2" fill="#111111" fill-opacity="0.75" />
<circle cx="537.62" cy="236.72" r="3.2" fill="#111111" fill-opacity="0.75" />
<circle cx="542.29" cy="303.31" r="3.2" fill="#111111" fill-opacity="0.75" />
<circle cx="542.67" cy="303.31" r="3.2" fill="#111111" fill-opacity="0.75" />
<circle cx="551.10" cy="236.72" r="3.2" fill="#111111" fill-opacity="0.75" />
<circle cx="551.63" cy="334.91" r="3.2" fill="#111111" fill-opacity="0.75" />
<circle cx="577.17" cy="365.95" r="3.2" fill="#111111" fill-opacity="0.75" />
<circle cx="597.13" cy="365.95" r="3.2" fill="#111111" fill-opacity="0.75" />
<circle cx="618.15" cy="345.07" r="3.2" fill="#111111" fill-opacity="0.75" />
<circle cx="628.85" cy="365.95" r="3.2" fill="#111111" fill-opacity="0.75" />
<circle cx="629.52" cy="365.95" r="3.2" fill="#111111" fill-opacity="0.75" />
<circle cx="644.89" cy="365.95" r="3.2" fill="#111111" fill-opacity="0.75" />
<circle cx="654.08" cy="320.24" r="3.2" fill="#111111" fill-opacity="0.75" />
<circle cx="654.16" cy="358.04" r="3.2" fill="#111111" fill-opacity="0.75" />
<circle cx="655.14" cy="286.38" r="3.2" fill="#111111" fill-opacity="0.75" />
<circle cx="661.16" cy="320.24" r="3.2" fill="#111111" fill-opacity="0.75" />
<circle cx="668.24" cy="286.38" r="3.2" fill="#111111" fill-opacity="0.75" />
<circle cx="668.39" cy="360.87" r="3.2" fill="#111111" fill-opacity="0.75" />
<circle cx="668.70" cy="286.38" r="3.2" fill="#111111" fill-opacity="0.75" />
<circle cx="669.45" cy="360.87" r="3.2" fill="#111111" fill-opacity="0.75" />
<circle cx="670.50" cy="360.87" r="3.2" fill="#111111" fill-opacity="0.75" />
<circle cx="671.18" cy="320.24" r="3.2" fill="#111111" fill-opacity="0.75" />
<circle cx="672.46" cy="345.07" r="3.2" fill="#111111" fill-opacity="0.75" />
<circle cx="672.99" cy="277.91" r="3.2" fill="#111111" fill-opacity="0.75" />
<circle cx="673.29" cy="360.87" r="3.2" fill="#111111" fill-opacity="0.75" />
<circle cx="674.57" cy="360.87" r="3.2" fill="#111111" fill-opacity="0.75" />
<circle cx="676.53" cy="320.24" r="3.2" fill="#111111" fill-opacity="0.75" />
<circle cx="676.91" cy="277.91" r="3.2" fill="#111111" fill-opacity="0.75" />
<circle cx="676.98" cy="277.91" r="3.2" fill="#111111" fill-opacity="0.75" />
<circle cx="677.13" cy="320.24" r="3.2" fill="#111111" fill-opacity="0.75" />
<circle cx="682.48" cy="346.76" r="3.2" fill="#111111" fill-opacity="0.75" />
<circle cx="682.56" cy="408.27" r="3.2" fill="#111111" fill-opacity="0.75" />
<circle cx="682.71" cy="286.38" r="3.2" fill="#111111" fill-opacity="0.75" />
<circle cx="682.78" cy="286.38" r="3.2" fill="#111111" fill-opacity="0.75" />
<circle cx="684.74" cy="320.24" r="3.2" fill="#111111" fill-opacity="0.75" />
<circle cx="685.27" cy="320.24" r="3.2" fill="#111111" fill-opacity="0.75" />
<circle cx="685.42" cy="360.87" r="3.2" fill="#111111" fill-opacity="0.75" />
<circle cx="686.85" cy="320.24" r="3.2" fill="#111111" fill-opacity="0.75" />
<circle cx="687.08" cy="360.87" r="3.2" fill="#111111" fill-opacity="0.75" />
<circle cx="687.68" cy="320.24" r="3.2" fill="#111111" fill-opacity="0.75" />
<circle cx="688.58" cy="277.91" r="3.2" fill="#111111" fill-opacity="0.75" />
<circle cx="693.33" cy="320.24" r="3.2" fill="#111111" fill-opacity="0.75" />
<circle cx="693.48" cy="320.24" r="3.2" fill="#111111" fill-opacity="0.75" />
<circle cx="696.12" cy="286.38" r="3.2" fill="#111111" fill-opacity="0.75" />
<circle cx="696.27" cy="320.24" r="3.2" fill="#111111" fill-opacity="0.75" />
<circle cx="696.79" cy="286.38" r="3.2" fill="#111111" fill-opacity="0.75" />
<circle cx="697.17" cy="360.87" r="3.2" fill="#111111" fill-opacity="0.75" />
<circle cx="706.06" cy="431.97" r="3.2" fill="#111111" fill-opacity="0.75" />
<circle cx="706.14" cy="382.31" r="3.2" fill="#111111" fill-opacity="0.75" />
<circle cx="707.64" cy="190.45" r="3.2" fill="#111111" fill-opacity="0.75" />
<circle cx="709.53" cy="294.28" r="3.2" fill="#111111" fill-opacity="0.75" />
<circle cx="709.60" cy="250.26" r="3.2" fill="#111111" fill-opacity="0.75" />
<circle cx="710.20" cy="190.45" r="3.2" fill="#111111" fill-opacity="0.75" />
<circle cx="710.81" cy="387.95" r="3.2" fill="#111111" fill-opacity="0.75" />
<circle cx="711.48" cy="381.18" r="3.2" fill="#111111" fill-opacity="0.75" />
<circle cx="711.79" cy="294.28" r="3.2" fill="#111111" fill-opacity="0.75" />
<circle cx="714.20" cy="190.45" r="3.2" fill="#111111" fill-opacity="0.75" />
<circle cx="714.27" cy="190.45" r="3.2" fill="#111111" fill-opacity="0.75" />
<circle cx="714.65" cy="387.95" r="3.2" fill="#111111" fill-opacity="0.75" />
<circle cx="717.06" cy="190.45" r="3.2" fill="#111111" fill-opacity="0.75" />
<circle cx="717.21" cy="387.95" r="3.2" fill="#111111" fill-opacity="0.75" />
<circle cx="717.74" cy="191.01" r="3.2" fill="#111111" fill-opacity="0.75" />
<circle cx="719.09" cy="387.95" r="3.2" fill="#111111" fill-opacity="0.75" />
<circle cx="719.92" cy="191.01" r="3.2" fill="#111111" fill-opacity="0.75" />
<circle cx="721.43" cy="387.95" r="3.2" fill="#111111" fill-opacity="0.75" />
<circle cx="721.65" cy="191.01" r="3.2" fill="#111111" fill-opacity="0.75" />
<circle cx="721.96" cy="381.18" r="3.2" fill="#111111" fill-opacity="0.75" />
<circle cx="723.16" cy="190.45" r="3.2" fill="#111111" fill-opacity="0.75" />
<circle cx="723.46" cy="190.45" r="3.2" fill="#111111" fill-opacity="0.75" />
<circle cx="723.54" cy="294.28" r="3.2" fill="#111111" fill-opacity="0.75" />
<circle cx="725.19" cy="337.17" r="3.2" fill="#111111" fill-opacity="0.75" />
<circle cx="725.80" cy="387.95" r="3.2" fill="#111111" fill-opacity="0.75" />
<circle cx="725.87" cy="381.18" r="3.2" fill="#111111" fill-opacity="0.75" />
<circle cx="726.55" cy="387.95" r="3.2" fill="#111111" fill-opacity="0.75" />
<circle cx="727.38" cy="191.01" r="3.2" fill="#111111" fill-opacity="0.75" />
<circle cx="728.81" cy="190.45" r="3.2" fill="#111111" fill-opacity="0.75" />
<circle cx="730.39" cy="342.24" r="3.2" fill="#111111" fill-opacity="0.75" />
<circle cx="736.04" cy="190.45" r="3.2" fill="#111111" fill-opacity="0.75" />
<circle cx="736.34" cy="387.95" r="3.2" fill="#111111" fill-opacity="0.75" />
<circle cx="736.57" cy="191.01" r="3.2" fill="#111111" fill-opacity="0.75" />
<circle cx="737.02" cy="381.18" r="3.2" fill="#111111" fill-opacity="0.75" />
<circle cx="737.40" cy="190.45" r="3.2" fill="#111111" fill-opacity="0.75" />
<circle cx="738.00" cy="387.95" r="3.2" fill="#111111" fill-opacity="0.75" />
<circle cx="738.15" cy="381.18" r="3.2" fill="#111111" fill-opacity="0.75" />
<circle cx="739.51" cy="387.95" r="3.2" fill="#111111" fill-opacity="0.75" />
<circle cx="740.19" cy="387.95" r="3.2" fill="#111111" fill-opacity="0.75" />
<circle cx="740.86" cy="190.45" r="3.2" fill="#111111" fill-opacity="0.75" />
<circle cx="741.01" cy="387.95" r="3.2" fill="#111111" fill-opacity="0.75" />
<circle cx="741.77" cy="387.95" r="3.2" fill="#111111" fill-opacity="0.75" />
<circle cx="741.99" cy="387.95" r="3.2" fill="#111111" fill-opacity="0.75" />
<circle cx="742.97" cy="190.45" r="3.2" fill="#111111" fill-opacity="0.75" />
<circle cx="743.43" cy="190.45" r="3.2" fill="#111111" fill-opacity="0.75" />
<circle cx="744.93" cy="190.45" r="3.2" fill="#111111" fill-opacity="0.75" />
<circle cx="746.06" cy="387.95" r="3.2" fill="#111111" fill-opacity="0.75" />
<circle cx="746.14" cy="381.18" r="3.2" fill="#111111" fill-opacity="0.75" />
<circle cx="746.51" cy="381.18" r="3.2" fill="#111111" fill-opacity="0.75" />
<circle cx="746.97" cy="190.45" r="3.2" fill="#111111" fill-opacity="0.75" />
<circle cx="747.34" cy="229.38" r="3.2" fill="#111111" fill-opacity="0.75" />
<circle cx="748.40" cy="190.45" r="3.2" fill="#111111" fill-opacity="0.75" />
<circle cx="748.70" cy="190.45" r="3.2" fill="#111111" fill-opacity="0.75" />
<circle cx="749.00" cy="190.45" r="3.2" fill="#111111" fill-opacity="0.75" />
<circle cx="750.58" cy="190.45" r="3.2" fill="#111111" fill-opacity="0.75" />
<circle cx="752.24" cy="387.95" r="3.2" fill="#111111" fill-opacity="0.75" />
<circle cx="752.31" cy="191.01" r="3.2" fill="#111111" fill-opacity="0.75" />
<circle cx="752.46" cy="381.18" r="3.2" fill="#111111" fill-opacity="0.75" />
<circle cx="752.92" cy="190.45" r="3.2" fill="#111111" fill-opacity="0.75" />
<circle cx="753.97" cy="387.95" r="3.2" fill="#111111" fill-opacity="0.75" />
<circle cx="757.51" cy="191.01" r="3.2" fill="#111111" fill-opacity="0.75" />
<circle cx="757.81" cy="294.28" r="3.2" fill="#111111" fill-opacity="0.75" />
<circle cx="758.79" cy="207.37" r="3.2" fill="#111111" fill-opacity="0.75" />
<circle cx="758.87" cy="207.37" r="3.2" fill="#111111" fill-opacity="0.75" />
<circle cx="759.02" cy="207.37" r="3.2" fill="#111111" fill-opacity="0.75" />
<circle cx="762.03" cy="176.34" r="3.2" fill="#111111" fill-opacity="0.75" />
<circle cx="762.26" cy="218.66" r="3.2" fill="#111111" fill-opacity="0.75" />
<circle cx="762.56" cy="342.24" r="3.2" fill="#111111" fill-opacity="0.75" />
<circle cx="762.71" cy="374.97" r="3.2" fill="#111111" fill-opacity="0.75" />
<circle cx="763.31" cy="342.24" r="3.2" fill="#111111" fill-opacity="0.75" />
<circle cx="763.84" cy="342.24" r="3.2" fill="#111111" fill-opacity="0.75" />
<circle cx="764.44" cy="374.97" r="3.2" fill="#111111" fill-opacity="0.75" />
<circle cx="765.65" cy="374.97" r="3.2" fill="#111111" fill-opacity="0.75" />
<circle cx="766.18" cy="218.66" r="3.2" fill="#111111" fill-opacity="0.75" />
<circle cx="767.61" cy="374.97" r="3.2" fill="#111111" fill-opacity="0.75" />
<circle cx="769.41" cy="374.97" r="3.2" fill="#111111" fill-opacity="0.75" />
<circle cx="772.80" cy="374.97" r="3.2" fill="#111111" fill-opacity="0.75" />
<circle cx="773.03" cy="374.97" r="3.2" fill="#111111" fill-opacity="0.75" />
<circle cx="773.41" cy="374.97" r="3.2" fill="#111111" fill-opacity="0.75" />
<circle cx="773.86" cy="374.97" r="3.2" fill="#111111" fill-opacity="0.75" />
<circle cx="774.84" cy="374.97" r="3.2" fill="#111111" fill-opacity="0.75" />
<circle cx="776.19" cy="342.24" r="3.2" fill="#111111" fill-opacity="0.75" />
<circle cx="776.57" cy="342.24" r="3.2" fill="#111111" fill-opacity="0.75" />
<circle cx="776.65" cy="218.66" r="3.2" fill="#111111" fill-opacity="0.75" />
<circle cx="777.10" cy="374.97" r="3.2" fill="#111111" fill-opacity="0.75" />
<circle cx="777.93" cy="374.97" r="3.2" fill="#111111" fill-opacity="0.75" />
<circle cx="778.91" cy="218.66" r="3.2" fill="#111111" fill-opacity="0.75" />
<circle cx="779.51" cy="342.24" r="3.2" fill="#111111" fill-opacity="0.75" />
<circle cx="779.58" cy="342.24" r="3.2" fill="#111111" fill-opacity="0.75" />
<circle cx="780.04" cy="218.66" r="3.2" fill="#111111" fill-opacity="0.75" />
<circle cx="780.11" cy="342.24" r="3.2" fill="#111111" fill-opacity="0.75" />
<circle cx="780.26" cy="342.24" r="3.2" fill="#111111" fill-opacity="0.75" />
<circle cx="780.64" cy="218.66" r="3.2" fill="#111111" fill-opacity="0.75" />
<circle cx="780.71" cy="218.66" r="3.2" fill="#111111" fill-opacity="0.75" />
<circle cx="780.86" cy="218.66" r="3.2" fill="#111111" fill-opacity="0.75" />
<circle cx="781.02" cy="374.97" r="3.2" fill="#111111" fill-opacity="0.75" />
<circle cx="781.62" cy="374.97" r="3.2" fill="#111111" fill-opacity="0.75" />
<circle cx="782.97" cy="342.24" r="3.2" fill="#111111" fill-opacity="0.75" />
<circle cx="783.58" cy="218.66" r="3.2" fill="#111111" fill-opacity="0.75" />
<circle cx="784.41" cy="342.24" r="3.2" fill="#111111" fill-opacity="0.75" />
<circle cx="784.48" cy="218.66" r="3.2" fill="#111111" fill-opacity="0.75" />
<circle cx="784.63" cy="218.66" r="3.2" fill="#111111" fill-opacity="0.75" />
<circle cx="784.71" cy="374.97" r="3.2" fill="#111111" fill-opacity="0.75" />
<circle cx="785.61" cy="342.24" r="3.2" fill="#111111" fill-opacity="0.75" />
<circle cx="785.76" cy="374.97" r="3.2" fill="#111111" fill-opacity="0.75" />
<circle cx="786.59" cy="374.97" r="3.2" fill="#111111" fill-opacity="0.75" />
<circle cx="789.30" cy="374.97" r="3.2" fill="#111111" fill-opacity="0.75" />
<circle cx="790.66" cy="342.24" r="3.2" fill="#111111" fill-opacity="0.75" />
<circle cx="790.81" cy="342.24" r="3.2" fill="#111111" fill-opacity="0.75" />
<circle cx="792.62" cy="128.37" r="3.2" fill="#111111" fill-opacity="0.75" />
<circle cx="792.77" cy="374.97" r="3.2" fill="#111111" fill-opacity="0.75" />
<circle cx="793.14" cy="327.01" r="3.2" fill="#111111" fill-opacity="0.75" />
<circle cx="793.22" cy="282.99" r="3.2" fill="#111111" fill-opacity="0.75" />
<circle cx="793.37" cy="128.37" r="3.2" fill="#111111" fill-opacity="0.75" />
<circle cx="793.52" cy="374.97" r="3.2" fill="#111111" fill-opacity="0.75" />
<circle cx="794.50" cy="374.97" r="3.2" fill="#111111" fill-opacity="0.75" />
<circle cx="797.06" cy="218.66" r="3.2" fill="#111111" fill-opacity="0.75" />
<circle cx="797.14" cy="342.24" r="3.2" fill="#111111" fill-opacity="0.75" />
<circle cx="797.74" cy="374.97" r="3.2" fill="#111111" fill-opacity="0.75" />
<circle cx="797.89" cy="218.66" r="3.2" fill="#111111" fill-opacity="0.75" />
<circle cx="798.34" cy="342.24" r="3.2" fill="#111111" fill-opacity="0.75" />
<circle cx="798.64" cy="374.97" r="3.2" fill="#111111" fill-opacity="0.75" />
<circle cx="801.13" cy="374.97" r="3.2" fill="#111111" fill-opacity="0.75" />
<circle cx="802.79" cy="374.97" r="3.2" fill="#111111" fill-opacity="0.75" />
<circle cx="803.99" cy="218.66" r="3.2" fill="#111111" fill-opacity="0.75" />
<circle cx="809.64" cy="290.33" r="3.2" fill="#111111" fill-opacity="0.75" />
<circle cx="809.94" cy="201.17" r="3.2" fill="#111111" fill-opacity="0.75" />
<circle cx="810.17" cy="374.97" r="3.2" fill="#111111" fill-opacity="0.75" />
<circle cx="810.24" cy="270.58" r="3.2" fill="#111111" fill-opacity="0.75" />
<circle cx="811.75" cy="298.23" r="3.2" fill="#111111" fill-opacity="0.75" />
<circle cx="815.29" cy="374.97" r="3.2" fill="#111111" fill-opacity="0.75" />
<circle cx="816.20" cy="374.97" r="3.2" fill="#111111" fill-opacity="0.75" />
<circle cx="816.27" cy="374.97" r="3.2" fill="#111111" fill-opacity="0.75" />
<circle cx="817.02" cy="218.66" r="3.2" fill="#111111" fill-opacity="0.75" />
<circle cx="820.11" cy="374.97" r="3.2" fill="#111111" fill-opacity="0.75" />
<circle cx="821.85" cy="374.97" r="3.2" fill="#111111" fill-opacity="0.75" />
<circle cx="822.82" cy="218.66" r="3.2" fill="#111111" fill-opacity="0.75" />
<circle cx="824.48" cy="374.97" r="3.2" fill="#111111" fill-opacity="0.75" />
<circle cx="824.86" cy="342.24" r="3.2" fill="#111111" fill-opacity="0.75" />
<circle cx="825.16" cy="374.97" r="3.2" fill="#111111" fill-opacity="0.75" />
<circle cx="825.39" cy="218.66" r="3.2" fill="#111111" fill-opacity="0.75" />
<circle cx="826.21" cy="374.97" r="3.2" fill="#111111" fill-opacity="0.75" />
<circle cx="826.74" cy="374.97" r="3.2" fill="#111111" fill-opacity="0.75" />
<circle cx="827.65" cy="374.97" r="3.2" fill="#111111" fill-opacity="0.75" />
<circle cx="829.23" cy="374.97" r="3.2" fill="#111111" fill-opacity="0.75" />
<circle cx="829.68" cy="342.24" r="3.2" fill="#111111" fill-opacity="0.75" />
<circle cx="830.06" cy="374.97" r="3.2" fill="#111111" fill-opacity="0.75" />
<circle cx="830.28" cy="374.97" r="3.2" fill="#111111" fill-opacity="0.75" />
<circle cx="830.58" cy="218.66" r="3.2" fill="#111111" fill-opacity="0.75" />
<circle cx="830.73" cy="342.24" r="3.2" fill="#111111" fill-opacity="0.75" />
<circle cx="831.04" cy="342.24" r="3.2" fill="#111111" fill-opacity="0.75" />
<circle cx="832.24" cy="342.24" r="3.2" fill="#111111" fill-opacity="0.75" />
<circle cx="833.67" cy="374.97" r="3.2" fill="#111111" fill-opacity="0.75" />
<circle cx="833.82" cy="374.97" r="3.2" fill="#111111" fill-opacity="0.75" />
<circle cx="834.65" cy="394.16" r="3.2" fill="#111111" fill-opacity="0.75" />
<circle cx="835.25" cy="342.24" r="3.2" fill="#111111" fill-opacity="0.75" />
<circle cx="836.76" cy="374.97" r="3.2" fill="#111111" fill-opacity="0.75" />
<circle cx="837.59" cy="374.97" r="3.2" fill="#111111" fill-opacity="0.75" />
<circle cx="838.12" cy="374.97" r="3.2" fill="#111111" fill-opacity="0.75" />
<circle cx="838.72" cy="374.97" r="3.2" fill="#111111" fill-opacity="0.75" />
<circle cx="840.00" cy="374.97" r="3.2" fill="#111111" fill-opacity="0.75" />
<line x1="864" y1="88" x2="882" y2="88" stroke="#111111" stroke-width="2.4" />
<circle cx="873" cy="88" r="3.2" fill="#111111" />
<text x="892" y="92" font-size="13" font-family="Arial, sans-serif">NN-Reassign</text>
</svg>
