<svg xmlns="http://www.w3.org/2000/svg" width="1100" height="620" viewBox="0 0 1100 620">
<title>F_10_statistics Truck replacement greedy Deltas</title>
<rect x="0" y="0" width="1100" height="620" fill="white" />
<text x="550.0" y="34" text-anchor="middle" font-size="24" font-family="Arial, sans-serif">F_10_statistics Truck replacement greedy Deltas</text>
<line x1="90" y1="540.00" x2="840" y2="540.00" stroke="#dddddd" stroke-width="1" />
<text x="80" y="544.00" text-anchor="end" font-size="12" font-family="Arial, sans-serif">-229</text>
<line x1="90" y1="446.00" x2="840" y2="446.00" stroke="#dddddd" stroke-width="1" />
<text x="80" y="450.00" text-anchor="end" font-size="12" font-family="Arial, sans-serif">-159.4</text>
<line x1="90" y1="352.00" x2="840" y2="352.00" stroke="#dddddd" stroke-width="1" />
<text x="80" y="356.00" text-anchor="end" font-size="12" font-family="Arial, sans-serif">-89.8</text>
<line x1="90" y1="258.00" x2="840" y2="258.00" stroke="#dddddd" stroke-width="1" />
<text x="80" y="262.00" text-anchor="end" font-size="12" font-family="Arial, sans-serif">-20.2</text>
<line x1="90" y1="164.00" x2="840" y2="164.00" stroke="#dddddd" stroke-width="1" />
<text x="80" y="168.00" text-anchor="end" font-size="12" font-family="Arial, sans-serif">49.4</text>
<line x1="90" y1="70.00" x2="840" y2="70.00" stroke="#dddddd" stroke-width="1" />
<text x="80" y="74.00" text-anchor="end" font-size="12" font-family="Arial, sans-serif">119</text>
<line x1="90.00" y1="70" x2="90.00" y2="540" stroke="#f0f0f0" stroke-width="1" />
<text x="90.00" y="564" text-anchor="middle" font-size="12" font-family="Arial, sans-serif">4</text>
<line x1="240.00" y1="70" x2="240.00" y2="540" stroke="#f0f0f0" stroke-width="1" />
<text x="240.00" y="564" text-anchor="middle" font-size="12" font-family="Arial, sans-serif">1979</text>
<line x1="390.00" y1="70" x2="390.00" y2="540" stroke="#f0f0f0" stroke-width="1" />
<text x="390.00" y="564" text-anchor="middle" font-size="12" font-family="Arial, sans-serif">3953</text>
<line x1="540.00" y1="70" x2="540.00" y2="540" stroke="#f0f0f0" stroke-width="1" />
<text x="540.00" y="564" text-anchor="middle" font-size="12" font-family="Arial, sans-serif">5928</text>
<line x1="690.00" y1="70" x2="690.00" y2="540" stroke="#f0f0f0" stroke-width="1" />
<text x="690.00" y="564" text-anchor="middle" font-size="12" font-family="Arial, sans-serif">7902</text>
<line x1="840.00" y1="70" x2="840.00" y2="540" stroke="#f0f0f0" stroke-width="1" />
<text x="840.00" y="564" text-anchor="middle" font-size="12" font-family="Arial, sans-serif">9877</text>
<rect x="90" y="70" width="750" height="470" fill="none" stroke="#333333" stroke-width="1.5" />
<text x="465.0" y="600" text-anchor="middle" font-size="15" font-family="Arial, sans-serif">Iteration</text>
<text x="24" y="305.0" text-anchor="middle" font-size="15" font-family="Arial, sans-serif" transform="rotate(-90 24 305.0)">Delta</text>
<circle cx="90.00" cy="414.40" r="3.2" fill="#1f77b4" fill-opacity="0.75" />
<circle cx="90.23" cy="332.01" r="3.2" fill="#1f77b4" fill-opacity="0.75" />
<circle cx="90.38" cy="390.09" r="3.2" fill="#1f77b4" fill-opacity="0.75" />
<circle cx="90.68" cy="376.58" r="3.2" fill="#1f77b4" fill-opacity="0.75" />
<circle cx="92.05" cy="284.74" r="3.2" fill="#1f77b4" fill-opacity="0.75" />
<circle cx="94.94" cy="267.18" r="3.2" fill="#1f77b4" fill-opacity="0.75" />
<circle cx="96.00" cy="246.93" r="3.2" fill="#1f77b4" fill-opacity="0.75" />
<circle cx="97.22" cy="294.20" r="3.2" fill="#1f77b4" fill-opacity="0.75" />
<circle cx="97.75" cy="267.18" r="3.2" fill="#1f77b4" fill-opacity="0.75" />
<circle cx="99.34" cy="246.93" r="3.2" fill="#1f77b4" fill-opacity="0.75" />
<circle cx="99.80" cy="246.93" r="3.2" fill="#1f77b4" fill-opacity="0.75" />
<circle cx="101.77" cy="214.51" r="3.2" fill="#1f77b4" fill-opacity="0.75" />
<circle cx="104.43" cy="246.93" r="3.2" fill="#1f77b4" fill-opacity="0.75" />
<circle cx="104.66" cy="246.93" r="3.2" fill="#1f77b4" fill-opacity="0.75" />
<circle cx="106.03" cy="246.93" r="3.2" fill="#1f77b4" fill-opacity="0.75" />
<circle cx="106.86" cy="360.37" r="3.2" fill="#1f77b4" fill-opacity="0.75" />
<circle cx="107.47" cy="263.13" r="3.2" fill="#1f77b4" fill-opacity="0.75" />
<circle cx="107.78" cy="267.18" r="3.2" fill="#1f77b4" fill-opacity="0.75" />
<circle cx="108.99" cy="365.78" r="3.2" fill="#1f77b4" fill-opacity="0.75" />
<circle cx="111.35" cy="352.27" r="3.2" fill="#1f77b4" fill-opacity="0.75" />
<circle cx="112.03" cy="236.12" r="3.2" fill="#1f77b4" fill-opacity="0.75" />
<circle cx="112.71" cy="236.12" r="3.2" fill="#1f77b4" fill-opacity="0.75" />
<circle cx="114.00" cy="321.21" r="3.2" fill="#1f77b4" fill-opacity="0.75" />
<circle cx="120.31" cy="252.33" r="3.2" fill="#1f77b4" fill-opacity="0.75" />
<circle cx="120.99" cy="252.33" r="3.2" fill="#1f77b4" fill-opacity="0.75" />
<circle cx="121.98" cy="252.33" r="3.2" fill="#1f77b4" fill-opacity="0.75" />
<circle cx="123.12" cy="237.47" r="3.2" fill="#1f77b4" fill-opacity="0.75" />
<circle cx="123.42" cy="237.47" r="3.2" fill="#1f77b4" fill-opacity="0.75" />
<circle cx="124.26" cy="269.89" r="3.2" fill="#1f77b4" fill-opacity="0.75" />
<circle cx="125.70" cy="252.33" r="3.2" fill="#1f77b4" fill-opacity="0.75" />
<circle cx="127.83" cy="252.33" r="3.2" fill="#1f77b4" fill-opacity="0.75" />
<circle cx="128.97" cy="252.33" r="3.2" fill="#1f77b4" fill-opacity="0.75" />
<circle cx="129.50" cy="273.94" r="3.2" fill="#1f77b4" fill-opacity="0.75" />
<circle cx="130.26" cy="236.12" r="3.2" fill="#1f77b4" fill-opacity="0.75" />
<circle cx="131.86" cy="252.33" r="3.2" fill="#1f77b4" fill-opacity="0.75" />
<circle cx="132.31" cy="354.97" r="3.2" fill="#1f77b4" fill-opacity="0.75" />
<circle cx="135.05" cy="252.33" r="3.2" fill="#1f77b4" fill-opacity="0.75" />
<circle cx="135.58" cy="252.33" r="3.2" fill="#1f77b4" fill-opacity="0.75" />
<circle cx="137.02" cy="252.33" r="3.2" fill="#1f77b4" fill-opacity="0.75" />
<circle cx="138.69" cy="252.33" r="3.2" fill="#1f77b4" fill-opacity="0.75" />
<circle cx="141.58" cy="252.33" r="3.2" fill="#1f77b4" fill-opacity="0.75" />
<circle cx="145.07" cy="249.63" r="3.2" fill="#1f77b4" fill-opacity="0.75" />
<circle cx="145.83" cy="249.63" r="3.2" fill="#1f77b4" fill-opacity="0.75" />
<circle cx="146.67" cy="249.63" r="3.2" fill="#1f77b4" fill-opacity="0.75" />
<circle cx="148.42" cy="252.33" r="3.2" fill="#1f77b4" fill-opacity="0.75" />
<circle cx="148.87" cy="252.33" r="3.2" fill="#1f77b4" fill-opacity="0.75" />
<circle cx="149.56" cy="299.60" r="3.2" fill="#1f77b4" fill-opacity="0.75" />
<circle cx="150.32" cy="354.97" r="3.2" fill="#1f77b4" fill-opacity="0.75" />
<circle cx="150.70" cy="252.33" r="3.2" fill="#1f77b4" fill-opacity="0.75" />
<circle cx="152.52" cy="338.76" r="3.2" fill="#1f77b4" fill-opacity="0.75" />
<circle cx="154.57" cy="338.76" r="3.2" fill="#1f77b4" fill-opacity="0.75" />
<circle cx="158.82" cy="252.33" r="3.2" fill="#1f77b4" fill-opacity="0.75" />
<circle cx="159.96" cy="252.33" r="3.2" fill="#1f77b4" fill-opacity="0.75" />
<circle cx="160.65" cy="280.69" r="3.2" fill="#1f77b4" fill-opacity="0.75" />
<circle cx="161.56" cy="252.33" r="3.2" fill="#1f77b4" fill-opacity="0.75" />
<circle cx="162.01" cy="252.33" r="3.2" fill="#1f77b4" fill-opacity="0.75" />
<circle cx="163.15" cy="252.33" r="3.2" fill="#1f77b4" fill-opacity="0.75" />
<circle cx="165.28" cy="252.33" r="3.2" fill="#1f77b4" fill-opacity="0.75" />
<circle cx="166.12" cy="252.33" r="3.2" fill="#1f77b4" fill-opacity="0.75" />
<circle cx="169.00" cy="252.33" r="3.2" fill="#1f77b4" fill-opacity="0.75" />
<circle cx="170.37" cy="252.33" r="3.2" fill="#1f77b4" fill-opacity="0.75" />
<circle cx="171.51" cy="252.33" r="3.2" fill="#1f77b4" fill-opacity="0.75" />
<circle cx="172.73" cy="252.33" r="3.2" fill="#1f77b4" fill-opacity="0.75" />
<circle cx="173.18" cy="252.33" r="3.2" fill="#1f77b4" fill-opacity="0.75" />
<circle cx="173.64" cy="252.33" r="3.2" fill="#1f77b4" fill-opacity="0.75" />
<circle cx="174.24" cy="252.33" r="3.2" fill="#1f77b4" fill-opacity="0.75" />
<circle cx="175.31" cy="252.33" r="3.2" fill="#1f77b4" fill-opacity="0.75" />
<circle cx="176.75" cy="252.33" r="3.2" fill="#1f77b4" fill-opacity="0.75" />
<circle cx="178.20" cy="252.33" r="3.2" fill="#1f77b4" fill-opacity="0.75" />
<circle cx="179.94" cy="252.33" r="3.2" fill="#1f77b4" fill-opacity="0.75" />
<circle cx="180.17" cy="252.33" r="3.2" fill="#1f77b4" fill-opacity="0.75" />
<circle cx="181.31" cy="252.33" r="3.2" fill="#1f77b4" fill-opacity="0.75" />
<circle cx="183.13" cy="252.33" r="3.2" fill="#1f77b4" fill-opacity="0.75" />
<circle cx="183.44" cy="252.33" r="3.2" fill="#1f77b4" fill-opacity="0.75" />
<circle cx="185.41" cy="252.33" r="3.2" fill="#1f77b4" fill-opacity="0.75" />
<circle cx="186.63" cy="354.97" r="3.2" fill="#1f77b4" fill-opacity="0.75" />
<circle cx="186.93" cy="249.63" r="3.2" fill="#1f77b4" fill-opacity="0.75" />
<circle cx="187.16" cy="249.63" r="3.2" fill="#1f77b4" fill-opacity="0.75" />
<circle cx="190.81" cy="252.33" r="3.2" fill="#1f77b4" fill-opacity="0.75" />
<circle cx="191.79" cy="252.33" r="3.2" fill="#1f77b4" fill-opacity="0.75" />
<circle cx="194.45" cy="252.33" r="3.2" fill="#1f77b4" fill-opacity="0.75" />
<circle cx="194.60" cy="252.33" r="3.2" fill="#1f77b4" fill-opacity="0.75" />
<circle cx="196.20" cy="252.33" r="3.2" fill="#1f77b4" fill-opacity="0.75" />
<circle cx="197.87" cy="252.33" r="3.2" fill="#1f77b4" fill-opacity="0.75" />
<circle cx="198.17" cy="252.33" r="3.2" fill="#1f77b4" fill-opacity="0.75" />
<circle cx="200.07" cy="252.33" r="3.2" fill="#1f77b4" fill-opacity="0.75" />
<circle cx="206.76" cy="252.33" r="3.2" fill="#1f77b4" fill-opacity="0.75" />
<circle cx="212.30" cy="252.33" r="3.2" fill="#1f77b4" fill-opacity="0.75" />
<circle cx="217.01" cy="252.33" r="3.2" fill="#1f77b4" fill-opacity="0.75" />
<circle cx="219.67" cy="252.33" r="3.2" fill="#1f77b4" fill-opacity="0.75" />
<circle cx="219.90" cy="252.33" r="3.2" fill="#1f77b4" fill-opacity="0.75" />
<circle cx="220.58" cy="252.33" r="3.2" fill="#1f77b4" fill-opacity="0.75" />
<circle cx="222.25" cy="252.33" r="3.2" fill="#1f77b4" fill-opacity="0.75" />
<circle cx="223.24" cy="252.33" r="3.2" fill="#1f77b4" fill-opacity="0.75" />
<circle cx="224.08" cy="252.33" r="3.2" fill="#1f77b4" fill-opacity="0.75" />
<circle cx="225.37" cy="280.69" r="3.2" fill="#1f77b4" fill-opacity="0.75" />
<circle cx="226.74" cy="249.63" r="3.2" fill="#1f77b4" fill-opacity="0.75" />
<circle cx="230.08" cy="280.69" r="3.2" fill="#1f77b4" fill-opacity="0.75" />
<circle cx="231.90" cy="252.33" r="3.2" fill="#1f77b4" fill-opacity="0.75" />
<circle cx="233.57" cy="252.33" r="3.2" fill="#1f77b4" fill-opacity="0.75" />
<circle cx="233.88" cy="252.33" r="3.2" fill="#1f77b4" fill-opacity="0.75" />
<circle cx="236.00" cy="252.33" r="3.2" fill="#1f77b4" fill-opacity="0.75" />
<circle cx="236.16" cy="252.33" r="3.2" fill="#1f77b4" fill-opacity="0.75" />
<circle cx="236.38" cy="252.33" r="3.2" fill="#1f77b4" fill-opacity="0.75" />
<circle cx="241.47" cy="252.33" r="3.2" fill="#1f77b4" fill-opacity="0.75" />
<circle cx="242.69" cy="252.33" r="3.2" fill="#1f77b4" fill-opacity="0.75" />
<circle cx="246.11" cy="252.33" r="3.2" fill="#1f77b4" fill-opacity="0.75" />
<circle cx="246.64" cy="252.33" r="3.2" fill="#1f77b4" fill-opacity="0.75" />
<circle cx="247.10" cy="252.33" r="3.2" fill="#1f77b4" fill-opacity="0.75" />
<circle cx="249.22" cy="252.33" r="3.2" fill="#1f77b4" fill-opacity="0.75" />
<circle cx="249.91" cy="252.33" r="3.2" fill="#1f77b4" fill-opacity="0.75" />
<circle cx="250.36" cy="252.33" r="3.2" fill="#1f77b4" fill-opacity="0.75" />
<circle cx="252.64" cy="252.33" r="3.2" fill="#1f77b4" fill-opacity="0.75" />
<circle cx="254.08" cy="252.33" r="3.2" fill="#1f77b4" fill-opacity="0.75" />
<circle cx="255.15" cy="252.33" r="3.2" fill="#1f77b4" fill-opacity="0.75" />
<circle cx="258.72" cy="252.33" r="3.2" fill="#1f77b4" fill-opacity="0.75" />
<circle cx="259.17" cy="252.33" r="3.2" fill="#1f77b4" fill-opacity="0.75" />
<circle cx="259.71" cy="252.33" r="3.2" fill="#1f77b4" fill-opacity="0.75" />
<circle cx="260.16" cy="249.63" r="3.2" fill="#1f77b4" fill-opacity="0.75" />
<circle cx="260.84" cy="249.63" r="3.2" fill="#1f77b4" fill-opacity="0.75" />
<circle cx="263.28" cy="249.63" r="3.2" fill="#1f77b4" fill-opacity="0.75" />
<circle cx="264.34" cy="280.69" r="3.2" fill="#1f77b4" fill-opacity="0.75" />
<circle cx="267.91" cy="252.33" r="3.2" fill="#1f77b4" fill-opacity="0.75" />
<circle cx="272.77" cy="252.33" r="3.2" fill="#1f77b4" fill-opacity="0.75" />
<circle cx="273.53" cy="252.33" r="3.2" fill="#1f77b4" fill-opacity="0.75" />
<circle cx="274.14" cy="252.33" r="3.2" fill="#1f77b4" fill-opacity="0.75" />
<circle cx="274.75" cy="252.33" r="3.2" fill="#1f77b4" fill-opacity="0.75" />
<circle cx="275.51" cy="252.33" r="3.2" fill="#1f77b4" fill-opacity="0.75" />
<circle cx="284.77" cy="280.69" r="3.2" fill="#1f77b4" fill-opacity="0.75" />
<circle cx="288.50" cy="252.33" r="3.2" fill="#1f77b4" fill-opacity="0.75" />
<circle cx="288.80" cy="252.33" r="3.2" fill="#1f77b4" fill-opacity="0.75" />
<circle cx="293.51" cy="252.33" r="3.2" fill="#1f77b4" fill-opacity="0.75" />
<circle cx="295.10" cy="252.33" r="3.2" fill="#1f77b4" fill-opacity="0.75" />
<circle cx="301.33" cy="252.33" r="3.2" fill="#1f77b4" fill-opacity="0.75" />
<circle cx="301.94" cy="252.33" r="3.2" fill="#1f77b4" fill-opacity="0.75" />
<circle cx="303.84" cy="252.33" r="3.2" fill="#1f77b4" fill-opacity="0.75" />
<circle cx="304.37" cy="252.33" r="3.2" fill="#1f77b4" fill-opacity="0.75" />
<circle cx="304.98" cy="252.33" r="3.2" fill="#1f77b4" fill-opacity="0.75" />
<circle cx="306.27" cy="252.33" r="3.2" fill="#1f77b4" fill-opacity="0.75" />
<circle cx="311.21" cy="252.33" r="3.2" fill="#1f77b4" fill-opacity="0.75" />
<circle cx="315.16" cy="479.22" r="3.2" fill="#1f77b4" fill-opacity="0.75" />
<circle cx="315.24" cy="273.94" r="3.2" fill="#1f77b4" fill-opacity="0.75" />
<circle cx="315.46" cy="310.40" r="3.2" fill="#1f77b4" fill-opacity="0.75" />
<circle cx="317.89" cy="277.99" r="3.2" fill="#1f77b4" fill-opacity="0.75" />
<circle cx="336.05" cy="273.94" r="3.2" fill="#1f77b4" fill-opacity="0.75" />
<circle cx="339.54" cy="273.94" r="3.2" fill="#1f77b4" fill-opacity="0.75" />
<circle cx="344.94" cy="240.17" r="3.2" fill="#1f77b4" fill-opacity="0.75" />
<circle cx="345.17" cy="240.17" r="3.2" fill="#1f77b4" fill-opacity="0.75" />
<circle cx="346.68" cy="250.98" r="3.2" fill="#1f77b4" fill-opacity="0.75" />
<circle cx="347.37" cy="271.24" r="3.2" fill="#1f77b4" fill-opacity="0.75" />
<circle cx="347.44" cy="261.78" r="3.2" fill="#1f77b4" fill-opacity="0.75" />
<circle cx="351.47" cy="322.56" r="3.2" fill="#1f77b4" fill-opacity="0.75" />
<circle cx="351.55" cy="272.59" r="3.2" fill="#1f77b4" fill-opacity="0.75" />
<circle cx="357.85" cy="255.03" r="3.2" fill="#1f77b4" fill-opacity="0.75" />
<circle cx="359.37" cy="240.17" r="3.2" fill="#1f77b4" fill-opacity="0.75" />
<circle cx="359.75" cy="240.17" r="3.2" fill="#1f77b4" fill-opacity="0.75" />
<circle cx="361.35" cy="240.17" r="3.2" fill="#1f77b4" fill-opacity="0.75" />
<circle cx="361.88" cy="240.17" r="3.2" fill="#1f77b4" fill-opacity="0.75" />
<circle cx="363.78" cy="240.17" r="3.2" fill="#1f77b4" fill-opacity="0.75" />
<circle cx="364.46" cy="240.17" r="3.2" fill="#1f77b4" fill-opacity="0.75" />
<circle cx="365.68" cy="240.17" r="3.2" fill="#1f77b4" fill-opacity="0.75" />
<circle cx="365.83" cy="240.17" r="3.2" fill="#1f77b4" fill-opacity="0.75" />
<circle cx="366.97" cy="240.17" r="3.2" fill="#1f77b4" fill-opacity="0.75" />
<circle cx="368.41" cy="255.03" r="3.2" fill="#1f77b4" fill-opacity="0.75" />
<circle cx="368.71" cy="240.17" r="3.2" fill="#1f77b4" fill-opacity="0.75" />
<circle cx="369.78" cy="240.17" r="3.2" fill="#1f77b4" fill-opacity="0.75" />
<circle cx="371.15" cy="283.39" r="3.2" fill="#1f77b4" fill-opacity="0.75" />
<circle cx="375.55" cy="286.09" r="3.2" fill="#1f77b4" fill-opacity="0.75" />
<circle cx="378.67" cy="286.09" r="3.2" fill="#1f77b4" fill-opacity="0.75" />
<circle cx="382.39" cy="307.70" r="3.2" fill="#1f77b4" fill-opacity="0.75" />
<circle cx="390.06" cy="286.09" r="3.2" fill="#1f77b4" fill-opacity="0.75" />
<circle cx="393.93" cy="283.39" r="3.2" fill="#1f77b4" fill-opacity="0.75" />
<circle cx="396.29" cy="250.98" r="3.2" fill="#1f77b4" fill-opacity="0.75" />
<circle cx="397.20" cy="250.98" r="3.2" fill="#1f77b4" fill-opacity="0.75" />
<circle cx="398.34" cy="250.98" r="3.2" fill="#1f77b4" fill-opacity="0.75" />
<circle cx="401.23" cy="271.24" r="3.2" fill="#1f77b4" fill-opacity="0.75" />
<circle cx="409.28" cy="271.24" r="3.2" fill="#1f77b4" fill-opacity="0.75" />
<circle cx="416.42" cy="286.09" r="3.2" fill="#1f77b4" fill-opacity="0.75" />
<circle cx="426.98" cy="271.24" r="3.2" fill="#1f77b4" fill-opacity="0.75" />
<circle cx="431.16" cy="250.98" r="3.2" fill="#1f77b4" fill-opacity="0.75" />
<circle cx="431.99" cy="111.87" r="3.2" fill="#1f77b4" fill-opacity="0.75" />
<circle cx="432.07" cy="111.87" r="3.2" fill="#1f77b4" fill-opacity="0.75" />
<circle cx="432.15" cy="111.87" r="3.2" fill="#1f77b4" fill-opacity="0.75" />
<circle cx="432.30" cy="111.87" r="3.2" fill="#1f77b4" fill-opacity="0.75" />
<circle cx="432.98" cy="111.87" r="3.2" fill="#1f77b4" fill-opacity="0.75" />
<circle cx="433.21" cy="111.87" r="3.2" fill="#1f77b4" fill-opacity="0.75" />
<circle cx="433.28" cy="111.87" r="3.2" fill="#1f77b4" fill-opacity="0.75" />
<circle cx="434.04" cy="271.24" r="3.2" fill="#1f77b4" fill-opacity="0.75" />
<circle cx="435.41" cy="271.24" r="3.2" fill="#1f77b4" fill-opacity="0.75" />
<circle cx="437.01" cy="271.24" r="3.2" fill="#1f77b4" fill-opacity="0.75" />
<circle cx="441.87" cy="307.70" r="3.2" fill="#1f77b4" fill-opacity="0.75" />
<circle cx="450.45" cy="286.09" r="3.2" fill="#1f77b4" fill-opacity="0.75" />
<circle cx="450.60" cy="292.84" r="3.2" fill="#1f77b4" fill-opacity="0.75" />
<circle cx="451.06" cy="286.09" r="3.2" fill="#1f77b4" fill-opacity="0.75" />
<circle cx="460.78" cy="241.52" r="3.2" fill="#1f77b4" fill-opacity="0.75" />
<circle cx="461.62" cy="268.53" r="3.2" fill="#1f77b4" fill-opacity="0.75" />
<circle cx="474.23" cy="286.09" r="3.2" fill="#1f77b4" fill-opacity="0.75" />
<circle cx="478.48" cy="240.17" r="3.2" fill="#1f77b4" fill-opacity="0.75" />
<circle cx="480.08" cy="240.17" r="3.2" fill="#1f77b4" fill-opacity="0.75" />
<circle cx="480.84" cy="240.17" r="3.2" fill="#1f77b4" fill-opacity="0.75" />
<circle cx="481.22" cy="240.17" r="3.2" fill="#1f77b4" fill-opacity="0.75" />
<circle cx="482.36" cy="240.17" r="3.2" fill="#1f77b4" fill-opacity="0.75" />
<circle cx="486.38" cy="240.17" r="3.2" fill="#1f77b4" fill-opacity="0.75" />
<circle cx="486.69" cy="240.17" r="3.2" fill="#1f77b4" fill-opacity="0.75" />
<circle cx="487.07" cy="240.17" r="3.2" fill="#1f77b4" fill-opacity="0.75" />
<circle cx="488.59" cy="240.17" r="3.2" fill="#1f77b4" fill-opacity="0.75" />
<circle cx="490.18" cy="240.17" r="3.2" fill="#1f77b4" fill-opacity="0.75" />
<circle cx="490.79" cy="240.17" r="3.2" fill="#1f77b4" fill-opacity="0.75" />
<circle cx="494.06" cy="240.17" r="3.2" fill="#1f77b4" fill-opacity="0.75" />
<circle cx="494.36" cy="240.17" r="3.2" fill="#1f77b4" fill-opacity="0.75" />
<circle cx="494.59" cy="240.17" r="3.2" fill="#1f77b4" fill-opacity="0.75" />
<circle cx="494.97" cy="240.17" r="3.2" fill="#1f77b4" fill-opacity="0.75" />
<circle cx="498.54" cy="240.17" r="3.2" fill="#1f77b4" fill-opacity="0.75" />
<circle cx="506.36" cy="240.17" r="3.2" fill="#1f77b4" fill-opacity="0.75" />
<circle cx="509.10" cy="272.59" r="3.2" fill="#1f77b4" fill-opacity="0.75" />
<circle cx="515.71" cy="250.98" r="3.2" fill="#1f77b4" fill-opacity="0.75" />
<circle cx="517.99" cy="102.41" r="3.2" fill="#1f77b4" fill-opacity="0.75" />
<circle cx="518.75" cy="102.41" r="3.2" fill="#1f77b4" fill-opacity="0.75" />
<circle cx="519.28" cy="102.41" r="3.2" fill="#1f77b4" fill-opacity="0.75" />
<circle cx="519.43" cy="102.41" r="3.2" fill="#1f77b4" fill-opacity="0.75" />
<circle cx="523.83" cy="283.39" r="3.2" fill="#1f77b4" fill-opacity="0.75" />
<circle cx="524.06" cy="271.24" r="3.2" fill="#1f77b4" fill-opacity="0.75" />
<circle cx="526.19" cy="359.02" r="3.2" fill="#1f77b4" fill-opacity="0.75" />
<circle cx="531.05" cy="283.39" r="3.2" fill="#1f77b4" fill-opacity="0.75" />
<circle cx="531.13" cy="250.98" r="3.2" fill="#1f77b4" fill-opacity="0.75" />
<circle cx="536.44" cy="250.98" r="3.2" fill="#1f77b4" fill-opacity="0.75" />
<circle cx="539.86" cy="279.34" r="3.2" fill="#1f77b4" fill-opacity="0.75" />
<circle cx="540.09" cy="250.98" r="3.2" fill="#1f77b4" fill-opacity="0.75" />
<circle cx="542.07" cy="250.98" r="3.2" fill="#1f77b4" fill-opacity="0.75" />
<circle cx="542.29" cy="250.98" r="3.2" fill="#1f77b4" fill-opacity="0.75" />
<circle cx="546.62" cy="250.98" r="3.2" fill="#1f77b4" fill-opacity="0.75" />
<circle cx="547.46" cy="250.98" r="3.2" fill="#1f77b4" fill-opacity="0.75" />
<circle cx="553.92" cy="283.39" r="3.2" fill="#1f77b4" fill-opacity="0.75" />
<circle cx="554.45" cy="250.98" r="3.2" fill="#1f77b4" fill-opacity="0.75" />
<circle cx="555.36" cy="250.98" r="3.2" fill="#1f77b4" fill-opacity="0.75" />
<circle cx="556.35" cy="250.98" r="3.2" fill="#1f77b4" fill-opacity="0.75" />
<circle cx="568.58" cy="275.29" r="3.2" fill="#1f77b4" fill-opacity="0.75" />
<circle cx="571.92" cy="275.29" r="3.2" fill="#1f77b4" fill-opacity="0.75" />
<circle cx="576.78" cy="261.78" r="3.2" fill="#1f77b4" fill-opacity="0.75" />
<circle cx="582.63" cy="250.98" r="3.2" fill="#1f77b4" fill-opacity="0.75" />
<circle cx="585.90" cy="250.98" r="3.2" fill="#1f77b4" fill-opacity="0.75" />
<circle cx="587.42" cy="250.98" r="3.2" fill="#1f77b4" fill-opacity="0.75" />
<circle cx="590.00" cy="250.98" r="3.2" fill="#1f77b4" fill-opacity="0.75" />
<circle cx="590.76" cy="250.98" r="3.2" fill="#1f77b4" fill-opacity="0.75" />
<circle cx="591.75" cy="250.98" r="3.2" fill="#1f77b4" fill-opacity="0.75" />
<circle cx="594.56" cy="250.98" r="3.2" fill="#1f77b4" fill-opacity="0.75" />
<circle cx="602.31" cy="275.29" r="3.2" fill="#1f77b4" fill-opacity="0.75" />
<circle cx="604.13" cy="275.29" r="3.2" fill="#1f77b4" fill-opacity="0.75" />
<circle cx="608.16" cy="283.39" r="3.2" fill="#1f77b4" fill-opacity="0.75" />
<circle cx="608.76" cy="275.29" r="3.2" fill="#1f77b4" fill-opacity="0.75" />
<circle cx="620.46" cy="261.78" r="3.2" fill="#1f77b4" fill-opacity="0.75" />
<circle cx="621.75" cy="261.78" r="3.2" fill="#1f77b4" fill-opacity="0.75" />
<circle cx="622.82" cy="275.29" r="3.2" fill="#1f77b4" fill-opacity="0.75" />
<circle cx="625.70" cy="275.29" r="3.2" fill="#1f77b4" fill-opacity="0.75" />
<circle cx="628.82" cy="275.29" r="3.2" fill="#1f77b4" fill-opacity="0.75" />
<circle cx="634.36" cy="261.78" r="3.2" fill="#1f77b4" fill-opacity="0.75" />
<circle cx="636.19" cy="275.29" r="3.2" fill="#1f77b4" fill-opacity="0.75" />
<circle cx="646.82" cy="275.29" r="3.2" fill="#1f77b4" fill-opacity="0.75" />
<circle cx="650.54" cy="275.29" r="3.2" fill="#1f77b4" fill-opacity="0.75" />
<circle cx="658.75" cy="234.77" r="3.2" fill="#1f77b4" fill-opacity="0.75" />
<circle cx="659.13" cy="261.78" r="3.2" fill="#1f77b4" fill-opacity="0.75" />
<circle cx="659.43" cy="173.99" r="3.2" fill="#1f77b4" fill-opacity="0.75" />
<circle cx="665.96" cy="173.99" r="3.2" fill="#1f77b4" fill-opacity="0.75" />
<circle cx="666.04" cy="173.99" r="3.2" fill="#1f77b4" fill-opacity="0.75" />
<circle cx="666.27" cy="173.99" r="3.2" fill="#1f77b4" fill-opacity="0.75" />
<circle cx="666.34" cy="173.99" r="3.2" fill="#1f77b4" fill-opacity="0.75" />
<circle cx="666.42" cy="173.99" r="3.2" fill="#1f77b4" fill-opacity="0.75" />
<circle cx="666.50" cy="173.99" r="3.2" fill="#1f77b4" fill-opacity="0.75" />
<circle cx="667.03" cy="173.99" r="3.2" fill="#1f77b4" fill-opacity="0.75" />
<circle cx="671.05" cy="234.77" r="3.2" fill="#1f77b4" fill-opacity="0.75" />
<circle cx="671.28" cy="261.78" r="3.2" fill="#1f77b4" fill-opacity="0.75" />
<circle cx="673.11" cy="173.99" r="3.2" fill="#1f77b4" fill-opacity="0.75" />
<circle cx="674.02" cy="173.99" r="3.2" fill="#1f77b4" fill-opacity="0.75" />
<circle cx="674.17" cy="173.99" r="3.2" fill="#1f77b4" fill-opacity="0.75" />
<circle cx="674.24" cy="173.99" r="3.2" fill="#1f77b4" fill-opacity="0.75" />
<circle cx="674.85" cy="173.99" r="3.2" fill="#1f77b4" fill-opacity="0.75" />
<circle cx="675.08" cy="173.99" r="3.2" fill="#1f77b4" fill-opacity="0.75" />
<circle cx="675.31" cy="173.99" r="3.2" fill="#1f77b4" fill-opacity="0.75" />
<circle cx="677.21" cy="295.55" r="3.2" fill="#1f77b4" fill-opacity="0.75" />
<circle cx="677.28" cy="261.78" r="3.2" fill="#1f77b4" fill-opacity="0.75" />
<circle cx="677.36" cy="173.99" r="3.2" fill="#1f77b4" fill-opacity="0.75" />
<circle cx="677.44" cy="173.99" r="3.2" fill="#1f77b4" fill-opacity="0.75" />
<circle cx="677.51" cy="173.99" r="3.2" fill="#1f77b4" fill-opacity="0.75" />
<circle cx="677.59" cy="173.99" r="3.2" fill="#1f77b4" fill-opacity="0.75" />
<circle cx="678.12" cy="173.99" r="3.2" fill="#1f77b4" fill-opacity="0.75" />
<circle cx="678.42" cy="173.99" r="3.2" fill="#1f77b4" fill-opacity="0.75" />
<circle cx="678.50" cy="173.99" r="3.2" fill="#1f77b4" fill-opacity="0.75" />
<circle cx="678.57" cy="173.99" r="3.2" fill="#1f77b4" fill-opacity="0.75" />
<circle cx="678.73" cy="173.99" r="3.2" fill="#1f77b4" fill-opacity="0.75" />
<circle cx="678.80" cy="173.99" r="3.2" fill="#1f77b4" fill-opacity="0.75" />
<circle cx="678.88" cy="173.99" r="3.2" fill="#1f77b4" fill-opacity="0.75" />
<circle cx="678.95" cy="173.99" r="3.2" fill="#1f77b4" fill-opacity="0.75" />
<circle cx="679.56" cy="261.78" r="3.2" fill="#1f77b4" fill-opacity="0.75" />
<circle cx="680.47" cy="173.99" r="3.2" fill="#1f77b4" fill-opacity="0.75" />
<circle cx="681.01" cy="173.99" r="3.2" fill="#1f77b4" fill-opacity="0.75" />
<circle cx="681.54" cy="173.99" r="3.2" fill="#1f77b4" fill-opacity="0.75" />
<circle cx="687.61" cy="173.99" r="3.2" fill="#1f77b4" fill-opacity="0.75" />
<circle cx="687.69" cy="173.99" r="3.2" fill="#1f77b4" fill-opacity="0.75" />
<circle cx="687.77" cy="173.99" r="3.2" fill="#1f77b4" fill-opacity="0.75" />
<circle cx="687.84" cy="173.99" r="3.2" fill="#1f77b4" fill-opacity="0.75" />
<circle cx="688.15" cy="173.99" r="3.2" fill="#1f77b4" fill-opacity="0.75" />
<circle cx="688.45" cy="173.99" r="3.2" fill="#1f77b4" fill-opacity="0.75" />
<circle cx="689.44" cy="173.99" r="3.2" fill="#1f77b4" fill-opacity="0.75" />
<circle cx="689.59" cy="173.99" r="3.2" fill="#1f77b4" fill-opacity="0.75" />
<circle cx="689.89" cy="173.99" r="3.2" fill="#1f77b4" fill-opacity="0.75" />
<circle cx="690.50" cy="173.99" r="3.2" fill="#1f77b4" fill-opacity="0.75" />
<circle cx="690.88" cy="173.99" r="3.2" fill="#1f77b4" fill-opacity="0.75" />
<circle cx="690.96" cy="173.99" r="3.2" fill="#1f77b4" fill-opacity="0.75" />
<circle cx="691.26" cy="234.77" r="3.2" fill="#1f77b4" fill-opacity="0.75" />
<circle cx="692.02" cy="173.99" r="3.2" fill="#1f77b4" fill-opacity="0.75" />
<circle cx="692.40" cy="173.99" r="3.2" fill="#1f77b4" fill-opacity="0.75" />
<circle cx="692.70" cy="173.99" r="3.2" fill="#1f77b4" fill-opacity="0.75" />
<circle cx="693.16" cy="173.99" r="3.2" fill="#1f77b4" fill-opacity="0.75" />
<circle cx="693.46" cy="173.99" r="3.2" fill="#1f77b4" fill-opacity="0.75" />
<circle cx="700.38" cy="173.99" r="3.2" fill="#1f77b4" fill-opacity="0.75" />
<circle cx="700.60" cy="173.99" r="3.2" fill="#1f77b4" fill-opacity="0.75" />
<circle cx="700.76" cy="261.78" r="3.2" fill="#1f77b4" fill-opacity="0.75" />
<circle cx="700.83" cy="173.99" r="3.2" fill="#1f77b4" fill-opacity="0.75" />
<circle cx="701.29" cy="173.99" r="3.2" fill="#1f77b4" fill-opacity="0.75" />
<circle cx="701.52" cy="173.99" r="3.2" fill="#1f77b4" fill-opacity="0.75" />
<circle cx="701.90" cy="173.99" r="3.2" fill="#1f77b4" fill-opacity="0.75" />
<circle cx="701.97" cy="173.99" r="3.2" fill="#1f77b4" fill-opacity="0.75" />
<circle cx="702.28" cy="173.99" r="3.2" fill="#1f77b4" fill-opacity="0.75" />
<circle cx="706.23" cy="507.59" r="3.2" fill="#1f77b4" fill-opacity="0.75" />
<circle cx="706.30" cy="329.31" r="3.2" fill="#1f77b4" fill-opacity="0.75" />
<circle cx="706.68" cy="261.78" r="3.2" fill="#1f77b4" fill-opacity="0.75" />
<circle cx="706.76" cy="173.99" r="3.2" fill="#1f77b4" fill-opacity="0.75" />
<circle cx="711.32" cy="234.77" r="3.2" fill="#1f77b4" fill-opacity="0.75" />
<circle cx="711.70" cy="273.94" r="3.2" fill="#1f77b4" fill-opacity="0.75" />
<circle cx="711.85" cy="241.52" r="3.2" fill="#1f77b4" fill-opacity="0.75" />
<circle cx="714.35" cy="242.87" r="3.2" fill="#1f77b4" fill-opacity="0.75" />
<circle cx="714.66" cy="242.87" r="3.2" fill="#1f77b4" fill-opacity="0.75" />
<circle cx="715.65" cy="241.52" r="3.2" fill="#1f77b4" fill-opacity="0.75" />
<circle cx="715.95" cy="241.52" r="3.2" fill="#1f77b4" fill-opacity="0.75" />
<circle cx="717.16" cy="242.87" r="3.2" fill="#1f77b4" fill-opacity="0.75" />
<circle cx="722.33" cy="241.52" r="3.2" fill="#1f77b4" fill-opacity="0.75" />
<circle cx="727.34" cy="241.52" r="3.2" fill="#1f77b4" fill-opacity="0.75" />
<circle cx="728.71" cy="242.87" r="3.2" fill="#1f77b4" fill-opacity="0.75" />
<circle cx="730.38" cy="242.87" r="3.2" fill="#1f77b4" fill-opacity="0.75" />
<circle cx="731.29" cy="241.52" r="3.2" fill="#1f77b4" fill-opacity="0.75" />
<circle cx="733.19" cy="276.64" r="3.2" fill="#1f77b4" fill-opacity="0.75" />
<circle cx="733.65" cy="241.52" r="3.2" fill="#1f77b4" fill-opacity="0.75" />
<circle cx="735.09" cy="241.52" r="3.2" fill="#1f77b4" fill-opacity="0.75" />
<circle cx="735.24" cy="241.52" r="3.2" fill="#1f77b4" fill-opacity="0.75" />
<circle cx="735.93" cy="241.52" r="3.2" fill="#1f77b4" fill-opacity="0.75" />
<circle cx="736.46" cy="241.52" r="3.2" fill="#1f77b4" fill-opacity="0.75" />
<circle cx="736.76" cy="241.52" r="3.2" fill="#1f77b4" fill-opacity="0.75" />
<circle cx="740.33" cy="241.52" r="3.2" fill="#1f77b4" fill-opacity="0.75" />
<circle cx="744.36" cy="241.52" r="3.2" fill="#1f77b4" fill-opacity="0.75" />
<circle cx="744.82" cy="241.52" r="3.2" fill="#1f77b4" fill-opacity="0.75" />
<circle cx="745.35" cy="241.52" r="3.2" fill="#1f77b4" fill-opacity="0.75" />
<circle cx="745.65" cy="241.52" r="3.2" fill="#1f77b4" fill-opacity="0.75" />
<circle cx="746.56" cy="241.52" r="3.2" fill="#1f77b4" fill-opacity="0.75" />
<circle cx="747.55" cy="241.52" r="3.2" fill="#1f77b4" fill-opacity="0.75" />
<circle cx="748.61" cy="241.52" r="3.2" fill="#1f77b4" fill-opacity="0.75" />
<circle cx="749.30" cy="241.52" r="3.2" fill="#1f77b4" fill-opacity="0.75" />
<circle cx="752.72" cy="246.93" r="3.2" fill="#1f77b4" fill-opacity="0.75" />
<circle cx="755.00" cy="241.52" r="3.2" fill="#1f77b4" fill-opacity="0.75" />
<circle cx="759.63" cy="390.09" r="3.2" fill="#1f77b4" fill-opacity="0.75" />
<circle cx="763.43" cy="250.98" r="3.2" fill="#1f77b4" fill-opacity="0.75" />
<circle cx="767.53" cy="348.22" r="3.2" fill="#1f77b4" fill-opacity="0.75" />
<circle cx="767.61" cy="325.26" r="3.2" fill="#1f77b4" fill-opacity="0.75" />
<circle cx="779.00" cy="248.28" r="3.2" fill="#1f77b4" fill-opacity="0.75" />
<circle cx="779.46" cy="248.28" r="3.2" fill="#1f77b4" fill-opacity="0.75" />
<circle cx="783.56" cy="248.28" r="3.2" fill="#1f77b4" fill-opacity="0.75" />
<circle cx="788.19" cy="283.39" r="3.2" fill="#1f77b4" fill-opacity="0.75" />
<circle cx="790.40" cy="248.28" r="3.2" fill="#1f77b4" fill-opacity="0.75" />
<circle cx="798.14" cy="284.74" r="3.2" fill="#1f77b4" fill-opacity="0.75" />
<circle cx="799.36" cy="242.87" r="3.2" fill="#1f77b4" fill-opacity="0.75" />
<circle cx="800.27" cy="268.53" r="3.2" fill="#1f77b4" fill-opacity="0.75" />
<circle cx="808.40" cy="283.39" r="3.2" fill="#1f77b4" fill-opacity="0.75" />
<circle cx="812.27" cy="284.74" r="3.2" fill="#1f77b4" fill-opacity="0.75" />
<circle cx="812.35" cy="248.28" r="3.2" fill="#1f77b4" fill-opacity="0.75" />
<circle cx="813.03" cy="242.87" r="3.2" fill="#1f77b4" fill-opacity="0.75" />
<circle cx="813.34" cy="242.87" r="3.2" fill="#1f77b4" fill-opacity="0.75" />
<circle cx="814.78" cy="242.87" r="3.2" fill="#1f77b4" fill-opacity="0.75" />
<circle cx="815.92" cy="248.28" r="3.2" fill="#1f77b4" fill-opacity="0.75" />
<circle cx="817.97" cy="242.87" r="3.2" fill="#1f77b4" fill-opacity="0.75" />
<circle cx="818.73" cy="268.53" r="3.2" fill="#1f77b4" fill-opacity="0.75" />
<circle cx="828.68" cy="283.39" r="3.2" fill="#1f77b4" fill-opacity="0.75" />
<circle cx="833.69" cy="248.28" r="3.2" fill="#1f77b4" fill-opacity="0.75" />
<circle cx="835.37" cy="248.28" r="3.2" fill="#1f77b4" fill-opacity="0.75" />
<circle cx="840.00" cy="248.28" r="3.2" fill="#1f77b4" fill-opacity="0.75" />
<line x1="864" y1="88" x2="882" y2="88" stroke="#1f77b4" stroke-width="2.4" />
<circle cx="873" cy="88" r="3.2" fill="#1f77b4" />
<text x="892" y="92" font-size="13" font-family="Arial, sans-serif">Truck replacement greedy</text>
</svg>
