<svg xmlns="http://www.w3.org/2000/svg" width="1100" height="620" viewBox="0 0 1100 620">
<title>F_10_statistics Two-Opt Arrival Screened Deltas</title>
<rect x="0" y="0" width="1100" height="620" fill="white" />
<text x="550.0" y="34" text-anchor="middle" font-size="24" font-family="Arial, sans-serif">F_10_statistics Two-Opt Arrival Screened Deltas</text>
<line x1="90" y1="540.00" x2="840" y2="540.00" stroke="#dddddd" stroke-width="1" />
<text x="80" y="544.00" text-anchor="end" font-size="12" font-family="Arial, sans-serif">-572.9</text>
<line x1="90" y1="446.00" x2="840" y2="446.00" stroke="#dddddd" stroke-width="1" />
<text x="80" y="450.00" text-anchor="end" font-size="12" font-family="Arial, sans-serif">-315.1</text>
<line x1="90" y1="352.00" x2="840" y2="352.00" stroke="#dddddd" stroke-width="1" />
<text x="80" y="356.00" text-anchor="end" font-size="12" font-family="Arial, sans-serif">-57.4</text>
<line x1="90" y1="258.00" x2="840" y2="258.00" stroke="#dddddd" stroke-width="1" />
<text x="80" y="262.00" text-anchor="end" font-size="12" font-family="Arial, sans-serif">200.4</text>
<line x1="90" y1="164.00" x2="840" y2="164.00" stroke="#dddddd" stroke-width="1" />
<text x="80" y="168.00" text-anchor="end" font-size="12" font-family="Arial, sans-serif">458.1</text>
<line x1="90" y1="70.00" x2="840" y2="70.00" stroke="#dddddd" stroke-width="1" />
<text x="80" y="74.00" text-anchor="end" font-size="12" font-family="Arial, sans-serif">715.9</text>
<line x1="90.00" y1="70" x2="90.00" y2="540" stroke="#f0f0f0" stroke-width="1" />
<text x="90.00" y="564" text-anchor="middle" font-size="12" font-family="Arial, sans-serif">5</text>
<line x1="240.00" y1="70" x2="240.00" y2="540" stroke="#f0f0f0" stroke-width="1" />
<text x="240.00" y="564" text-anchor="middle" font-size="12" font-family="Arial, sans-serif">1996</text>
<line x1="390.00" y1="70" x2="390.00" y2="540" stroke="#f0f0f0" stroke-width="1" />
<text x="390.00" y="564" text-anchor="middle" font-size="12" font-family="Arial, sans-serif">3987</text>
<line x1="540.00" y1="70" x2="540.00" y2="540" stroke="#f0f0f0" stroke-width="1" />
<text x="540.00" y="564" text-anchor="middle" font-size="12" font-family="Arial, sans-serif">5978</text>
<line x1="690.00" y1="70" x2="690.00" y2="540" stroke="#f0f0f0" stroke-width="1" />
<text x="690.00" y="564" text-anchor="middle" font-size="12" font-family="Arial, sans-serif">7969</text>
<line x1="840.00" y1="70" x2="840.00" y2="540" stroke="#f0f0f0" stroke-width="1" />
<text x="840.00" y="564" text-anchor="middle" font-size="12" font-family="Arial, sans-serif">9960</text>
<rect x="90" y="70" width="750" height="470" fill="none" stroke="#333333" stroke-width="1.5" />
<text x="465.0" y="600" text-anchor="middle" font-size="15" font-family="Arial, sans-serif">Iteration</text>
<text x="24" y="305.0" text-anchor="middle" font-size="15" font-family="Arial, sans-serif" transform="rotate(-90 24 305.0)">Delta</text>
<circle cx="90.00" cy="507.59" r="3.2" fill="#d62728" fill-opacity="0.75" />
<circle cx="90.23" cy="426.62" r="3.2" fill="#d62728" fill-opacity="0.75" />
<circle cx="90.45" cy="346.03" r="3.2" fill="#d62728" fill-opacity="0.75" />
<circle cx="91.58" cy="346.76" r="3.2" fill="#d62728" fill-opacity="0.75" />
<circle cx="93.39" cy="348.22" r="3.2" fill="#d62728" fill-opacity="0.75" />
<circle cx="94.60" cy="345.30" r="3.2" fill="#d62728" fill-opacity="0.75" />
<circle cx="96.03" cy="343.47" r="3.2" fill="#d62728" fill-opacity="0.75" />
<circle cx="105.60" cy="343.47" r="3.2" fill="#d62728" fill-opacity="0.75" />
<circle cx="105.75" cy="343.47" r="3.2" fill="#d62728" fill-opacity="0.75" />
<circle cx="107.63" cy="102.41" r="3.2" fill="#d62728" fill-opacity="0.75" />
<circle cx="107.70" cy="102.41" r="3.2" fill="#d62728" fill-opacity="0.75" />
<circle cx="107.78" cy="102.41" r="3.2" fill="#d62728" fill-opacity="0.75" />
<circle cx="108.23" cy="373.74" r="3.2" fill="#d62728" fill-opacity="0.75" />
<circle cx="108.83" cy="289.14" r="3.2" fill="#d62728" fill-opacity="0.75" />
<circle cx="109.14" cy="289.14" r="3.2" fill="#d62728" fill-opacity="0.75" />
<circle cx="109.44" cy="289.14" r="3.2" fill="#d62728" fill-opacity="0.75" />
<circle cx="109.59" cy="289.14" r="3.2" fill="#d62728" fill-opacity="0.75" />
<circle cx="109.66" cy="289.14" r="3.2" fill="#d62728" fill-opacity="0.75" />
<circle cx="109.74" cy="289.14" r="3.2" fill="#d62728" fill-opacity="0.75" />
<circle cx="109.96" cy="289.14" r="3.2" fill="#d62728" fill-opacity="0.75" />
<circle cx="110.27" cy="289.14" r="3.2" fill="#d62728" fill-opacity="0.75" />
<circle cx="110.49" cy="289.14" r="3.2" fill="#d62728" fill-opacity="0.75" />
<circle cx="110.72" cy="289.14" r="3.2" fill="#d62728" fill-opacity="0.75" />
<circle cx="110.79" cy="289.14" r="3.2" fill="#d62728" fill-opacity="0.75" />
<circle cx="110.87" cy="289.14" r="3.2" fill="#d62728" fill-opacity="0.75" />
<circle cx="110.94" cy="343.47" r="3.2" fill="#d62728" fill-opacity="0.75" />
<circle cx="111.17" cy="303.72" r="3.2" fill="#d62728" fill-opacity="0.75" />
<circle cx="111.47" cy="303.72" r="3.2" fill="#d62728" fill-opacity="0.75" />
<circle cx="111.55" cy="303.72" r="3.2" fill="#d62728" fill-opacity="0.75" />
<circle cx="111.62" cy="303.72" r="3.2" fill="#d62728" fill-opacity="0.75" />
<circle cx="111.70" cy="303.72" r="3.2" fill="#d62728" fill-opacity="0.75" />
<circle cx="111.92" cy="303.72" r="3.2" fill="#d62728" fill-opacity="0.75" />
<circle cx="112.15" cy="303.72" r="3.2" fill="#d62728" fill-opacity="0.75" />
<circle cx="112.53" cy="303.72" r="3.2" fill="#d62728" fill-opacity="0.75" />
<circle cx="121.57" cy="308.46" r="3.2" fill="#d62728" fill-opacity="0.75" />
<circle cx="122.25" cy="308.46" r="3.2" fill="#d62728" fill-opacity="0.75" />
<circle cx="122.32" cy="308.46" r="3.2" fill="#d62728" fill-opacity="0.75" />
<circle cx="122.47" cy="308.46" r="3.2" fill="#d62728" fill-opacity="0.75" />
<circle cx="122.92" cy="324.51" r="3.2" fill="#d62728" fill-opacity="0.75" />
<circle cx="123.45" cy="315.03" r="3.2" fill="#d62728" fill-opacity="0.75" />
<circle cx="123.68" cy="315.03" r="3.2" fill="#d62728" fill-opacity="0.75" />
<circle cx="124.20" cy="315.03" r="3.2" fill="#d62728" fill-opacity="0.75" />
<circle cx="124.28" cy="315.03" r="3.2" fill="#d62728" fill-opacity="0.75" />
<circle cx="124.35" cy="315.03" r="3.2" fill="#d62728" fill-opacity="0.75" />
<circle cx="124.81" cy="324.15" r="3.2" fill="#d62728" fill-opacity="0.75" />
<circle cx="129.03" cy="339.83" r="3.2" fill="#d62728" fill-opacity="0.75" />
<circle cx="129.40" cy="321.59" r="3.2" fill="#d62728" fill-opacity="0.75" />
<circle cx="129.55" cy="339.46" r="3.2" fill="#d62728" fill-opacity="0.75" />
<circle cx="129.63" cy="307.37" r="3.2" fill="#d62728" fill-opacity="0.75" />
<circle cx="129.78" cy="307.37" r="3.2" fill="#d62728" fill-opacity="0.75" />
<circle cx="130.31" cy="313.21" r="3.2" fill="#d62728" fill-opacity="0.75" />
<circle cx="134.53" cy="308.46" r="3.2" fill="#d62728" fill-opacity="0.75" />
<circle cx="146.05" cy="331.80" r="3.2" fill="#d62728" fill-opacity="0.75" />
<circle cx="147.71" cy="301.17" r="3.2" fill="#d62728" fill-opacity="0.75" />
<circle cx="149.14" cy="280.38" r="3.2" fill="#d62728" fill-opacity="0.75" />
<circle cx="149.29" cy="261.78" r="3.2" fill="#d62728" fill-opacity="0.75" />
<circle cx="149.89" cy="333.63" r="3.2" fill="#d62728" fill-opacity="0.75" />
<circle cx="151.25" cy="290.96" r="3.2" fill="#d62728" fill-opacity="0.75" />
<circle cx="152.31" cy="332.90" r="3.2" fill="#d62728" fill-opacity="0.75" />
<circle cx="156.83" cy="332.90" r="3.2" fill="#d62728" fill-opacity="0.75" />
<circle cx="157.65" cy="332.90" r="3.2" fill="#d62728" fill-opacity="0.75" />
<circle cx="160.37" cy="280.38" r="3.2" fill="#d62728" fill-opacity="0.75" />
<circle cx="160.52" cy="280.38" r="3.2" fill="#d62728" fill-opacity="0.75" />
<circle cx="160.74" cy="306.28" r="3.2" fill="#d62728" fill-opacity="0.75" />
<circle cx="162.25" cy="261.78" r="3.2" fill="#d62728" fill-opacity="0.75" />
<circle cx="162.33" cy="261.78" r="3.2" fill="#d62728" fill-opacity="0.75" />
<circle cx="164.28" cy="261.78" r="3.2" fill="#d62728" fill-opacity="0.75" />
<circle cx="164.36" cy="261.78" r="3.2" fill="#d62728" fill-opacity="0.75" />
<circle cx="169.48" cy="261.78" r="3.2" fill="#d62728" fill-opacity="0.75" />
<circle cx="171.74" cy="261.78" r="3.2" fill="#d62728" fill-opacity="0.75" />
<circle cx="171.89" cy="261.78" r="3.2" fill="#d62728" fill-opacity="0.75" />
<circle cx="174.46" cy="302.63" r="3.2" fill="#d62728" fill-opacity="0.75" />
<circle cx="175.89" cy="261.78" r="3.2" fill="#d62728" fill-opacity="0.75" />
<circle cx="179.28" cy="304.45" r="3.2" fill="#d62728" fill-opacity="0.75" />
<circle cx="185.68" cy="333.63" r="3.2" fill="#d62728" fill-opacity="0.75" />
<circle cx="185.83" cy="306.28" r="3.2" fill="#d62728" fill-opacity="0.75" />
<circle cx="190.58" cy="302.63" r="3.2" fill="#d62728" fill-opacity="0.75" />
<circle cx="193.14" cy="261.78" r="3.2" fill="#d62728" fill-opacity="0.75" />
<circle cx="205.12" cy="333.63" r="3.2" fill="#d62728" fill-opacity="0.75" />
<circle cx="215.82" cy="304.45" r="3.2" fill="#d62728" fill-opacity="0.75" />
<circle cx="218.45" cy="306.64" r="3.2" fill="#d62728" fill-opacity="0.75" />
<circle cx="218.68" cy="308.46" r="3.2" fill="#d62728" fill-opacity="0.75" />
<circle cx="232.16" cy="261.78" r="3.2" fill="#d62728" fill-opacity="0.75" />
<circle cx="234.65" cy="261.78" r="3.2" fill="#d62728" fill-opacity="0.75" />
<circle cx="240.08" cy="279.29" r="3.2" fill="#d62728" fill-opacity="0.75" />
<circle cx="247.53" cy="280.38" r="3.2" fill="#d62728" fill-opacity="0.75" />
<circle cx="247.61" cy="309.56" r="3.2" fill="#d62728" fill-opacity="0.75" />
<circle cx="247.68" cy="309.56" r="3.2" fill="#d62728" fill-opacity="0.75" />
<circle cx="262.60" cy="261.78" r="3.2" fill="#d62728" fill-opacity="0.75" />
<circle cx="262.68" cy="261.78" r="3.2" fill="#d62728" fill-opacity="0.75" />
<circle cx="271.04" cy="261.78" r="3.2" fill="#d62728" fill-opacity="0.75" />
<circle cx="271.12" cy="261.78" r="3.2" fill="#d62728" fill-opacity="0.75" />
<circle cx="273.07" cy="302.63" r="3.2" fill="#d62728" fill-opacity="0.75" />
<circle cx="302.38" cy="333.63" r="3.2" fill="#d62728" fill-opacity="0.75" />
<circle cx="313.38" cy="353.32" r="3.2" fill="#d62728" fill-opacity="0.75" />
<circle cx="331.39" cy="347.12" r="3.2" fill="#d62728" fill-opacity="0.75" />
<circle cx="350.90" cy="335.82" r="3.2" fill="#d62728" fill-opacity="0.75" />
<circle cx="459.01" cy="321.59" r="3.2" fill="#d62728" fill-opacity="0.75" />
<circle cx="459.24" cy="321.59" r="3.2" fill="#d62728" fill-opacity="0.75" />
<circle cx="459.91" cy="321.59" r="3.2" fill="#d62728" fill-opacity="0.75" />
<circle cx="459.99" cy="321.59" r="3.2" fill="#d62728" fill-opacity="0.75" />
<circle cx="460.97" cy="321.59" r="3.2" fill="#d62728" fill-opacity="0.75" />
<circle cx="461.35" cy="321.59" r="3.2" fill="#d62728" fill-opacity="0.75" />
<circle cx="470.39" cy="398.91" r="3.2" fill="#d62728" fill-opacity="0.75" />
<circle cx="470.46" cy="360.98" r="3.2" fill="#d62728" fill-opacity="0.75" />
<circle cx="519.73" cy="352.96" r="3.2" fill="#d62728" fill-opacity="0.75" />
<circle cx="526.89" cy="348.22" r="3.2" fill="#d62728" fill-opacity="0.75" />
<circle cx="628.30" cy="343.11" r="3.2" fill="#d62728" fill-opacity="0.75" />
<circle cx="675.99" cy="346.39" r="3.2" fill="#d62728" fill-opacity="0.75" />
<circle cx="686.53" cy="346.39" r="3.2" fill="#d62728" fill-opacity="0.75" />
<circle cx="705.52" cy="374.47" r="3.2" fill="#d62728" fill-opacity="0.75" />
<circle cx="706.20" cy="354.78" r="3.2" fill="#d62728" fill-opacity="0.75" />
<circle cx="710.79" cy="328.89" r="3.2" fill="#d62728" fill-opacity="0.75" />
<circle cx="714.71" cy="328.89" r="3.2" fill="#d62728" fill-opacity="0.75" />
<circle cx="717.65" cy="328.89" r="3.2" fill="#d62728" fill-opacity="0.75" />
<circle cx="720.36" cy="328.89" r="3.2" fill="#d62728" fill-opacity="0.75" />
<circle cx="720.51" cy="328.89" r="3.2" fill="#d62728" fill-opacity="0.75" />
<circle cx="725.86" cy="337.64" r="3.2" fill="#d62728" fill-opacity="0.75" />
<circle cx="728.05" cy="328.89" r="3.2" fill="#d62728" fill-opacity="0.75" />
<circle cx="736.48" cy="328.89" r="3.2" fill="#d62728" fill-opacity="0.75" />
<circle cx="738.14" cy="328.89" r="3.2" fill="#d62728" fill-opacity="0.75" />
<circle cx="739.57" cy="328.89" r="3.2" fill="#d62728" fill-opacity="0.75" />
<circle cx="740.10" cy="328.89" r="3.2" fill="#d62728" fill-opacity="0.75" />
<circle cx="740.33" cy="328.89" r="3.2" fill="#d62728" fill-opacity="0.75" />
<circle cx="740.85" cy="328.89" r="3.2" fill="#d62728" fill-opacity="0.75" />
<circle cx="741.68" cy="328.89" r="3.2" fill="#d62728" fill-opacity="0.75" />
<circle cx="742.29" cy="330.35" r="3.2" fill="#d62728" fill-opacity="0.75" />
<circle cx="746.05" cy="328.89" r="3.2" fill="#d62728" fill-opacity="0.75" />
<circle cx="746.20" cy="328.89" r="3.2" fill="#d62728" fill-opacity="0.75" />
<circle cx="746.58" cy="328.89" r="3.2" fill="#d62728" fill-opacity="0.75" />
<circle cx="761.72" cy="402.92" r="3.2" fill="#d62728" fill-opacity="0.75" />
<circle cx="769.26" cy="337.28" r="3.2" fill="#d62728" fill-opacity="0.75" />
<circle cx="773.48" cy="332.53" r="3.2" fill="#d62728" fill-opacity="0.75" />
<circle cx="774.00" cy="332.53" r="3.2" fill="#d62728" fill-opacity="0.75" />
<circle cx="778.30" cy="332.53" r="3.2" fill="#d62728" fill-opacity="0.75" />
<circle cx="784.78" cy="332.53" r="3.2" fill="#d62728" fill-opacity="0.75" />
<circle cx="792.16" cy="337.28" r="3.2" fill="#d62728" fill-opacity="0.75" />
<circle cx="797.58" cy="337.28" r="3.2" fill="#d62728" fill-opacity="0.75" />
<circle cx="810.47" cy="337.28" r="3.2" fill="#d62728" fill-opacity="0.75" />
<circle cx="825.01" cy="337.28" r="3.2" fill="#d62728" fill-opacity="0.75" />
<circle cx="827.95" cy="332.53" r="3.2" fill="#d62728" fill-opacity="0.75" />
<circle cx="829.30" cy="332.53" r="3.2" fill="#d62728" fill-opacity="0.75" />
<circle cx="840.00" cy="337.28" r="3.2" fill="#d62728" fill-opacity="0.75" />
<line x1="864" y1="88" x2="882" y2="88" stroke="#d62728" stroke-width="2.4" />
<circle cx="873" cy="88" r="3.2" fill="#d62728" />
<text x="892" y="92" font-size="13" font-family="Arial, sans-serif">Two-Opt Arrival Screened</text>
</svg>
