<svg xmlns="http://www.w3.org/2000/svg" width="1100" height="620" viewBox="0 0 1100 620">
<title>F_100_statistics Operator Weights</title>
<rect x="0" y="0" width="1100" height="620" fill="white" />
<text x="550.0" y="34" text-anchor="middle" font-size="24" font-family="Arial, sans-serif">F_100_statistics Operator Weights</text>
<line x1="90" y1="540.00" x2="840" y2="540.00" stroke="#dddddd" stroke-width="1" />
<text x="80" y="544.00" text-anchor="end" font-size="12" font-family="Arial, sans-serif">-0.04</text>
<line x1="90" y1="446.00" x2="840" y2="446.00" stroke="#dddddd" stroke-width="1" />
<text x="80" y="450.00" text-anchor="end" font-size="12" font-family="Arial, sans-serif">0.18</text>
<line x1="90" y1="352.00" x2="840" y2="352.00" stroke="#dddddd" stroke-width="1" />
<text x="80" y="356.00" text-anchor="end" font-size="12" font-family="Arial, sans-serif">0.41</text>
<line x1="90" y1="258.00" x2="840" y2="258.00" stroke="#dddddd" stroke-width="1" />
<text x="80" y="262.00" text-anchor="end" font-size="12" font-family="Arial, sans-serif">0.64</text>
<line x1="90" y1="164.00" x2="840" y2="164.00" stroke="#dddddd" stroke-width="1" />
<text x="80" y="168.00" text-anchor="end" font-size="12" font-family="Arial, sans-serif">0.87</text>
<line x1="90" y1="70.00" x2="840" y2="70.00" stroke="#dddddd" stroke-width="1" />
<text x="80" y="74.00" text-anchor="end" font-size="12" font-family="Arial, sans-serif">1.09</text>
<line x1="90.00" y1="70" x2="90.00" y2="540" stroke="#f0f0f0" stroke-width="1" />
<text x="90.00" y="564" text-anchor="middle" font-size="12" font-family="Arial, sans-serif">1</text>
<line x1="240.00" y1="70" x2="240.00" y2="540" stroke="#f0f0f0" stroke-width="1" />
<text x="240.00" y="564" text-anchor="middle" font-size="12" font-family="Arial, sans-serif">10.8</text>
<line x1="390.00" y1="70" x2="390.00" y2="540" stroke="#f0f0f0" stroke-width="1" />
<text x="390.00" y="564" text-anchor="middle" font-size="12" font-family="Arial, sans-serif">20.6</text>
<line x1="540.00" y1="70" x2="540.00" y2="540" stroke="#f0f0f0" stroke-width="1" />
<text x="540.00" y="564" text-anchor="middle" font-size="12" font-family="Arial, sans-serif">30.4</text>
<line x1="690.00" y1="70" x2="690.00" y2="540" stroke="#f0f0f0" stroke-width="1" />
<text x="690.00" y="564" text-anchor="middle" font-size="12" font-family="Arial, sans-serif">40.2</text>
<line x1="840.00" y1="70" x2="840.00" y2="540" stroke="#f0f0f0" stroke-width="1" />
<text x="840.00" y="564" text-anchor="middle" font-size="12" font-family="Arial, sans-serif">50</text>
<rect x="90" y="70" width="750" height="470" fill="none" stroke="#333333" stroke-width="1.5" />
<text x="465.0" y="600" text-anchor="middle" font-size="15" font-family="Arial, sans-serif">Segment</text>
<text x="24" y="305.0" text-anchor="middle" font-size="15" font-family="Arial, sans-serif" transform="rotate(-90 24 305.0)">Weight</text>
<polyline points="90.00,347.19 105.31,355.67 120.61,345.76 135.92,331.16 151.22,323.25 166.53,311.48 181.84,301.36 197.14,291.57 212.45,282.50 227.76,276.87 243.06,270.69 258.37,263.25 273.67,257.44 288.98,253.24 304.29,247.47 319.59,242.74 334.90,235.74 350.20,230.57 365.51,226.02 380.82,223.35 396.12,224.11 411.43,226.02 426.73,230.16 442.04,230.05 457.35,234.43 472.65,237.48 487.96,233.05 503.27,232.48 518.57,230.73 533.88,232.29 549.18,235.86 564.49,235.11 579.80,231.52 595.10,233.27 610.41,233.88 625.71,233.37 641.02,233.71 656.33,231.43 671.63,229.11 686.94,226.21 702.24,226.10 717.55,226.37 732.86,230.88 748.16,231.72 763.47,231.95 778.78,229.96 794.08,225.56 809.39,226.10 824.69,222.11 840.00,216.14" fill="none" stroke="#111111" stroke-width="2.4" />
<circle cx="90.00" cy="347.19" r="3.2" fill="#111111" fill-opacity="0.75" />
<circle cx="105.31" cy="355.67" r="3.2" fill="#111111" fill-opacity="0.75" />
<circle cx="120.61" cy="345.76" r="3.2" fill="#111111" fill-opacity="0.75" />
<circle cx="135.92" cy="331.16" r="3.2" fill="#111111" fill-opacity="0.75" />
<circle cx="151.22" cy="323.25" r="3.2" fill="#111111" fill-opacity="0.75" />
<circle cx="166.53" cy="311.48" r="3.2" fill="#111111" fill-opacity="0.75" />
<circle cx="181.84" cy="301.36" r="3.2" fill="#111111" fill-opacity="0.75" />
<circle cx="197.14" cy="291.57" r="3.2" fill="#111111" fill-opacity="0.75" />
<circle cx="212.45" cy="282.50" r="3.2" fill="#111111" fill-opacity="0.75" />
<circle cx="227.76" cy="276.87" r="3.2" fill="#111111" fill-opacity="0.75" />
<circle cx="243.06" cy="270.69" r="3.2" fill="#111111" fill-opacity="0.75" />
<circle cx="258.37" cy="263.25" r="3.2" fill="#111111" fill-opacity="0.75" />
<circle cx="273.67" cy="257.44" r="3.2" fill="#111111" fill-opacity="0.75" />
<circle cx="288.98" cy="253.24" r="3.2" fill="#111111" fill-opacity="0.75" />
<circle cx="304.29" cy="247.47" r="3.2" fill="#111111" fill-opacity="0.75" />
<circle cx="319.59" cy="242.74" r="3.2" fill="#111111" fill-opacity="0.75" />
<circle cx="334.90" cy="235.74" r="3.2" fill="#111111" fill-opacity="0.75" />
<circle cx="350.20" cy="230.57" r="3.2" fill="#111111" fill-opacity="0.75" />
<circle cx="365.51" cy="226.02" r="3.2" fill="#111111" fill-opacity="0.75" />
<circle cx="380.82" cy="223.35" r="3.2" fill="#111111" fill-opacity="0.75" />
<circle cx="396.12" cy="224.11" r="3.2" fill="#111111" fill-opacity="0.75" />
<circle cx="411.43" cy="226.02" r="3.2" fill="#111111" fill-opacity="0.75" />
<circle cx="426.73" cy="230.16" r="3.2" fill="#111111" fill-opacity="0.75" />
<circle cx="442.04" cy="230.05" r="3.2" fill="#111111" fill-opacity="0.75" />
<circle cx="457.35" cy="234.43" r="3.2" fill="#111111" fill-opacity="0.75" />
<circle cx="472.65" cy="237.48" r="3.2" fill="#111111" fill-opacity="0.75" />
<circle cx="487.96" cy="233.05" r="3.2" fill="#111111" fill-opacity="0.75" />
<circle cx="503.27" cy="232.48" r="3.2" fill="#111111" fill-opacity="0.75" />
<circle cx="518.57" cy="230.73" r="3.2" fill="#111111" fill-opacity="0.75" />
<circle cx="533.88" cy="232.29" r="3.2" fill="#111111" fill-opacity="0.75" />
<circle cx="549.18" cy="235.86" r="3.2" fill="#111111" fill-opacity="0.75" />
<circle cx="564.49" cy="235.11" r="3.2" fill="#111111" fill-opacity="0.75" />
<circle cx="579.80" cy="231.52" r="3.2" fill="#111111" fill-opacity="0.75" />
<circle cx="595.10" cy="233.27" r="3.2" fill="#111111" fill-opacity="0.75" />
<circle cx="610.41" cy="233.88" r="3.2" fill="#111111" fill-opacity="0.75" />
<circle cx="625.71" cy="233.37" r="3.2" fill="#111111" fill-opacity="0.75" />
<circle cx="641.02" cy="233.71" r="3.2" fill="#111111" fill-opacity="0.75" />
<circle cx="656.33" cy="231.43" r="3.2" fill="#111111" fill-opacity="0.75" />
<circle cx="671.63" cy="229.11" r="3.2" fill="#111111" fill-opacity="0.75" />
<circle cx="686.94" cy="226.21" r="3.2" fill="#111111" fill-opacity="0.75" />
<circle cx="702.24" cy="226.10" r="3.2" fill="#111111" fill-opacity="0.75" />
<circle cx="717.55" cy="226.37" r="3.2" fill="#111111" fill-opacity="0.75" />
<circle cx="732.86" cy="230.88" r="3.2" fill="#111111" fill-opacity="0.75" />
<circle cx="748.16" cy="231.72" r="3.2" fill="#111111" fill-opacity="0.75" />
<circle cx="763.47" cy="231.95" r="3.2" fill="#111111" fill-opacity="0.75" />
<circle cx="778.78" cy="229.96" r="3.2" fill="#111111" fill-opacity="0.75" />
<circle cx="794.08" cy="225.56" r="3.2" fill="#111111" fill-opacity="0.75" />
<circle cx="809.39" cy="226.10" r="3.2" fill="#111111" fill-opacity="0.75" />
<circle cx="824.69" cy="222.11" r="3.2" fill="#111111" fill-opacity="0.75" />
<circle cx="840.00" cy="216.14" r="3.2" fill="#111111" fill-opacity="0.75" />
<line x1="864" y1="88" x2="882" y2="88" stroke="#111111" stroke-width="2.4" />
<circle cx="873" cy="88" r="3.2" fill="#111111" />
<text x="892" y="92" font-size="13" font-family="Arial, sans-serif">NN-Reassign</text>
<polyline points="90.00,102.41 105.31,124.46 120.61,125.63 135.92,137.66 151.22,147.33 166.53,157.49 181.84,164.73 197.14,171.63 212.45,176.50 227.76,183.79 243.06,191.77 258.37,199.46 273.67,202.76 288.98,209.27 304.29,215.09 319.59,225.40 334.90,228.01 350.20,233.62 365.51,236.84 380.82,239.92 396.12,245.43 411.43,248.84 426.73,256.14 442.04,262.95 457.35,264.60 472.65,263.24 487.96,261.57 503.27,259.27 518.57,257.39 533.88,253.10 549.18,255.38 564.49,258.24 579.80,260.85 595.10,266.31 610.41,270.65 625.71,272.96 641.02,276.20 656.33,277.57 671.63,279.26 686.94,280.07 702.24,276.56 717.55,274.08 732.86,275.60 748.16,280.03 763.47,284.38 778.78,284.41 794.08,285.20 809.39,289.32 824.69,290.60 840.00,293.05" fill="none" stroke="#1f77b4" stroke-width="2.4" />
<circle cx="90.00" cy="102.41" r="3.2" fill="#1f77b4" fill-opacity="0.75" />
<circle cx="105.31" cy="124.46" r="3.2" fill="#1f77b4" fill-opacity="0.75" />
<circle cx="120.61" cy="125.63" r="3.2" fill="#1f77b4" fill-opacity="0.75" />
<circle cx="135.92" cy="137.66" r="3.2" fill="#1f77b4" fill-opacity="0.75" />
<circle cx="151.22" cy="147.33" r="3.2" fill="#1f77b4" fill-opacity="0.75" />
<circle cx="166.53" cy="157.49" r="3.2" fill="#1f77b4" fill-opacity="0.75" />
<circle cx="181.84" cy="164.73" r="3.2" fill="#1f77b4" fill-opacity="0.75" />
<circle cx="197.14" cy="171.63" r="3.2" fill="#1f77b4" fill-opacity="0.75" />
<circle cx="212.45" cy="176.50" r="3.2" fill="#1f77b4" fill-opacity="0.75" />
<circle cx="227.76" cy="183.79" r="3.2" fill="#1f77b4" fill-opacity="0.75" />
<circle cx="243.06" cy="191.77" r="3.2" fill="#1f77b4" fill-opacity="0.75" />
<circle cx="258.37" cy="199.46" r="3.2" fill="#1f77b4" fill-opacity="0.75" />
<circle cx="273.67" cy="202.76" r="3.2" fill="#1f77b4" fill-opacity="0.75" />
<circle cx="288.98" cy="209.27" r="3.2" fill="#1f77b4" fill-opacity="0.75" />
<circle cx="304.29" cy="215.09" r="3.2" fill="#1f77b4" fill-opacity="0.75" />
<circle cx="319.59" cy="225.40" r="3.2" fill="#1f77b4" fill-opacity="0.75" />
<circle cx="334.90" cy="228.01" r="3.2" fill="#1f77b4" fill-opacity="0.75" />
<circle cx="350.20" cy="233.62" r="3.2" fill="#1f77b4" fill-opacity="0.75" />
<circle cx="365.51" cy="236.84" r="3.2" fill="#1f77b4" fill-opacity="0.75" />
<circle cx="380.82" cy="239.92" r="3.2" fill="#1f77b4" fill-opacity="0.75" />
<circle cx="396.12" cy="245.43" r="3.2" fill="#1f77b4" fill-opacity="0.75" />
<circle cx="411.43" cy="248.84" r="3.2" fill="#1f77b4" fill-opacity="0.75" />
<circle cx="426.73" cy="256.14" r="3.2" fill="#1f77b4" fill-opacity="0.75" />
<circle cx="442.04" cy="262.95" r="3.2" fill="#1f77b4" fill-opacity="0.75" />
<circle cx="457.35" cy="264.60" r="3.2" fill="#1f77b4" fill-opacity="0.75" />
<circle cx="472.65" cy="263.24" r="3.2" fill="#1f77b4" fill-opacity="0.75" />
<circle cx="487.96" cy="261.57" r="3.2" fill="#1f77b4" fill-opacity="0.75" />
<circle cx="503.27" cy="259.27" r="3.2" fill="#1f77b4" fill-opacity="0.75" />
<circle cx="518.57" cy="257.39" r="3.2" fill="#1f77b4" fill-opacity="0.75" />
<circle cx="533.88" cy="253.10" r="3.2" fill="#1f77b4" fill-opacity="0.75" />
<circle cx="549.18" cy="255.38" r="3.2" fill="#1f77b4" fill-opacity="0.75" />
<circle cx="564.49" cy="258.24" r="3.2" fill="#1f77b4" fill-opacity="0.75" />
<circle cx="579.80" cy="260.85" r="3.2" fill="#1f77b4" fill-opacity="0.75" />
<circle cx="595.10" cy="266.31" r="3.2" fill="#1f77b4" fill-opacity="0.75" />
<circle cx="610.41" cy="270.65" r="3.2" fill="#1f77b4" fill-opacity="0.75" />
<circle cx="625.71" cy="272.96" r="3.2" fill="#1f77b4" fill-opacity="0.75" />
<circle cx="641.02" cy="276.20" r="3.2" fill="#1f77b4" fill-opacity="0.75" />
<circle cx="656.33" cy="277.57" r="3.2" fill="#1f77b4" fill-opacity="0.75" />
<circle cx="671.63" cy="279.26" r="3.2" fill="#1f77b4" fill-opacity="0.75" />
<circle cx="686.94" cy="280.07" r="3.2" fill="#1f77b4" fill-opacity="0.75" />
<circle cx="702.24" cy="276.56" r="3.2" fill="#1f77b4" fill-opacity="0.75" />
<circle cx="717.55" cy="274.08" r="3.2" fill="#1f77b4" fill-opacity="0.75" />
<circle cx="732.86" cy="275.60" r="3.2" fill="#1f77b4" fill-opacity="0.75" />
<circle cx="748.16" cy="280.03" r="3.2" fill="#1f77b4" fill-opacity="0.75" />
<circle cx="763.47" cy="284.38" r="3.2" fill="#1f77b4" fill-opacity="0.75" />
<circle cx="778.78" cy="284.41" r="3.2" fill="#1f77b4" fill-opacity="0.75" />
<circle cx="794.08" cy="285.20" r="3.2" fill="#1f77b4" fill-opacity="0.75" />
<circle cx="809.39" cy="289.32" r="3.2" fill="#1f77b4" fill-opacity="0.75" />
<circle cx="824.69" cy="290.60" r="3.2" fill="#1f77b4" fill-opacity="0.75" />
<circle cx="840.00" cy="293.05" r="3.2" fill="#1f77b4" fill-opacity="0.75" />
<line x1="864" y1="112" x2="882" y2="112" stroke="#1f77b4" stroke-width="2.4" />
<circle cx="873" cy="112" r="3.2" fill="#1f77b4" />
<text x="892" y="116" font-size="13" font-family="Arial, sans-serif">Two-Opt Arrival Screened</text>
<polyline points="90.00,225.37 105.31,213.30 120.61,225.52 135.92,230.38 151.22,231.97 166.53,236.53 181.84,243.78 197.14,250.03 212.45,256.08 227.76,256.72 243.06,256.77 258.37,258.68 273.67,261.48 288.98,262.38 304.29,265.44 319.59,269.65 334.90,275.61 350.20,283.97 365.51,288.50 380.82,291.51 396.12,295.03 411.43,294.47 426.73,290.07 442.04,288.58 457.35,285.19 472.65,282.21 487.96,287.21 503.27,290.15 518.57,293.79 533.88,295.58 549.18,295.03 564.49,293.70 579.80,295.98 595.10,299.35 610.41,300.01 625.71,303.67 641.02,303.86 656.33,307.26 671.63,310.36 686.94,312.04 702.24,313.86 717.55,314.39 732.86,311.19 748.16,312.66 763.47,308.01 778.78,309.79 794.08,312.54 809.39,314.89 824.69,317.57 840.00,320.72" fill="none" stroke="#d62728" stroke-width="2.4" />
<circle cx="90.00" cy="225.37" r="3.2" fill="#d62728" fill-opacity="0.75" />
<circle cx="105.31" cy="213.30" r="3.2" fill="#d62728" fill-opacity="0.75" />
<circle cx="120.61" cy="225.52" r="3.2" fill="#d62728" fill-opacity="0.75" />
<circle cx="135.92" cy="230.38" r="3.2" fill="#d62728" fill-opacity="0.75" />
<circle cx="151.22" cy="231.97" r="3.2" fill="#d62728" fill-opacity="0.75" />
<circle cx="166.53" cy="236.53" r="3.2" fill="#d62728" fill-opacity="0.75" />
<circle cx="181.84" cy="243.78" r="3.2" fill="#d62728" fill-opacity="0.75" />
<circle cx="197.14" cy="250.03" r="3.2" fill="#d62728" fill-opacity="0.75" />
<circle cx="212.45" cy="256.08" r="3.2" fill="#d62728" fill-opacity="0.75" />
<circle cx="227.76" cy="256.72" r="3.2" fill="#d62728" fill-opacity="0.75" />
<circle cx="243.06" cy="256.77" r="3.2" fill="#d62728" fill-opacity="0.75" />
<circle cx="258.37" cy="258.68" r="3.2" fill="#d62728" fill-opacity="0.75" />
<circle cx="273.67" cy="261.48" r="3.2" fill="#d62728" fill-opacity="0.75" />
<circle cx="288.98" cy="262.38" r="3.2" fill="#d62728" fill-opacity="0.75" />
<circle cx="304.29" cy="265.44" r="3.2" fill="#d62728" fill-opacity="0.75" />
<circle cx="319.59" cy="269.65" r="3.2" fill="#d62728" fill-opacity="0.75" />
<circle cx="334.90" cy="275.61" r="3.2" fill="#d62728" fill-opacity="0.75" />
<circle cx="350.20" cy="283.97" r="3.2" fill="#d62728" fill-opacity="0.75" />
<circle cx="365.51" cy="288.50" r="3.2" fill="#d62728" fill-opacity="0.75" />
<circle cx="380.82" cy="291.51" r="3.2" fill="#d62728" fill-opacity="0.75" />
<circle cx="396.12" cy="295.03" r="3.2" fill="#d62728" fill-opacity="0.75" />
<circle cx="411.43" cy="294.47" r="3.2" fill="#d62728" fill-opacity="0.75" />
<circle cx="426.73" cy="290.07" r="3.2" fill="#d62728" fill-opacity="0.75" />
<circle cx="442.04" cy="288.58" r="3.2" fill="#d62728" fill-opacity="0.75" />
<circle cx="457.35" cy="285.19" r="3.2" fill="#d62728" fill-opacity="0.75" />
<circle cx="472.65" cy="282.21" r="3.2" fill="#d62728" fill-opacity="0.75" />
<circle cx="487.96" cy="287.21" r="3.2" fill="#d62728" fill-opacity="0.75" />
<circle cx="503.27" cy="290.15" r="3.2" fill="#d62728" fill-opacity="0.75" />
<circle cx="518.57" cy="293.79" r="3.2" fill="#d62728" fill-opacity="0.75" />
<circle cx="533.88" cy="295.58" r="3.2" fill="#d62728" fill-opacity="0.75" />
<circle cx="549.18" cy="295.03" r="3.2" fill="#d62728" fill-opacity="0.75" />
<circle cx="564.49" cy="293.70" r="3.2" fill="#d62728" fill-opacity="0.75" />
<circle cx="579.80" cy="295.98" r="3.2" fill="#d62728" fill-opacity="0.75" />
<circle cx="595.10" cy="299.35" r="3.2" fill="#d62728" fill-opacity="0.75" />
<circle cx="610.41" cy="300.01" r="3.2" fill="#d62728" fill-opacity="0.75" />
<circle cx="625.71" cy="303.67" r="3.2" fill="#d62728" fill-opacity="0.75" />
<circle cx="641.02" cy="303.86" r="3.2" fill="#d62728" fill-opacity="0.75" />
<circle cx="656.33" cy="307.26" r="3.2" fill="#d62728" fill-opacity="0.75" />
<circle cx="671.63" cy="310.36" r="3.2" fill="#d62728" fill-opacity="0.75" />
<circle cx="686.94" cy="312.04" r="3.2" fill="#d62728" fill-opacity="0.75" />
<circle cx="702.24" cy="313.86" r="3.2" fill="#d62728" fill-opacity="0.75" />
<circle cx="717.55" cy="314.39" r="3.2" fill="#d62728" fill-opacity="0.75" />
<circle cx="732.86" cy="311.19" r="3.2" fill="#d62728" fill-opacity="0.75" />
<circle cx="748.16" cy="312.66" r="3.2" fill="#d62728" fill-opacity="0.75" />
<circle cx="763.47" cy="308.01" r="3.2" fill="#d62728" fill-opacity="0.75" />
<circle cx="778.78" cy="309.79" r="3.2" fill="#d62728" fill-opacity="0.75" />
<circle cx="794.08" cy="312.54" r="3.2" fill="#d62728" fill-opacity="0.75" />
<circle cx="809.39" cy="314.89" r="3.2" fill="#d62728" fill-opacity="0.75" />
<circle cx="824.69" cy="317.57" r="3.2" fill="#d62728" fill-opacity="0.75" />
<circle cx="840.00" cy="320.72" r="3.2" fill="#d62728" fill-opacity="0.75" />
<line x1="864" y1="136" x2="882" y2="136" stroke="#d62728" stroke-width="2.4" />
<circle cx="873" cy="136" r="3.2" fill="#d62728" />
<text x="892" y="140" font-size="13" font-family="Arial, sans-serif">Truck replacement greedy</text>
<polyline points="90.00,464.98 105.31,450.06 120.61,448.45 135.92,447.76 151.22,446.30 166.53,444.69 181.84,443.39 197.14,442.23 212.45,442.32 227.76,441.80 243.06,441.13 258.37,441.06 273.67,441.30 288.98,440.97 304.29,440.38 319.59,437.75 334.90,437.02 350.20,437.32 365.51,437.41 380.82,436.07 396.12,429.80 411.43,425.28 426.73,422.71 442.04,420.74 457.35,417.47 472.65,418.52 487.96,419.53 503.27,420.30 518.57,420.84 533.88,422.56 549.18,418.05 564.49,418.14 579.80,417.48 595.10,413.25 610.41,414.63 625.71,414.43 641.02,415.52 656.33,415.59 671.63,415.62 686.94,415.30 702.24,416.77 717.55,417.65 732.86,416.50 748.16,417.91 763.47,419.01 778.78,419.46 794.08,419.26 809.39,412.08 824.69,412.32 840.00,413.18" fill="none" stroke="#2ca02c" stroke-width="2.4" />
<circle cx="90.00" cy="464.98" r="3.2" fill="#2ca02c" fill-opacity="0.75" />
<circle cx="105.31" cy="450.06" r="3.2" fill="#2ca02c" fill-opacity="0.75" />
<circle cx="120.61" cy="448.45" r="3.2" fill="#2ca02c" fill-opacity="0.75" />
<circle cx="135.92" cy="447.76" r="3.2" fill="#2ca02c" fill-opacity="0.75" />
<circle cx="151.22" cy="446.30" r="3.2" fill="#2ca02c" fill-opacity="0.75" />
<circle cx="166.53" cy="444.69" r="3.2" fill="#2ca02c" fill-opacity="0.75" />
<circle cx="181.84" cy="443.39" r="3.2" fill="#2ca02c" fill-opacity="0.75" />
<circle cx="197.14" cy="442.23" r="3.2" fill="#2ca02c" fill-opacity="0.75" />
<circle cx="212.45" cy="442.32" r="3.2" fill="#2ca02c" fill-opacity="0.75" />
<circle cx="227.76" cy="441.80" r="3.2" fill="#2ca02c" fill-opacity="0.75" />
<circle cx="243.06" cy="441.13" r="3.2" fill="#2ca02c" fill-opacity="0.75" />
<circle cx="258.37" cy="441.06" r="3.2" fill="#2ca02c" fill-opacity="0.75" />
<circle cx="273.67" cy="441.30" r="3.2" fill="#2ca02c" fill-opacity="0.75" />
<circle cx="288.98" cy="440.97" r="3.2" fill="#2ca02c" fill-opacity="0.75" />
<circle cx="304.29" cy="440.38" r="3.2" fill="#2ca02c" fill-opacity="0.75" />
<circle cx="319.59" cy="437.75" r="3.2" fill="#2ca02c" fill-opacity="0.75" />
<circle cx="334.90" cy="437.02" r="3.2" fill="#2ca02c" fill-opacity="0.75" />
<circle cx="350.20" cy="437.32" r="3.2" fill="#2ca02c" fill-opacity="0.75" />
<circle cx="365.51" cy="437.41" r="3.2" fill="#2ca02c" fill-opacity="0.75" />
<circle cx="380.82" cy="436.07" r="3.2" fill="#2ca02c" fill-opacity="0.75" />
<circle cx="396.12" cy="429.80" r="3.2" fill="#2ca02c" fill-opacity="0.75" />
<circle cx="411.43" cy="425.28" r="3.2" fill="#2ca02c" fill-opacity="0.75" />
<circle cx="426.73" cy="422.71" r="3.2" fill="#2ca02c" fill-opacity="0.75" />
<circle cx="442.04" cy="420.74" r="3.2" fill="#2ca02c" fill-opacity="0.75" />
<circle cx="457.35" cy="417.47" r="3.2" fill="#2ca02c" fill-opacity="0.75" />
<circle cx="472.65" cy="418.52" r="3.2" fill="#2ca02c" fill-opacity="0.75" />
<circle cx="487.96" cy="419.53" r="3.2" fill="#2ca02c" fill-opacity="0.75" />
<circle cx="503.27" cy="420.30" r="3.2" fill="#2ca02c" fill-opacity="0.75" />
<circle cx="518.57" cy="420.84" r="3.2" fill="#2ca02c" fill-opacity="0.75" />
<circle cx="533.88" cy="422.56" r="3.2" fill="#2ca02c" fill-opacity="0.75" />
<circle cx="549.18" cy="418.05" r="3.2" fill="#2ca02c" fill-opacity="0.75" />
<circle cx="564.49" cy="418.14" r="3.2" fill="#2ca02c" fill-opacity="0.75" />
<circle cx="579.80" cy="417.48" r="3.2" fill="#2ca02c" fill-opacity="0.75" />
<circle cx="595.10" cy="413.25" r="3.2" fill="#2ca02c" fill-opacity="0.75" />
<circle cx="610.41" cy="414.63" r="3.2" fill="#2ca02c" fill-opacity="0.75" />
<circle cx="625.71" cy="414.43" r="3.2" fill="#2ca02c" fill-opacity="0.75" />
<circle cx="641.02" cy="415.52" r="3.2" fill="#2ca02c" fill-opacity="0.75" />
<circle cx="656.33" cy="415.59" r="3.2" fill="#2ca02c" fill-opacity="0.75" />
<circle cx="671.63" cy="415.62" r="3.2" fill="#2ca02c" fill-opacity="0.75" />
<circle cx="686.94" cy="415.30" r="3.2" fill="#2ca02c" fill-opacity="0.75" />
<circle cx="702.24" cy="416.77" r="3.2" fill="#2ca02c" fill-opacity="0.75" />
<circle cx="717.55" cy="417.65" r="3.2" fill="#2ca02c" fill-opacity="0.75" />
<circle cx="732.86" cy="416.50" r="3.2" fill="#2ca02c" fill-opacity="0.75" />
<circle cx="748.16" cy="417.91" r="3.2" fill="#2ca02c" fill-opacity="0.75" />
<circle cx="763.47" cy="419.01" r="3.2" fill="#2ca02c" fill-opacity="0.75" />
<circle cx="778.78" cy="419.46" r="3.2" fill="#2ca02c" fill-opacity="0.75" />
<circle cx="794.08" cy="419.26" r="3.2" fill="#2ca02c" fill-opacity="0.75" />
<circle cx="809.39" cy="412.08" r="3.2" fill="#2ca02c" fill-opacity="0.75" />
<circle cx="824.69" cy="412.32" r="3.2" fill="#2ca02c" fill-opacity="0.75" />
<circle cx="840.00" cy="413.18" r="3.2" fill="#2ca02c" fill-opacity="0.75" />
<line x1="864" y1="160" x2="882" y2="160" stroke="#2ca02c" stroke-width="2.4" />
<circle cx="873" cy="160" r="3.2" fill="#2ca02c" />
<text x="892" y="164" font-size="13" font-family="Arial, sans-serif">Targeted drone-to-truck</text>
<polyline points="90.00,507.59 105.31,504.05 120.61,502.19 135.92,500.58 151.22,498.71 166.53,497.35 181.84,494.29 197.14,492.08 212.45,490.15 227.76,488.37 243.06,487.19 258.37,485.11 273.67,484.57 288.98,481.68 304.29,479.17 319.59,472.01 334.90,471.17 350.20,462.08 365.51,458.78 380.82,456.70 396.12,453.18 411.43,452.93 426.73,448.47 442.04,445.23 457.35,445.85 472.65,446.09 487.96,446.18 503.27,445.34 518.57,444.81 533.88,444.02 549.18,443.23 564.49,442.36 579.80,441.72 595.10,435.37 610.41,428.38 625.71,423.13 641.02,418.26 656.33,415.70 671.63,413.19 686.94,413.93 702.24,414.27 717.55,415.05 732.86,413.39 748.16,405.23 763.47,404.20 778.78,403.93 794.08,404.99 809.39,405.15 824.69,404.94 840.00,404.46" fill="none" stroke="#ff7f0e" stroke-width="2.4" />
<circle cx="90.00" cy="507.59" r="3.2" fill="#ff7f0e" fill-opacity="0.75" />
<circle cx="105.31" cy="504.05" r="3.2" fill="#ff7f0e" fill-opacity="0.75" />
<circle cx="120.61" cy="502.19" r="3.2" fill="#ff7f0e" fill-opacity="0.75" />
<circle cx="135.92" cy="500.58" r="3.2" fill="#ff7f0e" fill-opacity="0.75" />
<circle cx="151.22" cy="498.71" r="3.2" fill="#ff7f0e" fill-opacity="0.75" />
<circle cx="166.53" cy="497.35" r="3.2" fill="#ff7f0e" fill-opacity="0.75" />
<circle cx="181.84" cy="494.29" r="3.2" fill="#ff7f0e" fill-opacity="0.75" />
<circle cx="197.14" cy="492.08" r="3.2" fill="#ff7f0e" fill-opacity="0.75" />
<circle cx="212.45" cy="490.15" r="3.2" fill="#ff7f0e" fill-opacity="0.75" />
<circle cx="227.76" cy="488.37" r="3.2" fill="#ff7f0e" fill-opacity="0.75" />
<circle cx="243.06" cy="487.19" r="3.2" fill="#ff7f0e" fill-opacity="0.75" />
<circle cx="258.37" cy="485.11" r="3.2" fill="#ff7f0e" fill-opacity="0.75" />
<circle cx="273.67" cy="484.57" r="3.2" fill="#ff7f0e" fill-opacity="0.75" />
<circle cx="288.98" cy="481.68" r="3.2" fill="#ff7f0e" fill-opacity="0.75" />
<circle cx="304.29" cy="479.17" r="3.2" fill="#ff7f0e" fill-opacity="0.75" />
<circle cx="319.59" cy="472.01" r="3.2" fill="#ff7f0e" fill-opacity="0.75" />
<circle cx="334.90" cy="471.17" r="3.2" fill="#ff7f0e" fill-opacity="0.75" />
<circle cx="350.20" cy="462.08" r="3.2" fill="#ff7f0e" fill-opacity="0.75" />
<circle cx="365.51" cy="458.78" r="3.2" fill="#ff7f0e" fill-opacity="0.75" />
<circle cx="380.82" cy="456.70" r="3.2" fill="#ff7f0e" fill-opacity="0.75" />
<circle cx="396.12" cy="453.18" r="3.2" fill="#ff7f0e" fill-opacity="0.75" />
<circle cx="411.43" cy="452.93" r="3.2" fill="#ff7f0e" fill-opacity="0.75" />
<circle cx="426.73" cy="448.47" r="3.2" fill="#ff7f0e" fill-opacity="0.75" />
<circle cx="442.04" cy="445.23" r="3.2" fill="#ff7f0e" fill-opacity="0.75" />
<circle cx="457.35" cy="445.85" r="3.2" fill="#ff7f0e" fill-opacity="0.75" />
<circle cx="472.65" cy="446.09" r="3.2" fill="#ff7f0e" fill-opacity="0.75" />
<circle cx="487.96" cy="446.18" r="3.2" fill="#ff7f0e" fill-opacity="0.75" />
<circle cx="503.27" cy="445.34" r="3.2" fill="#ff7f0e" fill-opacity="0.75" />
<circle cx="518.57" cy="444.81" r="3.2" fill="#ff7f0e" fill-opacity="0.75" />
<circle cx="533.88" cy="444.02" r="3.2" fill="#ff7f0e" fill-opacity="0.75" />
<circle cx="549.18" cy="443.23" r="3.2" fill="#ff7f0e" fill-opacity="0.75" />
<circle cx="564.49" cy="442.36" r="3.2" fill="#ff7f0e" fill-opacity="0.75" />
<circle cx="579.80" cy="441.72" r="3.2" fill="#ff7f0e" fill-opacity="0.75" />
<circle cx="595.10" cy="435.37" r="3.2" fill="#ff7f0e" fill-opacity="0.75" />
<circle cx="610.41" cy="428.38" r="3.2" fill="#ff7f0e" fill-opacity="0.75" />
<circle cx="625.71" cy="423.13" r="3.2" fill="#ff7f0e" fill-opacity="0.75" />
<circle cx="641.02" cy="418.26" r="3.2" fill="#ff7f0e" fill-opacity="0.75" />
<circle cx="656.33" cy="415.70" r="3.2" fill="#ff7f0e" fill-opacity="0.75" />
<circle cx="671.63" cy="413.19" r="3.2" fill="#ff7f0e" fill-opacity="0.75" />
<circle cx="686.94" cy="413.93" r="3.2" fill="#ff7f0e" fill-opacity="0.75" />
<circle cx="702.24" cy="414.27" r="3.2" fill="#ff7f0e" fill-opacity="0.75" />
<circle cx="717.55" cy="415.05" r="3.2" fill="#ff7f0e" fill-opacity="0.75" />
<circle cx="732.86" cy="413.39" r="3.2" fill="#ff7f0e" fill-opacity="0.75" />
<circle cx="748.16" cy="405.23" r="3.2" fill="#ff7f0e" fill-opacity="0.75" />
<circle cx="763.47" cy="404.20" r="3.2" fill="#ff7f0e" fill-opacity="0.75" />
<circle cx="778.78" cy="403.93" r="3.2" fill="#ff7f0e" fill-opacity="0.75" />
<circle cx="794.08" cy="404.99" r="3.2" fill="#ff7f0e" fill-opacity="0.75" />
<circle cx="809.39" cy="405.15" r="3.2" fill="#ff7f0e" fill-opacity="0.75" />
<circle cx="824.69" cy="404.94" r="3.2" fill="#ff7f0e" fill-opacity="0.75" />
<circle cx="840.00" cy="404.46" r="3.2" fill="#ff7f0e" fill-opacity="0.75" />
<line x1="864" y1="184" x2="882" y2="184" stroke="#ff7f0e" stroke-width="2.4" />
<circle cx="873" cy="184" r="3.2" fill="#ff7f0e" />
<text x="892" y="188" font-size="13" font-family="Arial, sans-serif">Drone rendezvous shift first improvement</text>
</svg>
