<svg xmlns="http://www.w3.org/2000/svg" width="1100" height="620" viewBox="0 0 1100 620">
<title>R_100_statistics Operator Weights</title>
<rect x="0" y="0" width="1100" height="620" fill="white" />
<text x="550.0" y="34" text-anchor="middle" font-size="24" font-family="Arial, sans-serif">R_100_statistics Operator Weights</text>
<line x1="90" y1="540.00" x2="840" y2="540.00" stroke="#dddddd" stroke-width="1" />
<text x="80" y="544.00" text-anchor="end" font-size="12" font-family="Arial, sans-serif">-0.01</text>
<line x1="90" y1="446.00" x2="840" y2="446.00" stroke="#dddddd" stroke-width="1" />
<text x="80" y="450.00" text-anchor="end" font-size="12" font-family="Arial, sans-serif">0.19</text>
<line x1="90" y1="352.00" x2="840" y2="352.00" stroke="#dddddd" stroke-width="1" />
<text x="80" y="356.00" text-anchor="end" font-size="12" font-family="Arial, sans-serif">0.39</text>
<line x1="90" y1="258.00" x2="840" y2="258.00" stroke="#dddddd" stroke-width="1" />
<text x="80" y="262.00" text-anchor="end" font-size="12" font-family="Arial, sans-serif">0.59</text>
<line x1="90" y1="164.00" x2="840" y2="164.00" stroke="#dddddd" stroke-width="1" />
<text x="80" y="168.00" text-anchor="end" font-size="12" font-family="Arial, sans-serif">0.78</text>
<line x1="90" y1="70.00" x2="840" y2="70.00" stroke="#dddddd" stroke-width="1" />
<text x="80" y="74.00" text-anchor="end" font-size="12" font-family="Arial, sans-serif">0.98</text>
<line x1="90.00" y1="70" x2="90.00" y2="540" stroke="#f0f0f0" stroke-width="1" />
<text x="90.00" y="564" text-anchor="middle" font-size="12" font-family="Arial, sans-serif">1</text>
<line x1="240.00" y1="70" x2="240.00" y2="540" stroke="#f0f0f0" stroke-width="1" />
<text x="240.00" y="564" text-anchor="middle" font-size="12" font-family="Arial, sans-serif">10.8</text>
<line x1="390.00" y1="70" x2="390.00" y2="540" stroke="#f0f0f0" stroke-width="1" />
<text x="390.00" y="564" text-anchor="middle" font-size="12" font-family="Arial, sans-serif">20.6</text>
<line x1="540.00" y1="70" x2="540.00" y2="540" stroke="#f0f0f0" stroke-width="1" />
<text x="540.00" y="564" text-anchor="middle" font-size="12" font-family="Arial, sans-serif">30.4</text>
<line x1="690.00" y1="70" x2="690.00" y2="540" stroke="#f0f0f0" stroke-width="1" />
<text x="690.00" y="564" text-anchor="middle" font-size="12" font-family="Arial, sans-serif">40.2</text>
<line x1="840.00" y1="70" x2="840.00" y2="540" stroke="#f0f0f0" stroke-width="1" />
<text x="840.00" y="564" text-anchor="middle" font-size="12" font-family="Arial, sans-serif">50</text>
<rect x="90" y="70" width="750" height="470" fill="none" stroke="#333333" stroke-width="1.5" />
<text x="465.0" y="600" text-anchor="middle" font-size="15" font-family="Arial, sans-serif">Segment</text>
<text x="24" y="305.0" text-anchor="middle" font-size="15" font-family="Arial, sans-serif" transform="rotate(-90 24 305.0)">Weight</text>
<polyline points="90.00,316.40 105.31,325.18 120.61,321.61 135.92,315.48 151.22,302.20 166.53,288.59 181.84,279.80 197.14,281.77 212.45,273.66 227.76,267.05 243.06,267.23 258.37,264.18 273.67,258.96 288.98,252.53 304.29,245.34 319.59,237.40 334.90,229.79 350.20,227.05 365.51,216.85 380.82,214.75 396.12,211.01 411.43,207.29 426.73,205.93 442.04,202.41 457.35,198.76 472.65,197.60 487.96,197.24 503.27,194.84 518.57,188.42 533.88,188.40 549.18,188.47 564.49,189.04 579.80,190.57 595.10,190.15 610.41,189.09 625.71,188.20 641.02,188.33 656.33,186.23 671.63,186.78 686.94,179.19 702.24,178.22 717.55,180.17 732.86,179.53 748.16,175.50 763.47,173.87 778.78,172.70 794.08,170.92 809.39,170.29 824.69,172.34 840.00,177.49" fill="none" stroke="#111111" stroke-width="2.4" />
<circle cx="90.00" cy="316.40" r="3.2" fill="#111111" fill-opacity="0.75" />
<circle cx="105.31" cy="325.18" r="3.2" fill="#111111" fill-opacity="0.75" />
<circle cx="120.61" cy="321.61" r="3.2" fill="#111111" fill-opacity="0.75" />
<circle cx="135.92" cy="315.48" r="3.2" fill="#111111" fill-opacity="0.75" />
<circle cx="151.22" cy="302.20" r="3.2" fill="#111111" fill-opacity="0.75" />
<circle cx="166.53" cy="288.59" r="3.2" fill="#111111" fill-opacity="0.75" />
<circle cx="181.84" cy="279.80" r="3.2" fill="#111111" fill-opacity="0.75" />
<circle cx="197.14" cy="281.77" r="3.2" fill="#111111" fill-opacity="0.75" />
<circle cx="212.45" cy="273.66" r="3.2" fill="#111111" fill-opacity="0.75" />
<circle cx="227.76" cy="267.05" r="3.2" fill="#111111" fill-opacity="0.75" />
<circle cx="243.06" cy="267.23" r="3.2" fill="#111111" fill-opacity="0.75" />
<circle cx="258.37" cy="264.18" r="3.2" fill="#111111" fill-opacity="0.75" />
<circle cx="273.67" cy="258.96" r="3.2" fill="#111111" fill-opacity="0.75" />
<circle cx="288.98" cy="252.53" r="3.2" fill="#111111" fill-opacity="0.75" />
<circle cx="304.29" cy="245.34" r="3.2" fill="#111111" fill-opacity="0.75" />
<circle cx="319.59" cy="237.40" r="3.2" fill="#111111" fill-opacity="0.75" />
<circle cx="334.90" cy="229.79" r="3.2" fill="#111111" fill-opacity="0.75" />
<circle cx="350.20" cy="227.05" r="3.2" fill="#111111" fill-opacity="0.75" />
<circle cx="365.51" cy="216.85" r="3.2" fill="#111111" fill-opacity="0.75" />
<circle cx="380.82" cy="214.75" r="3.2" fill="#111111" fill-opacity="0.75" />
<circle cx="396.12" cy="211.01" r="3.2" fill="#111111" fill-opacity="0.75" />
<circle cx="411.43" cy="207.29" r="3.2" fill="#111111" fill-opacity="0.75" />
<circle cx="426.73" cy="205.93" r="3.2" fill="#111111" fill-opacity="0.75" />
<circle cx="442.04" cy="202.41" r="3.2" fill="#111111" fill-opacity="0.75" />
<circle cx="457.35" cy="198.76" r="3.2" fill="#111111" fill-opacity="0.75" />
<circle cx="472.65" cy="197.60" r="3.2" fill="#111111" fill-opacity="0.75" />
<circle cx="487.96" cy="197.24" r="3.2" fill="#111111" fill-opacity="0.75" />
<circle cx="503.27" cy="194.84" r="3.2" fill="#111111" fill-opacity="0.75" />
<circle cx="518.57" cy="188.42" r="3.2" fill="#111111" fill-opacity="0.75" />
<circle cx="533.88" cy="188.40" r="3.2" fill="#111111" fill-opacity="0.75" />
<circle cx="549.18" cy="188.47" r="3.2" fill="#111111" fill-opacity="0.75" />
<circle cx="564.49" cy="189.04" r="3.2" fill="#111111" fill-opacity="0.75" />
<circle cx="579.80" cy="190.57" r="3.2" fill="#111111" fill-opacity="0.75" />
<circle cx="595.10" cy="190.15" r="3.2" fill="#111111" fill-opacity="0.75" />
<circle cx="610.41" cy="189.09" r="3.2" fill="#111111" fill-opacity="0.75" />
<circle cx="625.71" cy="188.20" r="3.2" fill="#111111" fill-opacity="0.75" />
<circle cx="641.02" cy="188.33" r="3.2" fill="#111111" fill-opacity="0.75" />
<circle cx="656.33" cy="186.23" r="3.2" fill="#111111" fill-opacity="0.75" />
<circle cx="671.63" cy="186.78" r="3.2" fill="#111111" fill-opacity="0.75" />
<circle cx="686.94" cy="179.19" r="3.2" fill="#111111" fill-opacity="0.75" />
<circle cx="702.24" cy="178.22" r="3.2" fill="#111111" fill-opacity="0.75" />
<circle cx="717.55" cy="180.17" r="3.2" fill="#111111" fill-opacity="0.75" />
<circle cx="732.86" cy="179.53" r="3.2" fill="#111111" fill-opacity="0.75" />
<circle cx="748.16" cy="175.50" r="3.2" fill="#111111" fill-opacity="0.75" />
<circle cx="763.47" cy="173.87" r="3.2" fill="#111111" fill-opacity="0.75" />
<circle cx="778.78" cy="172.70" r="3.2" fill="#111111" fill-opacity="0.75" />
<circle cx="794.08" cy="170.92" r="3.2" fill="#111111" fill-opacity="0.75" />
<circle cx="809.39" cy="170.29" r="3.2" fill="#111111" fill-opacity="0.75" />
<circle cx="824.69" cy="172.34" r="3.2" fill="#111111" fill-opacity="0.75" />
<circle cx="840.00" cy="177.49" r="3.2" fill="#111111" fill-opacity="0.75" />
<line x1="864" y1="88" x2="882" y2="88" stroke="#111111" stroke-width="2.4" />
<circle cx="873" cy="88" r="3.2" fill="#111111" />
<text x="892" y="92" font-size="13" font-family="Arial, sans-serif">NN-Reassign</text>
<polyline points="90.00,102.41 105.31,147.53 120.61,168.44 135.92,182.97 151.22,198.30 166.53,217.76 181.84,227.94 197.14,237.64 212.45,242.41 227.76,243.41 243.06,244.81 258.37,243.71 273.67,242.77 288.98,241.89 304.29,238.94 319.59,238.91 334.90,238.60 350.20,238.13 365.51,239.77 380.82,242.32 396.12,242.69 411.43,239.43 426.73,238.39 442.04,237.03 457.35,235.50 472.65,235.91 487.96,233.62 503.27,231.39 518.57,233.43 533.88,232.80 549.18,232.45 564.49,231.79 579.80,230.00 595.10,228.59 610.41,226.09 625.71,224.15 641.02,223.15 656.33,225.00 671.63,226.31 686.94,227.55 702.24,224.81 717.55,222.10 732.86,224.64 748.16,229.19 763.47,227.71 778.78,227.31 794.08,226.22 809.39,223.83 824.69,223.73 840.00,226.00" fill="none" stroke="#d62728" stroke-width="2.4" />
<circle cx="90.00" cy="102.41" r="3.2" fill="#d62728" fill-opacity="0.75" />
<circle cx="105.31" cy="147.53" r="3.2" fill="#d62728" fill-opacity="0.75" />
<circle cx="120.61" cy="168.44" r="3.2" fill="#d62728" fill-opacity="0.75" />
<circle cx="135.92" cy="182.97" r="3.2" fill="#d62728" fill-opacity="0.75" />
<circle cx="151.22" cy="198.30" r="3.2" fill="#d62728" fill-opacity="0.75" />
<circle cx="166.53" cy="217.76" r="3.2" fill="#d62728" fill-opacity="0.75" />
<circle cx="181.84" cy="227.94" r="3.2" fill="#d62728" fill-opacity="0.75" />
<circle cx="197.14" cy="237.64" r="3.2" fill="#d62728" fill-opacity="0.75" />
<circle cx="212.45" cy="242.41" r="3.2" fill="#d62728" fill-opacity="0.75" />
<circle cx="227.76" cy="243.41" r="3.2" fill="#d62728" fill-opacity="0.75" />
<circle cx="243.06" cy="244.81" r="3.2" fill="#d62728" fill-opacity="0.75" />
<circle cx="258.37" cy="243.71" r="3.2" fill="#d62728" fill-opacity="0.75" />
<circle cx="273.67" cy="242.77" r="3.2" fill="#d62728" fill-opacity="0.75" />
<circle cx="288.98" cy="241.89" r="3.2" fill="#d62728" fill-opacity="0.75" />
<circle cx="304.29" cy="238.94" r="3.2" fill="#d62728" fill-opacity="0.75" />
<circle cx="319.59" cy="238.91" r="3.2" fill="#d62728" fill-opacity="0.75" />
<circle cx="334.90" cy="238.60" r="3.2" fill="#d62728" fill-opacity="0.75" />
<circle cx="350.20" cy="238.13" r="3.2" fill="#d62728" fill-opacity="0.75" />
<circle cx="365.51" cy="239.77" r="3.2" fill="#d62728" fill-opacity="0.75" />
<circle cx="380.82" cy="242.32" r="3.2" fill="#d62728" fill-opacity="0.75" />
<circle cx="396.12" cy="242.69" r="3.2" fill="#d62728" fill-opacity="0.75" />
<circle cx="411.43" cy="239.43" r="3.2" fill="#d62728" fill-opacity="0.75" />
<circle cx="426.73" cy="238.39" r="3.2" fill="#d62728" fill-opacity="0.75" />
<circle cx="442.04" cy="237.03" r="3.2" fill="#d62728" fill-opacity="0.75" />
<circle cx="457.35" cy="235.50" r="3.2" fill="#d62728" fill-opacity="0.75" />
<circle cx="472.65" cy="235.91" r="3.2" fill="#d62728" fill-opacity="0.75" />
<circle cx="487.96" cy="233.62" r="3.2" fill="#d62728" fill-opacity="0.75" />
<circle cx="503.27" cy="231.39" r="3.2" fill="#d62728" fill-opacity="0.75" />
<circle cx="518.57" cy="233.43" r="3.2" fill="#d62728" fill-opacity="0.75" />
<circle cx="533.88" cy="232.80" r="3.2" fill="#d62728" fill-opacity="0.75" />
<circle cx="549.18" cy="232.45" r="3.2" fill="#d62728" fill-opacity="0.75" />
<circle cx="564.49" cy="231.79" r="3.2" fill="#d62728" fill-opacity="0.75" />
<circle cx="579.80" cy="230.00" r="3.2" fill="#d62728" fill-opacity="0.75" />
<circle cx="595.10" cy="228.59" r="3.2" fill="#d62728" fill-opacity="0.75" />
<circle cx="610.41" cy="226.09" r="3.2" fill="#d62728" fill-opacity="0.75" />
<circle cx="625.71" cy="224.15" r="3.2" fill="#d62728" fill-opacity="0.75" />
<circle cx="641.02" cy="223.15" r="3.2" fill="#d62728" fill-opacity="0.75" />
<circle cx="656.33" cy="225.00" r="3.2" fill="#d62728" fill-opacity="0.75" />
<circle cx="671.63" cy="226.31" r="3.2" fill="#d62728" fill-opacity="0.75" />
<circle cx="686.94" cy="227.55" r="3.2" fill="#d62728" fill-opacity="0.75" />
<circle cx="702.24" cy="224.81" r="3.2" fill="#d62728" fill-opacity="0.75" />
<circle cx="717.55" cy="222.10" r="3.2" fill="#d62728" fill-opacity="0.75" />
<circle cx="732.86" cy="224.64" r="3.2" fill="#d62728" fill-opacity="0.75" />
<circle cx="748.16" cy="229.19" r="3.2" fill="#d62728" fill-opacity="0.75" />
<circle cx="763.47" cy="227.71" r="3.2" fill="#d62728" fill-opacity="0.75" />
<circle cx="778.78" cy="227.31" r="3.2" fill="#d62728" fill-opacity="0.75" />
<circle cx="794.08" cy="226.22" r="3.2" fill="#d62728" fill-opacity="0.75" />
<circle cx="809.39" cy="223.83" r="3.2" fill="#d62728" fill-opacity="0.75" />
<circle cx="824.69" cy="223.73" r="3.2" fill="#d62728" fill-opacity="0.75" />
<circle cx="840.00" cy="226.00" r="3.2" fill="#d62728" fill-opacity="0.75" />
<line x1="864" y1="112" x2="882" y2="112" stroke="#d62728" stroke-width="2.4" />
<circle cx="873" cy="112" r="3.2" fill="#d62728" />
<text x="892" y="116" font-size="13" font-family="Arial, sans-serif">Two-Opt Arrival Screened</text>
<polyline points="90.00,185.75 105.31,146.17 120.61,157.18 135.92,161.90 151.22,162.12 166.53,169.47 181.84,171.68 197.14,173.87 212.45,181.36 227.76,188.73 243.06,197.39 258.37,202.08 273.67,207.36 288.98,213.43 304.29,223.60 319.59,231.65 334.90,243.79 350.20,254.76 365.51,265.47 380.82,277.37 396.12,286.42 411.43,294.56 426.73,299.82 442.04,305.44 457.35,310.42 472.65,312.31 487.96,316.16 503.27,319.48 518.57,321.29 533.88,320.54 549.18,319.45 564.49,319.06 579.80,317.95 595.10,320.23 610.41,323.38 625.71,325.90 641.02,325.63 656.33,324.96 671.63,323.16 686.94,327.59 702.24,329.73 717.55,331.95 732.86,332.71 748.16,333.43 763.47,335.74 778.78,338.04 794.08,340.43 809.39,340.96 824.69,338.19 840.00,331.15" fill="none" stroke="#1f77b4" stroke-width="2.4" />
<circle cx="90.00" cy="185.75" r="3.2" fill="#1f77b4" fill-opacity="0.75" />
<circle cx="105.31" cy="146.17" r="3.2" fill="#1f77b4" fill-opacity="0.75" />
<circle cx="120.61" cy="157.18" r="3.2" fill="#1f77b4" fill-opacity="0.75" />
<circle cx="135.92" cy="161.90" r="3.2" fill="#1f77b4" fill-opacity="0.75" />
<circle cx="151.22" cy="162.12" r="3.2" fill="#1f77b4" fill-opacity="0.75" />
<circle cx="166.53" cy="169.47" r="3.2" fill="#1f77b4" fill-opacity="0.75" />
<circle cx="181.84" cy="171.68" r="3.2" fill="#1f77b4" fill-opacity="0.75" />
<circle cx="197.14" cy="173.87" r="3.2" fill="#1f77b4" fill-opacity="0.75" />
<circle cx="212.45" cy="181.36" r="3.2" fill="#1f77b4" fill-opacity="0.75" />
<circle cx="227.76" cy="188.73" r="3.2" fill="#1f77b4" fill-opacity="0.75" />
<circle cx="243.06" cy="197.39" r="3.2" fill="#1f77b4" fill-opacity="0.75" />
<circle cx="258.37" cy="202.08" r="3.2" fill="#1f77b4" fill-opacity="0.75" />
<circle cx="273.67" cy="207.36" r="3.2" fill="#1f77b4" fill-opacity="0.75" />
<circle cx="288.98" cy="213.43" r="3.2" fill="#1f77b4" fill-opacity="0.75" />
<circle cx="304.29" cy="223.60" r="3.2" fill="#1f77b4" fill-opacity="0.75" />
<circle cx="319.59" cy="231.65" r="3.2" fill="#1f77b4" fill-opacity="0.75" />
<circle cx="334.90" cy="243.79" r="3.2" fill="#1f77b4" fill-opacity="0.75" />
<circle cx="350.20" cy="254.76" r="3.2" fill="#1f77b4" fill-opacity="0.75" />
<circle cx="365.51" cy="265.47" r="3.2" fill="#1f77b4" fill-opacity="0.75" />
<circle cx="380.82" cy="277.37" r="3.2" fill="#1f77b4" fill-opacity="0.75" />
<circle cx="396.12" cy="286.42" r="3.2" fill="#1f77b4" fill-opacity="0.75" />
<circle cx="411.43" cy="294.56" r="3.2" fill="#1f77b4" fill-opacity="0.75" />
<circle cx="426.73" cy="299.82" r="3.2" fill="#1f77b4" fill-opacity="0.75" />
<circle cx="442.04" cy="305.44" r="3.2" fill="#1f77b4" fill-opacity="0.75" />
<circle cx="457.35" cy="310.42" r="3.2" fill="#1f77b4" fill-opacity="0.75" />
<circle cx="472.65" cy="312.31" r="3.2" fill="#1f77b4" fill-opacity="0.75" />
<circle cx="487.96" cy="316.16" r="3.2" fill="#1f77b4" fill-opacity="0.75" />
<circle cx="503.27" cy="319.48" r="3.2" fill="#1f77b4" fill-opacity="0.75" />
<circle cx="518.57" cy="321.29" r="3.2" fill="#1f77b4" fill-opacity="0.75" />
<circle cx="533.88" cy="320.54" r="3.2" fill="#1f77b4" fill-opacity="0.75" />
<circle cx="549.18" cy="319.45" r="3.2" fill="#1f77b4" fill-opacity="0.75" />
<circle cx="564.49" cy="319.06" r="3.2" fill="#1f77b4" fill-opacity="0.75" />
<circle cx="579.80" cy="317.95" r="3.2" fill="#1f77b4" fill-opacity="0.75" />
<circle cx="595.10" cy="320.23" r="3.2" fill="#1f77b4" fill-opacity="0.75" />
<circle cx="610.41" cy="323.38" r="3.2" fill="#1f77b4" fill-opacity="0.75" />
<circle cx="625.71" cy="325.90" r="3.2" fill="#1f77b4" fill-opacity="0.75" />
<circle cx="641.02" cy="325.63" r="3.2" fill="#1f77b4" fill-opacity="0.75" />
<circle cx="656.33" cy="324.96" r="3.2" fill="#1f77b4" fill-opacity="0.75" />
<circle cx="671.63" cy="323.16" r="3.2" fill="#1f77b4" fill-opacity="0.75" />
<circle cx="686.94" cy="327.59" r="3.2" fill="#1f77b4" fill-opacity="0.75" />
<circle cx="702.24" cy="329.73" r="3.2" fill="#1f77b4" fill-opacity="0.75" />
<circle cx="717.55" cy="331.95" r="3.2" fill="#1f77b4" fill-opacity="0.75" />
<circle cx="732.86" cy="332.71" r="3.2" fill="#1f77b4" fill-opacity="0.75" />
<circle cx="748.16" cy="333.43" r="3.2" fill="#1f77b4" fill-opacity="0.75" />
<circle cx="763.47" cy="335.74" r="3.2" fill="#1f77b4" fill-opacity="0.75" />
<circle cx="778.78" cy="338.04" r="3.2" fill="#1f77b4" fill-opacity="0.75" />
<circle cx="794.08" cy="340.43" r="3.2" fill="#1f77b4" fill-opacity="0.75" />
<circle cx="809.39" cy="340.96" r="3.2" fill="#1f77b4" fill-opacity="0.75" />
<circle cx="824.69" cy="338.19" r="3.2" fill="#1f77b4" fill-opacity="0.75" />
<circle cx="840.00" cy="331.15" r="3.2" fill="#1f77b4" fill-opacity="0.75" />
<line x1="864" y1="136" x2="882" y2="136" stroke="#1f77b4" stroke-width="2.4" />
<circle cx="873" cy="136" r="3.2" fill="#1f77b4" />
<text x="892" y="140" font-size="13" font-family="Arial, sans-serif">Truck replacement greedy</text>
<polyline points="90.00,460.11 105.31,447.41 120.61,422.54 135.92,411.36 151.22,409.91 166.53,401.82 181.84,400.58 197.14,390.18 212.45,395.17 227.76,398.13 243.06,390.73 258.37,394.26 273.67,397.25 288.98,400.88 304.29,403.33 319.59,404.49 334.90,406.94 350.20,409.19 365.51,411.91 380.82,415.16 396.12,417.36 411.43,419.36 426.73,420.38 442.04,421.51 457.35,422.49 472.65,424.12 487.96,424.68 503.27,425.18 518.57,427.44 533.88,428.87 549.18,429.81 564.49,430.59 579.80,431.51 595.10,432.20 610.41,432.41 625.71,432.52 641.02,432.90 656.33,434.18 671.63,434.82 686.94,435.73 702.24,435.45 717.55,433.65 732.86,433.55 748.16,432.83 763.47,432.99 778.78,432.39 794.08,432.80 809.39,432.75 824.69,433.41 840.00,433.38" fill="none" stroke="#2ca02c" stroke-width="2.4" />
<circle cx="90.00" cy="460.11" r="3.2" fill="#2ca02c" fill-opacity="0.75" />
<circle cx="105.31" cy="447.41" r="3.2" fill="#2ca02c" fill-opacity="0.75" />
<circle cx="120.61" cy="422.54" r="3.2" fill="#2ca02c" fill-opacity="0.75" />
<circle cx="135.92" cy="411.36" r="3.2" fill="#2ca02c" fill-opacity="0.75" />
<circle cx="151.22" cy="409.91" r="3.2" fill="#2ca02c" fill-opacity="0.75" />
<circle cx="166.53" cy="401.82" r="3.2" fill="#2ca02c" fill-opacity="0.75" />
<circle cx="181.84" cy="400.58" r="3.2" fill="#2ca02c" fill-opacity="0.75" />
<circle cx="197.14" cy="390.18" r="3.2" fill="#2ca02c" fill-opacity="0.75" />
<circle cx="212.45" cy="395.17" r="3.2" fill="#2ca02c" fill-opacity="0.75" />
<circle cx="227.76" cy="398.13" r="3.2" fill="#2ca02c" fill-opacity="0.75" />
<circle cx="243.06" cy="390.73" r="3.2" fill="#2ca02c" fill-opacity="0.75" />
<circle cx="258.37" cy="394.26" r="3.2" fill="#2ca02c" fill-opacity="0.75" />
<circle cx="273.67" cy="397.25" r="3.2" fill="#2ca02c" fill-opacity="0.75" />
<circle cx="288.98" cy="400.88" r="3.2" fill="#2ca02c" fill-opacity="0.75" />
<circle cx="304.29" cy="403.33" r="3.2" fill="#2ca02c" fill-opacity="0.75" />
<circle cx="319.59" cy="404.49" r="3.2" fill="#2ca02c" fill-opacity="0.75" />
<circle cx="334.90" cy="406.94" r="3.2" fill="#2ca02c" fill-opacity="0.75" />
<circle cx="350.20" cy="409.19" r="3.2" fill="#2ca02c" fill-opacity="0.75" />
<circle cx="365.51" cy="411.91" r="3.2" fill="#2ca02c" fill-opacity="0.75" />
<circle cx="380.82" cy="415.16" r="3.2" fill="#2ca02c" fill-opacity="0.75" />
<circle cx="396.12" cy="417.36" r="3.2" fill="#2ca02c" fill-opacity="0.75" />
<circle cx="411.43" cy="419.36" r="3.2" fill="#2ca02c" fill-opacity="0.75" />
<circle cx="426.73" cy="420.38" r="3.2" fill="#2ca02c" fill-opacity="0.75" />
<circle cx="442.04" cy="421.51" r="3.2" fill="#2ca02c" fill-opacity="0.75" />
<circle cx="457.35" cy="422.49" r="3.2" fill="#2ca02c" fill-opacity="0.75" />
<circle cx="472.65" cy="424.12" r="3.2" fill="#2ca02c" fill-opacity="0.75" />
<circle cx="487.96" cy="424.68" r="3.2" fill="#2ca02c" fill-opacity="0.75" />
<circle cx="503.27" cy="425.18" r="3.2" fill="#2ca02c" fill-opacity="0.75" />
<circle cx="518.57" cy="427.44" r="3.2" fill="#2ca02c" fill-opacity="0.75" />
<circle cx="533.88" cy="428.87" r="3.2" fill="#2ca02c" fill-opacity="0.75" />
<circle cx="549.18" cy="429.81" r="3.2" fill="#2ca02c" fill-opacity="0.75" />
<circle cx="564.49" cy="430.59" r="3.2" fill="#2ca02c" fill-opacity="0.75" />
<circle cx="579.80" cy="431.51" r="3.2" fill="#2ca02c" fill-opacity="0.75" />
<circle cx="595.10" cy="432.20" r="3.2" fill="#2ca02c" fill-opacity="0.75" />
<circle cx="610.41" cy="432.41" r="3.2" fill="#2ca02c" fill-opacity="0.75" />
<circle cx="625.71" cy="432.52" r="3.2" fill="#2ca02c" fill-opacity="0.75" />
<circle cx="641.02" cy="432.90" r="3.2" fill="#2ca02c" fill-opacity="0.75" />
<circle cx="656.33" cy="434.18" r="3.2" fill="#2ca02c" fill-opacity="0.75" />
<circle cx="671.63" cy="434.82" r="3.2" fill="#2ca02c" fill-opacity="0.75" />
<circle cx="686.94" cy="435.73" r="3.2" fill="#2ca02c" fill-opacity="0.75" />
<circle cx="702.24" cy="435.45" r="3.2" fill="#2ca02c" fill-opacity="0.75" />
<circle cx="717.55" cy="433.65" r="3.2" fill="#2ca02c" fill-opacity="0.75" />
<circle cx="732.86" cy="433.55" r="3.2" fill="#2ca02c" fill-opacity="0.75" />
<circle cx="748.16" cy="432.83" r="3.2" fill="#2ca02c" fill-opacity="0.75" />
<circle cx="763.47" cy="432.99" r="3.2" fill="#2ca02c" fill-opacity="0.75" />
<circle cx="778.78" cy="432.39" r="3.2" fill="#2ca02c" fill-opacity="0.75" />
<circle cx="794.08" cy="432.80" r="3.2" fill="#2ca02c" fill-opacity="0.75" />
<circle cx="809.39" cy="432.75" r="3.2" fill="#2ca02c" fill-opacity="0.75" />
<circle cx="824.69" cy="433.41" r="3.2" fill="#2ca02c" fill-opacity="0.75" />
<circle cx="840.00" cy="433.38" r="3.2" fill="#2ca02c" fill-opacity="0.75" />
<line x1="864" y1="160" x2="882" y2="160" stroke="#2ca02c" stroke-width="2.4" />
<circle cx="873" cy="160" r="3.2" fill="#2ca02c" />
<text x="892" y="164" font-size="13" font-family="Arial, sans-serif">Targeted drone-to-truck</text>
<polyline points="90.00,507.59 105.31,505.97 120.61,502.48 135.92,500.55 151.22,499.72 166.53,494.62 181.84,492.27 197.14,488.78 212.45,479.66 227.76,474.93 243.06,472.09 258.37,468.03 273.67,465.91 288.98,463.53 304.29,461.04 319.59,459.81 334.90,453.14 350.20,443.14 365.51,438.26 380.82,422.64 396.12,414.77 411.43,411.61 426.73,407.73 442.04,405.86 457.35,405.09 472.65,402.31 487.96,400.55 503.27,401.37 518.57,401.68 533.88,401.65 549.18,402.08 564.49,401.77 579.80,402.22 595.10,401.07 610.41,401.29 625.71,401.49 641.02,402.25 656.33,401.89 671.63,401.18 686.94,402.19 702.24,404.05 717.55,404.39 732.86,401.83 748.16,401.30 763.47,401.95 778.78,401.81 794.08,401.89 809.39,404.42 824.69,404.59 840.00,404.23" fill="none" stroke="#ff7f0e" stroke-width="2.4" />
<circle cx="90.00" cy="507.59" r="3.2" fill="#ff7f0e" fill-opacity="0.75" />
<circle cx="105.31" cy="505.97" r="3.2" fill="#ff7f0e" fill-opacity="0.75" />
<circle cx="120.61" cy="502.48" r="3.2" fill="#ff7f0e" fill-opacity="0.75" />
<circle cx="135.92" cy="500.55" r="3.2" fill="#ff7f0e" fill-opacity="0.75" />
<circle cx="151.22" cy="499.72" r="3.2" fill="#ff7f0e" fill-opacity="0.75" />
<circle cx="166.53" cy="494.62" r="3.2" fill="#ff7f0e" fill-opacity="0.75" />
<circle cx="181.84" cy="492.27" r="3.2" fill="#ff7f0e" fill-opacity="0.75" />
<circle cx="197.14" cy="488.78" r="3.2" fill="#ff7f0e" fill-opacity="0.75" />
<circle cx="212.45" cy="479.66" r="3.2" fill="#ff7f0e" fill-opacity="0.75" />
<circle cx="227.76" cy="474.93" r="3.2" fill="#ff7f0e" fill-opacity="0.75" />
<circle cx="243.06" cy="472.09" r="3.2" fill="#ff7f0e" fill-opacity="0.75" />
<circle cx="258.37" cy="468.03" r="3.2" fill="#ff7f0e" fill-opacity="0.75" />
<circle cx="273.67" cy="465.91" r="3.2" fill="#ff7f0e" fill-opacity="0.75" />
<circle cx="288.98" cy="463.53" r="3.2" fill="#ff7f0e" fill-opacity="0.75" />
<circle cx="304.29" cy="461.04" r="3.2" fill="#ff7f0e" fill-opacity="0.75" />
<circle cx="319.59" cy="459.81" r="3.2" fill="#ff7f0e" fill-opacity="0.75" />
<circle cx="334.90" cy="453.14" r="3.2" fill="#ff7f0e" fill-opacity="0.75" />
<circle cx="350.20" cy="443.14" r="3.2" fill="#ff7f0e" fill-opacity="0.75" />
<circle cx="365.51" cy="438.26" r="3.2" fill="#ff7f0e" fill-opacity="0.75" />
<circle cx="380.82" cy="422.64" r="3.2" fill="#ff7f0e" fill-opacity="0.75" />
<circle cx="396.12" cy="414.77" r="3.2" fill="#ff7f0e" fill-opacity="0.75" />
<circle cx="411.43" cy="411.61" r="3.2" fill="#ff7f0e" fill-opacity="0.75" />
<circle cx="426.73" cy="407.73" r="3.2" fill="#ff7f0e" fill-opacity="0.75" />
<circle cx="442.04" cy="405.86" r="3.2" fill="#ff7f0e" fill-opacity="0.75" />
<circle cx="457.35" cy="405.09" r="3.2" fill="#ff7f0e" fill-opacity="0.75" />
<circle cx="472.65" cy="402.31" r="3.2" fill="#ff7f0e" fill-opacity="0.75" />
<circle cx="487.96" cy="400.55" r="3.2" fill="#ff7f0e" fill-opacity="0.75" />
<circle cx="503.27" cy="401.37" r="3.2" fill="#ff7f0e" fill-opacity="0.75" />
<circle cx="518.57" cy="401.68" r="3.2" fill="#ff7f0e" fill-opacity="0.75" />
<circle cx="533.88" cy="401.65" r="3.2" fill="#ff7f0e" fill-opacity="0.75" />
<circle cx="549.18" cy="402.08" r="3.2" fill="#ff7f0e" fill-opacity="0.75" />
<circle cx="564.49" cy="401.77" r="3.2" fill="#ff7f0e" fill-opacity="0.75" />
<circle cx="579.80" cy="402.22" r="3.2" fill="#ff7f0e" fill-opacity="0.75" />
<circle cx="595.10" cy="401.07" r="3.2" fill="#ff7f0e" fill-opacity="0.75" />
<circle cx="610.41" cy="401.29" r="3.2" fill="#ff7f0e" fill-opacity="0.75" />
<circle cx="625.71" cy="401.49" r="3.2" fill="#ff7f0e" fill-opacity="0.75" />
<circle cx="641.02" cy="402.25" r="3.2" fill="#ff7f0e" fill-opacity="0.75" />
<circle cx="656.33" cy="401.89" r="3.2" fill="#ff7f0e" fill-opacity="0.75" />
<circle cx="671.63" cy="401.18" r="3.2" fill="#ff7f0e" fill-opacity="0.75" />
<circle cx="686.94" cy="402.19" r="3.2" fill="#ff7f0e" fill-opacity="0.75" />
<circle cx="702.24" cy="404.05" r="3.2" fill="#ff7f0e" fill-opacity="0.75" />
<circle cx="717.55" cy="404.39" r="3.2" fill="#ff7f0e" fill-opacity="0.75" />
<circle cx="732.86" cy="401.83" r="3.2" fill="#ff7f0e" fill-opacity="0.75" />
<circle cx="748.16" cy="401.30" r="3.2" fill="#ff7f0e" fill-opacity="0.75" />
<circle cx="763.47" cy="401.95" r="3.2" fill="#ff7f0e" fill-opacity="0.75" />
<circle cx="778.78" cy="401.81" r="3.2" fill="#ff7f0e" fill-opacity="0.75" />
<circle cx="794.08" cy="401.89" r="3.2" fill="#ff7f0e" fill-opacity="0.75" />
<circle cx="809.39" cy="404.42" r="3.2" fill="#ff7f0e" fill-opacity="0.75" />
<circle cx="824.69" cy="404.59" r="3.2" fill="#ff7f0e" fill-opacity="0.75" />
<circle cx="840.00" cy="404.23" r="3.2" fill="#ff7f0e" fill-opacity="0.75" />
<line x1="864" y1="184" x2="882" y2="184" stroke="#ff7f0e" stroke-width="2.4" />
<circle cx="873" cy="184" r="3.2" fill="#ff7f0e" />
<text x="892" y="188" font-size="13" font-family="Arial, sans-serif">Drone rendezvous shift first improvement</text>
</svg>
