<svg xmlns="http://www.w3.org/2000/svg" width="1100" height="620" viewBox="0 0 1100 620">
<title>R_50_statistics Operator Weights</title>
<rect x="0" y="0" width="1100" height="620" fill="white" />
<text x="550.0" y="34" text-anchor="middle" font-size="24" font-family="Arial, sans-serif">R_50_statistics Operator Weights</text>
<line x1="90" y1="540.00" x2="840" y2="540.00" stroke="#dddddd" stroke-width="1" />
<text x="80" y="544.00" text-anchor="end" font-size="12" font-family="Arial, sans-serif">0.03</text>
<line x1="90" y1="446.00" x2="840" y2="446.00" stroke="#dddddd" stroke-width="1" />
<text x="80" y="450.00" text-anchor="end" font-size="12" font-family="Arial, sans-serif">0.18</text>
<line x1="90" y1="352.00" x2="840" y2="352.00" stroke="#dddddd" stroke-width="1" />
<text x="80" y="356.00" text-anchor="end" font-size="12" font-family="Arial, sans-serif">0.34</text>
<line x1="90" y1="258.00" x2="840" y2="258.00" stroke="#dddddd" stroke-width="1" />
<text x="80" y="262.00" text-anchor="end" font-size="12" font-family="Arial, sans-serif">0.49</text>
<line x1="90" y1="164.00" x2="840" y2="164.00" stroke="#dddddd" stroke-width="1" />
<text x="80" y="168.00" text-anchor="end" font-size="12" font-family="Arial, sans-serif">0.64</text>
<line x1="90" y1="70.00" x2="840" y2="70.00" stroke="#dddddd" stroke-width="1" />
<text x="80" y="74.00" text-anchor="end" font-size="12" font-family="Arial, sans-serif">0.80</text>
<line x1="90.00" y1="70" x2="90.00" y2="540" stroke="#f0f0f0" stroke-width="1" />
<text x="90.00" y="564" text-anchor="middle" font-size="12" font-family="Arial, sans-serif">1</text>
<line x1="240.00" y1="70" x2="240.00" y2="540" stroke="#f0f0f0" stroke-width="1" />
<text x="240.00" y="564" text-anchor="middle" font-size="12" font-family="Arial, sans-serif">10.8</text>
<line x1="390.00" y1="70" x2="390.00" y2="540" stroke="#f0f0f0" stroke-width="1" />
<text x="390.00" y="564" text-anchor="middle" font-size="12" font-family="Arial, sans-serif">20.6</text>
<line x1="540.00" y1="70" x2="540.00" y2="540" stroke="#f0f0f0" stroke-width="1" />
<text x="540.00" y="564" text-anchor="middle" font-size="12" font-family="Arial, sans-serif">30.4</text>
<line x1="690.00" y1="70" x2="690.00" y2="540" stroke="#f0f0f0" stroke-width="1" />
<text x="690.00" y="564" text-anchor="middle" font-size="12" font-family="Arial, sans-serif">40.2</text>
<line x1="840.00" y1="70" x2="840.00" y2="540" stroke="#f0f0f0" stroke-width="1" />
<text x="840.00" y="564" text-anchor="middle" font-size="12" font-family="Arial, sans-serif">50</text>
<rect x="90" y="70" width="750" height="470" fill="none" stroke="#333333" stroke-width="1.5" />
<text x="465.0" y="600" text-anchor="middle" font-size="15" font-family="Arial, sans-serif">Segment</text>
<text x="24" y="305.0" text-anchor="middle" font-size="15" font-family="Arial, sans-serif" transform="rotate(-90 24 305.0)">Weight</text>
<polyline points="90.00,226.78 105.31,253.56 120.61,251.56 135.92,247.07 151.22,242.13 166.53,233.50 181.84,234.26 197.14,226.99 212.45,223.14 227.76,220.50 243.06,213.79 258.37,211.56 273.67,212.33 288.98,211.04 304.29,205.56 319.59,201.39 334.90,194.75 350.20,183.57 365.51,179.34 380.82,174.34 396.12,170.42 411.43,166.68 426.73,163.35 442.04,158.82 457.35,156.38 472.65,152.68 487.96,148.11 503.27,146.49 518.57,146.97 533.88,147.45 549.18,154.06 564.49,148.60 579.80,143.64 595.10,145.68 610.41,149.98 625.71,143.39 641.02,140.99 656.33,138.94 671.63,140.37 686.94,141.51 702.24,140.26 717.55,136.76 732.86,133.06 748.16,130.80 763.47,126.93 778.78,122.17 794.08,114.33 809.39,111.08 824.69,120.45 840.00,124.19" fill="none" stroke="#111111" stroke-width="2.4" />
<circle cx="90.00" cy="226.78" r="3.2" fill="#111111" fill-opacity="0.75" />
<circle cx="105.31" cy="253.56" r="3.2" fill="#111111" fill-opacity="0.75" />
<circle cx="120.61" cy="251.56" r="3.2" fill="#111111" fill-opacity="0.75" />
<circle cx="135.92" cy="247.07" r="3.2" fill="#111111" fill-opacity="0.75" />
<circle cx="151.22" cy="242.13" r="3.2" fill="#111111" fill-opacity="0.75" />
<circle cx="166.53" cy="233.50" r="3.2" fill="#111111" fill-opacity="0.75" />
<circle cx="181.84" cy="234.26" r="3.2" fill="#111111" fill-opacity="0.75" />
<circle cx="197.14" cy="226.99" r="3.2" fill="#111111" fill-opacity="0.75" />
<circle cx="212.45" cy="223.14" r="3.2" fill="#111111" fill-opacity="0.75" />
<circle cx="227.76" cy="220.50" r="3.2" fill="#111111" fill-opacity="0.75" />
<circle cx="243.06" cy="213.79" r="3.2" fill="#111111" fill-opacity="0.75" />
<circle cx="258.37" cy="211.56" r="3.2" fill="#111111" fill-opacity="0.75" />
<circle cx="273.67" cy="212.33" r="3.2" fill="#111111" fill-opacity="0.75" />
<circle cx="288.98" cy="211.04" r="3.2" fill="#111111" fill-opacity="0.75" />
<circle cx="304.29" cy="205.56" r="3.2" fill="#111111" fill-opacity="0.75" />
<circle cx="319.59" cy="201.39" r="3.2" fill="#111111" fill-opacity="0.75" />
<circle cx="334.90" cy="194.75" r="3.2" fill="#111111" fill-opacity="0.75" />
<circle cx="350.20" cy="183.57" r="3.2" fill="#111111" fill-opacity="0.75" />
<circle cx="365.51" cy="179.34" r="3.2" fill="#111111" fill-opacity="0.75" />
<circle cx="380.82" cy="174.34" r="3.2" fill="#111111" fill-opacity="0.75" />
<circle cx="396.12" cy="170.42" r="3.2" fill="#111111" fill-opacity="0.75" />
<circle cx="411.43" cy="166.68" r="3.2" fill="#111111" fill-opacity="0.75" />
<circle cx="426.73" cy="163.35" r="3.2" fill="#111111" fill-opacity="0.75" />
<circle cx="442.04" cy="158.82" r="3.2" fill="#111111" fill-opacity="0.75" />
<circle cx="457.35" cy="156.38" r="3.2" fill="#111111" fill-opacity="0.75" />
<circle cx="472.65" cy="152.68" r="3.2" fill="#111111" fill-opacity="0.75" />
<circle cx="487.96" cy="148.11" r="3.2" fill="#111111" fill-opacity="0.75" />
<circle cx="503.27" cy="146.49" r="3.2" fill="#111111" fill-opacity="0.75" />
<circle cx="518.57" cy="146.97" r="3.2" fill="#111111" fill-opacity="0.75" />
<circle cx="533.88" cy="147.45" r="3.2" fill="#111111" fill-opacity="0.75" />
<circle cx="549.18" cy="154.06" r="3.2" fill="#111111" fill-opacity="0.75" />
<circle cx="564.49" cy="148.60" r="3.2" fill="#111111" fill-opacity="0.75" />
<circle cx="579.80" cy="143.64" r="3.2" fill="#111111" fill-opacity="0.75" />
<circle cx="595.10" cy="145.68" r="3.2" fill="#111111" fill-opacity="0.75" />
<circle cx="610.41" cy="149.98" r="3.2" fill="#111111" fill-opacity="0.75" />
<circle cx="625.71" cy="143.39" r="3.2" fill="#111111" fill-opacity="0.75" />
<circle cx="641.02" cy="140.99" r="3.2" fill="#111111" fill-opacity="0.75" />
<circle cx="656.33" cy="138.94" r="3.2" fill="#111111" fill-opacity="0.75" />
<circle cx="671.63" cy="140.37" r="3.2" fill="#111111" fill-opacity="0.75" />
<circle cx="686.94" cy="141.51" r="3.2" fill="#111111" fill-opacity="0.75" />
<circle cx="702.24" cy="140.26" r="3.2" fill="#111111" fill-opacity="0.75" />
<circle cx="717.55" cy="136.76" r="3.2" fill="#111111" fill-opacity="0.75" />
<circle cx="732.86" cy="133.06" r="3.2" fill="#111111" fill-opacity="0.75" />
<circle cx="748.16" cy="130.80" r="3.2" fill="#111111" fill-opacity="0.75" />
<circle cx="763.47" cy="126.93" r="3.2" fill="#111111" fill-opacity="0.75" />
<circle cx="778.78" cy="122.17" r="3.2" fill="#111111" fill-opacity="0.75" />
<circle cx="794.08" cy="114.33" r="3.2" fill="#111111" fill-opacity="0.75" />
<circle cx="809.39" cy="111.08" r="3.2" fill="#111111" fill-opacity="0.75" />
<circle cx="824.69" cy="120.45" r="3.2" fill="#111111" fill-opacity="0.75" />
<circle cx="840.00" cy="124.19" r="3.2" fill="#111111" fill-opacity="0.75" />
<line x1="864" y1="88" x2="882" y2="88" stroke="#111111" stroke-width="2.4" />
<circle cx="873" cy="88" r="3.2" fill="#111111" />
<text x="892" y="92" font-size="13" font-family="Arial, sans-serif">NN-Reassign</text>
<polyline points="90.00,102.41 105.31,103.26 120.61,122.76 135.92,124.02 151.22,123.24 166.53,129.76 181.84,138.55 197.14,151.84 212.45,158.40 227.76,162.17 243.06,165.79 258.37,172.86 273.67,180.49 288.98,176.81 304.29,181.50 319.59,185.94 334.90,186.72 350.20,189.87 365.51,192.93 380.82,196.51 396.12,201.35 411.43,204.33 426.73,205.55 442.04,209.25 457.35,211.68 472.65,210.59 487.96,211.54 503.27,204.81 518.57,198.53 533.88,198.10 549.18,203.04 564.49,206.89 579.80,204.70 595.10,201.15 610.41,204.12 625.71,202.98 641.02,206.95 656.33,210.49 671.63,212.57 686.94,218.08 702.24,210.83 717.55,212.36 732.86,210.95 748.16,213.02 763.47,214.53 778.78,215.70 794.08,212.85 809.39,213.86 824.69,214.88 840.00,205.72" fill="none" stroke="#1f77b4" stroke-width="2.4" />
<circle cx="90.00" cy="102.41" r="3.2" fill="#1f77b4" fill-opacity="0.75" />
<circle cx="105.31" cy="103.26" r="3.2" fill="#1f77b4" fill-opacity="0.75" />
<circle cx="120.61" cy="122.76" r="3.2" fill="#1f77b4" fill-opacity="0.75" />
<circle cx="135.92" cy="124.02" r="3.2" fill="#1f77b4" fill-opacity="0.75" />
<circle cx="151.22" cy="123.24" r="3.2" fill="#1f77b4" fill-opacity="0.75" />
<circle cx="166.53" cy="129.76" r="3.2" fill="#1f77b4" fill-opacity="0.75" />
<circle cx="181.84" cy="138.55" r="3.2" fill="#1f77b4" fill-opacity="0.75" />
<circle cx="197.14" cy="151.84" r="3.2" fill="#1f77b4" fill-opacity="0.75" />
<circle cx="212.45" cy="158.40" r="3.2" fill="#1f77b4" fill-opacity="0.75" />
<circle cx="227.76" cy="162.17" r="3.2" fill="#1f77b4" fill-opacity="0.75" />
<circle cx="243.06" cy="165.79" r="3.2" fill="#1f77b4" fill-opacity="0.75" />
<circle cx="258.37" cy="172.86" r="3.2" fill="#1f77b4" fill-opacity="0.75" />
<circle cx="273.67" cy="180.49" r="3.2" fill="#1f77b4" fill-opacity="0.75" />
<circle cx="288.98" cy="176.81" r="3.2" fill="#1f77b4" fill-opacity="0.75" />
<circle cx="304.29" cy="181.50" r="3.2" fill="#1f77b4" fill-opacity="0.75" />
<circle cx="319.59" cy="185.94" r="3.2" fill="#1f77b4" fill-opacity="0.75" />
<circle cx="334.90" cy="186.72" r="3.2" fill="#1f77b4" fill-opacity="0.75" />
<circle cx="350.20" cy="189.87" r="3.2" fill="#1f77b4" fill-opacity="0.75" />
<circle cx="365.51" cy="192.93" r="3.2" fill="#1f77b4" fill-opacity="0.75" />
<circle cx="380.82" cy="196.51" r="3.2" fill="#1f77b4" fill-opacity="0.75" />
<circle cx="396.12" cy="201.35" r="3.2" fill="#1f77b4" fill-opacity="0.75" />
<circle cx="411.43" cy="204.33" r="3.2" fill="#1f77b4" fill-opacity="0.75" />
<circle cx="426.73" cy="205.55" r="3.2" fill="#1f77b4" fill-opacity="0.75" />
<circle cx="442.04" cy="209.25" r="3.2" fill="#1f77b4" fill-opacity="0.75" />
<circle cx="457.35" cy="211.68" r="3.2" fill="#1f77b4" fill-opacity="0.75" />
<circle cx="472.65" cy="210.59" r="3.2" fill="#1f77b4" fill-opacity="0.75" />
<circle cx="487.96" cy="211.54" r="3.2" fill="#1f77b4" fill-opacity="0.75" />
<circle cx="503.27" cy="204.81" r="3.2" fill="#1f77b4" fill-opacity="0.75" />
<circle cx="518.57" cy="198.53" r="3.2" fill="#1f77b4" fill-opacity="0.75" />
<circle cx="533.88" cy="198.10" r="3.2" fill="#1f77b4" fill-opacity="0.75" />
<circle cx="549.18" cy="203.04" r="3.2" fill="#1f77b4" fill-opacity="0.75" />
<circle cx="564.49" cy="206.89" r="3.2" fill="#1f77b4" fill-opacity="0.75" />
<circle cx="579.80" cy="204.70" r="3.2" fill="#1f77b4" fill-opacity="0.75" />
<circle cx="595.10" cy="201.15" r="3.2" fill="#1f77b4" fill-opacity="0.75" />
<circle cx="610.41" cy="204.12" r="3.2" fill="#1f77b4" fill-opacity="0.75" />
<circle cx="625.71" cy="202.98" r="3.2" fill="#1f77b4" fill-opacity="0.75" />
<circle cx="641.02" cy="206.95" r="3.2" fill="#1f77b4" fill-opacity="0.75" />
<circle cx="656.33" cy="210.49" r="3.2" fill="#1f77b4" fill-opacity="0.75" />
<circle cx="671.63" cy="212.57" r="3.2" fill="#1f77b4" fill-opacity="0.75" />
<circle cx="686.94" cy="218.08" r="3.2" fill="#1f77b4" fill-opacity="0.75" />
<circle cx="702.24" cy="210.83" r="3.2" fill="#1f77b4" fill-opacity="0.75" />
<circle cx="717.55" cy="212.36" r="3.2" fill="#1f77b4" fill-opacity="0.75" />
<circle cx="732.86" cy="210.95" r="3.2" fill="#1f77b4" fill-opacity="0.75" />
<circle cx="748.16" cy="213.02" r="3.2" fill="#1f77b4" fill-opacity="0.75" />
<circle cx="763.47" cy="214.53" r="3.2" fill="#1f77b4" fill-opacity="0.75" />
<circle cx="778.78" cy="215.70" r="3.2" fill="#1f77b4" fill-opacity="0.75" />
<circle cx="794.08" cy="212.85" r="3.2" fill="#1f77b4" fill-opacity="0.75" />
<circle cx="809.39" cy="213.86" r="3.2" fill="#1f77b4" fill-opacity="0.75" />
<circle cx="824.69" cy="214.88" r="3.2" fill="#1f77b4" fill-opacity="0.75" />
<circle cx="840.00" cy="205.72" r="3.2" fill="#1f77b4" fill-opacity="0.75" />
<line x1="864" y1="112" x2="882" y2="112" stroke="#1f77b4" stroke-width="2.4" />
<circle cx="873" cy="112" r="3.2" fill="#1f77b4" />
<text x="892" y="116" font-size="13" font-family="Arial, sans-serif">Two-Opt Arrival Screened</text>
<polyline points="90.00,114.39 105.31,121.67 120.61,104.89 135.92,112.14 151.22,122.04 166.53,127.71 181.84,127.77 197.14,137.34 212.45,147.25 227.76,148.70 243.06,160.61 258.37,160.03 273.67,162.53 288.98,168.98 304.29,177.74 319.59,181.95 334.90,190.52 350.20,199.83 365.51,206.44 380.82,209.86 396.12,215.62 411.43,219.96 426.73,226.88 442.04,230.74 457.35,233.41 472.65,236.12 487.96,240.04 503.27,245.39 518.57,249.86 533.88,250.23 549.18,239.39 564.49,241.63 579.80,247.45 595.10,245.57 610.41,243.79 625.71,249.30 641.02,247.08 656.33,243.59 671.63,239.44 686.94,234.07 702.24,238.58 717.55,241.03 732.86,245.13 748.16,245.81 763.47,247.53 778.78,251.14 794.08,258.82 809.39,261.43 824.69,255.23 840.00,257.59" fill="none" stroke="#d62728" stroke-width="2.4" />
<circle cx="90.00" cy="114.39" r="3.2" fill="#d62728" fill-opacity="0.75" />
<circle cx="105.31" cy="121.67" r="3.2" fill="#d62728" fill-opacity="0.75" />
<circle cx="120.61" cy="104.89" r="3.2" fill="#d62728" fill-opacity="0.75" />
<circle cx="135.92" cy="112.14" r="3.2" fill="#d62728" fill-opacity="0.75" />
<circle cx="151.22" cy="122.04" r="3.2" fill="#d62728" fill-opacity="0.75" />
<circle cx="166.53" cy="127.71" r="3.2" fill="#d62728" fill-opacity="0.75" />
<circle cx="181.84" cy="127.77" r="3.2" fill="#d62728" fill-opacity="0.75" />
<circle cx="197.14" cy="137.34" r="3.2" fill="#d62728" fill-opacity="0.75" />
<circle cx="212.45" cy="147.25" r="3.2" fill="#d62728" fill-opacity="0.75" />
<circle cx="227.76" cy="148.70" r="3.2" fill="#d62728" fill-opacity="0.75" />
<circle cx="243.06" cy="160.61" r="3.2" fill="#d62728" fill-opacity="0.75" />
<circle cx="258.37" cy="160.03" r="3.2" fill="#d62728" fill-opacity="0.75" />
<circle cx="273.67" cy="162.53" r="3.2" fill="#d62728" fill-opacity="0.75" />
<circle cx="288.98" cy="168.98" r="3.2" fill="#d62728" fill-opacity="0.75" />
<circle cx="304.29" cy="177.74" r="3.2" fill="#d62728" fill-opacity="0.75" />
<circle cx="319.59" cy="181.95" r="3.2" fill="#d62728" fill-opacity="0.75" />
<circle cx="334.90" cy="190.52" r="3.2" fill="#d62728" fill-opacity="0.75" />
<circle cx="350.20" cy="199.83" r="3.2" fill="#d62728" fill-opacity="0.75" />
<circle cx="365.51" cy="206.44" r="3.2" fill="#d62728" fill-opacity="0.75" />
<circle cx="380.82" cy="209.86" r="3.2" fill="#d62728" fill-opacity="0.75" />
<circle cx="396.12" cy="215.62" r="3.2" fill="#d62728" fill-opacity="0.75" />
<circle cx="411.43" cy="219.96" r="3.2" fill="#d62728" fill-opacity="0.75" />
<circle cx="426.73" cy="226.88" r="3.2" fill="#d62728" fill-opacity="0.75" />
<circle cx="442.04" cy="230.74" r="3.2" fill="#d62728" fill-opacity="0.75" />
<circle cx="457.35" cy="233.41" r="3.2" fill="#d62728" fill-opacity="0.75" />
<circle cx="472.65" cy="236.12" r="3.2" fill="#d62728" fill-opacity="0.75" />
<circle cx="487.96" cy="240.04" r="3.2" fill="#d62728" fill-opacity="0.75" />
<circle cx="503.27" cy="245.39" r="3.2" fill="#d62728" fill-opacity="0.75" />
<circle cx="518.57" cy="249.86" r="3.2" fill="#d62728" fill-opacity="0.75" />
<circle cx="533.88" cy="250.23" r="3.2" fill="#d62728" fill-opacity="0.75" />
<circle cx="549.18" cy="239.39" r="3.2" fill="#d62728" fill-opacity="0.75" />
<circle cx="564.49" cy="241.63" r="3.2" fill="#d62728" fill-opacity="0.75" />
<circle cx="579.80" cy="247.45" r="3.2" fill="#d62728" fill-opacity="0.75" />
<circle cx="595.10" cy="245.57" r="3.2" fill="#d62728" fill-opacity="0.75" />
<circle cx="610.41" cy="243.79" r="3.2" fill="#d62728" fill-opacity="0.75" />
<circle cx="625.71" cy="249.30" r="3.2" fill="#d62728" fill-opacity="0.75" />
<circle cx="641.02" cy="247.08" r="3.2" fill="#d62728" fill-opacity="0.75" />
<circle cx="656.33" cy="243.59" r="3.2" fill="#d62728" fill-opacity="0.75" />
<circle cx="671.63" cy="239.44" r="3.2" fill="#d62728" fill-opacity="0.75" />
<circle cx="686.94" cy="234.07" r="3.2" fill="#d62728" fill-opacity="0.75" />
<circle cx="702.24" cy="238.58" r="3.2" fill="#d62728" fill-opacity="0.75" />
<circle cx="717.55" cy="241.03" r="3.2" fill="#d62728" fill-opacity="0.75" />
<circle cx="732.86" cy="245.13" r="3.2" fill="#d62728" fill-opacity="0.75" />
<circle cx="748.16" cy="245.81" r="3.2" fill="#d62728" fill-opacity="0.75" />
<circle cx="763.47" cy="247.53" r="3.2" fill="#d62728" fill-opacity="0.75" />
<circle cx="778.78" cy="251.14" r="3.2" fill="#d62728" fill-opacity="0.75" />
<circle cx="794.08" cy="258.82" r="3.2" fill="#d62728" fill-opacity="0.75" />
<circle cx="809.39" cy="261.43" r="3.2" fill="#d62728" fill-opacity="0.75" />
<circle cx="824.69" cy="255.23" r="3.2" fill="#d62728" fill-opacity="0.75" />
<circle cx="840.00" cy="257.59" r="3.2" fill="#d62728" fill-opacity="0.75" />
<line x1="864" y1="136" x2="882" y2="136" stroke="#d62728" stroke-width="2.4" />
<circle cx="873" cy="136" r="3.2" fill="#d62728" />
<text x="892" y="140" font-size="13" font-family="Arial, sans-serif">Truck replacement greedy</text>
<polyline points="90.00,410.85 105.31,383.53 120.61,385.51 135.92,383.50 151.22,384.33 166.53,384.29 181.84,375.60 197.14,368.82 212.45,360.62 227.76,361.32 243.06,363.43 258.37,362.35 273.67,360.13 288.98,360.01 304.29,362.00 319.59,361.72 334.90,363.62 350.20,365.84 365.51,367.17 380.82,368.04 396.12,370.40 411.43,371.28 426.73,373.02 442.04,374.42 457.35,376.99 472.65,378.26 487.96,378.65 503.27,379.96 518.57,381.53 533.88,377.03 549.18,377.74 564.49,379.99 579.80,381.60 595.10,383.00 610.41,378.85 625.71,381.11 641.02,382.63 656.33,384.04 671.63,385.26 686.94,384.43 702.24,387.47 717.55,387.81 732.86,388.10 748.16,387.92 763.47,388.29 778.78,388.53 794.08,391.21 809.39,391.20 824.69,385.69 840.00,389.28" fill="none" stroke="#2ca02c" stroke-width="2.4" />
<circle cx="90.00" cy="410.85" r="3.2" fill="#2ca02c" fill-opacity="0.75" />
<circle cx="105.31" cy="383.53" r="3.2" fill="#2ca02c" fill-opacity="0.75" />
<circle cx="120.61" cy="385.51" r="3.2" fill="#2ca02c" fill-opacity="0.75" />
<circle cx="135.92" cy="383.50" r="3.2" fill="#2ca02c" fill-opacity="0.75" />
<circle cx="151.22" cy="384.33" r="3.2" fill="#2ca02c" fill-opacity="0.75" />
<circle cx="166.53" cy="384.29" r="3.2" fill="#2ca02c" fill-opacity="0.75" />
<circle cx="181.84" cy="375.60" r="3.2" fill="#2ca02c" fill-opacity="0.75" />
<circle cx="197.14" cy="368.82" r="3.2" fill="#2ca02c" fill-opacity="0.75" />
<circle cx="212.45" cy="360.62" r="3.2" fill="#2ca02c" fill-opacity="0.75" />
<circle cx="227.76" cy="361.32" r="3.2" fill="#2ca02c" fill-opacity="0.75" />
<circle cx="243.06" cy="363.43" r="3.2" fill="#2ca02c" fill-opacity="0.75" />
<circle cx="258.37" cy="362.35" r="3.2" fill="#2ca02c" fill-opacity="0.75" />
<circle cx="273.67" cy="360.13" r="3.2" fill="#2ca02c" fill-opacity="0.75" />
<circle cx="288.98" cy="360.01" r="3.2" fill="#2ca02c" fill-opacity="0.75" />
<circle cx="304.29" cy="362.00" r="3.2" fill="#2ca02c" fill-opacity="0.75" />
<circle cx="319.59" cy="361.72" r="3.2" fill="#2ca02c" fill-opacity="0.75" />
<circle cx="334.90" cy="363.62" r="3.2" fill="#2ca02c" fill-opacity="0.75" />
<circle cx="350.20" cy="365.84" r="3.2" fill="#2ca02c" fill-opacity="0.75" />
<circle cx="365.51" cy="367.17" r="3.2" fill="#2ca02c" fill-opacity="0.75" />
<circle cx="380.82" cy="368.04" r="3.2" fill="#2ca02c" fill-opacity="0.75" />
<circle cx="396.12" cy="370.40" r="3.2" fill="#2ca02c" fill-opacity="0.75" />
<circle cx="411.43" cy="371.28" r="3.2" fill="#2ca02c" fill-opacity="0.75" />
<circle cx="426.73" cy="373.02" r="3.2" fill="#2ca02c" fill-opacity="0.75" />
<circle cx="442.04" cy="374.42" r="3.2" fill="#2ca02c" fill-opacity="0.75" />
<circle cx="457.35" cy="376.99" r="3.2" fill="#2ca02c" fill-opacity="0.75" />
<circle cx="472.65" cy="378.26" r="3.2" fill="#2ca02c" fill-opacity="0.75" />
<circle cx="487.96" cy="378.65" r="3.2" fill="#2ca02c" fill-opacity="0.75" />
<circle cx="503.27" cy="379.96" r="3.2" fill="#2ca02c" fill-opacity="0.75" />
<circle cx="518.57" cy="381.53" r="3.2" fill="#2ca02c" fill-opacity="0.75" />
<circle cx="533.88" cy="377.03" r="3.2" fill="#2ca02c" fill-opacity="0.75" />
<circle cx="549.18" cy="377.74" r="3.2" fill="#2ca02c" fill-opacity="0.75" />
<circle cx="564.49" cy="379.99" r="3.2" fill="#2ca02c" fill-opacity="0.75" />
<circle cx="579.80" cy="381.60" r="3.2" fill="#2ca02c" fill-opacity="0.75" />
<circle cx="595.10" cy="383.00" r="3.2" fill="#2ca02c" fill-opacity="0.75" />
<circle cx="610.41" cy="378.85" r="3.2" fill="#2ca02c" fill-opacity="0.75" />
<circle cx="625.71" cy="381.11" r="3.2" fill="#2ca02c" fill-opacity="0.75" />
<circle cx="641.02" cy="382.63" r="3.2" fill="#2ca02c" fill-opacity="0.75" />
<circle cx="656.33" cy="384.04" r="3.2" fill="#2ca02c" fill-opacity="0.75" />
<circle cx="671.63" cy="385.26" r="3.2" fill="#2ca02c" fill-opacity="0.75" />
<circle cx="686.94" cy="384.43" r="3.2" fill="#2ca02c" fill-opacity="0.75" />
<circle cx="702.24" cy="387.47" r="3.2" fill="#2ca02c" fill-opacity="0.75" />
<circle cx="717.55" cy="387.81" r="3.2" fill="#2ca02c" fill-opacity="0.75" />
<circle cx="732.86" cy="388.10" r="3.2" fill="#2ca02c" fill-opacity="0.75" />
<circle cx="748.16" cy="387.92" r="3.2" fill="#2ca02c" fill-opacity="0.75" />
<circle cx="763.47" cy="388.29" r="3.2" fill="#2ca02c" fill-opacity="0.75" />
<circle cx="778.78" cy="388.53" r="3.2" fill="#2ca02c" fill-opacity="0.75" />
<circle cx="794.08" cy="391.21" r="3.2" fill="#2ca02c" fill-opacity="0.75" />
<circle cx="809.39" cy="391.20" r="3.2" fill="#2ca02c" fill-opacity="0.75" />
<circle cx="824.69" cy="385.69" r="3.2" fill="#2ca02c" fill-opacity="0.75" />
<circle cx="840.00" cy="389.28" r="3.2" fill="#2ca02c" fill-opacity="0.75" />
<line x1="864" y1="160" x2="882" y2="160" stroke="#2ca02c" stroke-width="2.4" />
<circle cx="873" cy="160" r="3.2" fill="#2ca02c" />
<text x="892" y="164" font-size="13" font-family="Arial, sans-serif">Targeted drone-to-truck</text>
<polyline points="90.00,507.59 105.31,500.00 120.61,497.30 135.92,495.29 151.22,490.28 166.53,486.76 181.84,485.85 197.14,477.02 212.45,472.61 227.76,469.33 243.06,458.40 258.37,455.22 273.67,446.53 288.98,445.19 304.29,435.23 319.59,431.02 334.90,426.41 350.20,422.90 365.51,416.14 380.82,413.26 396.12,404.23 411.43,399.77 426.73,393.22 442.04,388.78 457.35,383.56 472.65,384.36 487.96,383.67 503.27,385.37 518.57,385.13 533.88,389.20 549.18,387.78 564.49,384.91 579.80,384.63 595.10,386.62 610.41,385.28 625.71,385.24 641.02,384.37 656.33,384.96 671.63,384.38 686.94,383.93 702.24,384.89 717.55,384.05 732.86,384.79 748.16,384.47 763.47,384.74 778.78,384.48 794.08,384.81 809.39,384.45 824.69,385.77 840.00,385.23" fill="none" stroke="#ff7f0e" stroke-width="2.4" />
<circle cx="90.00" cy="507.59" r="3.2" fill="#ff7f0e" fill-opacity="0.75" />
<circle cx="105.31" cy="500.00" r="3.2" fill="#ff7f0e" fill-opacity="0.75" />
<circle cx="120.61" cy="497.30" r="3.2" fill="#ff7f0e" fill-opacity="0.75" />
<circle cx="135.92" cy="495.29" r="3.2" fill="#ff7f0e" fill-opacity="0.75" />
<circle cx="151.22" cy="490.28" r="3.2" fill="#ff7f0e" fill-opacity="0.75" />
<circle cx="166.53" cy="486.76" r="3.2" fill="#ff7f0e" fill-opacity="0.75" />
<circle cx="181.84" cy="485.85" r="3.2" fill="#ff7f0e" fill-opacity="0.75" />
<circle cx="197.14" cy="477.02" r="3.2" fill="#ff7f0e" fill-opacity="0.75" />
<circle cx="212.45" cy="472.61" r="3.2" fill="#ff7f0e" fill-opacity="0.75" />
<circle cx="227.76" cy="469.33" r="3.2" fill="#ff7f0e" fill-opacity="0.75" />
<circle cx="243.06" cy="458.40" r="3.2" fill="#ff7f0e" fill-opacity="0.75" />
<circle cx="258.37" cy="455.22" r="3.2" fill="#ff7f0e" fill-opacity="0.75" />
<circle cx="273.67" cy="446.53" r="3.2" fill="#ff7f0e" fill-opacity="0.75" />
<circle cx="288.98" cy="445.19" r="3.2" fill="#ff7f0e" fill-opacity="0.75" />
<circle cx="304.29" cy="435.23" r="3.2" fill="#ff7f0e" fill-opacity="0.75" />
<circle cx="319.59" cy="431.02" r="3.2" fill="#ff7f0e" fill-opacity="0.75" />
<circle cx="334.90" cy="426.41" r="3.2" fill="#ff7f0e" fill-opacity="0.75" />
<circle cx="350.20" cy="422.90" r="3.2" fill="#ff7f0e" fill-opacity="0.75" />
<circle cx="365.51" cy="416.14" r="3.2" fill="#ff7f0e" fill-opacity="0.75" />
<circle cx="380.82" cy="413.26" r="3.2" fill="#ff7f0e" fill-opacity="0.75" />
<circle cx="396.12" cy="404.23" r="3.2" fill="#ff7f0e" fill-opacity="0.75" />
<circle cx="411.43" cy="399.77" r="3.2" fill="#ff7f0e" fill-opacity="0.75" />
<circle cx="426.73" cy="393.22" r="3.2" fill="#ff7f0e" fill-opacity="0.75" />
<circle cx="442.04" cy="388.78" r="3.2" fill="#ff7f0e" fill-opacity="0.75" />
<circle cx="457.35" cy="383.56" r="3.2" fill="#ff7f0e" fill-opacity="0.75" />
<circle cx="472.65" cy="384.36" r="3.2" fill="#ff7f0e" fill-opacity="0.75" />
<circle cx="487.96" cy="383.67" r="3.2" fill="#ff7f0e" fill-opacity="0.75" />
<circle cx="503.27" cy="385.37" r="3.2" fill="#ff7f0e" fill-opacity="0.75" />
<circle cx="518.57" cy="385.13" r="3.2" fill="#ff7f0e" fill-opacity="0.75" />
<circle cx="533.88" cy="389.20" r="3.2" fill="#ff7f0e" fill-opacity="0.75" />
<circle cx="549.18" cy="387.78" r="3.2" fill="#ff7f0e" fill-opacity="0.75" />
<circle cx="564.49" cy="384.91" r="3.2" fill="#ff7f0e" fill-opacity="0.75" />
<circle cx="579.80" cy="384.63" r="3.2" fill="#ff7f0e" fill-opacity="0.75" />
<circle cx="595.10" cy="386.62" r="3.2" fill="#ff7f0e" fill-opacity="0.75" />
<circle cx="610.41" cy="385.28" r="3.2" fill="#ff7f0e" fill-opacity="0.75" />
<circle cx="625.71" cy="385.24" r="3.2" fill="#ff7f0e" fill-opacity="0.75" />
<circle cx="641.02" cy="384.37" r="3.2" fill="#ff7f0e" fill-opacity="0.75" />
<circle cx="656.33" cy="384.96" r="3.2" fill="#ff7f0e" fill-opacity="0.75" />
<circle cx="671.63" cy="384.38" r="3.2" fill="#ff7f0e" fill-opacity="0.75" />
<circle cx="686.94" cy="383.93" r="3.2" fill="#ff7f0e" fill-opacity="0.75" />
<circle cx="702.24" cy="384.89" r="3.2" fill="#ff7f0e" fill-opacity="0.75" />
<circle cx="717.55" cy="384.05" r="3.2" fill="#ff7f0e" fill-opacity="0.75" />
<circle cx="732.86" cy="384.79" r="3.2" fill="#ff7f0e" fill-opacity="0.75" />
<circle cx="748.16" cy="384.47" r="3.2" fill="#ff7f0e" fill-opacity="0.75" />
<circle cx="763.47" cy="384.74" r="3.2" fill="#ff7f0e" fill-opacity="0.75" />
<circle cx="778.78" cy="384.48" r="3.2" fill="#ff7f0e" fill-opacity="0.75" />
<circle cx="794.08" cy="384.81" r="3.2" fill="#ff7f0e" fill-opacity="0.75" />
<circle cx="809.39" cy="384.45" r="3.2" fill="#ff7f0e" fill-opacity="0.75" />
<circle cx="824.69" cy="385.77" r="3.2" fill="#ff7f0e" fill-opacity="0.75" />
<circle cx="840.00" cy="385.23" r="3.2" fill="#ff7f0e" fill-opacity="0.75" />
<line x1="864" y1="184" x2="882" y2="184" stroke="#ff7f0e" stroke-width="2.4" />
<circle cx="873" cy="184" r="3.2" fill="#ff7f0e" />
<text x="892" y="188" font-size="13" font-family="Arial, sans-serif">Drone rendezvous shift first improvement</text>
</svg>
